M48
; DRILL file {KiCad 8.0.1} date 2024-05-31T17:59:55+0200
; FORMAT={-:-/ absolute / metric / decimal}
; #@! TF.CreationDate,2024-05-31T17:59:55+02:00
; #@! TF.GenerationSoftware,Kicad,Pcbnew,8.0.1
; #@! TF.FileFunction,Plated,1,2,PTH
FMAT,2
METRIC
; #@! TA.AperFunction,Plated,PTH,ViaDrill
T1C0.300
; #@! TA.AperFunction,Plated,PTH,ViaDrill
T2C0.400
; #@! TA.AperFunction,Plated,PTH,ComponentDrill
T3C0.630
; #@! TA.AperFunction,Plated,PTH,ComponentDrill
T4C1.020
; #@! TA.AperFunction,Plated,PTH,ComponentDrill
T5C1.250
; #@! TA.AperFunction,Plated,PTH,ComponentDrill
T6C1.850
%
G90
G05
T1
X79.945Y-99.61
X79.945Y-104.61
X80.945Y-99.61
X80.945Y-104.61
X81.945Y-104.61
X82.945Y-103.61
X82.945Y-104.61
X83.945Y-104.61
X84.945Y-104.61
X85.945Y-104.61
X86.945Y-101.61
X87.945Y-101.61
X90.945Y-101.61
X90.945Y-102.61
X91.945Y-101.61
X91.945Y-102.61
X92.945Y-99.61
X92.945Y-102.61
X93.945Y-99.61
X93.945Y-100.61
X94.945Y-99.61
X94.945Y-100.61
X94.945Y-101.61
X95.945Y-99.61
X95.945Y-100.61
X95.945Y-101.61
X95.945Y-102.61
X96.945Y-99.61
X96.945Y-100.61
X97.945Y-99.61
X97.945Y-100.61
X98.945Y-99.61
X98.945Y-100.61
X99.945Y-99.61
X99.945Y-100.61
X99.945Y-101.61
X99.945Y-102.61
X100.945Y-99.61
X100.945Y-100.61
X100.945Y-101.61
X100.945Y-102.61
X101.945Y-99.61
X101.945Y-100.61
X101.945Y-101.61
X101.945Y-102.61
X102.945Y-99.61
X102.945Y-100.61
X102.945Y-101.61
X102.945Y-102.61
X105.945Y-100.61
X106.945Y-84.61
X106.945Y-85.61
X106.945Y-86.61
X106.945Y-87.61
X106.945Y-88.61
X106.945Y-89.61
X106.945Y-118.61
X106.945Y-119.61
X107.945Y-84.61
X107.945Y-88.61
X107.945Y-94.61
X107.945Y-102.61
X107.945Y-107.61
X107.945Y-108.61
X107.945Y-109.61
X107.945Y-110.61
X107.945Y-113.61
X107.945Y-114.61
X107.945Y-119.61
X107.945Y-120.61
X108.945Y-83.61
X108.945Y-84.61
X108.945Y-105.61
X108.945Y-107.61
X108.945Y-108.61
X108.945Y-109.61
X108.945Y-110.61
X108.945Y-113.61
X108.945Y-114.61
X108.945Y-115.61
X108.945Y-119.61
X108.945Y-120.61
X109.945Y-67.61
X109.945Y-68.61
X109.945Y-69.61
X109.945Y-70.61
X109.945Y-71.61
X109.945Y-72.61
X109.945Y-73.61
X109.945Y-74.61
X109.945Y-75.61
X109.945Y-107.61
X109.945Y-108.61
X109.945Y-109.61
X109.945Y-110.61
X109.945Y-115.61
X109.945Y-120.61
X109.945Y-121.61
X109.945Y-122.61
X109.945Y-123.61
X109.945Y-124.61
X109.945Y-125.61
X109.945Y-126.61
X109.945Y-127.61
X109.945Y-128.61
X109.945Y-129.61
X109.945Y-130.61
X109.945Y-131.61
X109.945Y-132.61
X109.945Y-133.61
X109.945Y-134.61
X109.945Y-135.61
X109.945Y-136.61
X110.945Y-66.61
X110.945Y-67.61
X110.945Y-68.61
X110.945Y-69.61
X110.945Y-70.61
X110.945Y-71.61
X110.945Y-72.61
X110.945Y-73.61
X110.945Y-74.61
X110.945Y-107.61
X110.945Y-108.61
X110.945Y-109.61
X110.945Y-110.61
X110.945Y-122.61
X110.945Y-123.61
X110.945Y-124.61
X110.945Y-125.61
X110.945Y-126.61
X110.945Y-127.61
X110.945Y-128.61
X110.945Y-129.61
X110.945Y-130.61
X110.945Y-131.61
X110.945Y-132.61
X110.945Y-137.61
X111.945Y-66.61
X111.945Y-67.61
X111.945Y-68.61
X111.945Y-69.61
X111.945Y-70.61
X111.945Y-71.61
X111.945Y-72.61
X111.945Y-73.61
X111.945Y-78.61
X111.945Y-79.61
X111.945Y-80.61
X111.945Y-81.61
X111.945Y-82.61
X111.945Y-83.61
X111.945Y-84.61
X111.945Y-90.61
X111.945Y-107.61
X111.945Y-108.61
X111.945Y-109.61
X111.945Y-110.61
X111.945Y-115.61
X111.945Y-116.61
X111.945Y-122.61
X111.945Y-123.61
X111.945Y-124.61
X111.945Y-125.61
X111.945Y-126.61
X111.945Y-127.61
X111.945Y-128.61
X111.945Y-129.61
X111.945Y-130.61
X111.945Y-131.61
X111.945Y-132.61
X112.945Y-66.61
X112.945Y-67.61
X112.945Y-71.61
X112.945Y-80.61
X112.945Y-81.61
X112.945Y-82.61
X112.945Y-83.61
X112.945Y-90.61
X112.945Y-107.61
X112.945Y-108.61
X112.945Y-109.61
X112.945Y-110.61
X112.945Y-115.61
X112.945Y-116.61
X112.945Y-117.61
X112.945Y-123.61
X112.945Y-124.61
X112.945Y-125.61
X112.945Y-126.61
X112.945Y-127.61
X112.945Y-128.61
X112.945Y-129.61
X112.945Y-130.61
X112.945Y-131.61
X112.945Y-132.61
X113.945Y-66.61
X113.945Y-71.61
X113.945Y-76.61
X113.945Y-81.61
X113.945Y-82.61
X113.945Y-87.61
X113.945Y-90.61
X113.945Y-96.61
X113.945Y-97.61
X113.945Y-107.61
X113.945Y-108.61
X113.945Y-109.61
X113.945Y-110.61
X113.945Y-115.61
X113.945Y-116.61
X113.945Y-117.61
X113.945Y-118.61
X113.945Y-123.61
X113.945Y-124.61
X113.945Y-125.61
X113.945Y-126.61
X113.945Y-127.61
X113.945Y-128.61
X113.945Y-129.61
X113.945Y-130.61
X113.945Y-131.61
X113.945Y-132.61
X113.945Y-137.61
X114.945Y-66.61
X114.945Y-71.61
X114.945Y-72.61
X114.945Y-76.61
X114.945Y-80.61
X114.945Y-81.61
X114.945Y-86.61
X114.945Y-87.61
X114.945Y-90.61
X114.945Y-97.61
X114.945Y-116.61
X114.945Y-117.61
X114.945Y-118.61
X114.945Y-119.61
X114.945Y-124.61
X114.945Y-125.61
X114.945Y-126.61
X114.945Y-127.61
X114.945Y-128.61
X114.945Y-129.61
X114.945Y-130.61
X114.945Y-131.61
X114.945Y-132.61
X114.945Y-133.61
X114.945Y-134.61
X114.945Y-135.61
X114.945Y-136.61
X114.945Y-137.61
X115.945Y-66.61
X115.945Y-69.61
X115.945Y-70.61
X115.945Y-71.61
X115.945Y-72.61
X115.945Y-73.61
X115.945Y-74.61
X115.945Y-75.61
X115.945Y-76.61
X115.945Y-77.61
X115.945Y-78.61
X115.945Y-79.61
X115.945Y-80.61
X115.945Y-85.61
X115.945Y-86.61
X115.945Y-87.61
X115.945Y-90.61
X115.945Y-93.61
X115.945Y-94.61
X115.945Y-117.61
X115.945Y-118.61
X115.945Y-119.61
X115.945Y-120.61
X115.945Y-125.61
X115.945Y-126.61
X115.945Y-127.61
X115.945Y-128.61
X115.945Y-129.61
X115.945Y-130.61
X115.945Y-131.61
X115.945Y-132.61
X115.945Y-133.61
X115.945Y-134.61
X115.945Y-135.61
X115.945Y-136.61
X115.945Y-137.61
X116.945Y-66.61
X116.945Y-69.61
X116.945Y-70.61
X116.945Y-71.61
X116.945Y-72.61
X116.945Y-77.61
X116.945Y-78.61
X116.945Y-79.61
X116.945Y-84.61
X116.945Y-85.61
X116.945Y-86.61
X116.945Y-87.61
X116.945Y-90.61
X116.945Y-94.61
X116.945Y-95.61
X116.945Y-108.61
X116.945Y-109.61
X116.945Y-118.61
X116.945Y-119.61
X116.945Y-120.61
X116.945Y-126.61
X116.945Y-127.61
X116.945Y-128.61
X116.945Y-129.61
X116.945Y-130.61
X116.945Y-131.61
X116.945Y-132.61
X116.945Y-133.61
X116.945Y-134.61
X116.945Y-135.61
X116.945Y-136.61
X116.945Y-137.61
X117.945Y-66.61
X117.945Y-69.61
X117.945Y-70.61
X117.945Y-71.61
X117.945Y-72.61
X117.945Y-77.61
X117.945Y-78.61
X117.945Y-79.61
X117.945Y-83.61
X117.945Y-84.61
X117.945Y-87.61
X117.945Y-90.61
X117.945Y-95.61
X117.945Y-109.61
X117.945Y-110.61
X117.945Y-113.61
X117.945Y-119.61
X117.945Y-120.61
X117.945Y-127.61
X117.945Y-128.61
X117.945Y-129.61
X117.945Y-130.61
X117.945Y-131.61
X117.945Y-132.61
X117.945Y-133.61
X117.945Y-134.61
X117.945Y-135.61
X117.945Y-136.61
X117.945Y-137.61
X118.945Y-66.61
X118.945Y-77.61
X118.945Y-78.61
X118.945Y-79.61
X118.945Y-82.61
X118.945Y-83.61
X118.945Y-84.61
X118.945Y-87.61
X118.945Y-90.61
X118.945Y-113.61
X118.945Y-114.61
X118.945Y-120.61
X118.945Y-123.61
X118.945Y-128.61
X118.945Y-129.61
X118.945Y-130.61
X118.945Y-131.61
X118.945Y-132.61
X118.945Y-133.61
X118.945Y-134.61
X118.945Y-135.61
X118.945Y-136.61
X118.945Y-137.61
X119.945Y-66.61
X119.945Y-77.61
X119.945Y-78.61
X119.945Y-79.61
X119.945Y-82.61
X119.945Y-87.61
X119.945Y-90.61
X119.945Y-93.61
X119.945Y-114.61
X119.945Y-115.61
X119.945Y-123.61
X119.945Y-124.61
X119.945Y-129.61
X119.945Y-130.61
X119.945Y-131.61
X119.945Y-132.61
X119.945Y-133.61
X119.945Y-134.61
X119.945Y-135.61
X119.945Y-136.61
X119.945Y-137.61
X120.945Y-66.61
X120.945Y-69.61
X120.945Y-70.61
X120.945Y-71.61
X120.945Y-72.61
X120.945Y-77.61
X120.945Y-78.61
X120.945Y-79.61
X120.945Y-86.61
X120.945Y-90.61
X120.945Y-93.61
X120.945Y-94.61
X120.945Y-115.61
X120.945Y-116.61
X120.945Y-123.61
X120.945Y-124.61
X120.945Y-125.61
X120.945Y-132.61
X120.945Y-133.61
X120.945Y-134.61
X120.945Y-135.61
X120.945Y-136.61
X120.945Y-137.61
X121.945Y-61.61
X121.945Y-62.61
X121.945Y-63.61
X121.945Y-64.61
X121.945Y-65.61
X121.945Y-66.61
X121.945Y-67.61
X121.945Y-68.61
X121.945Y-69.61
X121.945Y-70.61
X121.945Y-71.61
X121.945Y-72.61
X121.945Y-77.61
X121.945Y-78.61
X121.945Y-79.61
X121.945Y-85.61
X121.945Y-89.61
X121.945Y-90.61
X121.945Y-93.61
X121.945Y-94.61
X121.945Y-95.61
X121.945Y-116.61
X121.945Y-117.61
X121.945Y-136.61
X121.945Y-137.61
X121.945Y-138.61
X122.945Y-60.61
X122.945Y-64.61
X122.945Y-65.61
X122.945Y-66.61
X122.945Y-67.61
X122.945Y-68.61
X122.945Y-69.61
X122.945Y-70.61
X122.945Y-71.61
X122.945Y-72.61
X122.945Y-76.61
X122.945Y-77.61
X122.945Y-78.61
X122.945Y-83.61
X122.945Y-84.61
X122.945Y-88.61
X122.945Y-89.61
X122.945Y-90.61
X122.945Y-93.61
X122.945Y-94.61
X122.945Y-95.61
X122.945Y-108.61
X122.945Y-117.61
X122.945Y-118.61
X122.945Y-125.61
X122.945Y-126.61
X122.945Y-127.61
X122.945Y-132.61
X122.945Y-133.61
X122.945Y-137.61
X122.945Y-138.61
X123.945Y-59.61
X123.945Y-65.61
X123.945Y-66.61
X123.945Y-67.61
X123.945Y-68.61
X123.945Y-69.61
X123.945Y-70.61
X123.945Y-71.61
X123.945Y-72.61
X123.945Y-81.61
X123.945Y-83.61
X123.945Y-87.61
X123.945Y-88.61
X123.945Y-89.61
X123.945Y-93.61
X123.945Y-94.61
X123.945Y-138.61
X123.945Y-144.61
X124.945Y-59.61
X124.945Y-65.61
X124.945Y-66.61
X124.945Y-70.61
X124.945Y-71.61
X124.945Y-72.61
X124.945Y-80.61
X124.945Y-81.61
X124.945Y-82.61
X124.945Y-86.61
X124.945Y-87.61
X124.945Y-88.61
X124.945Y-92.61
X124.945Y-144.61
X125.945Y-65.61
X125.945Y-66.61
X125.945Y-79.61
X125.945Y-80.61
X125.945Y-81.61
X125.945Y-85.61
X125.945Y-86.61
X125.945Y-87.61
X125.945Y-91.61
X125.945Y-92.61
X125.945Y-129.61
X125.945Y-133.61
X125.945Y-144.61
X126.945Y-60.61
X126.945Y-61.61
X126.945Y-63.61
X126.945Y-64.61
X126.945Y-65.61
X126.945Y-66.61
X126.945Y-80.61
X126.945Y-84.61
X126.945Y-85.61
X126.945Y-86.61
X126.945Y-128.61
X126.945Y-129.61
X126.945Y-134.61
X126.945Y-143.61
X126.945Y-144.61
X127.945Y-62.61
X127.945Y-63.61
X127.945Y-64.61
X127.945Y-65.61
X127.945Y-70.61
X127.945Y-71.61
X127.945Y-72.61
X127.945Y-80.61
X127.945Y-83.61
X127.945Y-84.61
X127.945Y-85.61
X127.945Y-112.61
X127.945Y-144.61
X128.945Y-63.61
X128.945Y-64.61
X128.945Y-80.61
X128.945Y-83.61
X128.945Y-84.61
X128.945Y-111.61
X128.945Y-112.61
X128.945Y-144.61
X129.945Y-63.61
X129.945Y-67.61
X129.945Y-68.61
X129.945Y-102.61
X129.945Y-137.61
X129.945Y-138.61
X129.945Y-144.61
X130.945Y-63.61
X130.945Y-66.61
X130.945Y-67.61
X130.945Y-68.61
X130.945Y-71.61
X130.945Y-72.61
X130.945Y-75.61
X130.945Y-76.61
X130.945Y-77.61
X130.945Y-78.61
X130.945Y-79.61
X130.945Y-86.61
X130.945Y-87.61
X130.945Y-136.61
X130.945Y-137.61
X130.945Y-138.61
X130.945Y-144.61
X131.945Y-68.61
X131.945Y-75.61
X131.945Y-76.61
X131.945Y-135.61
X131.945Y-142.61
X131.945Y-143.61
X131.945Y-144.61
X132.945Y-68.61
X132.945Y-75.61
X132.945Y-76.61
X132.945Y-94.61
X132.945Y-121.61
X132.945Y-122.61
X132.945Y-138.61
X132.945Y-144.61
X133.945Y-68.61
X133.945Y-75.61
X133.945Y-76.61
X133.945Y-144.61
X134.945Y-68.61
X134.945Y-71.61
X134.945Y-72.61
X134.945Y-92.61
X134.945Y-112.61
X135.945Y-71.61
X135.945Y-72.61
X135.945Y-122.61
X135.945Y-139.61
X135.945Y-140.61
X136.945Y-70.61
X136.945Y-71.61
X136.945Y-72.61
X136.945Y-76.61
X136.945Y-81.61
X136.945Y-135.61
X137.945Y-106.61
X137.945Y-134.61
X137.945Y-135.61
X137.945Y-136.61
X138.945Y-67.61
X138.945Y-68.61
X138.945Y-81.61
X138.945Y-82.61
X138.945Y-83.61
X138.945Y-111.61
X138.945Y-133.61
X138.945Y-134.61
X138.945Y-135.61
X138.945Y-136.61
X138.945Y-137.61
X139.445Y-64.51
X139.945Y-68.61
X139.945Y-81.61
X139.945Y-82.61
X139.945Y-83.61
X139.945Y-84.61
X139.945Y-85.61
X139.945Y-86.61
X139.945Y-87.61
X139.945Y-132.61
X139.945Y-133.61
X139.945Y-134.61
X139.945Y-135.61
X139.945Y-136.61
X139.945Y-137.61
X139.945Y-138.61
X139.979Y-67.615
X140.005Y-66.726
X140.335Y-64.516
X140.945Y-68.61
X140.945Y-98.61
X140.945Y-99.61
X140.945Y-100.61
X140.945Y-101.61
X140.945Y-133.61
X140.945Y-134.61
X140.945Y-135.61
X140.945Y-136.61
X140.945Y-137.61
X140.945Y-138.61
X141.945Y-71.61
X141.945Y-97.61
X141.945Y-98.61
X141.945Y-99.61
X141.945Y-100.61
X141.945Y-101.61
X141.945Y-119.61
X141.945Y-124.61
X141.945Y-125.61
X141.945Y-126.61
X141.945Y-127.61
X141.945Y-128.61
X141.945Y-129.61
X141.945Y-130.61
X141.945Y-134.61
X141.945Y-135.61
X141.945Y-136.61
X141.945Y-137.61
X142.945Y-71.61
X142.945Y-84.61
X142.945Y-85.61
X142.945Y-86.61
X142.945Y-93.61
X142.945Y-94.61
X142.945Y-95.61
X142.945Y-96.61
X142.945Y-97.61
X142.945Y-98.61
X142.945Y-99.61
X142.945Y-100.61
X142.945Y-101.61
X142.945Y-107.61
X142.945Y-108.61
X142.945Y-109.61
X142.945Y-110.61
X142.945Y-111.61
X142.945Y-112.61
X143.945Y-71.61
X143.945Y-115.61
X143.945Y-121.61
X143.945Y-122.61
X143.945Y-123.61
X143.945Y-124.61
X143.945Y-125.61
X143.945Y-126.61
X143.945Y-127.61
X143.945Y-128.61
X143.945Y-129.61
X143.945Y-130.61
X143.945Y-131.61
X143.945Y-132.61
X143.945Y-136.61
X143.945Y-137.61
X143.945Y-138.61
X144.907Y-62.611
X144.932Y-63.627
X144.945Y-68.61
X144.945Y-71.61
X144.945Y-122.61
X144.945Y-123.61
X144.945Y-124.61
X144.945Y-125.61
X144.945Y-126.61
X144.945Y-127.61
X144.945Y-128.61
X144.945Y-129.61
X144.945Y-130.61
X144.945Y-131.61
X144.945Y-132.61
X144.945Y-133.61
X144.945Y-137.61
X144.945Y-138.61
X145.945Y-59.61
X145.945Y-60.61
X145.945Y-61.61
X145.945Y-62.61
X145.945Y-63.61
X145.945Y-91.61
X145.945Y-92.61
X145.945Y-93.61
X145.945Y-94.61
X145.945Y-95.61
X145.945Y-96.61
X145.945Y-97.61
X145.945Y-98.61
X145.945Y-99.61
X145.945Y-100.61
X145.945Y-101.61
X145.945Y-102.61
X145.945Y-103.61
X145.945Y-104.61
X145.945Y-105.61
X145.945Y-106.61
X145.945Y-107.61
X145.945Y-122.61
X145.945Y-123.61
X145.945Y-124.61
X145.945Y-125.61
X145.945Y-126.61
X145.945Y-127.61
X145.945Y-128.61
X145.945Y-129.61
X145.945Y-130.61
X145.945Y-131.61
X145.945Y-132.61
X145.945Y-133.61
X145.945Y-134.61
X145.945Y-138.61
X146.945Y-63.61
X146.945Y-67.61
X146.945Y-95.61
X146.945Y-96.61
X146.945Y-97.61
X146.945Y-98.61
X146.945Y-99.61
X146.945Y-100.61
X146.945Y-101.61
X146.945Y-102.61
X146.945Y-103.61
X146.945Y-122.61
X146.945Y-123.61
X146.945Y-125.61
X146.945Y-126.61
X146.945Y-127.61
X146.945Y-128.61
X146.945Y-129.61
X146.945Y-130.61
X146.945Y-131.61
X146.945Y-132.61
X146.945Y-133.61
X146.945Y-134.61
X146.945Y-135.61
X147.945Y-68.61
X147.945Y-76.61
X147.945Y-126.61
X147.945Y-127.61
X147.945Y-128.61
X147.945Y-129.61
X147.945Y-130.61
X147.945Y-131.61
X147.945Y-132.61
X147.945Y-133.61
X147.945Y-134.61
X147.945Y-135.61
X147.945Y-136.61
X148.945Y-68.61
X148.945Y-69.61
X148.945Y-70.61
X148.945Y-71.61
X148.945Y-127.61
X148.945Y-128.61
X148.945Y-129.61
X148.945Y-130.61
X148.945Y-131.61
X148.945Y-132.61
X148.945Y-133.61
X148.945Y-134.61
X148.945Y-135.61
X148.945Y-136.61
X149.945Y-60.61
X149.945Y-61.61
X149.945Y-62.61
X149.945Y-67.61
X149.945Y-68.61
X149.945Y-69.61
X149.945Y-70.61
X149.945Y-71.61
X149.945Y-126.61
X149.945Y-127.61
X149.945Y-128.61
X149.945Y-129.61
X149.945Y-130.61
X149.945Y-131.61
X149.945Y-132.61
X149.945Y-133.61
X149.945Y-134.61
X149.945Y-135.61
X150.945Y-68.61
X150.945Y-69.61
X150.945Y-70.61
X150.945Y-71.61
X150.945Y-76.61
X150.945Y-122.61
X150.945Y-126.61
X150.945Y-127.61
X150.945Y-128.61
X150.945Y-129.61
X150.945Y-130.61
X150.945Y-131.61
X150.945Y-132.61
X150.945Y-133.61
X150.945Y-134.61
X150.945Y-144.61
X151.945Y-69.61
X151.945Y-70.61
X151.945Y-75.61
X151.945Y-76.61
X151.945Y-133.61
X151.945Y-134.61
X151.945Y-144.61
X152.945Y-66.61
X152.945Y-74.61
X152.945Y-75.61
X152.945Y-76.61
X152.945Y-134.61
X152.945Y-140.61
X152.945Y-144.61
X153.945Y-62.61
X153.945Y-66.61
X153.945Y-67.61
X153.945Y-68.61
X153.945Y-69.61
X153.945Y-70.61
X153.945Y-71.61
X153.945Y-72.61
X153.945Y-73.61
X153.945Y-74.61
X153.945Y-75.61
X153.945Y-134.61
X153.945Y-140.61
X153.945Y-141.61
X153.945Y-144.61
T2
X89.6Y-100.087
X113.03Y-99.695
X113.03Y-101.6
X116.205Y-111.125
X116.298Y-100.872
X116.748Y-97.193
X117.58Y-103.908
X119.951Y-101.664
X120.235Y-109.824
X120.263Y-84.637
X121.209Y-101.041
X121.428Y-98.672
X121.92Y-130.81
X122.555Y-121.285
X122.772Y-97.328
X123.19Y-100.965
X123.288Y-105.691
X123.795Y-140.653
X125.095Y-114.935
X125.142Y-98.847
X125.73Y-106.045
X125.837Y-94.562
X126.365Y-103.505
X126.8Y-75.343
X126.887Y-97.155
X126.978Y-131.48
X128.215Y-100.821
X128.27Y-116.84
X129.005Y-97.793
X129.707Y-130.135
X130.493Y-106.362
X131.158Y-70.198
X131.445Y-114.3
X131.516Y-100.298
X132.718Y-115.569
X133.35Y-136.525
X133.639Y-104.775
X134.926Y-99.612
X134.93Y-132.456
X135.246Y-129.933
X135.255Y-90.17
X135.255Y-111.125
X135.255Y-126.035
X135.89Y-106.045
X136.046Y-116.84
X136.179Y-115.57
X136.525Y-93.37
X137.005Y-100.33
X137.292Y-103.002
X137.795Y-95.903
X137.795Y-125.73
X138.719Y-105.277
X139.065Y-71.12
X139.657Y-73.025
X140.418Y-108.033
X140.931Y-105.277
X141.605Y-67.31
X141.605Y-94.615
X142.059Y-78.442
X147.663Y-138.443
X149.225Y-64.77
X151.765Y-142.875
T3
X132.045Y-92.65
X135.495Y-96.1
T4
X106.951Y-99.489
X108.35Y-92.361
X108.451Y-117.397
X108.748Y-97.693
X108.748Y-101.285
X108.85Y-86.591
X108.85Y-112.295
X110.146Y-90.565
X110.248Y-119.193
X110.544Y-95.897
X110.544Y-99.489
X110.646Y-84.795
X110.646Y-114.091
X112.044Y-120.989
X112.34Y-97.693
X128.168Y-140.653
X128.168Y-143.193
X130.708Y-140.653
X130.708Y-143.193
X132.498Y-64.673
X132.498Y-67.213
X133.248Y-140.653
X133.248Y-143.193
X135.037Y-64.673
X135.037Y-67.213
X137.577Y-64.673
X137.577Y-67.213
X139.065Y-113.317
X139.065Y-115.858
X139.065Y-118.397
X141.605Y-113.317
X141.605Y-115.858
X141.605Y-118.397
X144.493Y-75.565
X144.493Y-73.025
X147.032Y-73.025
X147.032Y-75.565
X149.572Y-73.025
X149.572Y-75.565
T5
X97.998Y-102.193
X104.498Y-102.193
T6
X113.748Y-69.493
X113.748Y-74.193
X113.748Y-78.893
M30
