G04 #@! TF.GenerationSoftware,KiCad,Pcbnew,8.0.1*
G04 #@! TF.CreationDate,2024-06-04T09:08:57+02:00*
G04 #@! TF.ProjectId,minisumo_pcb,6d696e69-7375-46d6-9f5f-7063622e6b69,rev?*
G04 #@! TF.SameCoordinates,Original*
G04 #@! TF.FileFunction,Legend,Top*
G04 #@! TF.FilePolarity,Positive*
%FSLAX46Y46*%
G04 Gerber Fmt 4.6, Leading zero omitted, Abs format (unit mm)*
G04 Created by KiCad (PCBNEW 8.0.1) date 2024-06-04 09:08:57*
%MOMM*%
%LPD*%
G01*
G04 APERTURE LIST*
G04 Aperture macros list*
%AMRoundRect*
0 Rectangle with rounded corners*
0 $1 Rounding radius*
0 $2 $3 $4 $5 $6 $7 $8 $9 X,Y pos of 4 corners*
0 Add a 4 corners polygon primitive as box body*
4,1,4,$2,$3,$4,$5,$6,$7,$8,$9,$2,$3,0*
0 Add four circle primitives for the rounded corners*
1,1,$1+$1,$2,$3*
1,1,$1+$1,$4,$5*
1,1,$1+$1,$6,$7*
1,1,$1+$1,$8,$9*
0 Add four rect primitives between the rounded corners*
20,1,$1+$1,$2,$3,$4,$5,0*
20,1,$1+$1,$4,$5,$6,$7,0*
20,1,$1+$1,$6,$7,$8,$9,0*
20,1,$1+$1,$8,$9,$2,$3,0*%
G04 Aperture macros list end*
%ADD10C,0.200000*%
%ADD11C,0.150000*%
%ADD12C,0.120000*%
%ADD13C,0.050000*%
%ADD14C,0.127000*%
%ADD15RoundRect,0.102000X-0.685000X0.685000X-0.685000X-0.685000X0.685000X-0.685000X0.685000X0.685000X0*%
%ADD16C,1.574000*%
%ADD17RoundRect,0.243750X-0.150260X0.494975X-0.494975X0.150260X0.150260X-0.494975X0.494975X-0.150260X0*%
%ADD18RoundRect,0.250000X-0.450000X0.262500X-0.450000X-0.262500X0.450000X-0.262500X0.450000X0.262500X0*%
%ADD19RoundRect,0.250000X0.450000X-0.262500X0.450000X0.262500X-0.450000X0.262500X-0.450000X-0.262500X0*%
%ADD20RoundRect,0.250000X0.262500X0.450000X-0.262500X0.450000X-0.262500X-0.450000X0.262500X-0.450000X0*%
%ADD21RoundRect,0.102000X-1.081873X0.000000X0.000000X-1.081873X1.081873X0.000000X0.000000X1.081873X0*%
%ADD22C,1.734000*%
%ADD23RoundRect,0.102000X-1.225000X-1.225000X1.225000X-1.225000X1.225000X1.225000X-1.225000X1.225000X0*%
%ADD24C,2.654000*%
%ADD25RoundRect,0.250000X0.132583X-0.503814X0.503814X-0.132583X-0.132583X0.503814X-0.503814X0.132583X0*%
%ADD26RoundRect,0.102000X0.968736X0.000000X0.000000X0.968736X-0.968736X0.000000X0.000000X-0.968736X0*%
%ADD27RoundRect,0.052780X0.325269X0.783785X-0.783785X-0.325269X-0.325269X-0.783785X0.783785X0.325269X0*%
%ADD28RoundRect,0.135720X-0.325269X0.666491X-0.666491X0.325269X0.325269X-0.666491X0.666491X-0.325269X0*%
%ADD29C,1.234000*%
%ADD30RoundRect,0.102000X-0.685000X-0.685000X0.685000X-0.685000X0.685000X0.685000X-0.685000X0.685000X0*%
%ADD31RoundRect,0.243750X0.494975X0.150260X0.150260X0.494975X-0.494975X-0.150260X-0.150260X-0.494975X0*%
%ADD32RoundRect,0.250000X0.070711X-0.565685X0.565685X-0.070711X-0.070711X0.565685X-0.565685X0.070711X0*%
%ADD33RoundRect,0.250000X-0.159099X0.512652X-0.512652X0.159099X0.159099X-0.512652X0.512652X-0.159099X0*%
%ADD34RoundRect,0.250000X-0.132583X0.503814X-0.503814X0.132583X0.132583X-0.503814X0.503814X-0.132583X0*%
%ADD35RoundRect,0.250000X-0.262500X-0.450000X0.262500X-0.450000X0.262500X0.450000X-0.262500X0.450000X0*%
%ADD36RoundRect,0.243750X0.150260X-0.494975X0.494975X-0.150260X-0.150260X0.494975X-0.494975X0.150260X0*%
%ADD37RoundRect,0.102000X0.000000X-0.968736X0.968736X0.000000X0.000000X0.968736X-0.968736X0.000000X0*%
%ADD38RoundRect,0.102000X0.000000X1.081873X-1.081873X0.000000X0.000000X-1.081873X1.081873X0.000000X0*%
%ADD39RoundRect,0.102000X0.685000X0.685000X-0.685000X0.685000X-0.685000X-0.685000X0.685000X-0.685000X0*%
%ADD40RoundRect,0.250000X-0.503814X-0.132583X-0.132583X-0.503814X0.503814X0.132583X0.132583X0.503814X0*%
%ADD41RoundRect,0.250000X0.512652X0.159099X0.159099X0.512652X-0.512652X-0.159099X-0.159099X-0.512652X0*%
%ADD42C,2.079000*%
%ADD43RoundRect,0.250000X-0.512652X-0.159099X-0.159099X-0.512652X0.512652X0.159099X0.159099X0.512652X0*%
%ADD44RoundRect,0.102000X0.000000X-1.081873X1.081873X0.000000X0.000000X1.081873X-1.081873X0.000000X0*%
G04 APERTURE END LIST*
D10*
X130987668Y-123559673D02*
X131987668Y-123559673D01*
X131987668Y-123559673D02*
X131273383Y-123893006D01*
X131273383Y-123893006D02*
X131987668Y-124226339D01*
X131987668Y-124226339D02*
X130987668Y-124226339D01*
X131511478Y-124702530D02*
X131511478Y-125035863D01*
X130987668Y-125178720D02*
X130987668Y-124702530D01*
X130987668Y-124702530D02*
X131987668Y-124702530D01*
X131987668Y-124702530D02*
X131987668Y-125178720D01*
X131511478Y-125940625D02*
X131511478Y-125607292D01*
X130987668Y-125607292D02*
X131987668Y-125607292D01*
X131987668Y-125607292D02*
X131987668Y-126083482D01*
X131987668Y-126654911D02*
X131987668Y-126845387D01*
X131987668Y-126845387D02*
X131940049Y-126940625D01*
X131940049Y-126940625D02*
X131844811Y-127035863D01*
X131844811Y-127035863D02*
X131654335Y-127083482D01*
X131654335Y-127083482D02*
X131321002Y-127083482D01*
X131321002Y-127083482D02*
X131130526Y-127035863D01*
X131130526Y-127035863D02*
X131035288Y-126940625D01*
X131035288Y-126940625D02*
X130987668Y-126845387D01*
X130987668Y-126845387D02*
X130987668Y-126654911D01*
X130987668Y-126654911D02*
X131035288Y-126559673D01*
X131035288Y-126559673D02*
X131130526Y-126464435D01*
X131130526Y-126464435D02*
X131321002Y-126416816D01*
X131321002Y-126416816D02*
X131654335Y-126416816D01*
X131654335Y-126416816D02*
X131844811Y-126464435D01*
X131844811Y-126464435D02*
X131940049Y-126559673D01*
X131940049Y-126559673D02*
X131987668Y-126654911D01*
X130987668Y-127512054D02*
X131987668Y-127512054D01*
X131987668Y-127512054D02*
X130987668Y-128083482D01*
X130987668Y-128083482D02*
X131987668Y-128083482D01*
X131987668Y-129178721D02*
X130987668Y-129512054D01*
X130987668Y-129512054D02*
X131987668Y-129845387D01*
X130987668Y-130702530D02*
X130987668Y-130131102D01*
X130987668Y-130416816D02*
X131987668Y-130416816D01*
X131987668Y-130416816D02*
X131844811Y-130321578D01*
X131844811Y-130321578D02*
X131749573Y-130226340D01*
X131749573Y-130226340D02*
X131701954Y-130131102D01*
X131082907Y-131131102D02*
X131035288Y-131178721D01*
X131035288Y-131178721D02*
X130987668Y-131131102D01*
X130987668Y-131131102D02*
X131035288Y-131083483D01*
X131035288Y-131083483D02*
X131082907Y-131131102D01*
X131082907Y-131131102D02*
X130987668Y-131131102D01*
X131987668Y-131797768D02*
X131987668Y-131893006D01*
X131987668Y-131893006D02*
X131940049Y-131988244D01*
X131940049Y-131988244D02*
X131892430Y-132035863D01*
X131892430Y-132035863D02*
X131797192Y-132083482D01*
X131797192Y-132083482D02*
X131606716Y-132131101D01*
X131606716Y-132131101D02*
X131368621Y-132131101D01*
X131368621Y-132131101D02*
X131178145Y-132083482D01*
X131178145Y-132083482D02*
X131082907Y-132035863D01*
X131082907Y-132035863D02*
X131035288Y-131988244D01*
X131035288Y-131988244D02*
X130987668Y-131893006D01*
X130987668Y-131893006D02*
X130987668Y-131797768D01*
X130987668Y-131797768D02*
X131035288Y-131702530D01*
X131035288Y-131702530D02*
X131082907Y-131654911D01*
X131082907Y-131654911D02*
X131178145Y-131607292D01*
X131178145Y-131607292D02*
X131368621Y-131559673D01*
X131368621Y-131559673D02*
X131606716Y-131559673D01*
X131606716Y-131559673D02*
X131797192Y-131607292D01*
X131797192Y-131607292D02*
X131892430Y-131654911D01*
X131892430Y-131654911D02*
X131940049Y-131702530D01*
X131940049Y-131702530D02*
X131987668Y-131797768D01*
X129377724Y-123559673D02*
X130044391Y-123559673D01*
X129949153Y-123559673D02*
X129996772Y-123607292D01*
X129996772Y-123607292D02*
X130044391Y-123702530D01*
X130044391Y-123702530D02*
X130044391Y-123845387D01*
X130044391Y-123845387D02*
X129996772Y-123940625D01*
X129996772Y-123940625D02*
X129901534Y-123988244D01*
X129901534Y-123988244D02*
X129377724Y-123988244D01*
X129901534Y-123988244D02*
X129996772Y-124035863D01*
X129996772Y-124035863D02*
X130044391Y-124131101D01*
X130044391Y-124131101D02*
X130044391Y-124273958D01*
X130044391Y-124273958D02*
X129996772Y-124369197D01*
X129996772Y-124369197D02*
X129901534Y-124416816D01*
X129901534Y-124416816D02*
X129377724Y-124416816D01*
X129377724Y-124893006D02*
X130044391Y-124893006D01*
X130377724Y-124893006D02*
X130330105Y-124845387D01*
X130330105Y-124845387D02*
X130282486Y-124893006D01*
X130282486Y-124893006D02*
X130330105Y-124940625D01*
X130330105Y-124940625D02*
X130377724Y-124893006D01*
X130377724Y-124893006D02*
X130282486Y-124893006D01*
X130044391Y-125369196D02*
X129377724Y-125369196D01*
X129949153Y-125369196D02*
X129996772Y-125416815D01*
X129996772Y-125416815D02*
X130044391Y-125512053D01*
X130044391Y-125512053D02*
X130044391Y-125654910D01*
X130044391Y-125654910D02*
X129996772Y-125750148D01*
X129996772Y-125750148D02*
X129901534Y-125797767D01*
X129901534Y-125797767D02*
X129377724Y-125797767D01*
X129377724Y-126273958D02*
X130044391Y-126273958D01*
X130377724Y-126273958D02*
X130330105Y-126226339D01*
X130330105Y-126226339D02*
X130282486Y-126273958D01*
X130282486Y-126273958D02*
X130330105Y-126321577D01*
X130330105Y-126321577D02*
X130377724Y-126273958D01*
X130377724Y-126273958D02*
X130282486Y-126273958D01*
X129425344Y-126702529D02*
X129377724Y-126797767D01*
X129377724Y-126797767D02*
X129377724Y-126988243D01*
X129377724Y-126988243D02*
X129425344Y-127083481D01*
X129425344Y-127083481D02*
X129520582Y-127131100D01*
X129520582Y-127131100D02*
X129568201Y-127131100D01*
X129568201Y-127131100D02*
X129663439Y-127083481D01*
X129663439Y-127083481D02*
X129711058Y-126988243D01*
X129711058Y-126988243D02*
X129711058Y-126845386D01*
X129711058Y-126845386D02*
X129758677Y-126750148D01*
X129758677Y-126750148D02*
X129853915Y-126702529D01*
X129853915Y-126702529D02*
X129901534Y-126702529D01*
X129901534Y-126702529D02*
X129996772Y-126750148D01*
X129996772Y-126750148D02*
X130044391Y-126845386D01*
X130044391Y-126845386D02*
X130044391Y-126988243D01*
X130044391Y-126988243D02*
X129996772Y-127083481D01*
X130044391Y-127988243D02*
X129377724Y-127988243D01*
X130044391Y-127559672D02*
X129520582Y-127559672D01*
X129520582Y-127559672D02*
X129425344Y-127607291D01*
X129425344Y-127607291D02*
X129377724Y-127702529D01*
X129377724Y-127702529D02*
X129377724Y-127845386D01*
X129377724Y-127845386D02*
X129425344Y-127940624D01*
X129425344Y-127940624D02*
X129472963Y-127988243D01*
X129377724Y-128464434D02*
X130044391Y-128464434D01*
X129949153Y-128464434D02*
X129996772Y-128512053D01*
X129996772Y-128512053D02*
X130044391Y-128607291D01*
X130044391Y-128607291D02*
X130044391Y-128750148D01*
X130044391Y-128750148D02*
X129996772Y-128845386D01*
X129996772Y-128845386D02*
X129901534Y-128893005D01*
X129901534Y-128893005D02*
X129377724Y-128893005D01*
X129901534Y-128893005D02*
X129996772Y-128940624D01*
X129996772Y-128940624D02*
X130044391Y-129035862D01*
X130044391Y-129035862D02*
X130044391Y-129178719D01*
X130044391Y-129178719D02*
X129996772Y-129273958D01*
X129996772Y-129273958D02*
X129901534Y-129321577D01*
X129901534Y-129321577D02*
X129377724Y-129321577D01*
X129377724Y-129940624D02*
X129425344Y-129845386D01*
X129425344Y-129845386D02*
X129472963Y-129797767D01*
X129472963Y-129797767D02*
X129568201Y-129750148D01*
X129568201Y-129750148D02*
X129853915Y-129750148D01*
X129853915Y-129750148D02*
X129949153Y-129797767D01*
X129949153Y-129797767D02*
X129996772Y-129845386D01*
X129996772Y-129845386D02*
X130044391Y-129940624D01*
X130044391Y-129940624D02*
X130044391Y-130083481D01*
X130044391Y-130083481D02*
X129996772Y-130178719D01*
X129996772Y-130178719D02*
X129949153Y-130226338D01*
X129949153Y-130226338D02*
X129853915Y-130273957D01*
X129853915Y-130273957D02*
X129568201Y-130273957D01*
X129568201Y-130273957D02*
X129472963Y-130226338D01*
X129472963Y-130226338D02*
X129425344Y-130178719D01*
X129425344Y-130178719D02*
X129377724Y-130083481D01*
X129377724Y-130083481D02*
X129377724Y-129940624D01*
X128053495Y-123512054D02*
X128053495Y-123988244D01*
X127767780Y-123416816D02*
X128767780Y-123750149D01*
X128767780Y-123750149D02*
X127767780Y-124083482D01*
X127767780Y-124416816D02*
X128767780Y-124416816D01*
X128767780Y-124416816D02*
X128767780Y-124654911D01*
X128767780Y-124654911D02*
X128720161Y-124797768D01*
X128720161Y-124797768D02*
X128624923Y-124893006D01*
X128624923Y-124893006D02*
X128529685Y-124940625D01*
X128529685Y-124940625D02*
X128339209Y-124988244D01*
X128339209Y-124988244D02*
X128196352Y-124988244D01*
X128196352Y-124988244D02*
X128005876Y-124940625D01*
X128005876Y-124940625D02*
X127910638Y-124893006D01*
X127910638Y-124893006D02*
X127815400Y-124797768D01*
X127815400Y-124797768D02*
X127767780Y-124654911D01*
X127767780Y-124654911D02*
X127767780Y-124416816D01*
X128053495Y-125369197D02*
X128053495Y-125845387D01*
X127767780Y-125273959D02*
X128767780Y-125607292D01*
X128767780Y-125607292D02*
X127767780Y-125940625D01*
X127767780Y-126273959D02*
X128767780Y-126273959D01*
X128767780Y-126273959D02*
X128053495Y-126607292D01*
X128053495Y-126607292D02*
X128767780Y-126940625D01*
X128767780Y-126940625D02*
X127767780Y-126940625D01*
X127767780Y-128178721D02*
X128767780Y-128178721D01*
X128767780Y-128178721D02*
X128767780Y-128559673D01*
X128767780Y-128559673D02*
X128720161Y-128654911D01*
X128720161Y-128654911D02*
X128672542Y-128702530D01*
X128672542Y-128702530D02*
X128577304Y-128750149D01*
X128577304Y-128750149D02*
X128434447Y-128750149D01*
X128434447Y-128750149D02*
X128339209Y-128702530D01*
X128339209Y-128702530D02*
X128291590Y-128654911D01*
X128291590Y-128654911D02*
X128243971Y-128559673D01*
X128243971Y-128559673D02*
X128243971Y-128178721D01*
X127767780Y-129750149D02*
X128243971Y-129416816D01*
X127767780Y-129178721D02*
X128767780Y-129178721D01*
X128767780Y-129178721D02*
X128767780Y-129559673D01*
X128767780Y-129559673D02*
X128720161Y-129654911D01*
X128720161Y-129654911D02*
X128672542Y-129702530D01*
X128672542Y-129702530D02*
X128577304Y-129750149D01*
X128577304Y-129750149D02*
X128434447Y-129750149D01*
X128434447Y-129750149D02*
X128339209Y-129702530D01*
X128339209Y-129702530D02*
X128291590Y-129654911D01*
X128291590Y-129654911D02*
X128243971Y-129559673D01*
X128243971Y-129559673D02*
X128243971Y-129178721D01*
X128243971Y-130369197D02*
X127767780Y-130369197D01*
X128767780Y-130035864D02*
X128243971Y-130369197D01*
X128243971Y-130369197D02*
X128767780Y-130702530D01*
X127815400Y-130988245D02*
X127767780Y-131131102D01*
X127767780Y-131131102D02*
X127767780Y-131369197D01*
X127767780Y-131369197D02*
X127815400Y-131464435D01*
X127815400Y-131464435D02*
X127863019Y-131512054D01*
X127863019Y-131512054D02*
X127958257Y-131559673D01*
X127958257Y-131559673D02*
X128053495Y-131559673D01*
X128053495Y-131559673D02*
X128148733Y-131512054D01*
X128148733Y-131512054D02*
X128196352Y-131464435D01*
X128196352Y-131464435D02*
X128243971Y-131369197D01*
X128243971Y-131369197D02*
X128291590Y-131178721D01*
X128291590Y-131178721D02*
X128339209Y-131083483D01*
X128339209Y-131083483D02*
X128386828Y-131035864D01*
X128386828Y-131035864D02*
X128482066Y-130988245D01*
X128482066Y-130988245D02*
X128577304Y-130988245D01*
X128577304Y-130988245D02*
X128672542Y-131035864D01*
X128672542Y-131035864D02*
X128720161Y-131083483D01*
X128720161Y-131083483D02*
X128767780Y-131178721D01*
X128767780Y-131178721D02*
X128767780Y-131416816D01*
X128767780Y-131416816D02*
X128720161Y-131559673D01*
X128767780Y-131845388D02*
X128767780Y-132416816D01*
X127767780Y-132131102D02*
X128767780Y-132131102D01*
X128767780Y-132750150D02*
X127958257Y-132750150D01*
X127958257Y-132750150D02*
X127863019Y-132797769D01*
X127863019Y-132797769D02*
X127815400Y-132845388D01*
X127815400Y-132845388D02*
X127767780Y-132940626D01*
X127767780Y-132940626D02*
X127767780Y-133131102D01*
X127767780Y-133131102D02*
X127815400Y-133226340D01*
X127815400Y-133226340D02*
X127863019Y-133273959D01*
X127863019Y-133273959D02*
X127958257Y-133321578D01*
X127958257Y-133321578D02*
X128767780Y-133321578D01*
X127767780Y-133797769D02*
X128767780Y-133797769D01*
X128767780Y-133797769D02*
X128767780Y-134178721D01*
X128767780Y-134178721D02*
X128720161Y-134273959D01*
X128720161Y-134273959D02*
X128672542Y-134321578D01*
X128672542Y-134321578D02*
X128577304Y-134369197D01*
X128577304Y-134369197D02*
X128434447Y-134369197D01*
X128434447Y-134369197D02*
X128339209Y-134321578D01*
X128339209Y-134321578D02*
X128291590Y-134273959D01*
X128291590Y-134273959D02*
X128243971Y-134178721D01*
X128243971Y-134178721D02*
X128243971Y-133797769D01*
X128053495Y-134750150D02*
X128053495Y-135226340D01*
X127767780Y-134654912D02*
X128767780Y-134988245D01*
X128767780Y-134988245D02*
X127767780Y-135321578D01*
D11*
X144050609Y-114882466D02*
X144050609Y-114549133D01*
X144574419Y-114406276D02*
X144574419Y-114882466D01*
X144574419Y-114882466D02*
X143574419Y-114882466D01*
X143574419Y-114882466D02*
X143574419Y-114406276D01*
X144526800Y-114025323D02*
X144574419Y-113882466D01*
X144574419Y-113882466D02*
X144574419Y-113644371D01*
X144574419Y-113644371D02*
X144526800Y-113549133D01*
X144526800Y-113549133D02*
X144479180Y-113501514D01*
X144479180Y-113501514D02*
X144383942Y-113453895D01*
X144383942Y-113453895D02*
X144288704Y-113453895D01*
X144288704Y-113453895D02*
X144193466Y-113501514D01*
X144193466Y-113501514D02*
X144145847Y-113549133D01*
X144145847Y-113549133D02*
X144098228Y-113644371D01*
X144098228Y-113644371D02*
X144050609Y-113834847D01*
X144050609Y-113834847D02*
X144002990Y-113930085D01*
X144002990Y-113930085D02*
X143955371Y-113977704D01*
X143955371Y-113977704D02*
X143860133Y-114025323D01*
X143860133Y-114025323D02*
X143764895Y-114025323D01*
X143764895Y-114025323D02*
X143669657Y-113977704D01*
X143669657Y-113977704D02*
X143622038Y-113930085D01*
X143622038Y-113930085D02*
X143574419Y-113834847D01*
X143574419Y-113834847D02*
X143574419Y-113596752D01*
X143574419Y-113596752D02*
X143622038Y-113453895D01*
X143574419Y-113120561D02*
X143574419Y-112501514D01*
X143574419Y-112501514D02*
X143955371Y-112834847D01*
X143955371Y-112834847D02*
X143955371Y-112691990D01*
X143955371Y-112691990D02*
X144002990Y-112596752D01*
X144002990Y-112596752D02*
X144050609Y-112549133D01*
X144050609Y-112549133D02*
X144145847Y-112501514D01*
X144145847Y-112501514D02*
X144383942Y-112501514D01*
X144383942Y-112501514D02*
X144479180Y-112549133D01*
X144479180Y-112549133D02*
X144526800Y-112596752D01*
X144526800Y-112596752D02*
X144574419Y-112691990D01*
X144574419Y-112691990D02*
X144574419Y-112977704D01*
X144574419Y-112977704D02*
X144526800Y-113072942D01*
X144526800Y-113072942D02*
X144479180Y-113120561D01*
X116121255Y-104462706D02*
X115414148Y-103755599D01*
X115414148Y-103755599D02*
X116154927Y-104024973D01*
X116154927Y-104024973D02*
X115885553Y-103284195D01*
X115885553Y-103284195D02*
X116592660Y-103991302D01*
X116929377Y-103654584D02*
X116222270Y-102947478D01*
X117198751Y-103317867D02*
X117333438Y-103250524D01*
X117333438Y-103250524D02*
X117501796Y-103082165D01*
X117501796Y-103082165D02*
X117535468Y-102981150D01*
X117535468Y-102981150D02*
X117535468Y-102913806D01*
X117535468Y-102913806D02*
X117501796Y-102812791D01*
X117501796Y-102812791D02*
X117434453Y-102745447D01*
X117434453Y-102745447D02*
X117333438Y-102711776D01*
X117333438Y-102711776D02*
X117266094Y-102711776D01*
X117266094Y-102711776D02*
X117165079Y-102745447D01*
X117165079Y-102745447D02*
X116996720Y-102846463D01*
X116996720Y-102846463D02*
X116895705Y-102880134D01*
X116895705Y-102880134D02*
X116828361Y-102880134D01*
X116828361Y-102880134D02*
X116727346Y-102846463D01*
X116727346Y-102846463D02*
X116660003Y-102779119D01*
X116660003Y-102779119D02*
X116626331Y-102678104D01*
X116626331Y-102678104D02*
X116626331Y-102610760D01*
X116626331Y-102610760D02*
X116660003Y-102509745D01*
X116660003Y-102509745D02*
X116828361Y-102341386D01*
X116828361Y-102341386D02*
X116963048Y-102274043D01*
X117367109Y-101802638D02*
X117501796Y-101667951D01*
X117501796Y-101667951D02*
X117602812Y-101634280D01*
X117602812Y-101634280D02*
X117737499Y-101634280D01*
X117737499Y-101634280D02*
X117905857Y-101735295D01*
X117905857Y-101735295D02*
X118141560Y-101970997D01*
X118141560Y-101970997D02*
X118242575Y-102139356D01*
X118242575Y-102139356D02*
X118242575Y-102274043D01*
X118242575Y-102274043D02*
X118208903Y-102375058D01*
X118208903Y-102375058D02*
X118074216Y-102509745D01*
X118074216Y-102509745D02*
X117973201Y-102543417D01*
X117973201Y-102543417D02*
X117838514Y-102543417D01*
X117838514Y-102543417D02*
X117670155Y-102442402D01*
X117670155Y-102442402D02*
X117434453Y-102206699D01*
X117434453Y-102206699D02*
X117333438Y-102038341D01*
X117333438Y-102038341D02*
X117333438Y-101903654D01*
X117333438Y-101903654D02*
X117367109Y-101802638D01*
X119050697Y-101533264D02*
X118646636Y-101937325D01*
X118848666Y-101735295D02*
X118141560Y-101028188D01*
X118141560Y-101028188D02*
X118175231Y-101196547D01*
X118175231Y-101196547D02*
X118175231Y-101331234D01*
X118175231Y-101331234D02*
X118141560Y-101432249D01*
X133206997Y-74046343D02*
X132730806Y-74379676D01*
X133206997Y-74617771D02*
X132206997Y-74617771D01*
X132206997Y-74617771D02*
X132206997Y-74236819D01*
X132206997Y-74236819D02*
X132254616Y-74141581D01*
X132254616Y-74141581D02*
X132302235Y-74093962D01*
X132302235Y-74093962D02*
X132397473Y-74046343D01*
X132397473Y-74046343D02*
X132540330Y-74046343D01*
X132540330Y-74046343D02*
X132635568Y-74093962D01*
X132635568Y-74093962D02*
X132683187Y-74141581D01*
X132683187Y-74141581D02*
X132730806Y-74236819D01*
X132730806Y-74236819D02*
X132730806Y-74617771D01*
X132302235Y-73665390D02*
X132254616Y-73617771D01*
X132254616Y-73617771D02*
X132206997Y-73522533D01*
X132206997Y-73522533D02*
X132206997Y-73284438D01*
X132206997Y-73284438D02*
X132254616Y-73189200D01*
X132254616Y-73189200D02*
X132302235Y-73141581D01*
X132302235Y-73141581D02*
X132397473Y-73093962D01*
X132397473Y-73093962D02*
X132492711Y-73093962D01*
X132492711Y-73093962D02*
X132635568Y-73141581D01*
X132635568Y-73141581D02*
X133206997Y-73713009D01*
X133206997Y-73713009D02*
X133206997Y-73093962D01*
X143769820Y-122736666D02*
X143293629Y-123069999D01*
X143769820Y-123308094D02*
X142769820Y-123308094D01*
X142769820Y-123308094D02*
X142769820Y-122927142D01*
X142769820Y-122927142D02*
X142817439Y-122831904D01*
X142817439Y-122831904D02*
X142865058Y-122784285D01*
X142865058Y-122784285D02*
X142960296Y-122736666D01*
X142960296Y-122736666D02*
X143103153Y-122736666D01*
X143103153Y-122736666D02*
X143198391Y-122784285D01*
X143198391Y-122784285D02*
X143246010Y-122831904D01*
X143246010Y-122831904D02*
X143293629Y-122927142D01*
X143293629Y-122927142D02*
X143293629Y-123308094D01*
X143769820Y-122260475D02*
X143769820Y-122069999D01*
X143769820Y-122069999D02*
X143722201Y-121974761D01*
X143722201Y-121974761D02*
X143674581Y-121927142D01*
X143674581Y-121927142D02*
X143531724Y-121831904D01*
X143531724Y-121831904D02*
X143341248Y-121784285D01*
X143341248Y-121784285D02*
X142960296Y-121784285D01*
X142960296Y-121784285D02*
X142865058Y-121831904D01*
X142865058Y-121831904D02*
X142817439Y-121879523D01*
X142817439Y-121879523D02*
X142769820Y-121974761D01*
X142769820Y-121974761D02*
X142769820Y-122165237D01*
X142769820Y-122165237D02*
X142817439Y-122260475D01*
X142817439Y-122260475D02*
X142865058Y-122308094D01*
X142865058Y-122308094D02*
X142960296Y-122355713D01*
X142960296Y-122355713D02*
X143198391Y-122355713D01*
X143198391Y-122355713D02*
X143293629Y-122308094D01*
X143293629Y-122308094D02*
X143341248Y-122260475D01*
X143341248Y-122260475D02*
X143388867Y-122165237D01*
X143388867Y-122165237D02*
X143388867Y-121974761D01*
X143388867Y-121974761D02*
X143341248Y-121879523D01*
X143341248Y-121879523D02*
X143293629Y-121831904D01*
X143293629Y-121831904D02*
X143198391Y-121784285D01*
X137653333Y-72979820D02*
X137320000Y-72503629D01*
X137081905Y-72979820D02*
X137081905Y-71979820D01*
X137081905Y-71979820D02*
X137462857Y-71979820D01*
X137462857Y-71979820D02*
X137558095Y-72027439D01*
X137558095Y-72027439D02*
X137605714Y-72075058D01*
X137605714Y-72075058D02*
X137653333Y-72170296D01*
X137653333Y-72170296D02*
X137653333Y-72313153D01*
X137653333Y-72313153D02*
X137605714Y-72408391D01*
X137605714Y-72408391D02*
X137558095Y-72456010D01*
X137558095Y-72456010D02*
X137462857Y-72503629D01*
X137462857Y-72503629D02*
X137081905Y-72503629D01*
X138510476Y-71979820D02*
X138320000Y-71979820D01*
X138320000Y-71979820D02*
X138224762Y-72027439D01*
X138224762Y-72027439D02*
X138177143Y-72075058D01*
X138177143Y-72075058D02*
X138081905Y-72217915D01*
X138081905Y-72217915D02*
X138034286Y-72408391D01*
X138034286Y-72408391D02*
X138034286Y-72789343D01*
X138034286Y-72789343D02*
X138081905Y-72884581D01*
X138081905Y-72884581D02*
X138129524Y-72932201D01*
X138129524Y-72932201D02*
X138224762Y-72979820D01*
X138224762Y-72979820D02*
X138415238Y-72979820D01*
X138415238Y-72979820D02*
X138510476Y-72932201D01*
X138510476Y-72932201D02*
X138558095Y-72884581D01*
X138558095Y-72884581D02*
X138605714Y-72789343D01*
X138605714Y-72789343D02*
X138605714Y-72551248D01*
X138605714Y-72551248D02*
X138558095Y-72456010D01*
X138558095Y-72456010D02*
X138510476Y-72408391D01*
X138510476Y-72408391D02*
X138415238Y-72360772D01*
X138415238Y-72360772D02*
X138224762Y-72360772D01*
X138224762Y-72360772D02*
X138129524Y-72408391D01*
X138129524Y-72408391D02*
X138081905Y-72456010D01*
X138081905Y-72456010D02*
X138034286Y-72551248D01*
X106353509Y-109442401D02*
X107060616Y-108735295D01*
X107060616Y-108735295D02*
X106791242Y-109476073D01*
X106791242Y-109476073D02*
X107532020Y-109206699D01*
X107532020Y-109206699D02*
X106824914Y-109913806D01*
X107767723Y-109577088D02*
X107835066Y-109577088D01*
X107835066Y-109577088D02*
X107936081Y-109610760D01*
X107936081Y-109610760D02*
X108104440Y-109779119D01*
X108104440Y-109779119D02*
X108138112Y-109880134D01*
X108138112Y-109880134D02*
X108138112Y-109947478D01*
X108138112Y-109947478D02*
X108104440Y-110048493D01*
X108104440Y-110048493D02*
X108037097Y-110115836D01*
X108037097Y-110115836D02*
X107902410Y-110183180D01*
X107902410Y-110183180D02*
X107094288Y-110183180D01*
X107094288Y-110183180D02*
X107532020Y-110620913D01*
X112758737Y-67151934D02*
X112901868Y-67199644D01*
X112901868Y-67199644D02*
X113140421Y-67199644D01*
X113140421Y-67199644D02*
X113235842Y-67151934D01*
X113235842Y-67151934D02*
X113283552Y-67104223D01*
X113283552Y-67104223D02*
X113331263Y-67008802D01*
X113331263Y-67008802D02*
X113331263Y-66913381D01*
X113331263Y-66913381D02*
X113283552Y-66817960D01*
X113283552Y-66817960D02*
X113235842Y-66770249D01*
X113235842Y-66770249D02*
X113140421Y-66722539D01*
X113140421Y-66722539D02*
X112949579Y-66674828D01*
X112949579Y-66674828D02*
X112854158Y-66627118D01*
X112854158Y-66627118D02*
X112806447Y-66579407D01*
X112806447Y-66579407D02*
X112758737Y-66483986D01*
X112758737Y-66483986D02*
X112758737Y-66388565D01*
X112758737Y-66388565D02*
X112806447Y-66293144D01*
X112806447Y-66293144D02*
X112854158Y-66245434D01*
X112854158Y-66245434D02*
X112949579Y-66197723D01*
X112949579Y-66197723D02*
X113188131Y-66197723D01*
X113188131Y-66197723D02*
X113331263Y-66245434D01*
X114285473Y-67199644D02*
X113712947Y-67199644D01*
X113999210Y-67199644D02*
X113999210Y-66197723D01*
X113999210Y-66197723D02*
X113903789Y-66340855D01*
X113903789Y-66340855D02*
X113808368Y-66436276D01*
X113808368Y-66436276D02*
X113712947Y-66483986D01*
X114451289Y-105632672D02*
X113878870Y-105531657D01*
X114047228Y-106036733D02*
X113340122Y-105329626D01*
X113340122Y-105329626D02*
X113609496Y-105060252D01*
X113609496Y-105060252D02*
X113710511Y-105026580D01*
X113710511Y-105026580D02*
X113777854Y-105026580D01*
X113777854Y-105026580D02*
X113878870Y-105060252D01*
X113878870Y-105060252D02*
X113979885Y-105161267D01*
X113979885Y-105161267D02*
X114013557Y-105262283D01*
X114013557Y-105262283D02*
X114013557Y-105329626D01*
X114013557Y-105329626D02*
X113979885Y-105430641D01*
X113979885Y-105430641D02*
X113710511Y-105700015D01*
X114383946Y-104285802D02*
X114047228Y-104622519D01*
X114047228Y-104622519D02*
X114350274Y-104992909D01*
X114350274Y-104992909D02*
X114350274Y-104925565D01*
X114350274Y-104925565D02*
X114383946Y-104824550D01*
X114383946Y-104824550D02*
X114552305Y-104656191D01*
X114552305Y-104656191D02*
X114653320Y-104622519D01*
X114653320Y-104622519D02*
X114720663Y-104622519D01*
X114720663Y-104622519D02*
X114821679Y-104656191D01*
X114821679Y-104656191D02*
X114990037Y-104824550D01*
X114990037Y-104824550D02*
X115023709Y-104925565D01*
X115023709Y-104925565D02*
X115023709Y-104992909D01*
X115023709Y-104992909D02*
X114990037Y-105093924D01*
X114990037Y-105093924D02*
X114821679Y-105262283D01*
X114821679Y-105262283D02*
X114720663Y-105295954D01*
X114720663Y-105295954D02*
X114653320Y-105295954D01*
X137239819Y-122712857D02*
X136763628Y-123046190D01*
X137239819Y-123284285D02*
X136239819Y-123284285D01*
X136239819Y-123284285D02*
X136239819Y-122903333D01*
X136239819Y-122903333D02*
X136287438Y-122808095D01*
X136287438Y-122808095D02*
X136335057Y-122760476D01*
X136335057Y-122760476D02*
X136430295Y-122712857D01*
X136430295Y-122712857D02*
X136573152Y-122712857D01*
X136573152Y-122712857D02*
X136668390Y-122760476D01*
X136668390Y-122760476D02*
X136716009Y-122808095D01*
X136716009Y-122808095D02*
X136763628Y-122903333D01*
X136763628Y-122903333D02*
X136763628Y-123284285D01*
X137239819Y-121760476D02*
X137239819Y-122331904D01*
X137239819Y-122046190D02*
X136239819Y-122046190D01*
X136239819Y-122046190D02*
X136382676Y-122141428D01*
X136382676Y-122141428D02*
X136477914Y-122236666D01*
X136477914Y-122236666D02*
X136525533Y-122331904D01*
X136239819Y-121141428D02*
X136239819Y-121046190D01*
X136239819Y-121046190D02*
X136287438Y-120950952D01*
X136287438Y-120950952D02*
X136335057Y-120903333D01*
X136335057Y-120903333D02*
X136430295Y-120855714D01*
X136430295Y-120855714D02*
X136620771Y-120808095D01*
X136620771Y-120808095D02*
X136858866Y-120808095D01*
X136858866Y-120808095D02*
X137049342Y-120855714D01*
X137049342Y-120855714D02*
X137144580Y-120903333D01*
X137144580Y-120903333D02*
X137192200Y-120950952D01*
X137192200Y-120950952D02*
X137239819Y-121046190D01*
X137239819Y-121046190D02*
X137239819Y-121141428D01*
X137239819Y-121141428D02*
X137192200Y-121236666D01*
X137192200Y-121236666D02*
X137144580Y-121284285D01*
X137144580Y-121284285D02*
X137049342Y-121331904D01*
X137049342Y-121331904D02*
X136858866Y-121379523D01*
X136858866Y-121379523D02*
X136620771Y-121379523D01*
X136620771Y-121379523D02*
X136430295Y-121331904D01*
X136430295Y-121331904D02*
X136335057Y-121284285D01*
X136335057Y-121284285D02*
X136287438Y-121236666D01*
X136287438Y-121236666D02*
X136239819Y-121141428D01*
X107397333Y-114072012D02*
X106892257Y-114577088D01*
X106892257Y-114577088D02*
X106757570Y-114644432D01*
X106757570Y-114644432D02*
X106622883Y-114644432D01*
X106622883Y-114644432D02*
X106488196Y-114577088D01*
X106488196Y-114577088D02*
X106420852Y-114509745D01*
X107633036Y-114442401D02*
X107700379Y-114442401D01*
X107700379Y-114442401D02*
X107801394Y-114476073D01*
X107801394Y-114476073D02*
X107969753Y-114644432D01*
X107969753Y-114644432D02*
X108003425Y-114745447D01*
X108003425Y-114745447D02*
X108003425Y-114812791D01*
X108003425Y-114812791D02*
X107969753Y-114913806D01*
X107969753Y-114913806D02*
X107902410Y-114981149D01*
X107902410Y-114981149D02*
X107767723Y-115048493D01*
X107767723Y-115048493D02*
X106959601Y-115048493D01*
X106959601Y-115048493D02*
X107397333Y-115486226D01*
X120581453Y-103763948D02*
X121052857Y-104235353D01*
X120278407Y-104066994D02*
X120648796Y-104437383D01*
X120648796Y-104437383D02*
X120749812Y-104471055D01*
X120749812Y-104471055D02*
X120850827Y-104437383D01*
X120850827Y-104437383D02*
X120951842Y-104336368D01*
X120951842Y-104336368D02*
X120985514Y-104235353D01*
X120985514Y-104235353D02*
X120985514Y-104168009D01*
X121726293Y-103427231D02*
X121726293Y-103494574D01*
X121726293Y-103494574D02*
X121658949Y-103629261D01*
X121658949Y-103629261D02*
X121591606Y-103696605D01*
X121591606Y-103696605D02*
X121456918Y-103763948D01*
X121456918Y-103763948D02*
X121322231Y-103763948D01*
X121322231Y-103763948D02*
X121221216Y-103730277D01*
X121221216Y-103730277D02*
X121052857Y-103629261D01*
X121052857Y-103629261D02*
X120951842Y-103528246D01*
X120951842Y-103528246D02*
X120850827Y-103359887D01*
X120850827Y-103359887D02*
X120817155Y-103258872D01*
X120817155Y-103258872D02*
X120817155Y-103124185D01*
X120817155Y-103124185D02*
X120884499Y-102989498D01*
X120884499Y-102989498D02*
X120951842Y-102922154D01*
X120951842Y-102922154D02*
X121086529Y-102854811D01*
X121086529Y-102854811D02*
X121153873Y-102854811D01*
X122467071Y-102821139D02*
X122063010Y-103225200D01*
X122265041Y-103023170D02*
X121557934Y-102316063D01*
X121557934Y-102316063D02*
X121591606Y-102484422D01*
X121591606Y-102484422D02*
X121591606Y-102619109D01*
X121591606Y-102619109D02*
X121557934Y-102720124D01*
X129947401Y-74026989D02*
X129471210Y-74360322D01*
X129947401Y-74598417D02*
X128947401Y-74598417D01*
X128947401Y-74598417D02*
X128947401Y-74217465D01*
X128947401Y-74217465D02*
X128995020Y-74122227D01*
X128995020Y-74122227D02*
X129042639Y-74074608D01*
X129042639Y-74074608D02*
X129137877Y-74026989D01*
X129137877Y-74026989D02*
X129280734Y-74026989D01*
X129280734Y-74026989D02*
X129375972Y-74074608D01*
X129375972Y-74074608D02*
X129423591Y-74122227D01*
X129423591Y-74122227D02*
X129471210Y-74217465D01*
X129471210Y-74217465D02*
X129471210Y-74598417D01*
X129947401Y-73074608D02*
X129947401Y-73646036D01*
X129947401Y-73360322D02*
X128947401Y-73360322D01*
X128947401Y-73360322D02*
X129090258Y-73455560D01*
X129090258Y-73455560D02*
X129185496Y-73550798D01*
X129185496Y-73550798D02*
X129233115Y-73646036D01*
X136948129Y-100022890D02*
X136611138Y-100359881D01*
X137082925Y-99416307D02*
X136948129Y-100022890D01*
X136948129Y-100022890D02*
X137554712Y-99888094D01*
X137453615Y-101202357D02*
X137049226Y-100797968D01*
X137251420Y-101000163D02*
X137959101Y-100292482D01*
X137959101Y-100292482D02*
X137790605Y-100326182D01*
X137790605Y-100326182D02*
X137655809Y-100326182D01*
X137655809Y-100326182D02*
X137554712Y-100292482D01*
X128120833Y-63604225D02*
X128454166Y-63604225D01*
X128597023Y-64128035D02*
X128120833Y-64128035D01*
X128120833Y-64128035D02*
X128120833Y-63128035D01*
X128120833Y-63128035D02*
X128597023Y-63128035D01*
X128977976Y-64080416D02*
X129120833Y-64128035D01*
X129120833Y-64128035D02*
X129358928Y-64128035D01*
X129358928Y-64128035D02*
X129454166Y-64080416D01*
X129454166Y-64080416D02*
X129501785Y-64032796D01*
X129501785Y-64032796D02*
X129549404Y-63937558D01*
X129549404Y-63937558D02*
X129549404Y-63842320D01*
X129549404Y-63842320D02*
X129501785Y-63747082D01*
X129501785Y-63747082D02*
X129454166Y-63699463D01*
X129454166Y-63699463D02*
X129358928Y-63651844D01*
X129358928Y-63651844D02*
X129168452Y-63604225D01*
X129168452Y-63604225D02*
X129073214Y-63556606D01*
X129073214Y-63556606D02*
X129025595Y-63508987D01*
X129025595Y-63508987D02*
X128977976Y-63413749D01*
X128977976Y-63413749D02*
X128977976Y-63318511D01*
X128977976Y-63318511D02*
X129025595Y-63223273D01*
X129025595Y-63223273D02*
X129073214Y-63175654D01*
X129073214Y-63175654D02*
X129168452Y-63128035D01*
X129168452Y-63128035D02*
X129406547Y-63128035D01*
X129406547Y-63128035D02*
X129549404Y-63175654D01*
X130501785Y-64128035D02*
X129930357Y-64128035D01*
X130216071Y-64128035D02*
X130216071Y-63128035D01*
X130216071Y-63128035D02*
X130120833Y-63270892D01*
X130120833Y-63270892D02*
X130025595Y-63366130D01*
X130025595Y-63366130D02*
X129930357Y-63413749D01*
X115478044Y-94066936D02*
X116185151Y-93359829D01*
X116185151Y-93359829D02*
X115915777Y-94100608D01*
X115915777Y-94100608D02*
X116656555Y-93831234D01*
X116656555Y-93831234D02*
X115949448Y-94538341D01*
X117127959Y-94302638D02*
X117262646Y-94437325D01*
X117262646Y-94437325D02*
X117296318Y-94538340D01*
X117296318Y-94538340D02*
X117296318Y-94673027D01*
X117296318Y-94673027D02*
X117195303Y-94841386D01*
X117195303Y-94841386D02*
X116959601Y-95077088D01*
X116959601Y-95077088D02*
X116791242Y-95178104D01*
X116791242Y-95178104D02*
X116656555Y-95178104D01*
X116656555Y-95178104D02*
X116555540Y-95144432D01*
X116555540Y-95144432D02*
X116420853Y-95009745D01*
X116420853Y-95009745D02*
X116387181Y-94908730D01*
X116387181Y-94908730D02*
X116387181Y-94774043D01*
X116387181Y-94774043D02*
X116488196Y-94605684D01*
X116488196Y-94605684D02*
X116723898Y-94369982D01*
X116723898Y-94369982D02*
X116892257Y-94268966D01*
X116892257Y-94268966D02*
X117026944Y-94268966D01*
X117026944Y-94268966D02*
X117127959Y-94302638D01*
X117026944Y-95548493D02*
X117094288Y-95683180D01*
X117094288Y-95683180D02*
X117262646Y-95851539D01*
X117262646Y-95851539D02*
X117363662Y-95885210D01*
X117363662Y-95885210D02*
X117431005Y-95885210D01*
X117431005Y-95885210D02*
X117532020Y-95851539D01*
X117532020Y-95851539D02*
X117599364Y-95784195D01*
X117599364Y-95784195D02*
X117633036Y-95683180D01*
X117633036Y-95683180D02*
X117633036Y-95615836D01*
X117633036Y-95615836D02*
X117599364Y-95514821D01*
X117599364Y-95514821D02*
X117498349Y-95346462D01*
X117498349Y-95346462D02*
X117464677Y-95245447D01*
X117464677Y-95245447D02*
X117464677Y-95178104D01*
X117464677Y-95178104D02*
X117498349Y-95077088D01*
X117498349Y-95077088D02*
X117565692Y-95009745D01*
X117565692Y-95009745D02*
X117666707Y-94976073D01*
X117666707Y-94976073D02*
X117734051Y-94976073D01*
X117734051Y-94976073D02*
X117835066Y-95009745D01*
X117835066Y-95009745D02*
X118003425Y-95178104D01*
X118003425Y-95178104D02*
X118070768Y-95312791D01*
X117700379Y-96289272D02*
X118407486Y-95582165D01*
X118407486Y-96996378D02*
X118003425Y-96592317D01*
X118205455Y-96794347D02*
X118912562Y-96087241D01*
X118912562Y-96087241D02*
X118744203Y-96120912D01*
X118744203Y-96120912D02*
X118609516Y-96120912D01*
X118609516Y-96120912D02*
X118508501Y-96087241D01*
X120517036Y-96661174D02*
X119944617Y-96560159D01*
X120112975Y-97065235D02*
X119405869Y-96358128D01*
X119405869Y-96358128D02*
X119675243Y-96088754D01*
X119675243Y-96088754D02*
X119776258Y-96055082D01*
X119776258Y-96055082D02*
X119843601Y-96055082D01*
X119843601Y-96055082D02*
X119944617Y-96088754D01*
X119944617Y-96088754D02*
X120045632Y-96189769D01*
X120045632Y-96189769D02*
X120079304Y-96290785D01*
X120079304Y-96290785D02*
X120079304Y-96358128D01*
X120079304Y-96358128D02*
X120045632Y-96459143D01*
X120045632Y-96459143D02*
X119776258Y-96728517D01*
X120651723Y-95583678D02*
X121123128Y-96055082D01*
X120213991Y-95482663D02*
X120550708Y-96156098D01*
X120550708Y-96156098D02*
X120988441Y-95718365D01*
X120719067Y-95044930D02*
X121190472Y-94573525D01*
X121190472Y-94573525D02*
X121594533Y-95583678D01*
X124257631Y-112371770D02*
X124257631Y-112439114D01*
X124257631Y-112439114D02*
X124190287Y-112573801D01*
X124190287Y-112573801D02*
X124122944Y-112641144D01*
X124122944Y-112641144D02*
X123988257Y-112708488D01*
X123988257Y-112708488D02*
X123853570Y-112708488D01*
X123853570Y-112708488D02*
X123752555Y-112674816D01*
X123752555Y-112674816D02*
X123584196Y-112573801D01*
X123584196Y-112573801D02*
X123483181Y-112472786D01*
X123483181Y-112472786D02*
X123382165Y-112304427D01*
X123382165Y-112304427D02*
X123348494Y-112203412D01*
X123348494Y-112203412D02*
X123348494Y-112068725D01*
X123348494Y-112068725D02*
X123415837Y-111934038D01*
X123415837Y-111934038D02*
X123483181Y-111866694D01*
X123483181Y-111866694D02*
X123617868Y-111799351D01*
X123617868Y-111799351D02*
X123685211Y-111799351D01*
X123954585Y-111529977D02*
X123954585Y-111462633D01*
X123954585Y-111462633D02*
X123988257Y-111361618D01*
X123988257Y-111361618D02*
X124156616Y-111193259D01*
X124156616Y-111193259D02*
X124257631Y-111159587D01*
X124257631Y-111159587D02*
X124324974Y-111159587D01*
X124324974Y-111159587D02*
X124425990Y-111193259D01*
X124425990Y-111193259D02*
X124493333Y-111260603D01*
X124493333Y-111260603D02*
X124560677Y-111395290D01*
X124560677Y-111395290D02*
X124560677Y-112203412D01*
X124560677Y-112203412D02*
X124998409Y-111765679D01*
X125133097Y-110688183D02*
X125604501Y-111159587D01*
X124695364Y-110587167D02*
X125032081Y-111260602D01*
X125032081Y-111260602D02*
X125469814Y-110822870D01*
X118612036Y-112354807D02*
X118039617Y-112253792D01*
X118207975Y-112758868D02*
X117500869Y-112051761D01*
X117500869Y-112051761D02*
X117770243Y-111782387D01*
X117770243Y-111782387D02*
X117871258Y-111748715D01*
X117871258Y-111748715D02*
X117938601Y-111748715D01*
X117938601Y-111748715D02*
X118039617Y-111782387D01*
X118039617Y-111782387D02*
X118140632Y-111883402D01*
X118140632Y-111883402D02*
X118174304Y-111984418D01*
X118174304Y-111984418D02*
X118174304Y-112051761D01*
X118174304Y-112051761D02*
X118140632Y-112152776D01*
X118140632Y-112152776D02*
X117871258Y-112422150D01*
X119285471Y-111681372D02*
X118881410Y-112085433D01*
X119083441Y-111883402D02*
X118376334Y-111176296D01*
X118376334Y-111176296D02*
X118410006Y-111344654D01*
X118410006Y-111344654D02*
X118410006Y-111479341D01*
X118410006Y-111479341D02*
X118376334Y-111580357D01*
X119218128Y-110334502D02*
X118881410Y-110671219D01*
X118881410Y-110671219D02*
X119184456Y-111041608D01*
X119184456Y-111041608D02*
X119184456Y-110974265D01*
X119184456Y-110974265D02*
X119218128Y-110873250D01*
X119218128Y-110873250D02*
X119386487Y-110704891D01*
X119386487Y-110704891D02*
X119487502Y-110671219D01*
X119487502Y-110671219D02*
X119554846Y-110671219D01*
X119554846Y-110671219D02*
X119655861Y-110704891D01*
X119655861Y-110704891D02*
X119824220Y-110873250D01*
X119824220Y-110873250D02*
X119857891Y-110974265D01*
X119857891Y-110974265D02*
X119857891Y-111041608D01*
X119857891Y-111041608D02*
X119824220Y-111142624D01*
X119824220Y-111142624D02*
X119655861Y-111310982D01*
X119655861Y-111310982D02*
X119554846Y-111344654D01*
X119554846Y-111344654D02*
X119487502Y-111344654D01*
X137652028Y-75519819D02*
X137318695Y-75043628D01*
X137080600Y-75519819D02*
X137080600Y-74519819D01*
X137080600Y-74519819D02*
X137461552Y-74519819D01*
X137461552Y-74519819D02*
X137556790Y-74567438D01*
X137556790Y-74567438D02*
X137604409Y-74615057D01*
X137604409Y-74615057D02*
X137652028Y-74710295D01*
X137652028Y-74710295D02*
X137652028Y-74853152D01*
X137652028Y-74853152D02*
X137604409Y-74948390D01*
X137604409Y-74948390D02*
X137556790Y-74996009D01*
X137556790Y-74996009D02*
X137461552Y-75043628D01*
X137461552Y-75043628D02*
X137080600Y-75043628D01*
X137985362Y-74519819D02*
X138604409Y-74519819D01*
X138604409Y-74519819D02*
X138271076Y-74900771D01*
X138271076Y-74900771D02*
X138413933Y-74900771D01*
X138413933Y-74900771D02*
X138509171Y-74948390D01*
X138509171Y-74948390D02*
X138556790Y-74996009D01*
X138556790Y-74996009D02*
X138604409Y-75091247D01*
X138604409Y-75091247D02*
X138604409Y-75329342D01*
X138604409Y-75329342D02*
X138556790Y-75424580D01*
X138556790Y-75424580D02*
X138509171Y-75472200D01*
X138509171Y-75472200D02*
X138413933Y-75519819D01*
X138413933Y-75519819D02*
X138128219Y-75519819D01*
X138128219Y-75519819D02*
X138032981Y-75472200D01*
X138032981Y-75472200D02*
X137985362Y-75424580D01*
X117239650Y-85431360D02*
X117778398Y-84892612D01*
X117778398Y-85431360D02*
X117239650Y-84892612D01*
X118014100Y-83781444D02*
X117677383Y-84118162D01*
X117677383Y-84118162D02*
X117980429Y-84488551D01*
X117980429Y-84488551D02*
X117980429Y-84421208D01*
X117980429Y-84421208D02*
X118014100Y-84320192D01*
X118014100Y-84320192D02*
X118182459Y-84151834D01*
X118182459Y-84151834D02*
X118283474Y-84118162D01*
X118283474Y-84118162D02*
X118350818Y-84118162D01*
X118350818Y-84118162D02*
X118451833Y-84151834D01*
X118451833Y-84151834D02*
X118620192Y-84320192D01*
X118620192Y-84320192D02*
X118653864Y-84421208D01*
X118653864Y-84421208D02*
X118653864Y-84488551D01*
X118653864Y-84488551D02*
X118620192Y-84589566D01*
X118620192Y-84589566D02*
X118451833Y-84757925D01*
X118451833Y-84757925D02*
X118350818Y-84791597D01*
X118350818Y-84791597D02*
X118283474Y-84791597D01*
X118249803Y-83545742D02*
X119192612Y-84017146D01*
X119192612Y-84017146D02*
X118721207Y-83074337D01*
X120034406Y-83175353D02*
X119630345Y-83579414D01*
X119832375Y-83377383D02*
X119125268Y-82670276D01*
X119125268Y-82670276D02*
X119158940Y-82838635D01*
X119158940Y-82838635D02*
X119158940Y-82973322D01*
X119158940Y-82973322D02*
X119125268Y-83074337D01*
X124104677Y-145148035D02*
X123771344Y-144671844D01*
X123533249Y-145148035D02*
X123533249Y-144148035D01*
X123533249Y-144148035D02*
X123914201Y-144148035D01*
X123914201Y-144148035D02*
X124009439Y-144195654D01*
X124009439Y-144195654D02*
X124057058Y-144243273D01*
X124057058Y-144243273D02*
X124104677Y-144338511D01*
X124104677Y-144338511D02*
X124104677Y-144481368D01*
X124104677Y-144481368D02*
X124057058Y-144576606D01*
X124057058Y-144576606D02*
X124009439Y-144624225D01*
X124009439Y-144624225D02*
X123914201Y-144671844D01*
X123914201Y-144671844D02*
X123533249Y-144671844D01*
X125057058Y-145148035D02*
X124485630Y-145148035D01*
X124771344Y-145148035D02*
X124771344Y-144148035D01*
X124771344Y-144148035D02*
X124676106Y-144290892D01*
X124676106Y-144290892D02*
X124580868Y-144386130D01*
X124580868Y-144386130D02*
X124485630Y-144433749D01*
X126009439Y-145148035D02*
X125438011Y-145148035D01*
X125723725Y-145148035D02*
X125723725Y-144148035D01*
X125723725Y-144148035D02*
X125628487Y-144290892D01*
X125628487Y-144290892D02*
X125533249Y-144386130D01*
X125533249Y-144386130D02*
X125438011Y-144433749D01*
X109620639Y-104259372D02*
X108913532Y-103552265D01*
X108913532Y-103552265D02*
X109182907Y-103282891D01*
X109182907Y-103282891D02*
X109283922Y-103249219D01*
X109283922Y-103249219D02*
X109351265Y-103249219D01*
X109351265Y-103249219D02*
X109452281Y-103282891D01*
X109452281Y-103282891D02*
X109553296Y-103383906D01*
X109553296Y-103383906D02*
X109586968Y-103484922D01*
X109586968Y-103484922D02*
X109586968Y-103552265D01*
X109586968Y-103552265D02*
X109553296Y-103653280D01*
X109553296Y-103653280D02*
X109283922Y-103922654D01*
X110327746Y-103552265D02*
X109856342Y-103080861D01*
X109991029Y-103215548D02*
X109957357Y-103114532D01*
X109957357Y-103114532D02*
X109957357Y-103047189D01*
X109957357Y-103047189D02*
X109991029Y-102946174D01*
X109991029Y-102946174D02*
X110058372Y-102878830D01*
X110866494Y-103013517D02*
X110765479Y-103047189D01*
X110765479Y-103047189D02*
X110698136Y-103047189D01*
X110698136Y-103047189D02*
X110597120Y-103013517D01*
X110597120Y-103013517D02*
X110395090Y-102811486D01*
X110395090Y-102811486D02*
X110361418Y-102710471D01*
X110361418Y-102710471D02*
X110361418Y-102643128D01*
X110361418Y-102643128D02*
X110395090Y-102542112D01*
X110395090Y-102542112D02*
X110496105Y-102441097D01*
X110496105Y-102441097D02*
X110597120Y-102407425D01*
X110597120Y-102407425D02*
X110664464Y-102407425D01*
X110664464Y-102407425D02*
X110765479Y-102441097D01*
X110765479Y-102441097D02*
X110967510Y-102643128D01*
X110967510Y-102643128D02*
X111001181Y-102744143D01*
X111001181Y-102744143D02*
X111001181Y-102811486D01*
X111001181Y-102811486D02*
X110967510Y-102912502D01*
X110967510Y-102912502D02*
X110866494Y-103013517D01*
X111236884Y-101700319D02*
X111809303Y-102272738D01*
X111809303Y-102272738D02*
X111842975Y-102373754D01*
X111842975Y-102373754D02*
X111842975Y-102441097D01*
X111842975Y-102441097D02*
X111809303Y-102542112D01*
X111809303Y-102542112D02*
X111708288Y-102643128D01*
X111708288Y-102643128D02*
X111607273Y-102676799D01*
X111674616Y-102138051D02*
X111640945Y-102239067D01*
X111640945Y-102239067D02*
X111506258Y-102373754D01*
X111506258Y-102373754D02*
X111405242Y-102407425D01*
X111405242Y-102407425D02*
X111337899Y-102407425D01*
X111337899Y-102407425D02*
X111236884Y-102373754D01*
X111236884Y-102373754D02*
X111034853Y-102171723D01*
X111034853Y-102171723D02*
X111001181Y-102070708D01*
X111001181Y-102070708D02*
X111001181Y-102003364D01*
X111001181Y-102003364D02*
X111034853Y-101902349D01*
X111034853Y-101902349D02*
X111169540Y-101767662D01*
X111169540Y-101767662D02*
X111270555Y-101733990D01*
X111943991Y-102070708D02*
X112482739Y-101531960D01*
X112920471Y-100824853D02*
X112920471Y-100892196D01*
X112920471Y-100892196D02*
X112853128Y-101026883D01*
X112853128Y-101026883D02*
X112785784Y-101094227D01*
X112785784Y-101094227D02*
X112651097Y-101161570D01*
X112651097Y-101161570D02*
X112516410Y-101161570D01*
X112516410Y-101161570D02*
X112415395Y-101127899D01*
X112415395Y-101127899D02*
X112247036Y-101026883D01*
X112247036Y-101026883D02*
X112146021Y-100925868D01*
X112146021Y-100925868D02*
X112045006Y-100757509D01*
X112045006Y-100757509D02*
X112011334Y-100656494D01*
X112011334Y-100656494D02*
X112011334Y-100521807D01*
X112011334Y-100521807D02*
X112078678Y-100387120D01*
X112078678Y-100387120D02*
X112146021Y-100319776D01*
X112146021Y-100319776D02*
X112280708Y-100252433D01*
X112280708Y-100252433D02*
X112348052Y-100252433D01*
X113391876Y-100488135D02*
X113290861Y-100521807D01*
X113290861Y-100521807D02*
X113223517Y-100521807D01*
X113223517Y-100521807D02*
X113122502Y-100488135D01*
X113122502Y-100488135D02*
X112920471Y-100286105D01*
X112920471Y-100286105D02*
X112886800Y-100185089D01*
X112886800Y-100185089D02*
X112886800Y-100117746D01*
X112886800Y-100117746D02*
X112920471Y-100016731D01*
X112920471Y-100016731D02*
X113021487Y-99915715D01*
X113021487Y-99915715D02*
X113122502Y-99882044D01*
X113122502Y-99882044D02*
X113189846Y-99882044D01*
X113189846Y-99882044D02*
X113290861Y-99915715D01*
X113290861Y-99915715D02*
X113492891Y-100117746D01*
X113492891Y-100117746D02*
X113526563Y-100218761D01*
X113526563Y-100218761D02*
X113526563Y-100286105D01*
X113526563Y-100286105D02*
X113492891Y-100387120D01*
X113492891Y-100387120D02*
X113391876Y-100488135D01*
X113459220Y-99477983D02*
X113930624Y-99949387D01*
X113526563Y-99545326D02*
X113526563Y-99477983D01*
X113526563Y-99477983D02*
X113560235Y-99376967D01*
X113560235Y-99376967D02*
X113661250Y-99275952D01*
X113661250Y-99275952D02*
X113762265Y-99242280D01*
X113762265Y-99242280D02*
X113863281Y-99275952D01*
X113863281Y-99275952D02*
X114233670Y-99646341D01*
X114940777Y-98939235D02*
X114536716Y-99343296D01*
X114738746Y-99141265D02*
X114031639Y-98434158D01*
X114031639Y-98434158D02*
X114065311Y-98602517D01*
X114065311Y-98602517D02*
X114065311Y-98737204D01*
X114065311Y-98737204D02*
X114031639Y-98838219D01*
X116562036Y-110591174D02*
X115989617Y-110490159D01*
X116157975Y-110995235D02*
X115450869Y-110288128D01*
X115450869Y-110288128D02*
X115720243Y-110018754D01*
X115720243Y-110018754D02*
X115821258Y-109985082D01*
X115821258Y-109985082D02*
X115888601Y-109985082D01*
X115888601Y-109985082D02*
X115989617Y-110018754D01*
X115989617Y-110018754D02*
X116090632Y-110119769D01*
X116090632Y-110119769D02*
X116124304Y-110220785D01*
X116124304Y-110220785D02*
X116124304Y-110288128D01*
X116124304Y-110288128D02*
X116090632Y-110389143D01*
X116090632Y-110389143D02*
X115821258Y-110658517D01*
X117235471Y-109917739D02*
X116831410Y-110321800D01*
X117033441Y-110119769D02*
X116326334Y-109412663D01*
X116326334Y-109412663D02*
X116360006Y-109581021D01*
X116360006Y-109581021D02*
X116360006Y-109715708D01*
X116360006Y-109715708D02*
X116326334Y-109816724D01*
X117134456Y-108604540D02*
X116999769Y-108739227D01*
X116999769Y-108739227D02*
X116966098Y-108840243D01*
X116966098Y-108840243D02*
X116966098Y-108907586D01*
X116966098Y-108907586D02*
X116999769Y-109075945D01*
X116999769Y-109075945D02*
X117100785Y-109244304D01*
X117100785Y-109244304D02*
X117370159Y-109513678D01*
X117370159Y-109513678D02*
X117471174Y-109547349D01*
X117471174Y-109547349D02*
X117538517Y-109547349D01*
X117538517Y-109547349D02*
X117639533Y-109513678D01*
X117639533Y-109513678D02*
X117774220Y-109378991D01*
X117774220Y-109378991D02*
X117807891Y-109277975D01*
X117807891Y-109277975D02*
X117807891Y-109210632D01*
X117807891Y-109210632D02*
X117774220Y-109109617D01*
X117774220Y-109109617D02*
X117605861Y-108941258D01*
X117605861Y-108941258D02*
X117504846Y-108907586D01*
X117504846Y-108907586D02*
X117437502Y-108907586D01*
X117437502Y-108907586D02*
X117336487Y-108941258D01*
X117336487Y-108941258D02*
X117201800Y-109075945D01*
X117201800Y-109075945D02*
X117168128Y-109176960D01*
X117168128Y-109176960D02*
X117168128Y-109244304D01*
X117168128Y-109244304D02*
X117201800Y-109345319D01*
X111070747Y-87772436D02*
X111205434Y-87705092D01*
X111205434Y-87705092D02*
X111272777Y-87705092D01*
X111272777Y-87705092D02*
X111373793Y-87738764D01*
X111373793Y-87738764D02*
X111474808Y-87839779D01*
X111474808Y-87839779D02*
X111508480Y-87940795D01*
X111508480Y-87940795D02*
X111508480Y-88008138D01*
X111508480Y-88008138D02*
X111474808Y-88109153D01*
X111474808Y-88109153D02*
X111205434Y-88378527D01*
X111205434Y-88378527D02*
X110498327Y-87671421D01*
X110498327Y-87671421D02*
X110734029Y-87435718D01*
X110734029Y-87435718D02*
X110835045Y-87402047D01*
X110835045Y-87402047D02*
X110902388Y-87402047D01*
X110902388Y-87402047D02*
X111003403Y-87435718D01*
X111003403Y-87435718D02*
X111070747Y-87503062D01*
X111070747Y-87503062D02*
X111104419Y-87604077D01*
X111104419Y-87604077D02*
X111104419Y-87671421D01*
X111104419Y-87671421D02*
X111070747Y-87772436D01*
X111070747Y-87772436D02*
X110835045Y-88008138D01*
X111676838Y-87503062D02*
X112013556Y-87166344D01*
X111811525Y-87772436D02*
X111340121Y-86829627D01*
X111340121Y-86829627D02*
X112282930Y-87301031D01*
X111710510Y-86459237D02*
X112114571Y-86055176D01*
X112619648Y-86964314D02*
X111912541Y-86257207D01*
X112249259Y-85920489D02*
X112653320Y-85516428D01*
X113158396Y-86425565D02*
X112451289Y-85718459D01*
X113966518Y-85617443D02*
X113562457Y-86021504D01*
X113764488Y-85819474D02*
X113057381Y-85112367D01*
X113057381Y-85112367D02*
X113091052Y-85280726D01*
X113091052Y-85280726D02*
X113091052Y-85415413D01*
X113091052Y-85415413D02*
X113057381Y-85516428D01*
X132580868Y-138124225D02*
X132914201Y-138124225D01*
X133057058Y-138648035D02*
X132580868Y-138648035D01*
X132580868Y-138648035D02*
X132580868Y-137648035D01*
X132580868Y-137648035D02*
X133057058Y-137648035D01*
X133438011Y-138600416D02*
X133580868Y-138648035D01*
X133580868Y-138648035D02*
X133818963Y-138648035D01*
X133818963Y-138648035D02*
X133914201Y-138600416D01*
X133914201Y-138600416D02*
X133961820Y-138552796D01*
X133961820Y-138552796D02*
X134009439Y-138457558D01*
X134009439Y-138457558D02*
X134009439Y-138362320D01*
X134009439Y-138362320D02*
X133961820Y-138267082D01*
X133961820Y-138267082D02*
X133914201Y-138219463D01*
X133914201Y-138219463D02*
X133818963Y-138171844D01*
X133818963Y-138171844D02*
X133628487Y-138124225D01*
X133628487Y-138124225D02*
X133533249Y-138076606D01*
X133533249Y-138076606D02*
X133485630Y-138028987D01*
X133485630Y-138028987D02*
X133438011Y-137933749D01*
X133438011Y-137933749D02*
X133438011Y-137838511D01*
X133438011Y-137838511D02*
X133485630Y-137743273D01*
X133485630Y-137743273D02*
X133533249Y-137695654D01*
X133533249Y-137695654D02*
X133628487Y-137648035D01*
X133628487Y-137648035D02*
X133866582Y-137648035D01*
X133866582Y-137648035D02*
X134009439Y-137695654D01*
X134866582Y-137981368D02*
X134866582Y-138648035D01*
X134628487Y-137600416D02*
X134390392Y-138314701D01*
X134390392Y-138314701D02*
X135009439Y-138314701D01*
X148903333Y-70376009D02*
X149236666Y-70376009D01*
X149379523Y-70899819D02*
X148903333Y-70899819D01*
X148903333Y-70899819D02*
X148903333Y-69899819D01*
X148903333Y-69899819D02*
X149379523Y-69899819D01*
X149760476Y-70852200D02*
X149903333Y-70899819D01*
X149903333Y-70899819D02*
X150141428Y-70899819D01*
X150141428Y-70899819D02*
X150236666Y-70852200D01*
X150236666Y-70852200D02*
X150284285Y-70804580D01*
X150284285Y-70804580D02*
X150331904Y-70709342D01*
X150331904Y-70709342D02*
X150331904Y-70614104D01*
X150331904Y-70614104D02*
X150284285Y-70518866D01*
X150284285Y-70518866D02*
X150236666Y-70471247D01*
X150236666Y-70471247D02*
X150141428Y-70423628D01*
X150141428Y-70423628D02*
X149950952Y-70376009D01*
X149950952Y-70376009D02*
X149855714Y-70328390D01*
X149855714Y-70328390D02*
X149808095Y-70280771D01*
X149808095Y-70280771D02*
X149760476Y-70185533D01*
X149760476Y-70185533D02*
X149760476Y-70090295D01*
X149760476Y-70090295D02*
X149808095Y-69995057D01*
X149808095Y-69995057D02*
X149855714Y-69947438D01*
X149855714Y-69947438D02*
X149950952Y-69899819D01*
X149950952Y-69899819D02*
X150189047Y-69899819D01*
X150189047Y-69899819D02*
X150331904Y-69947438D01*
X150712857Y-69995057D02*
X150760476Y-69947438D01*
X150760476Y-69947438D02*
X150855714Y-69899819D01*
X150855714Y-69899819D02*
X151093809Y-69899819D01*
X151093809Y-69899819D02*
X151189047Y-69947438D01*
X151189047Y-69947438D02*
X151236666Y-69995057D01*
X151236666Y-69995057D02*
X151284285Y-70090295D01*
X151284285Y-70090295D02*
X151284285Y-70185533D01*
X151284285Y-70185533D02*
X151236666Y-70328390D01*
X151236666Y-70328390D02*
X150665238Y-70899819D01*
X150665238Y-70899819D02*
X151284285Y-70899819D01*
X113974804Y-92730244D02*
X114075819Y-92157825D01*
X113570743Y-92326183D02*
X114277850Y-91619077D01*
X114277850Y-91619077D02*
X114547224Y-91888451D01*
X114547224Y-91888451D02*
X114580896Y-91989466D01*
X114580896Y-91989466D02*
X114580896Y-92056809D01*
X114580896Y-92056809D02*
X114547224Y-92157825D01*
X114547224Y-92157825D02*
X114446209Y-92258840D01*
X114446209Y-92258840D02*
X114345193Y-92292512D01*
X114345193Y-92292512D02*
X114277850Y-92292512D01*
X114277850Y-92292512D02*
X114176835Y-92258840D01*
X114176835Y-92258840D02*
X113907461Y-91989466D01*
X115052300Y-92864931D02*
X114580896Y-93336336D01*
X115153315Y-92427199D02*
X114479880Y-92763916D01*
X114479880Y-92763916D02*
X114917613Y-93201649D01*
X127397887Y-94011411D02*
X127330543Y-94011411D01*
X127330543Y-94011411D02*
X127195856Y-93944067D01*
X127195856Y-93944067D02*
X127128513Y-93876724D01*
X127128513Y-93876724D02*
X127061169Y-93742037D01*
X127061169Y-93742037D02*
X127061169Y-93607350D01*
X127061169Y-93607350D02*
X127094841Y-93506335D01*
X127094841Y-93506335D02*
X127195856Y-93337976D01*
X127195856Y-93337976D02*
X127296871Y-93236961D01*
X127296871Y-93236961D02*
X127465230Y-93135945D01*
X127465230Y-93135945D02*
X127566245Y-93102274D01*
X127566245Y-93102274D02*
X127700932Y-93102274D01*
X127700932Y-93102274D02*
X127835619Y-93169617D01*
X127835619Y-93169617D02*
X127902963Y-93236961D01*
X127902963Y-93236961D02*
X127970306Y-93371648D01*
X127970306Y-93371648D02*
X127970306Y-93438991D01*
X128003978Y-94752189D02*
X127599917Y-94348128D01*
X127801948Y-94550159D02*
X128509054Y-93843052D01*
X128509054Y-93843052D02*
X128340696Y-93876724D01*
X128340696Y-93876724D02*
X128206009Y-93876724D01*
X128206009Y-93876724D02*
X128104993Y-93843052D01*
X96923725Y-100136463D02*
X97038011Y-100174558D01*
X97038011Y-100174558D02*
X97076106Y-100212654D01*
X97076106Y-100212654D02*
X97114202Y-100288844D01*
X97114202Y-100288844D02*
X97114202Y-100403130D01*
X97114202Y-100403130D02*
X97076106Y-100479320D01*
X97076106Y-100479320D02*
X97038011Y-100517416D01*
X97038011Y-100517416D02*
X96961821Y-100555511D01*
X96961821Y-100555511D02*
X96657059Y-100555511D01*
X96657059Y-100555511D02*
X96657059Y-99755511D01*
X96657059Y-99755511D02*
X96923725Y-99755511D01*
X96923725Y-99755511D02*
X96999916Y-99793606D01*
X96999916Y-99793606D02*
X97038011Y-99831701D01*
X97038011Y-99831701D02*
X97076106Y-99907892D01*
X97076106Y-99907892D02*
X97076106Y-99984082D01*
X97076106Y-99984082D02*
X97038011Y-100060273D01*
X97038011Y-100060273D02*
X96999916Y-100098368D01*
X96999916Y-100098368D02*
X96923725Y-100136463D01*
X96923725Y-100136463D02*
X96657059Y-100136463D01*
X97876106Y-100555511D02*
X97418963Y-100555511D01*
X97647535Y-100555511D02*
X97647535Y-99755511D01*
X97647535Y-99755511D02*
X97571344Y-99869796D01*
X97571344Y-99869796D02*
X97495154Y-99945987D01*
X97495154Y-99945987D02*
X97418963Y-99984082D01*
X124104677Y-139148035D02*
X123771344Y-138671844D01*
X123533249Y-139148035D02*
X123533249Y-138148035D01*
X123533249Y-138148035D02*
X123914201Y-138148035D01*
X123914201Y-138148035D02*
X124009439Y-138195654D01*
X124009439Y-138195654D02*
X124057058Y-138243273D01*
X124057058Y-138243273D02*
X124104677Y-138338511D01*
X124104677Y-138338511D02*
X124104677Y-138481368D01*
X124104677Y-138481368D02*
X124057058Y-138576606D01*
X124057058Y-138576606D02*
X124009439Y-138624225D01*
X124009439Y-138624225D02*
X123914201Y-138671844D01*
X123914201Y-138671844D02*
X123533249Y-138671844D01*
X125057058Y-139148035D02*
X124485630Y-139148035D01*
X124771344Y-139148035D02*
X124771344Y-138148035D01*
X124771344Y-138148035D02*
X124676106Y-138290892D01*
X124676106Y-138290892D02*
X124580868Y-138386130D01*
X124580868Y-138386130D02*
X124485630Y-138433749D01*
X125438011Y-138243273D02*
X125485630Y-138195654D01*
X125485630Y-138195654D02*
X125580868Y-138148035D01*
X125580868Y-138148035D02*
X125818963Y-138148035D01*
X125818963Y-138148035D02*
X125914201Y-138195654D01*
X125914201Y-138195654D02*
X125961820Y-138243273D01*
X125961820Y-138243273D02*
X126009439Y-138338511D01*
X126009439Y-138338511D02*
X126009439Y-138433749D01*
X126009439Y-138433749D02*
X125961820Y-138576606D01*
X125961820Y-138576606D02*
X125390392Y-139148035D01*
X125390392Y-139148035D02*
X126009439Y-139148035D01*
X133897887Y-100339660D02*
X133830543Y-100339660D01*
X133830543Y-100339660D02*
X133695856Y-100272316D01*
X133695856Y-100272316D02*
X133628513Y-100204973D01*
X133628513Y-100204973D02*
X133561169Y-100070286D01*
X133561169Y-100070286D02*
X133561169Y-99935599D01*
X133561169Y-99935599D02*
X133594841Y-99834584D01*
X133594841Y-99834584D02*
X133695856Y-99666225D01*
X133695856Y-99666225D02*
X133796871Y-99565210D01*
X133796871Y-99565210D02*
X133965230Y-99464194D01*
X133965230Y-99464194D02*
X134066245Y-99430523D01*
X134066245Y-99430523D02*
X134200932Y-99430523D01*
X134200932Y-99430523D02*
X134335619Y-99497866D01*
X134335619Y-99497866D02*
X134402963Y-99565210D01*
X134402963Y-99565210D02*
X134470306Y-99699897D01*
X134470306Y-99699897D02*
X134470306Y-99767240D01*
X134739680Y-100036614D02*
X134807024Y-100036614D01*
X134807024Y-100036614D02*
X134908039Y-100070286D01*
X134908039Y-100070286D02*
X135076398Y-100238645D01*
X135076398Y-100238645D02*
X135110070Y-100339660D01*
X135110070Y-100339660D02*
X135110070Y-100407003D01*
X135110070Y-100407003D02*
X135076398Y-100508019D01*
X135076398Y-100508019D02*
X135009054Y-100575362D01*
X135009054Y-100575362D02*
X134874367Y-100642706D01*
X134874367Y-100642706D02*
X134066245Y-100642706D01*
X134066245Y-100642706D02*
X134503978Y-101080438D01*
X107496720Y-96087241D02*
X106789614Y-95380134D01*
X106789614Y-95380134D02*
X107530392Y-95649508D01*
X107530392Y-95649508D02*
X107261018Y-94908730D01*
X107261018Y-94908730D02*
X107968125Y-95615836D01*
X108675232Y-94908730D02*
X108271171Y-95312791D01*
X108473201Y-95110760D02*
X107766094Y-94403653D01*
X107766094Y-94403653D02*
X107799766Y-94572012D01*
X107799766Y-94572012D02*
X107799766Y-94706699D01*
X107799766Y-94706699D02*
X107766094Y-94807714D01*
D10*
X137744200Y-112014000D02*
X142824200Y-112014000D01*
X142824200Y-119634000D02*
X137744199Y-119634000D01*
X142824200Y-119634000D02*
X142824200Y-112014000D01*
X137744199Y-119634000D02*
X137744200Y-112014000D01*
X139114200Y-111364000D02*
G75*
G02*
X138914200Y-111364000I-100000J0D01*
G01*
X138914200Y-111364000D02*
G75*
G02*
X139114200Y-111364000I100000J0D01*
G01*
D12*
X115556338Y-102579145D02*
X117454919Y-100680564D01*
X116097274Y-99322919D02*
X114198693Y-101221500D01*
X117454919Y-100680564D02*
X116097274Y-99322919D01*
X132267178Y-70902613D02*
X132267178Y-71356741D01*
X133737178Y-70902613D02*
X133737178Y-71356741D01*
X141080001Y-122297064D02*
X141080001Y-121842936D01*
X142550001Y-122297064D02*
X142550001Y-121842936D01*
X140797062Y-72290000D02*
X140342934Y-72290000D01*
X140797062Y-73760000D02*
X140342934Y-73760000D01*
D10*
X107071489Y-112277159D02*
X108831478Y-110517170D01*
X108831478Y-110517170D02*
X112423581Y-114109273D01*
X110663592Y-115869262D02*
X107071489Y-112277159D01*
X112423581Y-114109273D02*
X110663592Y-115869262D01*
X112081992Y-115427673D02*
G75*
G02*
X111881992Y-115427673I-100000J0D01*
G01*
X111881992Y-115427673D02*
G75*
G02*
X112081992Y-115427673I100000J0D01*
G01*
X110447535Y-67843216D02*
X117047535Y-67843216D01*
X110447535Y-80543216D02*
X110447535Y-67843216D01*
X117047535Y-67843216D02*
X117047535Y-80543216D01*
X117047535Y-80543216D02*
X110447535Y-80543216D01*
D13*
X109588954Y-69793216D02*
G75*
G02*
X109306116Y-69793216I-141419J0D01*
G01*
X109306116Y-69793216D02*
G75*
G02*
X109588954Y-69793216I141419J0D01*
G01*
X109671141Y-69793216D02*
G75*
G02*
X109223929Y-69793216I-223606J0D01*
G01*
X109223929Y-69793216D02*
G75*
G02*
X109671141Y-69793216I223606J0D01*
G01*
X109671141Y-69793216D02*
G75*
G02*
X109223929Y-69793216I-223606J0D01*
G01*
X109223929Y-69793216D02*
G75*
G02*
X109671141Y-69793216I223606J0D01*
G01*
X109671141Y-69793216D02*
G75*
G02*
X109223929Y-69793216I-223606J0D01*
G01*
X109223929Y-69793216D02*
G75*
G02*
X109671141Y-69793216I223606J0D01*
G01*
X109730376Y-69793216D02*
G75*
G02*
X109164694Y-69793216I-282841J0D01*
G01*
X109164694Y-69793216D02*
G75*
G02*
X109730376Y-69793216I282841J0D01*
G01*
X109808088Y-69793216D02*
G75*
G02*
X109086982Y-69793216I-360553J0D01*
G01*
X109086982Y-69793216D02*
G75*
G02*
X109808088Y-69793216I360553J0D01*
G01*
D12*
X112067253Y-103834051D02*
X112388370Y-103512934D01*
X113106700Y-104873498D02*
X113427817Y-104552381D01*
X137550000Y-121842936D02*
X137550000Y-122297064D01*
X139020000Y-121842936D02*
X139020000Y-122297064D01*
D10*
X106655433Y-117397165D02*
X108451484Y-115601114D01*
X106655433Y-117397165D02*
X112043586Y-122785318D01*
X108451484Y-115601114D02*
X113839637Y-120989267D01*
X113839637Y-120989267D02*
X112043586Y-122785318D01*
X107193839Y-116039520D02*
G75*
G02*
X106993839Y-116039520I-100000J0D01*
G01*
X106993839Y-116039520D02*
G75*
G02*
X107193839Y-116039520I100000J0D01*
G01*
D14*
X123320253Y-104775000D02*
X123394499Y-104700754D01*
X123320253Y-104775000D02*
X123394499Y-104849246D01*
X128270000Y-99825253D02*
X128195754Y-99899499D01*
X128270000Y-99825253D02*
X128344246Y-99899499D01*
X128270000Y-109724747D02*
X128195754Y-109650501D01*
X128270000Y-109724747D02*
X128344246Y-109650501D01*
X133219747Y-104775000D02*
X133145501Y-104700754D01*
X133219747Y-104775000D02*
X133145501Y-104849246D01*
D10*
X134479403Y-102625395D02*
G75*
G02*
X134279403Y-102625395I-100000J0D01*
G01*
X134279403Y-102625395D02*
G75*
G02*
X134479403Y-102625395I100000J0D01*
G01*
D12*
X129007582Y-70883259D02*
X129007582Y-71337387D01*
X130477582Y-70883259D02*
X130477582Y-71337387D01*
D14*
X129042991Y-91076347D02*
X130471347Y-89647991D01*
X132302753Y-89612636D02*
X138532364Y-95842247D01*
X135237247Y-99137364D02*
X129007636Y-92907753D01*
X138497009Y-97673653D02*
X137068653Y-99102009D01*
X129007637Y-92907752D02*
G75*
G02*
X129042992Y-91076348I933380J898024D01*
G01*
X130471347Y-89647991D02*
G75*
G02*
X132302753Y-89612636I933381J-898026D01*
G01*
X137068653Y-99102009D02*
G75*
G02*
X135237247Y-99137364I-933381J898024D01*
G01*
X138532364Y-95842247D02*
G75*
G02*
X138497008Y-97673652I-933379J-898025D01*
G01*
D10*
X131227500Y-68483216D02*
X131227500Y-63403216D01*
X138847500Y-63403216D02*
X131227500Y-63403216D01*
X138847500Y-63403216D02*
X138847500Y-68483216D01*
X138847500Y-68483216D02*
X131227500Y-68483216D01*
X130677500Y-67213216D02*
G75*
G02*
X130477500Y-67213216I-100000J0D01*
G01*
X130477500Y-67213216D02*
G75*
G02*
X130677500Y-67213216I100000J0D01*
G01*
D12*
X114698693Y-96502019D02*
X116597274Y-98400600D01*
X116597274Y-98400600D02*
X117954919Y-97042955D01*
X117954919Y-97042955D02*
X116056338Y-95144374D01*
X118064718Y-98065835D02*
X118385835Y-97744718D01*
X119104165Y-99105282D02*
X119425282Y-98784165D01*
X122935009Y-109770544D02*
X122565542Y-110140011D01*
X123974456Y-110809991D02*
X123604989Y-111179458D01*
X120520645Y-108498351D02*
X120199528Y-108819468D01*
X121560092Y-109537798D02*
X121238975Y-109858915D01*
X140341631Y-74830000D02*
X140795759Y-74830000D01*
X140341631Y-76300000D02*
X140795759Y-76300000D01*
X117729703Y-85812652D02*
X119087348Y-87170297D01*
X119087348Y-87170297D02*
X120985929Y-85271716D01*
X119628284Y-83914071D02*
X117729703Y-85812652D01*
X124480471Y-142418216D02*
X124934599Y-142418216D01*
X124480471Y-143888216D02*
X124934599Y-143888216D01*
D10*
X108747535Y-103081369D02*
X105155433Y-99489267D01*
X110543586Y-94101113D02*
X105155433Y-99489267D01*
X110543586Y-94101113D02*
X114135689Y-97693216D01*
X114135689Y-97693216D02*
X108747535Y-103081369D01*
X107489890Y-102642963D02*
G75*
G02*
X107289890Y-102642963I-100000J0D01*
G01*
X107289890Y-102642963D02*
G75*
G02*
X107489890Y-102642963I100000J0D01*
G01*
D12*
X118064718Y-106955835D02*
X118385835Y-106634718D01*
X119104165Y-107995282D02*
X119425282Y-107674165D01*
D10*
X107071489Y-86609273D02*
X110663592Y-83017170D01*
X108831478Y-88369262D02*
X107071489Y-86609273D01*
X110663592Y-83017170D02*
X112423581Y-84777159D01*
X112423581Y-84777159D02*
X108831478Y-88369262D01*
X107613078Y-87927673D02*
G75*
G02*
X107413078Y-87927673I-100000J0D01*
G01*
X107413078Y-87927673D02*
G75*
G02*
X107613078Y-87927673I100000J0D01*
G01*
X126897535Y-139383216D02*
X134517535Y-139383216D01*
X126897535Y-144463216D02*
X126897535Y-139383216D01*
X126897535Y-144463216D02*
X134517535Y-144463216D01*
X134517535Y-139383216D02*
X134517535Y-144463216D01*
X135267535Y-140653216D02*
G75*
G02*
X135067535Y-140653216I-100000J0D01*
G01*
X135067535Y-140653216D02*
G75*
G02*
X135267535Y-140653216I100000J0D01*
G01*
X143222500Y-71754999D02*
X150842500Y-71755000D01*
X143222500Y-76835000D02*
X143222500Y-71754999D01*
X143222500Y-76835000D02*
X150842500Y-76835000D01*
X150842500Y-71755000D02*
X150842500Y-76835000D01*
X151592500Y-73025000D02*
G75*
G02*
X151392500Y-73025000I-100000J0D01*
G01*
X151392500Y-73025000D02*
G75*
G02*
X151592500Y-73025000I100000J0D01*
G01*
D12*
X112567253Y-94052381D02*
X112888370Y-94373498D01*
X113606700Y-93012934D02*
X113927817Y-93334051D01*
X129435010Y-96579457D02*
X129065543Y-96209990D01*
X130474457Y-95540010D02*
X130104990Y-95170543D01*
D14*
X98501535Y-103943216D02*
X103993535Y-103943216D01*
X100001535Y-101443216D02*
X102493535Y-101443216D01*
X102493535Y-102943216D02*
X100001535Y-102943216D01*
X103993535Y-100443216D02*
X98501535Y-100443216D01*
X98247535Y-100697216D02*
G75*
G02*
X98501535Y-100443216I254000J0D01*
G01*
X98501535Y-103943216D02*
G75*
G02*
X98247535Y-103689216I0J254000D01*
G01*
X99747535Y-101697216D02*
G75*
G02*
X100001535Y-101443216I254000J0D01*
G01*
X100001535Y-102943216D02*
G75*
G02*
X99747535Y-102689216I0J254000D01*
G01*
X102493535Y-101443216D02*
G75*
G02*
X102747535Y-101697216I0J-254000D01*
G01*
X102747535Y-102689216D02*
G75*
G02*
X102493535Y-102943216I-254000J0D01*
G01*
X103993535Y-100443216D02*
G75*
G02*
X104247535Y-100697216I0J-254000D01*
G01*
X104247535Y-103689216D02*
G75*
G02*
X103993535Y-103943216I-254000J0D01*
G01*
D12*
X124934599Y-139918216D02*
X124480471Y-139918216D01*
X124934599Y-141388216D02*
X124480471Y-141388216D01*
X131565543Y-98709990D02*
X131935010Y-99079457D01*
X132604990Y-97670543D02*
X132974457Y-98040010D01*
D10*
X106571489Y-92379273D02*
X110163592Y-88787170D01*
X108331478Y-94139262D02*
X106571489Y-92379273D01*
X110163592Y-88787170D02*
X111923581Y-90547159D01*
X111923581Y-90547159D02*
X108331478Y-94139262D01*
X111581992Y-89228759D02*
G75*
G02*
X111381992Y-89228759I-100000J0D01*
G01*
X111381992Y-89228759D02*
G75*
G02*
X111581992Y-89228759I100000J0D01*
G01*
%LPC*%
D15*
X139014200Y-113284000D03*
D16*
X141554200Y-113284000D03*
X139014200Y-115824000D03*
X141554200Y-115824000D03*
X139014200Y-118363999D03*
X141554200Y-118364000D03*
D17*
X116247535Y-100530303D03*
X114921709Y-101856129D03*
D18*
X133002178Y-70217177D03*
X133002178Y-72042177D03*
D19*
X141815001Y-122982500D03*
X141815001Y-121157500D03*
D20*
X141482498Y-73025000D03*
X139657498Y-73025000D03*
D21*
X110645561Y-114091242D03*
D22*
X108849509Y-112295190D03*
D23*
X113747535Y-69493216D03*
D24*
X113747535Y-74193216D03*
X113747535Y-78893216D03*
D25*
X112102300Y-104838451D03*
X113392770Y-103547981D03*
D18*
X138285000Y-121157500D03*
X138285000Y-122982500D03*
D26*
X108451484Y-117397165D03*
D16*
X110247535Y-119193216D03*
X112043586Y-120989267D03*
D27*
X133198534Y-103806264D03*
X132632849Y-103240578D03*
X132067163Y-102674893D03*
X131501478Y-102109207D03*
X130935793Y-101543522D03*
X130370107Y-100977837D03*
X129804422Y-100412151D03*
X129238736Y-99846466D03*
D28*
X127301264Y-99846466D03*
X126735578Y-100412151D03*
X126169893Y-100977837D03*
X125604207Y-101543522D03*
X125038522Y-102109207D03*
X124472837Y-102674893D03*
X123907151Y-103240578D03*
X123341466Y-103806264D03*
D27*
X123341466Y-105743736D03*
X123907151Y-106309422D03*
X124472837Y-106875107D03*
X125038522Y-107440793D03*
X125604207Y-108006478D03*
X126169893Y-108572163D03*
X126735578Y-109137849D03*
X127301264Y-109703534D03*
D28*
X129238736Y-109703534D03*
X129804422Y-109137849D03*
X130370107Y-108572163D03*
X130935793Y-108006478D03*
X131501478Y-107440793D03*
X132067163Y-106875107D03*
X132632849Y-106309422D03*
X133198534Y-105743736D03*
D18*
X129742582Y-70197823D03*
X129742582Y-72022823D03*
D29*
X135495341Y-96100341D03*
X132044659Y-92649659D03*
D30*
X132497500Y-67213216D03*
D16*
X132497500Y-64673216D03*
X135037500Y-67213216D03*
X135037500Y-64673216D03*
X137577500Y-67213216D03*
X137577500Y-64673216D03*
D31*
X116747535Y-97193216D03*
X115421709Y-95867390D03*
D32*
X118037893Y-99132107D03*
X119452107Y-97717893D03*
D33*
X123941750Y-109803250D03*
X122598248Y-111146752D03*
D34*
X121525045Y-108533398D03*
X120234575Y-109823868D03*
D35*
X139656195Y-75565000D03*
X141481195Y-75565000D03*
D36*
X118937087Y-85962913D03*
X120262913Y-84637087D03*
D35*
X123795035Y-143153216D03*
X125620035Y-143153216D03*
D37*
X108747535Y-101285318D03*
D16*
X106951484Y-99489267D03*
X110543586Y-99489267D03*
X108747535Y-97693216D03*
X112339637Y-97693216D03*
X110543586Y-95897164D03*
D25*
X118099765Y-107960235D03*
X119390235Y-106669765D03*
D38*
X108849509Y-86591242D03*
D22*
X110645561Y-84795190D03*
D39*
X133247535Y-140653216D03*
D16*
X133247535Y-143193216D03*
X130707535Y-140653216D03*
X130707535Y-143193216D03*
X128167535Y-140653216D03*
X128167535Y-143193216D03*
D39*
X149572500Y-73025000D03*
D16*
X149572500Y-75565000D03*
X147032500Y-73025000D03*
X147032500Y-75565000D03*
X144492501Y-73025000D03*
X144492500Y-75565000D03*
D40*
X112602300Y-93047981D03*
X113892770Y-94338451D03*
D41*
X130441751Y-96546751D03*
X129098249Y-95203249D03*
D42*
X97997535Y-102193216D03*
X104497535Y-102193216D03*
D20*
X125620035Y-140653216D03*
X123795035Y-140653216D03*
D43*
X131598249Y-97703249D03*
X132941751Y-99046751D03*
D44*
X110145561Y-90565190D03*
D22*
X108349509Y-92361242D03*
%LPD*%
M02*
