%TF.GenerationSoftware,KiCad,Pcbnew,8.0.1*%
%TF.CreationDate,2024-05-30T23:21:13+02:00*%
%TF.ProjectId,minisumo_pcb,6d696e69-7375-46d6-9f5f-7063622e6b69,rev?*%
%TF.SameCoordinates,Original*%
%TF.FileFunction,Legend,Bot*%
%TF.FilePolarity,Positive*%
%FSLAX46Y46*%
G04 Gerber Fmt 4.6, Leading zero omitted, Abs format (unit mm)*
G04 Created by KiCad (PCBNEW 8.0.1) date 2024-05-30 23:21:13*
%MOMM*%
%LPD*%
G01*
G04 APERTURE LIST*
%ADD10C,0.150000*%
%ADD11C,0.100000*%
%ADD12C,0.120000*%
G04 APERTURE END LIST*
D10*
X124004818Y-119790476D02*
X123004818Y-119790476D01*
X123004818Y-119790476D02*
X123719103Y-120123809D01*
X123719103Y-120123809D02*
X123004818Y-120457142D01*
X123004818Y-120457142D02*
X124004818Y-120457142D01*
X124100056Y-120695238D02*
X124100056Y-121457142D01*
X124004818Y-121695238D02*
X123004818Y-121695238D01*
X123004818Y-121695238D02*
X123004818Y-121933333D01*
X123004818Y-121933333D02*
X123052437Y-122076190D01*
X123052437Y-122076190D02*
X123147675Y-122171428D01*
X123147675Y-122171428D02*
X123242913Y-122219047D01*
X123242913Y-122219047D02*
X123433389Y-122266666D01*
X123433389Y-122266666D02*
X123576246Y-122266666D01*
X123576246Y-122266666D02*
X123766722Y-122219047D01*
X123766722Y-122219047D02*
X123861960Y-122171428D01*
X123861960Y-122171428D02*
X123957199Y-122076190D01*
X123957199Y-122076190D02*
X124004818Y-121933333D01*
X124004818Y-121933333D02*
X124004818Y-121695238D01*
X124004818Y-123266666D02*
X123528627Y-122933333D01*
X124004818Y-122695238D02*
X123004818Y-122695238D01*
X123004818Y-122695238D02*
X123004818Y-123076190D01*
X123004818Y-123076190D02*
X123052437Y-123171428D01*
X123052437Y-123171428D02*
X123100056Y-123219047D01*
X123100056Y-123219047D02*
X123195294Y-123266666D01*
X123195294Y-123266666D02*
X123338151Y-123266666D01*
X123338151Y-123266666D02*
X123433389Y-123219047D01*
X123433389Y-123219047D02*
X123481008Y-123171428D01*
X123481008Y-123171428D02*
X123528627Y-123076190D01*
X123528627Y-123076190D02*
X123528627Y-122695238D01*
X124004818Y-123695238D02*
X123004818Y-123695238D01*
X123004818Y-124028571D02*
X124004818Y-124361904D01*
X124004818Y-124361904D02*
X123004818Y-124695237D01*
X123481008Y-125028571D02*
X123481008Y-125361904D01*
X124004818Y-125504761D02*
X124004818Y-125028571D01*
X124004818Y-125028571D02*
X123004818Y-125028571D01*
X123004818Y-125028571D02*
X123004818Y-125504761D01*
X124004818Y-126504761D02*
X123528627Y-126171428D01*
X124004818Y-125933333D02*
X123004818Y-125933333D01*
X123004818Y-125933333D02*
X123004818Y-126314285D01*
X123004818Y-126314285D02*
X123052437Y-126409523D01*
X123052437Y-126409523D02*
X123100056Y-126457142D01*
X123100056Y-126457142D02*
X123195294Y-126504761D01*
X123195294Y-126504761D02*
X123338151Y-126504761D01*
X123338151Y-126504761D02*
X123433389Y-126457142D01*
X123433389Y-126457142D02*
X123481008Y-126409523D01*
X123481008Y-126409523D02*
X123528627Y-126314285D01*
X123528627Y-126314285D02*
X123528627Y-125933333D01*
X123100056Y-126885714D02*
X123052437Y-126933333D01*
X123052437Y-126933333D02*
X123004818Y-127028571D01*
X123004818Y-127028571D02*
X123004818Y-127266666D01*
X123004818Y-127266666D02*
X123052437Y-127361904D01*
X123052437Y-127361904D02*
X123100056Y-127409523D01*
X123100056Y-127409523D02*
X123195294Y-127457142D01*
X123195294Y-127457142D02*
X123290532Y-127457142D01*
X123290532Y-127457142D02*
X123433389Y-127409523D01*
X123433389Y-127409523D02*
X124004818Y-126838095D01*
X124004818Y-126838095D02*
X124004818Y-127457142D01*
X92890392Y-105148035D02*
X93223725Y-104671844D01*
X93461820Y-105148035D02*
X93461820Y-104148035D01*
X93461820Y-104148035D02*
X93080868Y-104148035D01*
X93080868Y-104148035D02*
X92985630Y-104195654D01*
X92985630Y-104195654D02*
X92938011Y-104243273D01*
X92938011Y-104243273D02*
X92890392Y-104338511D01*
X92890392Y-104338511D02*
X92890392Y-104481368D01*
X92890392Y-104481368D02*
X92938011Y-104576606D01*
X92938011Y-104576606D02*
X92985630Y-104624225D01*
X92985630Y-104624225D02*
X93080868Y-104671844D01*
X93080868Y-104671844D02*
X93461820Y-104671844D01*
X91938011Y-105148035D02*
X92509439Y-105148035D01*
X92223725Y-105148035D02*
X92223725Y-104148035D01*
X92223725Y-104148035D02*
X92318963Y-104290892D01*
X92318963Y-104290892D02*
X92414201Y-104386130D01*
X92414201Y-104386130D02*
X92509439Y-104433749D01*
X91604677Y-104148035D02*
X90938011Y-104148035D01*
X90938011Y-104148035D02*
X91366582Y-105148035D01*
X136725830Y-125910693D02*
X136793174Y-125910693D01*
X136793174Y-125910693D02*
X136927861Y-125843349D01*
X136927861Y-125843349D02*
X136995204Y-125776006D01*
X136995204Y-125776006D02*
X137062548Y-125641319D01*
X137062548Y-125641319D02*
X137062548Y-125506632D01*
X137062548Y-125506632D02*
X137028876Y-125405617D01*
X137028876Y-125405617D02*
X136927861Y-125237258D01*
X136927861Y-125237258D02*
X136826846Y-125136243D01*
X136826846Y-125136243D02*
X136658487Y-125035227D01*
X136658487Y-125035227D02*
X136557472Y-125001556D01*
X136557472Y-125001556D02*
X136422785Y-125001556D01*
X136422785Y-125001556D02*
X136288098Y-125068899D01*
X136288098Y-125068899D02*
X136220754Y-125136243D01*
X136220754Y-125136243D02*
X136153411Y-125270930D01*
X136153411Y-125270930D02*
X136153411Y-125338273D01*
X135884037Y-125607647D02*
X135816693Y-125607647D01*
X135816693Y-125607647D02*
X135715678Y-125641319D01*
X135715678Y-125641319D02*
X135547319Y-125809678D01*
X135547319Y-125809678D02*
X135513647Y-125910693D01*
X135513647Y-125910693D02*
X135513647Y-125978036D01*
X135513647Y-125978036D02*
X135547319Y-126079052D01*
X135547319Y-126079052D02*
X135614663Y-126146395D01*
X135614663Y-126146395D02*
X135749350Y-126213739D01*
X135749350Y-126213739D02*
X136557472Y-126213739D01*
X136557472Y-126213739D02*
X136119739Y-126651471D01*
X135783021Y-126988189D02*
X135648334Y-127122876D01*
X135648334Y-127122876D02*
X135547319Y-127156548D01*
X135547319Y-127156548D02*
X135479975Y-127156548D01*
X135479975Y-127156548D02*
X135311617Y-127122876D01*
X135311617Y-127122876D02*
X135143258Y-127021861D01*
X135143258Y-127021861D02*
X134873884Y-126752487D01*
X134873884Y-126752487D02*
X134840212Y-126651472D01*
X134840212Y-126651472D02*
X134840212Y-126584128D01*
X134840212Y-126584128D02*
X134873884Y-126483113D01*
X134873884Y-126483113D02*
X135008571Y-126348426D01*
X135008571Y-126348426D02*
X135109586Y-126314754D01*
X135109586Y-126314754D02*
X135176930Y-126314754D01*
X135176930Y-126314754D02*
X135277945Y-126348426D01*
X135277945Y-126348426D02*
X135446304Y-126516785D01*
X135446304Y-126516785D02*
X135479975Y-126617800D01*
X135479975Y-126617800D02*
X135479975Y-126685143D01*
X135479975Y-126685143D02*
X135446304Y-126786159D01*
X135446304Y-126786159D02*
X135311617Y-126920846D01*
X135311617Y-126920846D02*
X135210601Y-126954517D01*
X135210601Y-126954517D02*
X135143258Y-126954517D01*
X135143258Y-126954517D02*
X135042243Y-126920846D01*
X83890392Y-105148035D02*
X84366582Y-105148035D01*
X84366582Y-105148035D02*
X84366582Y-104148035D01*
X83604677Y-105100416D02*
X83461820Y-105148035D01*
X83461820Y-105148035D02*
X83223725Y-105148035D01*
X83223725Y-105148035D02*
X83128487Y-105100416D01*
X83128487Y-105100416D02*
X83080868Y-105052796D01*
X83080868Y-105052796D02*
X83033249Y-104957558D01*
X83033249Y-104957558D02*
X83033249Y-104862320D01*
X83033249Y-104862320D02*
X83080868Y-104767082D01*
X83080868Y-104767082D02*
X83128487Y-104719463D01*
X83128487Y-104719463D02*
X83223725Y-104671844D01*
X83223725Y-104671844D02*
X83414201Y-104624225D01*
X83414201Y-104624225D02*
X83509439Y-104576606D01*
X83509439Y-104576606D02*
X83557058Y-104528987D01*
X83557058Y-104528987D02*
X83604677Y-104433749D01*
X83604677Y-104433749D02*
X83604677Y-104338511D01*
X83604677Y-104338511D02*
X83557058Y-104243273D01*
X83557058Y-104243273D02*
X83509439Y-104195654D01*
X83509439Y-104195654D02*
X83414201Y-104148035D01*
X83414201Y-104148035D02*
X83176106Y-104148035D01*
X83176106Y-104148035D02*
X83033249Y-104195654D01*
X82080868Y-105148035D02*
X82652296Y-105148035D01*
X82366582Y-105148035D02*
X82366582Y-104148035D01*
X82366582Y-104148035D02*
X82461820Y-104290892D01*
X82461820Y-104290892D02*
X82557058Y-104386130D01*
X82557058Y-104386130D02*
X82652296Y-104433749D01*
D11*
X80300639Y-103577903D02*
X80300639Y-104035046D01*
X80300639Y-103806474D02*
X81100639Y-103806474D01*
X81100639Y-103806474D02*
X80986354Y-103882665D01*
X80986354Y-103882665D02*
X80910163Y-103958855D01*
X80910163Y-103958855D02*
X80872068Y-104035046D01*
D10*
X145968641Y-138898035D02*
X146301974Y-138421844D01*
X146540069Y-138898035D02*
X146540069Y-137898035D01*
X146540069Y-137898035D02*
X146159117Y-137898035D01*
X146159117Y-137898035D02*
X146063879Y-137945654D01*
X146063879Y-137945654D02*
X146016260Y-137993273D01*
X146016260Y-137993273D02*
X145968641Y-138088511D01*
X145968641Y-138088511D02*
X145968641Y-138231368D01*
X145968641Y-138231368D02*
X146016260Y-138326606D01*
X146016260Y-138326606D02*
X146063879Y-138374225D01*
X146063879Y-138374225D02*
X146159117Y-138421844D01*
X146159117Y-138421844D02*
X146540069Y-138421844D01*
X145016260Y-138898035D02*
X145587688Y-138898035D01*
X145301974Y-138898035D02*
X145301974Y-137898035D01*
X145301974Y-137898035D02*
X145397212Y-138040892D01*
X145397212Y-138040892D02*
X145492450Y-138136130D01*
X145492450Y-138136130D02*
X145587688Y-138183749D01*
X144159117Y-138231368D02*
X144159117Y-138898035D01*
X144397212Y-137850416D02*
X144635307Y-138564701D01*
X144635307Y-138564701D02*
X144016260Y-138564701D01*
X125608830Y-132399693D02*
X125676174Y-132399693D01*
X125676174Y-132399693D02*
X125810861Y-132332349D01*
X125810861Y-132332349D02*
X125878204Y-132265006D01*
X125878204Y-132265006D02*
X125945548Y-132130319D01*
X125945548Y-132130319D02*
X125945548Y-131995632D01*
X125945548Y-131995632D02*
X125911876Y-131894617D01*
X125911876Y-131894617D02*
X125810861Y-131726258D01*
X125810861Y-131726258D02*
X125709846Y-131625243D01*
X125709846Y-131625243D02*
X125541487Y-131524227D01*
X125541487Y-131524227D02*
X125440472Y-131490556D01*
X125440472Y-131490556D02*
X125305785Y-131490556D01*
X125305785Y-131490556D02*
X125171098Y-131557899D01*
X125171098Y-131557899D02*
X125103754Y-131625243D01*
X125103754Y-131625243D02*
X125036411Y-131759930D01*
X125036411Y-131759930D02*
X125036411Y-131827273D01*
X124767037Y-132096647D02*
X124699693Y-132096647D01*
X124699693Y-132096647D02*
X124598678Y-132130319D01*
X124598678Y-132130319D02*
X124430319Y-132298678D01*
X124430319Y-132298678D02*
X124396647Y-132399693D01*
X124396647Y-132399693D02*
X124396647Y-132467036D01*
X124396647Y-132467036D02*
X124430319Y-132568052D01*
X124430319Y-132568052D02*
X124497663Y-132635395D01*
X124497663Y-132635395D02*
X124632350Y-132702739D01*
X124632350Y-132702739D02*
X125440472Y-132702739D01*
X125440472Y-132702739D02*
X125002739Y-133140471D01*
X124194617Y-133140472D02*
X124228288Y-133039456D01*
X124228288Y-133039456D02*
X124228288Y-132972113D01*
X124228288Y-132972113D02*
X124194617Y-132871098D01*
X124194617Y-132871098D02*
X124160945Y-132837426D01*
X124160945Y-132837426D02*
X124059930Y-132803754D01*
X124059930Y-132803754D02*
X123992586Y-132803754D01*
X123992586Y-132803754D02*
X123891571Y-132837426D01*
X123891571Y-132837426D02*
X123756884Y-132972113D01*
X123756884Y-132972113D02*
X123723212Y-133073128D01*
X123723212Y-133073128D02*
X123723212Y-133140472D01*
X123723212Y-133140472D02*
X123756884Y-133241487D01*
X123756884Y-133241487D02*
X123790556Y-133275159D01*
X123790556Y-133275159D02*
X123891571Y-133308830D01*
X123891571Y-133308830D02*
X123958914Y-133308830D01*
X123958914Y-133308830D02*
X124059930Y-133275159D01*
X124059930Y-133275159D02*
X124194617Y-133140472D01*
X124194617Y-133140472D02*
X124295632Y-133106800D01*
X124295632Y-133106800D02*
X124362975Y-133106800D01*
X124362975Y-133106800D02*
X124463991Y-133140472D01*
X124463991Y-133140472D02*
X124598678Y-133275159D01*
X124598678Y-133275159D02*
X124632349Y-133376174D01*
X124632349Y-133376174D02*
X124632349Y-133443517D01*
X124632349Y-133443517D02*
X124598678Y-133544533D01*
X124598678Y-133544533D02*
X124463991Y-133679220D01*
X124463991Y-133679220D02*
X124362975Y-133712891D01*
X124362975Y-133712891D02*
X124295632Y-133712891D01*
X124295632Y-133712891D02*
X124194617Y-133679220D01*
X124194617Y-133679220D02*
X124059930Y-133544533D01*
X124059930Y-133544533D02*
X124026258Y-133443517D01*
X124026258Y-133443517D02*
X124026258Y-133376174D01*
X124026258Y-133376174D02*
X124059930Y-133275159D01*
X129188664Y-87432238D02*
X129188664Y-87499582D01*
X129188664Y-87499582D02*
X129256008Y-87634269D01*
X129256008Y-87634269D02*
X129323351Y-87701612D01*
X129323351Y-87701612D02*
X129458038Y-87768956D01*
X129458038Y-87768956D02*
X129592725Y-87768956D01*
X129592725Y-87768956D02*
X129693740Y-87735284D01*
X129693740Y-87735284D02*
X129862099Y-87634269D01*
X129862099Y-87634269D02*
X129963114Y-87533254D01*
X129963114Y-87533254D02*
X130064130Y-87364895D01*
X130064130Y-87364895D02*
X130097801Y-87263880D01*
X130097801Y-87263880D02*
X130097801Y-87129193D01*
X130097801Y-87129193D02*
X130030458Y-86994506D01*
X130030458Y-86994506D02*
X129963114Y-86927162D01*
X129963114Y-86927162D02*
X129828427Y-86859819D01*
X129828427Y-86859819D02*
X129761084Y-86859819D01*
X129222336Y-86186384D02*
X129357023Y-86321071D01*
X129357023Y-86321071D02*
X129390695Y-86422086D01*
X129390695Y-86422086D02*
X129390695Y-86489429D01*
X129390695Y-86489429D02*
X129357023Y-86657788D01*
X129357023Y-86657788D02*
X129256008Y-86826147D01*
X129256008Y-86826147D02*
X128986634Y-87095521D01*
X128986634Y-87095521D02*
X128885618Y-87129193D01*
X128885618Y-87129193D02*
X128818275Y-87129193D01*
X128818275Y-87129193D02*
X128717260Y-87095521D01*
X128717260Y-87095521D02*
X128582573Y-86960834D01*
X128582573Y-86960834D02*
X128548901Y-86859819D01*
X128548901Y-86859819D02*
X128548901Y-86792475D01*
X128548901Y-86792475D02*
X128582573Y-86691460D01*
X128582573Y-86691460D02*
X128750931Y-86523101D01*
X128750931Y-86523101D02*
X128851947Y-86489429D01*
X128851947Y-86489429D02*
X128919290Y-86489429D01*
X128919290Y-86489429D02*
X129020305Y-86523101D01*
X129020305Y-86523101D02*
X129154992Y-86657788D01*
X129154992Y-86657788D02*
X129188664Y-86758803D01*
X129188664Y-86758803D02*
X129188664Y-86826147D01*
X129188664Y-86826147D02*
X129154992Y-86927162D01*
X130212111Y-95094112D02*
X130212111Y-95161456D01*
X130212111Y-95161456D02*
X130279455Y-95296143D01*
X130279455Y-95296143D02*
X130346798Y-95363486D01*
X130346798Y-95363486D02*
X130481485Y-95430830D01*
X130481485Y-95430830D02*
X130616172Y-95430830D01*
X130616172Y-95430830D02*
X130717187Y-95397158D01*
X130717187Y-95397158D02*
X130885546Y-95296143D01*
X130885546Y-95296143D02*
X130986561Y-95195128D01*
X130986561Y-95195128D02*
X131087577Y-95026769D01*
X131087577Y-95026769D02*
X131121248Y-94925754D01*
X131121248Y-94925754D02*
X131121248Y-94791067D01*
X131121248Y-94791067D02*
X131053905Y-94656380D01*
X131053905Y-94656380D02*
X130986561Y-94589036D01*
X130986561Y-94589036D02*
X130851874Y-94521693D01*
X130851874Y-94521693D02*
X130784531Y-94521693D01*
X130212111Y-93814586D02*
X130548829Y-94151303D01*
X130548829Y-94151303D02*
X130245783Y-94521693D01*
X130245783Y-94521693D02*
X130245783Y-94454349D01*
X130245783Y-94454349D02*
X130212111Y-94353334D01*
X130212111Y-94353334D02*
X130043752Y-94184975D01*
X130043752Y-94184975D02*
X129942737Y-94151303D01*
X129942737Y-94151303D02*
X129875394Y-94151303D01*
X129875394Y-94151303D02*
X129774378Y-94184975D01*
X129774378Y-94184975D02*
X129606020Y-94353334D01*
X129606020Y-94353334D02*
X129572348Y-94454349D01*
X129572348Y-94454349D02*
X129572348Y-94521693D01*
X129572348Y-94521693D02*
X129606020Y-94622708D01*
X129606020Y-94622708D02*
X129774378Y-94791067D01*
X129774378Y-94791067D02*
X129875394Y-94824738D01*
X129875394Y-94824738D02*
X129942737Y-94824738D01*
X144739579Y-104110833D02*
X144787199Y-104063214D01*
X144787199Y-104063214D02*
X144834818Y-103920357D01*
X144834818Y-103920357D02*
X144834818Y-103825119D01*
X144834818Y-103825119D02*
X144787199Y-103682262D01*
X144787199Y-103682262D02*
X144691960Y-103587024D01*
X144691960Y-103587024D02*
X144596722Y-103539405D01*
X144596722Y-103539405D02*
X144406246Y-103491786D01*
X144406246Y-103491786D02*
X144263389Y-103491786D01*
X144263389Y-103491786D02*
X144072913Y-103539405D01*
X144072913Y-103539405D02*
X143977675Y-103587024D01*
X143977675Y-103587024D02*
X143882437Y-103682262D01*
X143882437Y-103682262D02*
X143834818Y-103825119D01*
X143834818Y-103825119D02*
X143834818Y-103920357D01*
X143834818Y-103920357D02*
X143882437Y-104063214D01*
X143882437Y-104063214D02*
X143930056Y-104110833D01*
X143834818Y-104444167D02*
X143834818Y-105110833D01*
X143834818Y-105110833D02*
X144834818Y-104682262D01*
X126708830Y-134699693D02*
X126776174Y-134699693D01*
X126776174Y-134699693D02*
X126910861Y-134632349D01*
X126910861Y-134632349D02*
X126978204Y-134565006D01*
X126978204Y-134565006D02*
X127045548Y-134430319D01*
X127045548Y-134430319D02*
X127045548Y-134295632D01*
X127045548Y-134295632D02*
X127011876Y-134194617D01*
X127011876Y-134194617D02*
X126910861Y-134026258D01*
X126910861Y-134026258D02*
X126809846Y-133925243D01*
X126809846Y-133925243D02*
X126641487Y-133824227D01*
X126641487Y-133824227D02*
X126540472Y-133790556D01*
X126540472Y-133790556D02*
X126405785Y-133790556D01*
X126405785Y-133790556D02*
X126271098Y-133857899D01*
X126271098Y-133857899D02*
X126203754Y-133925243D01*
X126203754Y-133925243D02*
X126136411Y-134059930D01*
X126136411Y-134059930D02*
X126136411Y-134127273D01*
X125867037Y-134396647D02*
X125799693Y-134396647D01*
X125799693Y-134396647D02*
X125698678Y-134430319D01*
X125698678Y-134430319D02*
X125530319Y-134598678D01*
X125530319Y-134598678D02*
X125496647Y-134699693D01*
X125496647Y-134699693D02*
X125496647Y-134767036D01*
X125496647Y-134767036D02*
X125530319Y-134868052D01*
X125530319Y-134868052D02*
X125597663Y-134935395D01*
X125597663Y-134935395D02*
X125732350Y-135002739D01*
X125732350Y-135002739D02*
X126540472Y-135002739D01*
X126540472Y-135002739D02*
X126102739Y-135440471D01*
X125159930Y-134969067D02*
X124688525Y-135440472D01*
X124688525Y-135440472D02*
X125698678Y-135844533D01*
X144517112Y-87131411D02*
X144584456Y-87131411D01*
X144584456Y-87131411D02*
X144719143Y-87064067D01*
X144719143Y-87064067D02*
X144786486Y-86996724D01*
X144786486Y-86996724D02*
X144853830Y-86862037D01*
X144853830Y-86862037D02*
X144853830Y-86727350D01*
X144853830Y-86727350D02*
X144820158Y-86626335D01*
X144820158Y-86626335D02*
X144719143Y-86457976D01*
X144719143Y-86457976D02*
X144618128Y-86356961D01*
X144618128Y-86356961D02*
X144449769Y-86255945D01*
X144449769Y-86255945D02*
X144348754Y-86222274D01*
X144348754Y-86222274D02*
X144214067Y-86222274D01*
X144214067Y-86222274D02*
X144079380Y-86289617D01*
X144079380Y-86289617D02*
X144012036Y-86356961D01*
X144012036Y-86356961D02*
X143944693Y-86491648D01*
X143944693Y-86491648D02*
X143944693Y-86558991D01*
X143506960Y-87333441D02*
X143978364Y-87804846D01*
X143405945Y-86895709D02*
X144079380Y-87232426D01*
X144079380Y-87232426D02*
X143641647Y-87670159D01*
X130817857Y-77959580D02*
X130865476Y-78007200D01*
X130865476Y-78007200D02*
X131008333Y-78054819D01*
X131008333Y-78054819D02*
X131103571Y-78054819D01*
X131103571Y-78054819D02*
X131246428Y-78007200D01*
X131246428Y-78007200D02*
X131341666Y-77911961D01*
X131341666Y-77911961D02*
X131389285Y-77816723D01*
X131389285Y-77816723D02*
X131436904Y-77626247D01*
X131436904Y-77626247D02*
X131436904Y-77483390D01*
X131436904Y-77483390D02*
X131389285Y-77292914D01*
X131389285Y-77292914D02*
X131341666Y-77197676D01*
X131341666Y-77197676D02*
X131246428Y-77102438D01*
X131246428Y-77102438D02*
X131103571Y-77054819D01*
X131103571Y-77054819D02*
X131008333Y-77054819D01*
X131008333Y-77054819D02*
X130865476Y-77102438D01*
X130865476Y-77102438D02*
X130817857Y-77150057D01*
X129865476Y-78054819D02*
X130436904Y-78054819D01*
X130151190Y-78054819D02*
X130151190Y-77054819D01*
X130151190Y-77054819D02*
X130246428Y-77197676D01*
X130246428Y-77197676D02*
X130341666Y-77292914D01*
X130341666Y-77292914D02*
X130436904Y-77340533D01*
X129246428Y-77054819D02*
X129151190Y-77054819D01*
X129151190Y-77054819D02*
X129055952Y-77102438D01*
X129055952Y-77102438D02*
X129008333Y-77150057D01*
X129008333Y-77150057D02*
X128960714Y-77245295D01*
X128960714Y-77245295D02*
X128913095Y-77435771D01*
X128913095Y-77435771D02*
X128913095Y-77673866D01*
X128913095Y-77673866D02*
X128960714Y-77864342D01*
X128960714Y-77864342D02*
X129008333Y-77959580D01*
X129008333Y-77959580D02*
X129055952Y-78007200D01*
X129055952Y-78007200D02*
X129151190Y-78054819D01*
X129151190Y-78054819D02*
X129246428Y-78054819D01*
X129246428Y-78054819D02*
X129341666Y-78007200D01*
X129341666Y-78007200D02*
X129389285Y-77959580D01*
X129389285Y-77959580D02*
X129436904Y-77864342D01*
X129436904Y-77864342D02*
X129484523Y-77673866D01*
X129484523Y-77673866D02*
X129484523Y-77435771D01*
X129484523Y-77435771D02*
X129436904Y-77245295D01*
X129436904Y-77245295D02*
X129389285Y-77150057D01*
X129389285Y-77150057D02*
X129341666Y-77102438D01*
X129341666Y-77102438D02*
X129246428Y-77054819D01*
X121250057Y-66304761D02*
X121202438Y-66209523D01*
X121202438Y-66209523D02*
X121107200Y-66114285D01*
X121107200Y-66114285D02*
X120964342Y-65971428D01*
X120964342Y-65971428D02*
X120916723Y-65876190D01*
X120916723Y-65876190D02*
X120916723Y-65780952D01*
X121154819Y-65828571D02*
X121107200Y-65733333D01*
X121107200Y-65733333D02*
X121011961Y-65638095D01*
X121011961Y-65638095D02*
X120821485Y-65590476D01*
X120821485Y-65590476D02*
X120488152Y-65590476D01*
X120488152Y-65590476D02*
X120297676Y-65638095D01*
X120297676Y-65638095D02*
X120202438Y-65733333D01*
X120202438Y-65733333D02*
X120154819Y-65828571D01*
X120154819Y-65828571D02*
X120154819Y-66019047D01*
X120154819Y-66019047D02*
X120202438Y-66114285D01*
X120202438Y-66114285D02*
X120297676Y-66209523D01*
X120297676Y-66209523D02*
X120488152Y-66257142D01*
X120488152Y-66257142D02*
X120821485Y-66257142D01*
X120821485Y-66257142D02*
X121011961Y-66209523D01*
X121011961Y-66209523D02*
X121107200Y-66114285D01*
X121107200Y-66114285D02*
X121154819Y-66019047D01*
X121154819Y-66019047D02*
X121154819Y-65828571D01*
X121154819Y-67209523D02*
X121154819Y-66638095D01*
X121154819Y-66923809D02*
X120154819Y-66923809D01*
X120154819Y-66923809D02*
X120297676Y-66828571D01*
X120297676Y-66828571D02*
X120392914Y-66733333D01*
X120392914Y-66733333D02*
X120440533Y-66638095D01*
X149718641Y-136648035D02*
X150051974Y-136171844D01*
X150290069Y-136648035D02*
X150290069Y-135648035D01*
X150290069Y-135648035D02*
X149909117Y-135648035D01*
X149909117Y-135648035D02*
X149813879Y-135695654D01*
X149813879Y-135695654D02*
X149766260Y-135743273D01*
X149766260Y-135743273D02*
X149718641Y-135838511D01*
X149718641Y-135838511D02*
X149718641Y-135981368D01*
X149718641Y-135981368D02*
X149766260Y-136076606D01*
X149766260Y-136076606D02*
X149813879Y-136124225D01*
X149813879Y-136124225D02*
X149909117Y-136171844D01*
X149909117Y-136171844D02*
X150290069Y-136171844D01*
X148766260Y-136648035D02*
X149337688Y-136648035D01*
X149051974Y-136648035D02*
X149051974Y-135648035D01*
X149051974Y-135648035D02*
X149147212Y-135790892D01*
X149147212Y-135790892D02*
X149242450Y-135886130D01*
X149242450Y-135886130D02*
X149337688Y-135933749D01*
X148432926Y-135648035D02*
X147813879Y-135648035D01*
X147813879Y-135648035D02*
X148147212Y-136028987D01*
X148147212Y-136028987D02*
X148004355Y-136028987D01*
X148004355Y-136028987D02*
X147909117Y-136076606D01*
X147909117Y-136076606D02*
X147861498Y-136124225D01*
X147861498Y-136124225D02*
X147813879Y-136219463D01*
X147813879Y-136219463D02*
X147813879Y-136457558D01*
X147813879Y-136457558D02*
X147861498Y-136552796D01*
X147861498Y-136552796D02*
X147909117Y-136600416D01*
X147909117Y-136600416D02*
X148004355Y-136648035D01*
X148004355Y-136648035D02*
X148290069Y-136648035D01*
X148290069Y-136648035D02*
X148385307Y-136600416D01*
X148385307Y-136600416D02*
X148432926Y-136552796D01*
X138681630Y-127383893D02*
X138748974Y-127383893D01*
X138748974Y-127383893D02*
X138883661Y-127316549D01*
X138883661Y-127316549D02*
X138951004Y-127249206D01*
X138951004Y-127249206D02*
X139018348Y-127114519D01*
X139018348Y-127114519D02*
X139018348Y-126979832D01*
X139018348Y-126979832D02*
X138984676Y-126878817D01*
X138984676Y-126878817D02*
X138883661Y-126710458D01*
X138883661Y-126710458D02*
X138782646Y-126609443D01*
X138782646Y-126609443D02*
X138614287Y-126508427D01*
X138614287Y-126508427D02*
X138513272Y-126474756D01*
X138513272Y-126474756D02*
X138378585Y-126474756D01*
X138378585Y-126474756D02*
X138243898Y-126542099D01*
X138243898Y-126542099D02*
X138176554Y-126609443D01*
X138176554Y-126609443D02*
X138109211Y-126744130D01*
X138109211Y-126744130D02*
X138109211Y-126811473D01*
X137806165Y-126979832D02*
X137368432Y-127417565D01*
X137368432Y-127417565D02*
X137873508Y-127451236D01*
X137873508Y-127451236D02*
X137772493Y-127552252D01*
X137772493Y-127552252D02*
X137738821Y-127653267D01*
X137738821Y-127653267D02*
X137738821Y-127720610D01*
X137738821Y-127720610D02*
X137772493Y-127821626D01*
X137772493Y-127821626D02*
X137940852Y-127989984D01*
X137940852Y-127989984D02*
X138041867Y-128023656D01*
X138041867Y-128023656D02*
X138109211Y-128023656D01*
X138109211Y-128023656D02*
X138210226Y-127989984D01*
X138210226Y-127989984D02*
X138412256Y-127787954D01*
X138412256Y-127787954D02*
X138445928Y-127686939D01*
X138445928Y-127686939D02*
X138445928Y-127619595D01*
X136930699Y-127855298D02*
X136863356Y-127922641D01*
X136863356Y-127922641D02*
X136829684Y-128023656D01*
X136829684Y-128023656D02*
X136829684Y-128091000D01*
X136829684Y-128091000D02*
X136863356Y-128192015D01*
X136863356Y-128192015D02*
X136964371Y-128360374D01*
X136964371Y-128360374D02*
X137132730Y-128528733D01*
X137132730Y-128528733D02*
X137301088Y-128629748D01*
X137301088Y-128629748D02*
X137402104Y-128663420D01*
X137402104Y-128663420D02*
X137469447Y-128663420D01*
X137469447Y-128663420D02*
X137570462Y-128629748D01*
X137570462Y-128629748D02*
X137637806Y-128562404D01*
X137637806Y-128562404D02*
X137671478Y-128461389D01*
X137671478Y-128461389D02*
X137671478Y-128394046D01*
X137671478Y-128394046D02*
X137637806Y-128293030D01*
X137637806Y-128293030D02*
X137536791Y-128124672D01*
X137536791Y-128124672D02*
X137368432Y-127956313D01*
X137368432Y-127956313D02*
X137200073Y-127855298D01*
X137200073Y-127855298D02*
X137099058Y-127821626D01*
X137099058Y-127821626D02*
X137031714Y-127821626D01*
X137031714Y-127821626D02*
X136930699Y-127855298D01*
X137614819Y-104235714D02*
X136614819Y-104235714D01*
X137614819Y-104711904D02*
X136614819Y-104711904D01*
X136614819Y-104711904D02*
X137614819Y-105283332D01*
X137614819Y-105283332D02*
X136614819Y-105283332D01*
X136614819Y-105616666D02*
X137614819Y-105949999D01*
X137614819Y-105949999D02*
X136614819Y-106283332D01*
X137091009Y-106616666D02*
X137091009Y-106949999D01*
X137614819Y-107092856D02*
X137614819Y-106616666D01*
X137614819Y-106616666D02*
X136614819Y-106616666D01*
X136614819Y-106616666D02*
X136614819Y-107092856D01*
X137614819Y-108092856D02*
X137138628Y-107759523D01*
X137614819Y-107521428D02*
X136614819Y-107521428D01*
X136614819Y-107521428D02*
X136614819Y-107902380D01*
X136614819Y-107902380D02*
X136662438Y-107997618D01*
X136662438Y-107997618D02*
X136710057Y-108045237D01*
X136710057Y-108045237D02*
X136805295Y-108092856D01*
X136805295Y-108092856D02*
X136948152Y-108092856D01*
X136948152Y-108092856D02*
X137043390Y-108045237D01*
X137043390Y-108045237D02*
X137091009Y-107997618D01*
X137091009Y-107997618D02*
X137138628Y-107902380D01*
X137138628Y-107902380D02*
X137138628Y-107521428D01*
X136614819Y-108378571D02*
X136614819Y-108949999D01*
X137614819Y-108664285D02*
X136614819Y-108664285D01*
X137091009Y-109283333D02*
X137091009Y-109616666D01*
X137614819Y-109759523D02*
X137614819Y-109283333D01*
X137614819Y-109283333D02*
X136614819Y-109283333D01*
X136614819Y-109283333D02*
X136614819Y-109759523D01*
X137614819Y-110759523D02*
X137138628Y-110426190D01*
X137614819Y-110188095D02*
X136614819Y-110188095D01*
X136614819Y-110188095D02*
X136614819Y-110569047D01*
X136614819Y-110569047D02*
X136662438Y-110664285D01*
X136662438Y-110664285D02*
X136710057Y-110711904D01*
X136710057Y-110711904D02*
X136805295Y-110759523D01*
X136805295Y-110759523D02*
X136948152Y-110759523D01*
X136948152Y-110759523D02*
X137043390Y-110711904D01*
X137043390Y-110711904D02*
X137091009Y-110664285D01*
X137091009Y-110664285D02*
X137138628Y-110569047D01*
X137138628Y-110569047D02*
X137138628Y-110188095D01*
X137614819Y-111711904D02*
X137614819Y-111140476D01*
X137614819Y-111426190D02*
X136614819Y-111426190D01*
X136614819Y-111426190D02*
X136757676Y-111330952D01*
X136757676Y-111330952D02*
X136852914Y-111235714D01*
X136852914Y-111235714D02*
X136900533Y-111140476D01*
X153218641Y-145398035D02*
X153694831Y-145398035D01*
X153694831Y-145398035D02*
X153694831Y-144398035D01*
X152932926Y-145350416D02*
X152790069Y-145398035D01*
X152790069Y-145398035D02*
X152551974Y-145398035D01*
X152551974Y-145398035D02*
X152456736Y-145350416D01*
X152456736Y-145350416D02*
X152409117Y-145302796D01*
X152409117Y-145302796D02*
X152361498Y-145207558D01*
X152361498Y-145207558D02*
X152361498Y-145112320D01*
X152361498Y-145112320D02*
X152409117Y-145017082D01*
X152409117Y-145017082D02*
X152456736Y-144969463D01*
X152456736Y-144969463D02*
X152551974Y-144921844D01*
X152551974Y-144921844D02*
X152742450Y-144874225D01*
X152742450Y-144874225D02*
X152837688Y-144826606D01*
X152837688Y-144826606D02*
X152885307Y-144778987D01*
X152885307Y-144778987D02*
X152932926Y-144683749D01*
X152932926Y-144683749D02*
X152932926Y-144588511D01*
X152932926Y-144588511D02*
X152885307Y-144493273D01*
X152885307Y-144493273D02*
X152837688Y-144445654D01*
X152837688Y-144445654D02*
X152742450Y-144398035D01*
X152742450Y-144398035D02*
X152504355Y-144398035D01*
X152504355Y-144398035D02*
X152361498Y-144445654D01*
X152028164Y-144398035D02*
X151409117Y-144398035D01*
X151409117Y-144398035D02*
X151742450Y-144778987D01*
X151742450Y-144778987D02*
X151599593Y-144778987D01*
X151599593Y-144778987D02*
X151504355Y-144826606D01*
X151504355Y-144826606D02*
X151456736Y-144874225D01*
X151456736Y-144874225D02*
X151409117Y-144969463D01*
X151409117Y-144969463D02*
X151409117Y-145207558D01*
X151409117Y-145207558D02*
X151456736Y-145302796D01*
X151456736Y-145302796D02*
X151504355Y-145350416D01*
X151504355Y-145350416D02*
X151599593Y-145398035D01*
X151599593Y-145398035D02*
X151885307Y-145398035D01*
X151885307Y-145398035D02*
X151980545Y-145350416D01*
X151980545Y-145350416D02*
X152028164Y-145302796D01*
D11*
X153927386Y-144063111D02*
X154384529Y-144063111D01*
X154155957Y-144063111D02*
X154155957Y-143263111D01*
X154155957Y-143263111D02*
X154232148Y-143377396D01*
X154232148Y-143377396D02*
X154308338Y-143453587D01*
X154308338Y-143453587D02*
X154384529Y-143491682D01*
D10*
X150180603Y-60776549D02*
X149704412Y-60443216D01*
X150180603Y-60205121D02*
X149180603Y-60205121D01*
X149180603Y-60205121D02*
X149180603Y-60586073D01*
X149180603Y-60586073D02*
X149228222Y-60681311D01*
X149228222Y-60681311D02*
X149275841Y-60728930D01*
X149275841Y-60728930D02*
X149371079Y-60776549D01*
X149371079Y-60776549D02*
X149513936Y-60776549D01*
X149513936Y-60776549D02*
X149609174Y-60728930D01*
X149609174Y-60728930D02*
X149656793Y-60681311D01*
X149656793Y-60681311D02*
X149704412Y-60586073D01*
X149704412Y-60586073D02*
X149704412Y-60205121D01*
X149609174Y-61347978D02*
X149561555Y-61252740D01*
X149561555Y-61252740D02*
X149513936Y-61205121D01*
X149513936Y-61205121D02*
X149418698Y-61157502D01*
X149418698Y-61157502D02*
X149371079Y-61157502D01*
X149371079Y-61157502D02*
X149275841Y-61205121D01*
X149275841Y-61205121D02*
X149228222Y-61252740D01*
X149228222Y-61252740D02*
X149180603Y-61347978D01*
X149180603Y-61347978D02*
X149180603Y-61538454D01*
X149180603Y-61538454D02*
X149228222Y-61633692D01*
X149228222Y-61633692D02*
X149275841Y-61681311D01*
X149275841Y-61681311D02*
X149371079Y-61728930D01*
X149371079Y-61728930D02*
X149418698Y-61728930D01*
X149418698Y-61728930D02*
X149513936Y-61681311D01*
X149513936Y-61681311D02*
X149561555Y-61633692D01*
X149561555Y-61633692D02*
X149609174Y-61538454D01*
X149609174Y-61538454D02*
X149609174Y-61347978D01*
X149609174Y-61347978D02*
X149656793Y-61252740D01*
X149656793Y-61252740D02*
X149704412Y-61205121D01*
X149704412Y-61205121D02*
X149799650Y-61157502D01*
X149799650Y-61157502D02*
X149990126Y-61157502D01*
X149990126Y-61157502D02*
X150085364Y-61205121D01*
X150085364Y-61205121D02*
X150132984Y-61252740D01*
X150132984Y-61252740D02*
X150180603Y-61347978D01*
X150180603Y-61347978D02*
X150180603Y-61538454D01*
X150180603Y-61538454D02*
X150132984Y-61633692D01*
X150132984Y-61633692D02*
X150085364Y-61681311D01*
X150085364Y-61681311D02*
X149990126Y-61728930D01*
X149990126Y-61728930D02*
X149799650Y-61728930D01*
X149799650Y-61728930D02*
X149704412Y-61681311D01*
X149704412Y-61681311D02*
X149656793Y-61633692D01*
X149656793Y-61633692D02*
X149609174Y-61538454D01*
X150180603Y-66032142D02*
X149704412Y-65698809D01*
X150180603Y-65460714D02*
X149180603Y-65460714D01*
X149180603Y-65460714D02*
X149180603Y-65841666D01*
X149180603Y-65841666D02*
X149228222Y-65936904D01*
X149228222Y-65936904D02*
X149275841Y-65984523D01*
X149275841Y-65984523D02*
X149371079Y-66032142D01*
X149371079Y-66032142D02*
X149513936Y-66032142D01*
X149513936Y-66032142D02*
X149609174Y-65984523D01*
X149609174Y-65984523D02*
X149656793Y-65936904D01*
X149656793Y-65936904D02*
X149704412Y-65841666D01*
X149704412Y-65841666D02*
X149704412Y-65460714D01*
X150180603Y-66984523D02*
X150180603Y-66413095D01*
X150180603Y-66698809D02*
X149180603Y-66698809D01*
X149180603Y-66698809D02*
X149323460Y-66603571D01*
X149323460Y-66603571D02*
X149418698Y-66508333D01*
X149418698Y-66508333D02*
X149466317Y-66413095D01*
X150180603Y-67460714D02*
X150180603Y-67651190D01*
X150180603Y-67651190D02*
X150132984Y-67746428D01*
X150132984Y-67746428D02*
X150085364Y-67794047D01*
X150085364Y-67794047D02*
X149942507Y-67889285D01*
X149942507Y-67889285D02*
X149752031Y-67936904D01*
X149752031Y-67936904D02*
X149371079Y-67936904D01*
X149371079Y-67936904D02*
X149275841Y-67889285D01*
X149275841Y-67889285D02*
X149228222Y-67841666D01*
X149228222Y-67841666D02*
X149180603Y-67746428D01*
X149180603Y-67746428D02*
X149180603Y-67555952D01*
X149180603Y-67555952D02*
X149228222Y-67460714D01*
X149228222Y-67460714D02*
X149275841Y-67413095D01*
X149275841Y-67413095D02*
X149371079Y-67365476D01*
X149371079Y-67365476D02*
X149609174Y-67365476D01*
X149609174Y-67365476D02*
X149704412Y-67413095D01*
X149704412Y-67413095D02*
X149752031Y-67460714D01*
X149752031Y-67460714D02*
X149799650Y-67555952D01*
X149799650Y-67555952D02*
X149799650Y-67746428D01*
X149799650Y-67746428D02*
X149752031Y-67841666D01*
X149752031Y-67841666D02*
X149704412Y-67889285D01*
X149704412Y-67889285D02*
X149609174Y-67936904D01*
X130754820Y-71431311D02*
X131564343Y-71431311D01*
X131564343Y-71431311D02*
X131659581Y-71478930D01*
X131659581Y-71478930D02*
X131707201Y-71526549D01*
X131707201Y-71526549D02*
X131754820Y-71621787D01*
X131754820Y-71621787D02*
X131754820Y-71812263D01*
X131754820Y-71812263D02*
X131707201Y-71907501D01*
X131707201Y-71907501D02*
X131659581Y-71955120D01*
X131659581Y-71955120D02*
X131564343Y-72002739D01*
X131564343Y-72002739D02*
X130754820Y-72002739D01*
X130754820Y-72383692D02*
X130754820Y-73050358D01*
X130754820Y-73050358D02*
X131754820Y-72621787D01*
X121451666Y-77829580D02*
X121499285Y-77877200D01*
X121499285Y-77877200D02*
X121642142Y-77924819D01*
X121642142Y-77924819D02*
X121737380Y-77924819D01*
X121737380Y-77924819D02*
X121880237Y-77877200D01*
X121880237Y-77877200D02*
X121975475Y-77781961D01*
X121975475Y-77781961D02*
X122023094Y-77686723D01*
X122023094Y-77686723D02*
X122070713Y-77496247D01*
X122070713Y-77496247D02*
X122070713Y-77353390D01*
X122070713Y-77353390D02*
X122023094Y-77162914D01*
X122023094Y-77162914D02*
X121975475Y-77067676D01*
X121975475Y-77067676D02*
X121880237Y-76972438D01*
X121880237Y-76972438D02*
X121737380Y-76924819D01*
X121737380Y-76924819D02*
X121642142Y-76924819D01*
X121642142Y-76924819D02*
X121499285Y-76972438D01*
X121499285Y-76972438D02*
X121451666Y-77020057D01*
X120975475Y-77924819D02*
X120784999Y-77924819D01*
X120784999Y-77924819D02*
X120689761Y-77877200D01*
X120689761Y-77877200D02*
X120642142Y-77829580D01*
X120642142Y-77829580D02*
X120546904Y-77686723D01*
X120546904Y-77686723D02*
X120499285Y-77496247D01*
X120499285Y-77496247D02*
X120499285Y-77115295D01*
X120499285Y-77115295D02*
X120546904Y-77020057D01*
X120546904Y-77020057D02*
X120594523Y-76972438D01*
X120594523Y-76972438D02*
X120689761Y-76924819D01*
X120689761Y-76924819D02*
X120880237Y-76924819D01*
X120880237Y-76924819D02*
X120975475Y-76972438D01*
X120975475Y-76972438D02*
X121023094Y-77020057D01*
X121023094Y-77020057D02*
X121070713Y-77115295D01*
X121070713Y-77115295D02*
X121070713Y-77353390D01*
X121070713Y-77353390D02*
X121023094Y-77448628D01*
X121023094Y-77448628D02*
X120975475Y-77496247D01*
X120975475Y-77496247D02*
X120880237Y-77543866D01*
X120880237Y-77543866D02*
X120689761Y-77543866D01*
X120689761Y-77543866D02*
X120594523Y-77496247D01*
X120594523Y-77496247D02*
X120546904Y-77448628D01*
X120546904Y-77448628D02*
X120499285Y-77353390D01*
X121372730Y-81837028D02*
X121271715Y-81264609D01*
X121776791Y-81432967D02*
X121069684Y-80725861D01*
X121069684Y-80725861D02*
X120800310Y-80995235D01*
X120800310Y-80995235D02*
X120766638Y-81096250D01*
X120766638Y-81096250D02*
X120766638Y-81163593D01*
X120766638Y-81163593D02*
X120800310Y-81264609D01*
X120800310Y-81264609D02*
X120901325Y-81365624D01*
X120901325Y-81365624D02*
X121002341Y-81399296D01*
X121002341Y-81399296D02*
X121069684Y-81399296D01*
X121069684Y-81399296D02*
X121170699Y-81365624D01*
X121170699Y-81365624D02*
X121440073Y-81096250D01*
X120429921Y-81365624D02*
X119958516Y-81837028D01*
X119958516Y-81837028D02*
X120968669Y-82241089D01*
X92054819Y-100357142D02*
X91578628Y-100023809D01*
X92054819Y-99785714D02*
X91054819Y-99785714D01*
X91054819Y-99785714D02*
X91054819Y-100166666D01*
X91054819Y-100166666D02*
X91102438Y-100261904D01*
X91102438Y-100261904D02*
X91150057Y-100309523D01*
X91150057Y-100309523D02*
X91245295Y-100357142D01*
X91245295Y-100357142D02*
X91388152Y-100357142D01*
X91388152Y-100357142D02*
X91483390Y-100309523D01*
X91483390Y-100309523D02*
X91531009Y-100261904D01*
X91531009Y-100261904D02*
X91578628Y-100166666D01*
X91578628Y-100166666D02*
X91578628Y-99785714D01*
X91150057Y-100738095D02*
X91102438Y-100785714D01*
X91102438Y-100785714D02*
X91054819Y-100880952D01*
X91054819Y-100880952D02*
X91054819Y-101119047D01*
X91054819Y-101119047D02*
X91102438Y-101214285D01*
X91102438Y-101214285D02*
X91150057Y-101261904D01*
X91150057Y-101261904D02*
X91245295Y-101309523D01*
X91245295Y-101309523D02*
X91340533Y-101309523D01*
X91340533Y-101309523D02*
X91483390Y-101261904D01*
X91483390Y-101261904D02*
X92054819Y-100690476D01*
X92054819Y-100690476D02*
X92054819Y-101309523D01*
X91054819Y-101928571D02*
X91054819Y-102023809D01*
X91054819Y-102023809D02*
X91102438Y-102119047D01*
X91102438Y-102119047D02*
X91150057Y-102166666D01*
X91150057Y-102166666D02*
X91245295Y-102214285D01*
X91245295Y-102214285D02*
X91435771Y-102261904D01*
X91435771Y-102261904D02*
X91673866Y-102261904D01*
X91673866Y-102261904D02*
X91864342Y-102214285D01*
X91864342Y-102214285D02*
X91959580Y-102166666D01*
X91959580Y-102166666D02*
X92007200Y-102119047D01*
X92007200Y-102119047D02*
X92054819Y-102023809D01*
X92054819Y-102023809D02*
X92054819Y-101928571D01*
X92054819Y-101928571D02*
X92007200Y-101833333D01*
X92007200Y-101833333D02*
X91959580Y-101785714D01*
X91959580Y-101785714D02*
X91864342Y-101738095D01*
X91864342Y-101738095D02*
X91673866Y-101690476D01*
X91673866Y-101690476D02*
X91435771Y-101690476D01*
X91435771Y-101690476D02*
X91245295Y-101738095D01*
X91245295Y-101738095D02*
X91150057Y-101785714D01*
X91150057Y-101785714D02*
X91102438Y-101833333D01*
X91102438Y-101833333D02*
X91054819Y-101928571D01*
X154202354Y-66550358D02*
X154202354Y-66074168D01*
X154202354Y-66074168D02*
X153202354Y-66074168D01*
X154154735Y-66836073D02*
X154202354Y-66978930D01*
X154202354Y-66978930D02*
X154202354Y-67217025D01*
X154202354Y-67217025D02*
X154154735Y-67312263D01*
X154154735Y-67312263D02*
X154107115Y-67359882D01*
X154107115Y-67359882D02*
X154011877Y-67407501D01*
X154011877Y-67407501D02*
X153916639Y-67407501D01*
X153916639Y-67407501D02*
X153821401Y-67359882D01*
X153821401Y-67359882D02*
X153773782Y-67312263D01*
X153773782Y-67312263D02*
X153726163Y-67217025D01*
X153726163Y-67217025D02*
X153678544Y-67026549D01*
X153678544Y-67026549D02*
X153630925Y-66931311D01*
X153630925Y-66931311D02*
X153583306Y-66883692D01*
X153583306Y-66883692D02*
X153488068Y-66836073D01*
X153488068Y-66836073D02*
X153392830Y-66836073D01*
X153392830Y-66836073D02*
X153297592Y-66883692D01*
X153297592Y-66883692D02*
X153249973Y-66931311D01*
X153249973Y-66931311D02*
X153202354Y-67026549D01*
X153202354Y-67026549D02*
X153202354Y-67264644D01*
X153202354Y-67264644D02*
X153249973Y-67407501D01*
X153297592Y-67788454D02*
X153249973Y-67836073D01*
X153249973Y-67836073D02*
X153202354Y-67931311D01*
X153202354Y-67931311D02*
X153202354Y-68169406D01*
X153202354Y-68169406D02*
X153249973Y-68264644D01*
X153249973Y-68264644D02*
X153297592Y-68312263D01*
X153297592Y-68312263D02*
X153392830Y-68359882D01*
X153392830Y-68359882D02*
X153488068Y-68359882D01*
X153488068Y-68359882D02*
X153630925Y-68312263D01*
X153630925Y-68312263D02*
X154202354Y-67740835D01*
X154202354Y-67740835D02*
X154202354Y-68359882D01*
D11*
X153732222Y-65640111D02*
X154189365Y-65640111D01*
X153960793Y-65640111D02*
X153960793Y-64840111D01*
X153960793Y-64840111D02*
X154036984Y-64954396D01*
X154036984Y-64954396D02*
X154113174Y-65030587D01*
X154113174Y-65030587D02*
X154189365Y-65068682D01*
D10*
X124708830Y-95399693D02*
X124776174Y-95399693D01*
X124776174Y-95399693D02*
X124910861Y-95332349D01*
X124910861Y-95332349D02*
X124978204Y-95265006D01*
X124978204Y-95265006D02*
X125045548Y-95130319D01*
X125045548Y-95130319D02*
X125045548Y-94995632D01*
X125045548Y-94995632D02*
X125011876Y-94894617D01*
X125011876Y-94894617D02*
X124910861Y-94726258D01*
X124910861Y-94726258D02*
X124809846Y-94625243D01*
X124809846Y-94625243D02*
X124641487Y-94524227D01*
X124641487Y-94524227D02*
X124540472Y-94490556D01*
X124540472Y-94490556D02*
X124405785Y-94490556D01*
X124405785Y-94490556D02*
X124271098Y-94557899D01*
X124271098Y-94557899D02*
X124203754Y-94625243D01*
X124203754Y-94625243D02*
X124136411Y-94759930D01*
X124136411Y-94759930D02*
X124136411Y-94827273D01*
X124102739Y-96140471D02*
X124506800Y-95736410D01*
X124304769Y-95938441D02*
X123597663Y-95231334D01*
X123597663Y-95231334D02*
X123766021Y-95265006D01*
X123766021Y-95265006D02*
X123900708Y-95265006D01*
X123900708Y-95265006D02*
X124001724Y-95231334D01*
X123294617Y-96140472D02*
X123328288Y-96039456D01*
X123328288Y-96039456D02*
X123328288Y-95972113D01*
X123328288Y-95972113D02*
X123294617Y-95871098D01*
X123294617Y-95871098D02*
X123260945Y-95837426D01*
X123260945Y-95837426D02*
X123159930Y-95803754D01*
X123159930Y-95803754D02*
X123092586Y-95803754D01*
X123092586Y-95803754D02*
X122991571Y-95837426D01*
X122991571Y-95837426D02*
X122856884Y-95972113D01*
X122856884Y-95972113D02*
X122823212Y-96073128D01*
X122823212Y-96073128D02*
X122823212Y-96140472D01*
X122823212Y-96140472D02*
X122856884Y-96241487D01*
X122856884Y-96241487D02*
X122890556Y-96275159D01*
X122890556Y-96275159D02*
X122991571Y-96308830D01*
X122991571Y-96308830D02*
X123058914Y-96308830D01*
X123058914Y-96308830D02*
X123159930Y-96275159D01*
X123159930Y-96275159D02*
X123294617Y-96140472D01*
X123294617Y-96140472D02*
X123395632Y-96106800D01*
X123395632Y-96106800D02*
X123462975Y-96106800D01*
X123462975Y-96106800D02*
X123563991Y-96140472D01*
X123563991Y-96140472D02*
X123698678Y-96275159D01*
X123698678Y-96275159D02*
X123732349Y-96376174D01*
X123732349Y-96376174D02*
X123732349Y-96443517D01*
X123732349Y-96443517D02*
X123698678Y-96544533D01*
X123698678Y-96544533D02*
X123563991Y-96679220D01*
X123563991Y-96679220D02*
X123462975Y-96712891D01*
X123462975Y-96712891D02*
X123395632Y-96712891D01*
X123395632Y-96712891D02*
X123294617Y-96679220D01*
X123294617Y-96679220D02*
X123159930Y-96544533D01*
X123159930Y-96544533D02*
X123126258Y-96443517D01*
X123126258Y-96443517D02*
X123126258Y-96376174D01*
X123126258Y-96376174D02*
X123159930Y-96275159D01*
X130776995Y-78740476D02*
X129776995Y-78740476D01*
X129776995Y-78740476D02*
X130491280Y-79073809D01*
X130491280Y-79073809D02*
X129776995Y-79407142D01*
X129776995Y-79407142D02*
X130776995Y-79407142D01*
X130872233Y-79645238D02*
X130872233Y-80407142D01*
X130776995Y-80645238D02*
X129776995Y-80645238D01*
X129776995Y-80645238D02*
X129776995Y-80883333D01*
X129776995Y-80883333D02*
X129824614Y-81026190D01*
X129824614Y-81026190D02*
X129919852Y-81121428D01*
X129919852Y-81121428D02*
X130015090Y-81169047D01*
X130015090Y-81169047D02*
X130205566Y-81216666D01*
X130205566Y-81216666D02*
X130348423Y-81216666D01*
X130348423Y-81216666D02*
X130538899Y-81169047D01*
X130538899Y-81169047D02*
X130634137Y-81121428D01*
X130634137Y-81121428D02*
X130729376Y-81026190D01*
X130729376Y-81026190D02*
X130776995Y-80883333D01*
X130776995Y-80883333D02*
X130776995Y-80645238D01*
X130776995Y-82216666D02*
X130300804Y-81883333D01*
X130776995Y-81645238D02*
X129776995Y-81645238D01*
X129776995Y-81645238D02*
X129776995Y-82026190D01*
X129776995Y-82026190D02*
X129824614Y-82121428D01*
X129824614Y-82121428D02*
X129872233Y-82169047D01*
X129872233Y-82169047D02*
X129967471Y-82216666D01*
X129967471Y-82216666D02*
X130110328Y-82216666D01*
X130110328Y-82216666D02*
X130205566Y-82169047D01*
X130205566Y-82169047D02*
X130253185Y-82121428D01*
X130253185Y-82121428D02*
X130300804Y-82026190D01*
X130300804Y-82026190D02*
X130300804Y-81645238D01*
X130776995Y-82645238D02*
X129776995Y-82645238D01*
X129776995Y-82978571D02*
X130776995Y-83311904D01*
X130776995Y-83311904D02*
X129776995Y-83645237D01*
X130253185Y-83978571D02*
X130253185Y-84311904D01*
X130776995Y-84454761D02*
X130776995Y-83978571D01*
X130776995Y-83978571D02*
X129776995Y-83978571D01*
X129776995Y-83978571D02*
X129776995Y-84454761D01*
X130776995Y-85454761D02*
X130300804Y-85121428D01*
X130776995Y-84883333D02*
X129776995Y-84883333D01*
X129776995Y-84883333D02*
X129776995Y-85264285D01*
X129776995Y-85264285D02*
X129824614Y-85359523D01*
X129824614Y-85359523D02*
X129872233Y-85407142D01*
X129872233Y-85407142D02*
X129967471Y-85454761D01*
X129967471Y-85454761D02*
X130110328Y-85454761D01*
X130110328Y-85454761D02*
X130205566Y-85407142D01*
X130205566Y-85407142D02*
X130253185Y-85359523D01*
X130253185Y-85359523D02*
X130300804Y-85264285D01*
X130300804Y-85264285D02*
X130300804Y-84883333D01*
X130776995Y-86407142D02*
X130776995Y-85835714D01*
X130776995Y-86121428D02*
X129776995Y-86121428D01*
X129776995Y-86121428D02*
X129919852Y-86026190D01*
X129919852Y-86026190D02*
X130015090Y-85930952D01*
X130015090Y-85930952D02*
X130062709Y-85835714D01*
D12*
%TO.C,M_DRIVER2*%
X124724999Y-120225000D02*
X124395000Y-120465000D01*
X124395001Y-119985000D01*
X124724999Y-120225000D01*
G36*
X124724999Y-120225000D02*
G01*
X124395000Y-120465000D01*
X124395001Y-119985000D01*
X124724999Y-120225000D01*
G37*
D10*
X133125000Y-126475000D02*
X133125000Y-120725000D01*
X132900000Y-126475000D02*
X133125000Y-126475000D01*
X132900000Y-120725000D02*
X133125000Y-120725000D01*
X124700000Y-126475000D02*
X124475000Y-126475000D01*
X124700000Y-120725000D02*
X124475000Y-120725000D01*
X124475000Y-126475000D02*
X124475000Y-120725000D01*
D12*
%TO.C,R17*%
X88520471Y-104928216D02*
X88974599Y-104928216D01*
X88520471Y-103458216D02*
X88974599Y-103458216D01*
%TO.C,C29*%
X134584223Y-129598383D02*
X134953690Y-129228916D01*
X133544776Y-128558936D02*
X133914243Y-128189469D01*
%TO.C,LS1*%
X86337535Y-100403216D02*
X86337535Y-103603216D01*
X85867535Y-103973216D02*
X86337535Y-103603216D01*
X81967535Y-103973216D02*
X85867535Y-103973216D01*
X81957535Y-100403216D02*
X86337535Y-100403216D01*
%TO.C,R14*%
X148802848Y-139178216D02*
X148348720Y-139178216D01*
X148802848Y-137708216D02*
X148348720Y-137708216D01*
%TO.C,C28*%
X127984380Y-131512426D02*
X128353847Y-131142959D01*
X126944933Y-130472979D02*
X127314400Y-130103512D01*
%TO.C,C6*%
X131144990Y-88830543D02*
X131514457Y-89200010D01*
X130105543Y-89869990D02*
X130475010Y-90239457D01*
%TO.C,C5*%
X131529391Y-91928928D02*
X128552471Y-88952009D01*
X129393928Y-94064391D02*
X131529391Y-91928928D01*
X126417009Y-91087471D02*
X129393928Y-94064391D01*
%TO.C,C7*%
X143435000Y-104016247D02*
X143435000Y-104538753D01*
X141965000Y-104016247D02*
X141965000Y-104538753D01*
%TO.C,C27*%
X132507214Y-132328249D02*
X130371751Y-130192786D01*
X130371751Y-130192786D02*
X127394832Y-133169706D01*
X129530294Y-135305168D02*
X132507214Y-132328249D01*
%TO.C,C4*%
X143554706Y-88379832D02*
X140577786Y-91356751D01*
X142713249Y-93492214D02*
X145690168Y-90515294D01*
X140577786Y-91356751D02*
X142713249Y-93492214D01*
%TO.C,C10*%
X128050000Y-77183216D02*
X123840000Y-77183216D01*
X123840000Y-80203216D02*
X128050000Y-80203216D01*
X123840000Y-77183216D02*
X123840000Y-80203216D01*
%TO.C,Q1*%
X117690000Y-67962500D02*
X117360000Y-68202500D01*
X117360000Y-67722500D01*
X117690000Y-67962500D01*
G36*
X117690000Y-67962500D02*
G01*
X117360000Y-68202500D01*
X117360000Y-67722500D01*
X117690000Y-67962500D01*
G37*
X120760000Y-70062500D02*
X120760001Y-69262500D01*
X120760000Y-68462500D02*
X120760001Y-69262500D01*
X117640000Y-70062500D02*
X117639999Y-69262500D01*
X117640000Y-68462500D02*
X117639999Y-69262500D01*
%TO.C,R13*%
X152802848Y-136928216D02*
X152348720Y-136928216D01*
X152802848Y-135458216D02*
X152348720Y-135458216D01*
%TO.C,C30*%
X138824214Y-130697049D02*
X136688751Y-128561586D01*
X136688751Y-128561586D02*
X133711832Y-131538506D01*
X135847294Y-133673968D02*
X138824214Y-130697049D01*
%TO.C,INVERTER1*%
X138190000Y-102840000D02*
X137860000Y-103080000D01*
X137860000Y-102600000D01*
X138190000Y-102840000D01*
G36*
X138190000Y-102840000D02*
G01*
X137860000Y-103080000D01*
X137860000Y-102600000D01*
X138190000Y-102840000D01*
G37*
X141260000Y-104940000D02*
X141260001Y-104140000D01*
X141260000Y-103340000D02*
X141260001Y-104140000D01*
X138140000Y-104940000D02*
X138139999Y-104140000D01*
X138140000Y-103340000D02*
X138139999Y-104140000D01*
%TO.C,C3*%
X141039457Y-89869990D02*
X140669990Y-90239457D01*
X140000010Y-88830543D02*
X139630543Y-89200010D01*
%TO.C,LS3*%
X154322699Y-142396216D02*
X154322699Y-138496216D01*
X154322699Y-138496216D02*
X153952699Y-138026216D01*
X150752699Y-142406216D02*
X150752699Y-138026216D01*
X150752699Y-138026216D02*
X153952699Y-138026216D01*
%TO.C,R8*%
X148810784Y-60716152D02*
X148810784Y-61170280D01*
X147340784Y-60716152D02*
X147340784Y-61170280D01*
%TO.C,R19*%
X148810784Y-65466152D02*
X148810784Y-65920280D01*
X147340784Y-65466152D02*
X147340784Y-65920280D01*
%TO.C,U7*%
X130440000Y-75563216D02*
X130110000Y-75323216D01*
X130440000Y-75083216D01*
X130440000Y-75563216D01*
G36*
X130440000Y-75563216D02*
G01*
X130110000Y-75323216D01*
X130440000Y-75083216D01*
X130440000Y-75563216D01*
G37*
X130210000Y-70283216D02*
X130210001Y-74043216D01*
X128950001Y-70283216D02*
X130210000Y-70283216D01*
X124649999Y-70283216D02*
X123390000Y-70283216D01*
X123390000Y-70283216D02*
X123389999Y-74043216D01*
%TO.C,C9*%
X121960000Y-76710000D02*
X121960000Y-73690000D01*
X121960000Y-73690000D02*
X117750000Y-73690000D01*
X117750000Y-76710000D02*
X121960000Y-76710000D01*
%TO.C,R7*%
X122459165Y-83480282D02*
X122780282Y-83159165D01*
X121419718Y-82440835D02*
X121740835Y-82119718D01*
%TO.C,R20*%
X90335000Y-101227064D02*
X90335000Y-100772936D01*
X88865000Y-101227064D02*
X88865000Y-100772936D01*
%TO.C,LS2*%
X154127535Y-63973216D02*
X154127535Y-60073216D01*
X154127535Y-60073216D02*
X153757535Y-59603216D01*
X150557535Y-63983216D02*
X150557535Y-59603216D01*
X150557535Y-59603216D02*
X153757535Y-59603216D01*
%TO.C,C18*%
X122804457Y-98334990D02*
X122434990Y-98704457D01*
X121765010Y-97295543D02*
X121395543Y-97665010D01*
%TO.C,M_DRIVER1*%
X131497176Y-80272823D02*
X131167177Y-80512823D01*
X131167178Y-80032823D01*
X131497176Y-80272823D01*
G36*
X131497176Y-80272823D02*
G01*
X131167177Y-80512823D01*
X131167178Y-80032823D01*
X131497176Y-80272823D01*
G37*
D10*
X139897177Y-86522823D02*
X139897177Y-80772823D01*
X139672177Y-86522823D02*
X139897177Y-86522823D01*
X139672177Y-80772823D02*
X139897177Y-80772823D01*
X131472177Y-86522823D02*
X131247177Y-86522823D01*
X131472177Y-80772823D02*
X131247177Y-80772823D01*
X131247177Y-86522823D02*
X131247177Y-80772823D01*
%TD*%
M02*
