G04 #@! TF.GenerationSoftware,KiCad,Pcbnew,8.0.1*
G04 #@! TF.CreationDate,2024-05-31T17:56:36+02:00*
G04 #@! TF.ProjectId,minisumo_pcb,6d696e69-7375-46d6-9f5f-7063622e6b69,rev?*
G04 #@! TF.SameCoordinates,Original*
G04 #@! TF.FileFunction,Paste,Top*
G04 #@! TF.FilePolarity,Positive*
%FSLAX46Y46*%
G04 Gerber Fmt 4.6, Leading zero omitted, Abs format (unit mm)*
G04 Created by KiCad (PCBNEW 8.0.1) date 2024-05-31 17:56:36*
%MOMM*%
%LPD*%
G01*
G04 APERTURE LIST*
G04 Aperture macros list*
%AMRoundRect*
0 Rectangle with rounded corners*
0 $1 Rounding radius*
0 $2 $3 $4 $5 $6 $7 $8 $9 X,Y pos of 4 corners*
0 Add a 4 corners polygon primitive as box body*
4,1,4,$2,$3,$4,$5,$6,$7,$8,$9,$2,$3,0*
0 Add four circle primitives for the rounded corners*
1,1,$1+$1,$2,$3*
1,1,$1+$1,$4,$5*
1,1,$1+$1,$6,$7*
1,1,$1+$1,$8,$9*
0 Add four rect primitives between the rounded corners*
20,1,$1+$1,$2,$3,$4,$5,0*
20,1,$1+$1,$4,$5,$6,$7,0*
20,1,$1+$1,$6,$7,$8,$9,0*
20,1,$1+$1,$8,$9,$2,$3,0*%
G04 Aperture macros list end*
%ADD10RoundRect,0.243750X-0.150260X0.494975X-0.494975X0.150260X0.150260X-0.494975X0.494975X-0.150260X0*%
%ADD11RoundRect,0.250000X-0.450000X0.262500X-0.450000X-0.262500X0.450000X-0.262500X0.450000X0.262500X0*%
%ADD12RoundRect,0.250000X0.450000X-0.262500X0.450000X0.262500X-0.450000X0.262500X-0.450000X-0.262500X0*%
%ADD13RoundRect,0.250000X0.262500X0.450000X-0.262500X0.450000X-0.262500X-0.450000X0.262500X-0.450000X0*%
%ADD14RoundRect,0.250000X0.132583X-0.503814X0.503814X-0.132583X-0.132583X0.503814X-0.503814X0.132583X0*%
%ADD15RoundRect,0.038500X0.325269X0.659731X-0.659731X-0.325269X-0.325269X-0.659731X0.659731X0.325269X0*%
%ADD16RoundRect,0.099000X-0.325269X0.574171X-0.574171X0.325269X0.325269X-0.574171X0.574171X-0.325269X0*%
%ADD17RoundRect,0.243750X0.494975X0.150260X0.150260X0.494975X-0.494975X-0.150260X-0.150260X-0.494975X0*%
%ADD18RoundRect,0.250000X0.070711X-0.565685X0.565685X-0.070711X-0.070711X0.565685X-0.565685X0.070711X0*%
%ADD19RoundRect,0.250000X0.512652X0.159099X0.159099X0.512652X-0.512652X-0.159099X-0.159099X-0.512652X0*%
%ADD20RoundRect,0.250000X-0.159099X0.512652X-0.512652X0.159099X0.159099X-0.512652X0.512652X-0.159099X0*%
%ADD21RoundRect,0.250000X-0.132583X0.503814X-0.503814X0.132583X0.132583X-0.503814X0.503814X-0.132583X0*%
%ADD22RoundRect,0.250000X-0.262500X-0.450000X0.262500X-0.450000X0.262500X0.450000X-0.262500X0.450000X0*%
%ADD23RoundRect,0.243750X0.150260X-0.494975X0.494975X-0.150260X-0.150260X0.494975X-0.494975X0.150260X0*%
%ADD24RoundRect,0.250000X-0.503814X-0.132583X-0.132583X-0.503814X0.503814X0.132583X0.132583X0.503814X0*%
%ADD25RoundRect,0.250000X-0.512652X-0.159099X-0.159099X-0.512652X0.512652X0.159099X0.159099X0.512652X0*%
G04 APERTURE END LIST*
D10*
X116247535Y-100530303D03*
X114921709Y-101856129D03*
D11*
X133002178Y-70217177D03*
X133002178Y-72042177D03*
D12*
X141815001Y-122982500D03*
X141815001Y-121157500D03*
D13*
X141482498Y-73025000D03*
X139657498Y-73025000D03*
D14*
X112102300Y-104838451D03*
X113392770Y-103547981D03*
D11*
X138285000Y-121157500D03*
X138285000Y-122982500D03*
D15*
X133198534Y-103806264D03*
X132632849Y-103240578D03*
X132067163Y-102674893D03*
X131501478Y-102109207D03*
X130935793Y-101543522D03*
X130370107Y-100977837D03*
X129804422Y-100412151D03*
X129238736Y-99846466D03*
D16*
X127301264Y-99846466D03*
X126735578Y-100412151D03*
X126169893Y-100977837D03*
X125604207Y-101543522D03*
X125038522Y-102109207D03*
X124472837Y-102674893D03*
X123907151Y-103240578D03*
X123341466Y-103806264D03*
D15*
X123341466Y-105743736D03*
X123907151Y-106309422D03*
X124472837Y-106875107D03*
X125038522Y-107440793D03*
X125604207Y-108006478D03*
X126169893Y-108572163D03*
X126735578Y-109137849D03*
X127301264Y-109703534D03*
D16*
X129238736Y-109703534D03*
X129804422Y-109137849D03*
X130370107Y-108572163D03*
X130935793Y-108006478D03*
X131501478Y-107440793D03*
X132067163Y-106875107D03*
X132632849Y-106309422D03*
X133198534Y-105743736D03*
D11*
X129742582Y-70197823D03*
X129742582Y-72022823D03*
D17*
X116747535Y-97193216D03*
X115421709Y-95867390D03*
D18*
X118037893Y-99132107D03*
X119452107Y-97717893D03*
D19*
X125141751Y-98846751D03*
X123798249Y-97503249D03*
D20*
X123941750Y-109803250D03*
X122598248Y-111146752D03*
D21*
X121525045Y-108533398D03*
X120234575Y-109823868D03*
D22*
X139656195Y-75565000D03*
X141481195Y-75565000D03*
D23*
X118937087Y-85962913D03*
X120262913Y-84637087D03*
D22*
X123795035Y-143153216D03*
X125620035Y-143153216D03*
D14*
X118099765Y-107960235D03*
X119390235Y-106669765D03*
D19*
X126741750Y-97246750D03*
X125398248Y-95903248D03*
D24*
X112602300Y-93047981D03*
X113892770Y-94338451D03*
D19*
X130441751Y-96546751D03*
X129098249Y-95203249D03*
D13*
X125620035Y-140653216D03*
X123795035Y-140653216D03*
D25*
X131598249Y-97703249D03*
X132941751Y-99046751D03*
M02*
