G04 #@! TF.GenerationSoftware,KiCad,Pcbnew,8.0.1*
G04 #@! TF.CreationDate,2024-06-04T09:08:57+02:00*
G04 #@! TF.ProjectId,minisumo_pcb,6d696e69-7375-46d6-9f5f-7063622e6b69,rev?*
G04 #@! TF.SameCoordinates,Original*
G04 #@! TF.FileFunction,Copper,L1,Top*
G04 #@! TF.FilePolarity,Positive*
%FSLAX46Y46*%
G04 Gerber Fmt 4.6, Leading zero omitted, Abs format (unit mm)*
G04 Created by KiCad (PCBNEW 8.0.1) date 2024-06-04 09:08:57*
%MOMM*%
%LPD*%
G01*
G04 APERTURE LIST*
G04 Aperture macros list*
%AMRoundRect*
0 Rectangle with rounded corners*
0 $1 Rounding radius*
0 $2 $3 $4 $5 $6 $7 $8 $9 X,Y pos of 4 corners*
0 Add a 4 corners polygon primitive as box body*
4,1,4,$2,$3,$4,$5,$6,$7,$8,$9,$2,$3,0*
0 Add four circle primitives for the rounded corners*
1,1,$1+$1,$2,$3*
1,1,$1+$1,$4,$5*
1,1,$1+$1,$6,$7*
1,1,$1+$1,$8,$9*
0 Add four rect primitives between the rounded corners*
20,1,$1+$1,$2,$3,$4,$5,0*
20,1,$1+$1,$4,$5,$6,$7,0*
20,1,$1+$1,$6,$7,$8,$9,0*
20,1,$1+$1,$8,$9,$2,$3,0*%
%AMRotRect*
0 Rectangle, with rotation*
0 The origin of the aperture is its center*
0 $1 length*
0 $2 width*
0 $3 Rotation angle, in degrees counterclockwise*
0 Add horizontal line*
21,1,$1,$2,0,0,$3*%
G04 Aperture macros list end*
G04 #@! TA.AperFunction,ComponentPad*
%ADD10R,1.370000X1.370000*%
G04 #@! TD*
G04 #@! TA.AperFunction,ComponentPad*
%ADD11C,1.370000*%
G04 #@! TD*
G04 #@! TA.AperFunction,SMDPad,CuDef*
%ADD12RoundRect,0.243750X-0.150260X0.494975X-0.494975X0.150260X0.150260X-0.494975X0.494975X-0.150260X0*%
G04 #@! TD*
G04 #@! TA.AperFunction,SMDPad,CuDef*
%ADD13RoundRect,0.250000X-0.450000X0.262500X-0.450000X-0.262500X0.450000X-0.262500X0.450000X0.262500X0*%
G04 #@! TD*
G04 #@! TA.AperFunction,SMDPad,CuDef*
%ADD14RoundRect,0.250000X0.450000X-0.262500X0.450000X0.262500X-0.450000X0.262500X-0.450000X-0.262500X0*%
G04 #@! TD*
G04 #@! TA.AperFunction,SMDPad,CuDef*
%ADD15RoundRect,0.250000X0.262500X0.450000X-0.262500X0.450000X-0.262500X-0.450000X0.262500X-0.450000X0*%
G04 #@! TD*
G04 #@! TA.AperFunction,ComponentPad*
%ADD16RotRect,1.530000X1.530000X315.000000*%
G04 #@! TD*
G04 #@! TA.AperFunction,ComponentPad*
%ADD17C,1.530000*%
G04 #@! TD*
G04 #@! TA.AperFunction,ComponentPad*
%ADD18R,2.450000X2.450000*%
G04 #@! TD*
G04 #@! TA.AperFunction,ComponentPad*
%ADD19C,2.450000*%
G04 #@! TD*
G04 #@! TA.AperFunction,SMDPad,CuDef*
%ADD20RoundRect,0.250000X0.132583X-0.503814X0.503814X-0.132583X-0.132583X0.503814X-0.503814X0.132583X0*%
G04 #@! TD*
G04 #@! TA.AperFunction,ComponentPad*
%ADD21RotRect,1.370000X1.370000X135.000000*%
G04 #@! TD*
G04 #@! TA.AperFunction,SMDPad,CuDef*
%ADD22RoundRect,0.038500X0.325269X0.659731X-0.659731X-0.325269X-0.325269X-0.659731X0.659731X0.325269X0*%
G04 #@! TD*
G04 #@! TA.AperFunction,SMDPad,CuDef*
%ADD23RoundRect,0.099000X-0.325269X0.574171X-0.574171X0.325269X0.325269X-0.574171X0.574171X-0.325269X0*%
G04 #@! TD*
G04 #@! TA.AperFunction,ComponentPad*
%ADD24C,1.030000*%
G04 #@! TD*
G04 #@! TA.AperFunction,SMDPad,CuDef*
%ADD25RoundRect,0.243750X0.494975X0.150260X0.150260X0.494975X-0.494975X-0.150260X-0.150260X-0.494975X0*%
G04 #@! TD*
G04 #@! TA.AperFunction,SMDPad,CuDef*
%ADD26RoundRect,0.250000X0.070711X-0.565685X0.565685X-0.070711X-0.070711X0.565685X-0.565685X0.070711X0*%
G04 #@! TD*
G04 #@! TA.AperFunction,SMDPad,CuDef*
%ADD27RoundRect,0.250000X-0.159099X0.512652X-0.512652X0.159099X0.159099X-0.512652X0.512652X-0.159099X0*%
G04 #@! TD*
G04 #@! TA.AperFunction,SMDPad,CuDef*
%ADD28RoundRect,0.250000X-0.132583X0.503814X-0.503814X0.132583X0.132583X-0.503814X0.503814X-0.132583X0*%
G04 #@! TD*
G04 #@! TA.AperFunction,SMDPad,CuDef*
%ADD29RoundRect,0.250000X-0.262500X-0.450000X0.262500X-0.450000X0.262500X0.450000X-0.262500X0.450000X0*%
G04 #@! TD*
G04 #@! TA.AperFunction,SMDPad,CuDef*
%ADD30RoundRect,0.243750X0.150260X-0.494975X0.494975X-0.150260X-0.150260X0.494975X-0.494975X0.150260X0*%
G04 #@! TD*
G04 #@! TA.AperFunction,ComponentPad*
%ADD31RotRect,1.370000X1.370000X45.000000*%
G04 #@! TD*
G04 #@! TA.AperFunction,ComponentPad*
%ADD32RotRect,1.530000X1.530000X225.000000*%
G04 #@! TD*
G04 #@! TA.AperFunction,SMDPad,CuDef*
%ADD33RoundRect,0.250000X-0.503814X-0.132583X-0.132583X-0.503814X0.503814X0.132583X0.132583X0.503814X0*%
G04 #@! TD*
G04 #@! TA.AperFunction,SMDPad,CuDef*
%ADD34RoundRect,0.250000X0.512652X0.159099X0.159099X0.512652X-0.512652X-0.159099X-0.159099X-0.512652X0*%
G04 #@! TD*
G04 #@! TA.AperFunction,ComponentPad*
%ADD35C,1.875000*%
G04 #@! TD*
G04 #@! TA.AperFunction,SMDPad,CuDef*
%ADD36RoundRect,0.250000X-0.512652X-0.159099X-0.159099X-0.512652X0.512652X0.159099X0.159099X0.512652X0*%
G04 #@! TD*
G04 #@! TA.AperFunction,ComponentPad*
%ADD37RotRect,1.530000X1.530000X45.000000*%
G04 #@! TD*
G04 #@! TA.AperFunction,ViaPad*
%ADD38C,0.800000*%
G04 #@! TD*
G04 #@! TA.AperFunction,ViaPad*
%ADD39C,0.600000*%
G04 #@! TD*
G04 #@! TA.AperFunction,Conductor*
%ADD40C,0.431800*%
G04 #@! TD*
G04 #@! TA.AperFunction,Conductor*
%ADD41C,0.381000*%
G04 #@! TD*
G04 #@! TA.AperFunction,Conductor*
%ADD42C,0.762000*%
G04 #@! TD*
G04 #@! TA.AperFunction,Conductor*
%ADD43C,0.250000*%
G04 #@! TD*
G04 APERTURE END LIST*
D10*
X139014200Y-113284000D03*
D11*
X141554200Y-113284000D03*
X139014200Y-115824000D03*
X141554200Y-115824000D03*
X139014200Y-118363999D03*
X141554200Y-118364000D03*
D12*
X116247535Y-100530303D03*
X114921709Y-101856129D03*
D13*
X133002178Y-70217177D03*
X133002178Y-72042177D03*
D14*
X141815001Y-122982500D03*
X141815001Y-121157500D03*
D15*
X141482498Y-73025000D03*
X139657498Y-73025000D03*
D16*
X110645561Y-114091242D03*
D17*
X108849509Y-112295190D03*
D18*
X113747535Y-69493216D03*
D19*
X113747535Y-74193216D03*
X113747535Y-78893216D03*
D20*
X112102300Y-104838451D03*
X113392770Y-103547981D03*
D13*
X138285000Y-121157500D03*
X138285000Y-122982500D03*
D21*
X108451484Y-117397165D03*
D11*
X110247535Y-119193216D03*
X112043586Y-120989267D03*
D22*
X133198534Y-103806264D03*
X132632849Y-103240578D03*
X132067163Y-102674893D03*
X131501478Y-102109207D03*
X130935793Y-101543522D03*
X130370107Y-100977837D03*
X129804422Y-100412151D03*
X129238736Y-99846466D03*
D23*
X127301264Y-99846466D03*
X126735578Y-100412151D03*
X126169893Y-100977837D03*
X125604207Y-101543522D03*
X125038522Y-102109207D03*
X124472837Y-102674893D03*
X123907151Y-103240578D03*
X123341466Y-103806264D03*
D22*
X123341466Y-105743736D03*
X123907151Y-106309422D03*
X124472837Y-106875107D03*
X125038522Y-107440793D03*
X125604207Y-108006478D03*
X126169893Y-108572163D03*
X126735578Y-109137849D03*
X127301264Y-109703534D03*
D23*
X129238736Y-109703534D03*
X129804422Y-109137849D03*
X130370107Y-108572163D03*
X130935793Y-108006478D03*
X131501478Y-107440793D03*
X132067163Y-106875107D03*
X132632849Y-106309422D03*
X133198534Y-105743736D03*
D13*
X129742582Y-70197823D03*
X129742582Y-72022823D03*
D24*
X135495341Y-96100341D03*
X132044659Y-92649659D03*
D10*
X132497500Y-67213216D03*
D11*
X132497500Y-64673216D03*
X135037500Y-67213216D03*
X135037500Y-64673216D03*
X137577500Y-67213216D03*
X137577500Y-64673216D03*
D25*
X116747535Y-97193216D03*
X115421709Y-95867390D03*
D26*
X118037893Y-99132107D03*
X119452107Y-97717893D03*
D27*
X123941750Y-109803250D03*
X122598248Y-111146752D03*
D28*
X121525045Y-108533398D03*
X120234575Y-109823868D03*
D29*
X139656195Y-75565000D03*
X141481195Y-75565000D03*
D30*
X118937087Y-85962913D03*
X120262913Y-84637087D03*
D29*
X123795035Y-143153216D03*
X125620035Y-143153216D03*
D31*
X108747535Y-101285318D03*
D11*
X106951484Y-99489267D03*
X110543586Y-99489267D03*
X108747535Y-97693216D03*
X112339637Y-97693216D03*
X110543586Y-95897164D03*
D20*
X118099765Y-107960235D03*
X119390235Y-106669765D03*
D32*
X108849509Y-86591242D03*
D17*
X110645561Y-84795190D03*
D10*
X133247535Y-140653216D03*
D11*
X133247535Y-143193216D03*
X130707535Y-140653216D03*
X130707535Y-143193216D03*
X128167535Y-140653216D03*
X128167535Y-143193216D03*
D10*
X149572500Y-73025000D03*
D11*
X149572500Y-75565000D03*
X147032500Y-73025000D03*
X147032500Y-75565000D03*
X144492501Y-73025000D03*
X144492500Y-75565000D03*
D33*
X112602300Y-93047981D03*
X113892770Y-94338451D03*
D34*
X130441751Y-96546751D03*
X129098249Y-95203249D03*
D35*
X97997535Y-102193216D03*
X104497535Y-102193216D03*
D15*
X125620035Y-140653216D03*
X123795035Y-140653216D03*
D36*
X131598249Y-97703249D03*
X132941751Y-99046751D03*
D37*
X110145561Y-90565190D03*
D17*
X108349509Y-92361242D03*
D38*
X126085600Y-105308400D03*
X130846751Y-104913351D03*
X129797100Y-103569849D03*
X128216100Y-104470200D03*
X120262913Y-84637087D03*
D39*
X148945000Y-69610000D03*
X113945000Y-90610000D03*
X107945000Y-119610000D03*
X109945000Y-67610000D03*
X110945000Y-71610000D03*
X144945000Y-137610000D03*
X124945000Y-88610000D03*
X137945000Y-136610000D03*
X115945000Y-129610000D03*
X132945000Y-122610000D03*
X111945000Y-126610000D03*
X145945000Y-107610000D03*
X107945000Y-120610000D03*
X109945000Y-127610000D03*
X119945000Y-77610000D03*
X116945000Y-86610000D03*
X143945000Y-136610000D03*
X110945000Y-67610000D03*
X111945000Y-108610000D03*
X117945000Y-71610000D03*
X109945000Y-133610000D03*
X114945000Y-136610000D03*
X130945000Y-144610000D03*
X118945000Y-134610000D03*
X108945000Y-110610000D03*
X140945000Y-138610000D03*
X134945000Y-72610000D03*
X142945000Y-97610000D03*
X143945000Y-121610000D03*
X121945000Y-72610000D03*
X96945000Y-99610000D03*
X121945000Y-117610000D03*
X139945000Y-68610000D03*
X120945000Y-135610000D03*
X136945000Y-76610000D03*
X107945000Y-94610000D03*
X113945000Y-109610000D03*
X146945000Y-134610000D03*
X112945000Y-71610000D03*
X143945000Y-123610000D03*
X100945000Y-100610000D03*
X79945000Y-104610000D03*
X146945000Y-101610000D03*
X113945000Y-128610000D03*
X113945000Y-125610000D03*
X122945000Y-69610000D03*
X123945000Y-93610000D03*
X122945000Y-126610000D03*
X116945000Y-127610000D03*
X121945000Y-138610000D03*
X115945000Y-120610000D03*
X143945000Y-130610000D03*
X122945000Y-95610000D03*
X125945000Y-133610000D03*
X92945000Y-99610000D03*
X147945000Y-128610000D03*
X115945000Y-127610000D03*
X126945000Y-63610000D03*
X127945000Y-85610000D03*
X110945000Y-124610000D03*
X106945000Y-119610000D03*
X116945000Y-90610000D03*
X106945000Y-87610000D03*
X120945000Y-132610000D03*
X115945000Y-128610000D03*
X109945000Y-123610000D03*
X123945000Y-68610000D03*
X148945000Y-131610000D03*
X120945000Y-134610000D03*
X128945000Y-111610000D03*
X120945000Y-90610000D03*
X139945000Y-136610000D03*
X110945000Y-73610000D03*
X109945000Y-70610000D03*
X136945000Y-72610000D03*
X117945000Y-120610000D03*
X152945000Y-66610000D03*
X145945000Y-128610000D03*
X115945000Y-125610000D03*
X143945000Y-132610000D03*
X122945000Y-60610000D03*
X116945000Y-118610000D03*
X111945000Y-116610000D03*
X146945000Y-132610000D03*
X119945000Y-79610000D03*
X122945000Y-66610000D03*
X124945000Y-70610000D03*
X145945000Y-125610000D03*
X117945000Y-128610000D03*
X150945000Y-130610000D03*
X147945000Y-134610000D03*
X124945000Y-80610000D03*
X139979400Y-67614800D03*
D38*
X134929823Y-132455977D03*
D39*
X107945000Y-109610000D03*
X116945000Y-109610000D03*
X117945000Y-135610000D03*
X121945000Y-137610000D03*
X128945000Y-63610000D03*
X123945000Y-67610000D03*
X153945000Y-141610000D03*
X120945000Y-133610000D03*
X142945000Y-94610000D03*
X109945000Y-130610000D03*
D38*
X137795000Y-125730000D03*
D39*
X141945000Y-97610000D03*
X115945000Y-133610000D03*
X149945000Y-135610000D03*
X113945000Y-126610000D03*
X110945000Y-128610000D03*
X141945000Y-71610000D03*
X116945000Y-70610000D03*
X126945000Y-143610000D03*
X140945000Y-137610000D03*
X117945000Y-113610000D03*
X109945000Y-126610000D03*
X123945000Y-81610000D03*
X126945000Y-144610000D03*
X148945000Y-136610000D03*
X120945000Y-136610000D03*
D38*
X123190000Y-100965000D03*
D39*
X130945000Y-66610000D03*
X119945000Y-133610000D03*
X145945000Y-91610000D03*
X150945000Y-134610000D03*
X110945000Y-108610000D03*
X143945000Y-129610000D03*
X142945000Y-112610000D03*
X112945000Y-132610000D03*
X115945000Y-90610000D03*
X109945000Y-134610000D03*
X113945000Y-108610000D03*
X112945000Y-67610000D03*
X130945000Y-86610000D03*
X113945000Y-129610000D03*
X113945000Y-117610000D03*
X111945000Y-79610000D03*
X111945000Y-124610000D03*
X139945000Y-84610000D03*
X120945000Y-124610000D03*
X130945000Y-75610000D03*
X130945000Y-87610000D03*
X145945000Y-126610000D03*
X150945000Y-68610000D03*
X119945000Y-114610000D03*
X115945000Y-94610000D03*
X108945000Y-84610000D03*
X153945000Y-66610000D03*
X98945000Y-100610000D03*
X145945000Y-132610000D03*
X107945000Y-84610000D03*
X99945000Y-99610000D03*
X116945000Y-87610000D03*
X121945000Y-70610000D03*
X141945000Y-130610000D03*
X118945000Y-132610000D03*
X113945000Y-118610000D03*
X110945000Y-125610000D03*
X109945000Y-75610000D03*
X136945000Y-135610000D03*
X140945000Y-101610000D03*
X114945000Y-133610000D03*
X112945000Y-123610000D03*
X111945000Y-67610000D03*
X152945000Y-144610000D03*
X105945000Y-100610000D03*
X150945000Y-144610000D03*
X111945000Y-128610000D03*
X149945000Y-132610000D03*
X117945000Y-77610000D03*
X142945000Y-110610000D03*
X124945000Y-65610000D03*
X130945000Y-68610000D03*
X117945000Y-119610000D03*
X111945000Y-81610000D03*
X109945000Y-69610000D03*
X129945000Y-137610000D03*
X102945000Y-101610000D03*
X95945000Y-102610000D03*
X143945000Y-71610000D03*
X121945000Y-66610000D03*
X130945000Y-72610000D03*
X114945000Y-119610000D03*
X152945000Y-75610000D03*
X130945000Y-76610000D03*
X115945000Y-76610000D03*
X130945000Y-137610000D03*
X114945000Y-129610000D03*
X110945000Y-127610000D03*
X131945000Y-135610000D03*
X147945000Y-136610000D03*
X119945000Y-87610000D03*
X123945000Y-88610000D03*
D38*
X135245981Y-129933227D03*
D39*
X113945000Y-87610000D03*
X146945000Y-133610000D03*
X139945000Y-81610000D03*
X145945000Y-63610000D03*
X119945000Y-134610000D03*
X151945000Y-70610000D03*
X112945000Y-107610000D03*
X100945000Y-102610000D03*
X139945000Y-82610000D03*
D38*
X129707394Y-130135127D03*
D39*
X94945000Y-99610000D03*
X109945000Y-121610000D03*
X117945000Y-90610000D03*
X113945000Y-127610000D03*
X115945000Y-93610000D03*
X116945000Y-133610000D03*
X146945000Y-128610000D03*
X118945000Y-84610000D03*
X122945000Y-125610000D03*
X145945000Y-97610000D03*
X119945000Y-132610000D03*
X139945000Y-87610000D03*
X113945000Y-137610000D03*
X112945000Y-129610000D03*
X107945000Y-110610000D03*
X118945000Y-131610000D03*
X85945000Y-104610000D03*
X121945000Y-68610000D03*
X149945000Y-61610000D03*
X145945000Y-106610000D03*
X153945000Y-75610000D03*
X109945000Y-68610000D03*
X123945000Y-138610000D03*
X146945000Y-122610000D03*
X146945000Y-95610000D03*
X133945000Y-75610000D03*
X123945000Y-70610000D03*
X109945000Y-107610000D03*
X115945000Y-118610000D03*
X132945000Y-144610000D03*
X90945000Y-101610000D03*
X115945000Y-117610000D03*
X145945000Y-131610000D03*
X118945000Y-133610000D03*
X82945000Y-104610000D03*
X133945000Y-144610000D03*
X124945000Y-87610000D03*
X108945000Y-114610000D03*
X121945000Y-61610000D03*
X120945000Y-69610000D03*
X114945000Y-97610000D03*
X111945000Y-131610000D03*
X125945000Y-91610000D03*
X139945000Y-135610000D03*
X135945000Y-122610000D03*
X149945000Y-60610000D03*
X115945000Y-79610000D03*
X110945000Y-74610000D03*
X141945000Y-134610000D03*
X146945000Y-123610000D03*
X127945000Y-83610000D03*
X117945000Y-127610000D03*
X114945000Y-76610000D03*
X138945000Y-133610000D03*
X115945000Y-135610000D03*
X135945000Y-140610000D03*
X146945000Y-99610000D03*
X144945000Y-68610000D03*
X118945000Y-137610000D03*
X97945000Y-100610000D03*
X138945000Y-68610000D03*
X143945000Y-124610000D03*
X106945000Y-84610000D03*
X140945000Y-135610000D03*
X116945000Y-84610000D03*
X151945000Y-134610000D03*
X81945000Y-104610000D03*
X153945000Y-72610000D03*
X149945000Y-69610000D03*
X130945000Y-79610000D03*
X125945000Y-87610000D03*
X146945000Y-100610000D03*
X132945000Y-121610000D03*
X114945000Y-90610000D03*
X122945000Y-133610000D03*
X107945000Y-88610000D03*
X122945000Y-71610000D03*
X144945000Y-125610000D03*
X153945000Y-62610000D03*
X111945000Y-122610000D03*
X150945000Y-127610000D03*
X79945000Y-99610000D03*
X143945000Y-115610000D03*
X117945000Y-95610000D03*
X116945000Y-128610000D03*
X122945000Y-108610000D03*
X116945000Y-95610000D03*
X114945000Y-66610000D03*
X139945000Y-134610000D03*
X141945000Y-124610000D03*
X122945000Y-78610000D03*
X145945000Y-104610000D03*
X121945000Y-95610000D03*
X143945000Y-125610000D03*
X115945000Y-70610000D03*
X141945000Y-127610000D03*
X110945000Y-107610000D03*
X145945000Y-129610000D03*
X122945000Y-117610000D03*
X130945000Y-138610000D03*
X153945000Y-74610000D03*
X125945000Y-65610000D03*
X116945000Y-79610000D03*
X144945000Y-131610000D03*
X122945000Y-76610000D03*
X99945000Y-101610000D03*
X121945000Y-136610000D03*
X111945000Y-125610000D03*
X114945000Y-86610000D03*
X121945000Y-78610000D03*
X122945000Y-84610000D03*
X145945000Y-102610000D03*
X126945000Y-66610000D03*
X116945000Y-135610000D03*
X116945000Y-77610000D03*
D38*
X116747535Y-97193216D03*
D39*
X113945000Y-81610000D03*
X128945000Y-80610000D03*
X115945000Y-80610000D03*
X121945000Y-63610000D03*
X148945000Y-127610000D03*
X132945000Y-94610000D03*
X130945000Y-77610000D03*
X119945000Y-130610000D03*
X116945000Y-108610000D03*
X121945000Y-94610000D03*
X126945000Y-65610000D03*
X133945000Y-68610000D03*
X148945000Y-129610000D03*
X144945000Y-123610000D03*
X130945000Y-136610000D03*
X108945000Y-105610000D03*
X115945000Y-85610000D03*
X126945000Y-64610000D03*
X115945000Y-77610000D03*
X134945000Y-68610000D03*
X113945000Y-131610000D03*
X150945000Y-132610000D03*
X109945000Y-125610000D03*
X145945000Y-103610000D03*
X140335000Y-64516000D03*
X145945000Y-96610000D03*
X145945000Y-60610000D03*
X122945000Y-138610000D03*
X143945000Y-131610000D03*
X109945000Y-128610000D03*
X114945000Y-81610000D03*
X95945000Y-100610000D03*
X111945000Y-107610000D03*
X153945000Y-140610000D03*
X120945000Y-66610000D03*
X112945000Y-126610000D03*
X138945000Y-135610000D03*
X118945000Y-87610000D03*
X111945000Y-82610000D03*
X114945000Y-124610000D03*
X110945000Y-109610000D03*
X120945000Y-71610000D03*
X150945000Y-71610000D03*
X114945000Y-116610000D03*
X111945000Y-109610000D03*
X108945000Y-108610000D03*
X140945000Y-99610000D03*
X111945000Y-80610000D03*
X113945000Y-66610000D03*
X118945000Y-135610000D03*
X145945000Y-98610000D03*
X138945000Y-111610000D03*
X146945000Y-103610000D03*
X124945000Y-92610000D03*
X110945000Y-130610000D03*
X113945000Y-116610000D03*
X150945000Y-129610000D03*
X128945000Y-144610000D03*
X110945000Y-137610000D03*
D38*
X128270000Y-116840000D03*
D39*
X141945000Y-125610000D03*
X124945000Y-81610000D03*
X97945000Y-99610000D03*
X153945000Y-68610000D03*
X153945000Y-134610000D03*
X110945000Y-129610000D03*
X140945000Y-98610000D03*
D38*
X126977639Y-131479720D03*
D39*
X114945000Y-125610000D03*
D38*
X135255000Y-111125000D03*
D39*
X147945000Y-76610000D03*
X143945000Y-127610000D03*
X137945000Y-106610000D03*
X130945000Y-78610000D03*
X112945000Y-115610000D03*
X112945000Y-108610000D03*
X146945000Y-63610000D03*
X142945000Y-96610000D03*
X141945000Y-98610000D03*
X119945000Y-93610000D03*
X119945000Y-82610000D03*
X130945000Y-71610000D03*
X119945000Y-136610000D03*
X114945000Y-135610000D03*
X114945000Y-128610000D03*
X125945000Y-92610000D03*
X114945000Y-126610000D03*
X147945000Y-133610000D03*
X139945000Y-137610000D03*
X145945000Y-105610000D03*
X127945000Y-84610000D03*
X120945000Y-78610000D03*
X136945000Y-71610000D03*
X116945000Y-66610000D03*
X116945000Y-120610000D03*
X124945000Y-82610000D03*
X146945000Y-102610000D03*
X117945000Y-133610000D03*
X141945000Y-100610000D03*
X148945000Y-68610000D03*
X141945000Y-136610000D03*
X114945000Y-137610000D03*
X111945000Y-70610000D03*
X130945000Y-67610000D03*
X112945000Y-124610000D03*
X122945000Y-72610000D03*
X110945000Y-123610000D03*
X110945000Y-68610000D03*
X113945000Y-130610000D03*
X142945000Y-98610000D03*
X141945000Y-129610000D03*
X109945000Y-110610000D03*
X102945000Y-99610000D03*
X116945000Y-134610000D03*
X149945000Y-126610000D03*
X116945000Y-72610000D03*
X119945000Y-135610000D03*
X122945000Y-64610000D03*
X131945000Y-75610000D03*
X110945000Y-110610000D03*
X134945000Y-92610000D03*
X123945000Y-89610000D03*
X147945000Y-129610000D03*
X109945000Y-71610000D03*
X142945000Y-100610000D03*
X144945000Y-129610000D03*
D38*
X141605000Y-67310000D03*
D39*
X110945000Y-66610000D03*
X150945000Y-133610000D03*
X117945000Y-87610000D03*
X149945000Y-130610000D03*
X117945000Y-132610000D03*
X121945000Y-62610000D03*
X144907000Y-62611000D03*
X149945000Y-70610000D03*
X86945000Y-101610000D03*
X118945000Y-128610000D03*
X143945000Y-138610000D03*
X123945000Y-83610000D03*
X111945000Y-110610000D03*
X115945000Y-75610000D03*
X106945000Y-86610000D03*
X113945000Y-123610000D03*
X138945000Y-134610000D03*
X138945000Y-81610000D03*
X120945000Y-94610000D03*
X149945000Y-127610000D03*
X123945000Y-94610000D03*
X141945000Y-135610000D03*
X125945000Y-85610000D03*
X139945000Y-138610000D03*
X144932400Y-63627000D03*
X114945000Y-87610000D03*
X115945000Y-73610000D03*
X124945000Y-86610000D03*
X147945000Y-68610000D03*
X115945000Y-130610000D03*
X120945000Y-93610000D03*
X111945000Y-129610000D03*
X131945000Y-144610000D03*
X153945000Y-67610000D03*
X102945000Y-100610000D03*
X110945000Y-132610000D03*
X139945000Y-86610000D03*
X120945000Y-79610000D03*
X96945000Y-100610000D03*
X113945000Y-76610000D03*
X144945000Y-130610000D03*
X109945000Y-129610000D03*
X145945000Y-59610000D03*
X144945000Y-126610000D03*
X107945000Y-107610000D03*
X150945000Y-128610000D03*
X117945000Y-79610000D03*
X126945000Y-134610000D03*
X126945000Y-80610000D03*
X129945000Y-144610000D03*
X143945000Y-137610000D03*
X106945000Y-89610000D03*
X146945000Y-126610000D03*
X146945000Y-129610000D03*
X126945000Y-128610000D03*
X117945000Y-130610000D03*
X145945000Y-93610000D03*
X135945000Y-139610000D03*
X112945000Y-83610000D03*
X122945000Y-94610000D03*
X149945000Y-131610000D03*
X95945000Y-101610000D03*
X112945000Y-109610000D03*
X107945000Y-102610000D03*
X112945000Y-125610000D03*
X116945000Y-132610000D03*
X115945000Y-132610000D03*
X121945000Y-89610000D03*
X113945000Y-97610000D03*
X145945000Y-123610000D03*
X127945000Y-112610000D03*
X130945000Y-63610000D03*
X91945000Y-102610000D03*
X145945000Y-122610000D03*
X138945000Y-82610000D03*
X106945000Y-118610000D03*
X110945000Y-126610000D03*
X112945000Y-81610000D03*
X140945000Y-136610000D03*
X114945000Y-72610000D03*
X122945000Y-83610000D03*
X121945000Y-64610000D03*
X148945000Y-130610000D03*
X146945000Y-130610000D03*
X116945000Y-136610000D03*
X107945000Y-114610000D03*
X127945000Y-65610000D03*
X116945000Y-69610000D03*
X123945000Y-65610000D03*
X113945000Y-115610000D03*
X112945000Y-82610000D03*
X127945000Y-62610000D03*
X146945000Y-135610000D03*
X131945000Y-142610000D03*
X135945000Y-72610000D03*
X116945000Y-119610000D03*
X122945000Y-65610000D03*
X123945000Y-71610000D03*
X111945000Y-68610000D03*
X138945000Y-137610000D03*
X116945000Y-137610000D03*
X109945000Y-108610000D03*
X115945000Y-134610000D03*
X114945000Y-118610000D03*
X110945000Y-70610000D03*
X80945000Y-104610000D03*
X124945000Y-144610000D03*
X142945000Y-108610000D03*
X153945000Y-70610000D03*
X112945000Y-130610000D03*
X152945000Y-74610000D03*
X136945000Y-70610000D03*
X102945000Y-102610000D03*
X108945000Y-83610000D03*
X116945000Y-131610000D03*
X91945000Y-101610000D03*
X118945000Y-79610000D03*
X115945000Y-126610000D03*
X131945000Y-143610000D03*
X109945000Y-122610000D03*
X117945000Y-70610000D03*
X151945000Y-76610000D03*
X126945000Y-61610000D03*
X106945000Y-88610000D03*
X124945000Y-72610000D03*
X112945000Y-110610000D03*
X118945000Y-90610000D03*
X144945000Y-138610000D03*
X141945000Y-101610000D03*
X122945000Y-90610000D03*
X113945000Y-110610000D03*
X107945000Y-108610000D03*
X142945000Y-99610000D03*
X111945000Y-69610000D03*
X116945000Y-71610000D03*
X119945000Y-115610000D03*
X112945000Y-66610000D03*
X99945000Y-100610000D03*
X112945000Y-117610000D03*
X144945000Y-124610000D03*
X149945000Y-134610000D03*
X150945000Y-70610000D03*
X125945000Y-80610000D03*
X127945000Y-144610000D03*
X115945000Y-86610000D03*
X120945000Y-116610000D03*
X101945000Y-101610000D03*
X144945000Y-71610000D03*
X121945000Y-116610000D03*
X142945000Y-111610000D03*
X140004800Y-66725800D03*
X117945000Y-72610000D03*
X119945000Y-124610000D03*
X109945000Y-109610000D03*
X148945000Y-132610000D03*
X149945000Y-67610000D03*
X99945000Y-102610000D03*
X90945000Y-102610000D03*
X142945000Y-95610000D03*
X109945000Y-120610000D03*
X142945000Y-71610000D03*
X132945000Y-68610000D03*
X142945000Y-109610000D03*
X115945000Y-72610000D03*
X151945000Y-75610000D03*
X145945000Y-133610000D03*
X101945000Y-99610000D03*
X145945000Y-94610000D03*
X126945000Y-86610000D03*
X147945000Y-135610000D03*
X111945000Y-72610000D03*
X153945000Y-69610000D03*
X119945000Y-78610000D03*
X117945000Y-134610000D03*
X112945000Y-131610000D03*
X115945000Y-136610000D03*
X120945000Y-137610000D03*
X119945000Y-137610000D03*
X146945000Y-98610000D03*
X145945000Y-124610000D03*
X128945000Y-112610000D03*
X127945000Y-72610000D03*
X117945000Y-83610000D03*
X148945000Y-70610000D03*
X116945000Y-130610000D03*
X114945000Y-117610000D03*
X128945000Y-84610000D03*
X142945000Y-85610000D03*
X145945000Y-61610000D03*
X144945000Y-127610000D03*
X144945000Y-122610000D03*
X145945000Y-134610000D03*
X149945000Y-128610000D03*
X117945000Y-109610000D03*
X109945000Y-74610000D03*
X118945000Y-78610000D03*
X126945000Y-60610000D03*
X101945000Y-102610000D03*
X123945000Y-72610000D03*
X116945000Y-94610000D03*
X118945000Y-83610000D03*
X143945000Y-128610000D03*
X122945000Y-118610000D03*
X112945000Y-90610000D03*
X127945000Y-71610000D03*
X82945000Y-103610000D03*
X95945000Y-99610000D03*
X149945000Y-62610000D03*
X113945000Y-107610000D03*
X117945000Y-69610000D03*
X117945000Y-66610000D03*
X114945000Y-134610000D03*
X121945000Y-77610000D03*
X136945000Y-81610000D03*
X147945000Y-130610000D03*
X119945000Y-129610000D03*
X108945000Y-109610000D03*
X145945000Y-95610000D03*
X121945000Y-90610000D03*
X118945000Y-82610000D03*
X152945000Y-134610000D03*
X143945000Y-126610000D03*
X124945000Y-66610000D03*
X115945000Y-78610000D03*
X142945000Y-84610000D03*
X153945000Y-73610000D03*
X111945000Y-84610000D03*
X120945000Y-125610000D03*
X112945000Y-116610000D03*
X139945000Y-85610000D03*
X151945000Y-144610000D03*
X140945000Y-133610000D03*
X122945000Y-127610000D03*
X132945000Y-138610000D03*
D38*
X113030000Y-101600000D03*
D39*
X152945000Y-76610000D03*
X147945000Y-126610000D03*
X128945000Y-64610000D03*
X118945000Y-77610000D03*
X83945000Y-104610000D03*
X113945000Y-132610000D03*
X114945000Y-132610000D03*
X126945000Y-84610000D03*
X147945000Y-127610000D03*
X122945000Y-88610000D03*
X114945000Y-131610000D03*
X119945000Y-123610000D03*
X150945000Y-76610000D03*
X148945000Y-128610000D03*
X93945000Y-99610000D03*
X113945000Y-82610000D03*
X125945000Y-81610000D03*
X119945000Y-66610000D03*
X114945000Y-80610000D03*
X118945000Y-129610000D03*
X142945000Y-86610000D03*
X141945000Y-119610000D03*
X128945000Y-83610000D03*
X140945000Y-68610000D03*
X115945000Y-66610000D03*
X113945000Y-96610000D03*
X144945000Y-128610000D03*
X146945000Y-127610000D03*
X116945000Y-78610000D03*
X118945000Y-136610000D03*
X100945000Y-99610000D03*
X135945000Y-71610000D03*
X111945000Y-71610000D03*
X121945000Y-85610000D03*
X149945000Y-68610000D03*
X87945000Y-101610000D03*
X120945000Y-72610000D03*
X121945000Y-65610000D03*
X124945000Y-71610000D03*
X146945000Y-97610000D03*
X145945000Y-99610000D03*
X143945000Y-122610000D03*
X142945000Y-93610000D03*
X118945000Y-123610000D03*
X117945000Y-78610000D03*
X131945000Y-68610000D03*
X110945000Y-69610000D03*
X140945000Y-100610000D03*
X106945000Y-85610000D03*
X120945000Y-123610000D03*
X114945000Y-127610000D03*
X122945000Y-70610000D03*
X115945000Y-137610000D03*
X111945000Y-115610000D03*
X150945000Y-126610000D03*
X123945000Y-59610000D03*
X129945000Y-67610000D03*
X123945000Y-66610000D03*
X131945000Y-76610000D03*
X139445000Y-64510000D03*
X132945000Y-76610000D03*
X138945000Y-83610000D03*
X127945000Y-80610000D03*
X92945000Y-102610000D03*
X122945000Y-93610000D03*
X144945000Y-132610000D03*
X116945000Y-129610000D03*
X115945000Y-69610000D03*
X109945000Y-115610000D03*
X108945000Y-113610000D03*
X148945000Y-134610000D03*
X146945000Y-125610000D03*
X121945000Y-71610000D03*
X112945000Y-128610000D03*
X145945000Y-100610000D03*
X111945000Y-83610000D03*
X119945000Y-131610000D03*
X111945000Y-123610000D03*
X144945000Y-133610000D03*
X145945000Y-92610000D03*
X120945000Y-86610000D03*
X151945000Y-133610000D03*
X115945000Y-131610000D03*
X110945000Y-131610000D03*
X141945000Y-126610000D03*
X117945000Y-131610000D03*
X117945000Y-137610000D03*
X152945000Y-140610000D03*
X122945000Y-77610000D03*
X94945000Y-101610000D03*
X122945000Y-137610000D03*
X117945000Y-129610000D03*
X153945000Y-71610000D03*
X109945000Y-124610000D03*
X149945000Y-129610000D03*
X137945000Y-135610000D03*
X84945000Y-104610000D03*
X150945000Y-69610000D03*
X132945000Y-75610000D03*
X119945000Y-90610000D03*
X122945000Y-67610000D03*
X147945000Y-132610000D03*
X145945000Y-138610000D03*
X125945000Y-86610000D03*
X145945000Y-62610000D03*
X117945000Y-110610000D03*
X121945000Y-69610000D03*
X140945000Y-134610000D03*
X127945000Y-63610000D03*
X111945000Y-130610000D03*
X110945000Y-122610000D03*
X120945000Y-77610000D03*
X149945000Y-71610000D03*
X139945000Y-132610000D03*
X111945000Y-66610000D03*
D38*
X113030000Y-99695000D03*
D39*
X134945000Y-112610000D03*
X110945000Y-72610000D03*
X98945000Y-99610000D03*
X114945000Y-130610000D03*
X138945000Y-67610000D03*
D38*
X122771751Y-97328249D03*
D39*
X149945000Y-133610000D03*
X118945000Y-66610000D03*
X109945000Y-73610000D03*
X139945000Y-133610000D03*
X94945000Y-100610000D03*
X116945000Y-126610000D03*
X108945000Y-115610000D03*
X108945000Y-107610000D03*
X123945000Y-144610000D03*
X141945000Y-128610000D03*
X111945000Y-90610000D03*
X121945000Y-79610000D03*
X125945000Y-66610000D03*
X118945000Y-113610000D03*
X111945000Y-132610000D03*
X108945000Y-120610000D03*
X153945000Y-144610000D03*
X116945000Y-85610000D03*
X142945000Y-107610000D03*
X147945000Y-131610000D03*
X125945000Y-144610000D03*
X127945000Y-64610000D03*
X109945000Y-136610000D03*
X145945000Y-101610000D03*
X114945000Y-71610000D03*
X117945000Y-84610000D03*
X129945000Y-68610000D03*
X93945000Y-100610000D03*
X112945000Y-127610000D03*
X139945000Y-83610000D03*
X120945000Y-115610000D03*
X122945000Y-132610000D03*
X109945000Y-131610000D03*
X126945000Y-129610000D03*
X109945000Y-135610000D03*
X145945000Y-130610000D03*
X129945000Y-138610000D03*
X107945000Y-113610000D03*
X148945000Y-135610000D03*
X150945000Y-131610000D03*
X133945000Y-76610000D03*
X123945000Y-87610000D03*
X141945000Y-137610000D03*
X127945000Y-70610000D03*
X100945000Y-101610000D03*
X123945000Y-69610000D03*
X126945000Y-85610000D03*
X142945000Y-101610000D03*
X111945000Y-73610000D03*
X118945000Y-120610000D03*
X141945000Y-99610000D03*
X112945000Y-80610000D03*
X148945000Y-71610000D03*
X118945000Y-130610000D03*
X150945000Y-122610000D03*
X146945000Y-67610000D03*
X121945000Y-67610000D03*
X108945000Y-119610000D03*
X118945000Y-114610000D03*
X101945000Y-100610000D03*
X111945000Y-127610000D03*
X122945000Y-68610000D03*
X146945000Y-131610000D03*
X124945000Y-59610000D03*
X109945000Y-72610000D03*
X113945000Y-71610000D03*
X146945000Y-96610000D03*
X148945000Y-133610000D03*
X129945000Y-63610000D03*
X137945000Y-134610000D03*
X120945000Y-70610000D03*
X134945000Y-71610000D03*
X115945000Y-74610000D03*
X113945000Y-124610000D03*
X145945000Y-127610000D03*
X80945000Y-99610000D03*
X115945000Y-119610000D03*
D38*
X116297598Y-100872402D03*
D39*
X151945000Y-69610000D03*
X111945000Y-78610000D03*
X115945000Y-71610000D03*
X121945000Y-93610000D03*
X125945000Y-129610000D03*
X115945000Y-87610000D03*
X117945000Y-136610000D03*
X122945000Y-89610000D03*
X109945000Y-132610000D03*
X138945000Y-136610000D03*
D38*
X129133600Y-107111800D03*
X121208536Y-101041464D03*
X120234575Y-109823868D03*
X149225000Y-64770000D03*
X126800000Y-75343215D03*
X121428249Y-98671751D03*
X132717577Y-115569141D03*
X136045500Y-116840000D03*
X121920000Y-130810000D03*
X131445000Y-114300000D03*
X136179000Y-115570000D03*
X131157823Y-70197822D03*
X140931000Y-105277500D03*
X140417718Y-108032718D03*
X136525000Y-93370400D03*
X138719000Y-105277500D03*
X134926319Y-99612181D03*
X137795000Y-95902518D03*
X137292500Y-103002500D03*
X126898400Y-102158800D03*
X135890000Y-106045000D03*
X133639000Y-104775000D03*
X89600000Y-100087500D03*
X128214849Y-100820856D03*
X135255000Y-90170000D03*
X139065000Y-71120000D03*
X125095000Y-114935000D03*
X147663284Y-138443216D03*
X151765000Y-142875000D03*
X135255000Y-126034932D03*
X125837177Y-94561683D03*
X117579827Y-103907517D03*
X122555000Y-121285000D03*
X116205000Y-111125000D03*
X119950697Y-101664303D03*
X123288433Y-105690703D03*
X139657498Y-73025000D03*
X142058922Y-78441578D03*
X137004500Y-100330000D03*
X141605000Y-94615000D03*
X133350000Y-136525000D03*
X123795035Y-140653216D03*
D40*
X125746373Y-104470200D02*
X123907151Y-106309422D01*
X128216100Y-104470200D02*
X125746373Y-104470200D01*
X130846751Y-103895305D02*
X130846751Y-104913351D01*
X132067163Y-102674893D02*
X130846751Y-103895305D01*
D41*
X130370107Y-100977837D02*
X129797100Y-101550844D01*
X129797100Y-101550844D02*
X129797100Y-103569849D01*
X131501478Y-102109207D02*
X130040836Y-103569849D01*
X130040836Y-103569849D02*
X129797100Y-103569849D01*
X128343100Y-108807898D02*
X129238736Y-109703534D01*
X128343100Y-106784364D02*
X128343100Y-108807898D01*
X129006600Y-106120864D02*
X128343100Y-106784364D01*
X129006600Y-101612607D02*
X129006600Y-106120864D01*
X128214849Y-100820856D02*
X129006600Y-101612607D01*
X126219485Y-102158800D02*
X125604207Y-101543522D01*
X126898400Y-102158800D02*
X126219485Y-102158800D01*
X131001553Y-106940868D02*
X131501478Y-107440793D01*
X129304532Y-106940868D02*
X131001553Y-106940868D01*
X129133600Y-107111800D02*
X129304532Y-106940868D01*
D40*
X128322232Y-130135127D02*
X126977639Y-131479720D01*
D41*
X122946751Y-97503249D02*
X122771751Y-97328249D01*
D40*
X135245981Y-132139819D02*
X134929823Y-132455977D01*
X116247535Y-100530303D02*
X116247535Y-100822339D01*
D41*
X123798249Y-97503249D02*
X122946751Y-97503249D01*
D40*
X129707394Y-130135127D02*
X128322232Y-130135127D01*
X116247535Y-100822339D02*
X116297598Y-100872402D01*
X135245981Y-129933227D02*
X135245981Y-132139819D01*
D41*
X122218749Y-98088749D02*
X122218749Y-100031251D01*
X104497535Y-102193216D02*
X104497535Y-99875712D01*
X119392921Y-99225849D02*
X113872270Y-99225849D01*
X122218749Y-100031251D02*
X121208536Y-101041464D01*
X104497535Y-99875712D02*
X112474477Y-91898770D01*
X112474477Y-91898770D02*
X116028770Y-91898770D01*
X121208536Y-101041464D02*
X119392921Y-99225849D01*
X113872270Y-99225849D02*
X112339637Y-97693216D01*
X116028770Y-91898770D02*
X122218749Y-98088749D01*
X129388534Y-99846466D02*
X130175000Y-99060000D01*
X132044658Y-94943843D02*
X132044659Y-92649659D01*
X130175000Y-96813501D02*
X132044658Y-94943843D01*
X129238736Y-99846466D02*
X129388534Y-99846466D01*
X130175000Y-99060000D02*
X130175000Y-96813501D01*
X131598248Y-98618324D02*
X129804422Y-100412151D01*
X131598248Y-97703249D02*
X133201156Y-96100341D01*
X131598248Y-97703249D02*
X131598248Y-98618324D01*
X133201156Y-96100341D02*
X135495342Y-96100341D01*
D42*
X120474391Y-97717893D02*
X121428249Y-98671751D01*
X149225000Y-64770000D02*
X153031000Y-68576000D01*
X153031000Y-72106500D02*
X149572500Y-75565000D01*
X130906784Y-64673216D02*
X126800000Y-68780000D01*
D41*
X130370107Y-100977837D02*
X130893907Y-100454037D01*
D42*
X132497500Y-64673216D02*
X130906784Y-64673216D01*
X119452107Y-97717893D02*
X120474391Y-97717893D01*
X153031000Y-68576000D02*
X153031000Y-72106500D01*
D41*
X132025278Y-101585407D02*
X131501478Y-102109207D01*
D42*
X126800000Y-68780000D02*
X126800000Y-75343215D01*
D41*
X123941750Y-108537565D02*
X125038522Y-107440793D01*
X123941750Y-109803250D02*
X123941750Y-108537565D01*
X144307347Y-113155153D02*
X144307347Y-84269847D01*
X143510000Y-83472500D02*
X143510000Y-78105000D01*
X144307347Y-84269847D02*
X143510000Y-83472500D01*
X129438400Y-141924081D02*
X130707535Y-143193216D01*
X148254500Y-70533513D02*
X143633987Y-65913000D01*
X132715000Y-116840000D02*
X124717035Y-124837965D01*
X130935793Y-108006478D02*
X132715000Y-109785685D01*
X129438400Y-139750800D02*
X129438400Y-141924081D01*
X143633987Y-65913000D02*
X136277284Y-65913000D01*
X145762500Y-76835000D02*
X147032500Y-75565000D01*
X132715000Y-109785685D02*
X132715000Y-116840000D01*
X141605000Y-115857500D02*
X144307347Y-113155153D01*
X144780000Y-76835000D02*
X145762500Y-76835000D01*
X124717035Y-135029435D02*
X129438400Y-139750800D01*
X136277284Y-65913000D02*
X135037500Y-64673216D01*
X147032500Y-75565000D02*
X148285200Y-74312300D01*
X143510000Y-78105000D02*
X144780000Y-76835000D01*
X141605000Y-115857500D02*
X140292300Y-117170200D01*
X148285200Y-74312300D02*
X148285200Y-71926715D01*
X140292300Y-117170200D02*
X136375700Y-117170200D01*
X124717035Y-124837965D02*
X124717035Y-135029435D01*
X136375700Y-117170200D02*
X136045500Y-116840000D01*
X148254500Y-71896015D02*
X148254500Y-70533513D01*
X148285200Y-71926715D02*
X148254500Y-71896015D01*
X147032500Y-71467500D02*
X147032500Y-73025000D01*
X147032500Y-73025000D02*
X146685001Y-73025000D01*
X130370107Y-108572163D02*
X131445000Y-109647056D01*
X136466500Y-115857500D02*
X136179000Y-115570000D01*
X137795000Y-81280000D02*
X142539076Y-76535924D01*
X140411200Y-111201200D02*
X138271250Y-109061250D01*
X140140500Y-107192000D02*
X140140500Y-93064384D01*
X121920000Y-124460000D02*
X121920000Y-130810000D01*
X145730216Y-70165216D02*
X147032500Y-71467500D01*
X142539076Y-76535924D02*
X142539076Y-75443724D01*
X143687800Y-74295000D02*
X145762500Y-74295000D01*
X138271250Y-109061250D02*
X140140500Y-107192000D01*
X131445000Y-114935000D02*
X121920000Y-124460000D01*
X139065000Y-115857500D02*
X136466500Y-115857500D01*
X140411200Y-114511300D02*
X140411200Y-111201200D01*
X137795000Y-90718884D02*
X137795000Y-81280000D01*
X137989500Y-70165216D02*
X135037500Y-67213216D01*
X142539076Y-75443724D02*
X143687800Y-74295000D01*
X145762500Y-74295000D02*
X147032500Y-73025000D01*
X131445000Y-109647056D02*
X131445000Y-114935000D01*
X139065000Y-115857500D02*
X140411200Y-114511300D01*
X140140500Y-93064384D02*
X137795000Y-90718884D01*
X130707535Y-140653216D02*
X130175000Y-140120681D01*
X145730216Y-70165216D02*
X137989500Y-70165216D01*
X129742582Y-70197822D02*
X131157823Y-70197822D01*
X131157823Y-70197822D02*
X133002178Y-72042177D01*
D43*
X141481195Y-74295000D02*
X142240000Y-74295000D01*
X141481195Y-75565000D02*
X141481195Y-74295000D01*
D41*
X144492501Y-73025000D02*
X143510000Y-73025000D01*
D43*
X141481195Y-74295000D02*
X141481195Y-73026303D01*
D41*
X143510000Y-73025000D02*
X142240000Y-74295000D01*
D43*
X141481195Y-73026303D02*
X141482498Y-73025000D01*
D41*
X141815001Y-121157500D02*
X140825000Y-121157500D01*
X138285000Y-121157500D02*
X140825000Y-121157500D01*
X140825000Y-120157499D02*
X139065000Y-118397499D01*
X140825000Y-121157500D02*
X140825000Y-120157499D01*
X125620035Y-142240000D02*
X125620035Y-143153216D01*
X128167535Y-140653216D02*
X126580751Y-142240000D01*
X126580751Y-142240000D02*
X125620035Y-142240000D01*
X125620035Y-140653216D02*
X125620035Y-142240000D01*
X140417718Y-108032718D02*
X140931000Y-107519436D01*
X140931000Y-107519436D02*
X140931000Y-105277500D01*
X139014200Y-95834200D02*
X139014200Y-104982300D01*
X139014200Y-104982300D02*
X138719000Y-105277500D01*
X136550400Y-93370400D02*
X139014200Y-95834200D01*
X136525000Y-93370400D02*
X136550400Y-93370400D01*
X137292500Y-103002500D02*
X137160000Y-102870000D01*
X137795000Y-102500000D02*
X137292500Y-103002500D01*
X133156648Y-102716779D02*
X132632849Y-103240578D01*
X134702819Y-99612181D02*
X133156648Y-101158352D01*
X134926319Y-99612181D02*
X134702819Y-99612181D01*
X133156648Y-101158352D02*
X133156648Y-102716779D01*
X137795000Y-95902518D02*
X137795000Y-102500000D01*
X134909000Y-106045000D02*
X133639000Y-104775000D01*
X135890000Y-106045000D02*
X134909000Y-106045000D01*
X130304346Y-113535654D02*
X123345500Y-120494500D01*
X113129819Y-122075500D02*
X112043586Y-120989267D01*
X130304346Y-109637773D02*
X130304346Y-113535654D01*
X129804422Y-109137849D02*
X130304346Y-109637773D01*
X123345500Y-120494500D02*
X123345500Y-121612436D01*
X122882436Y-122075500D02*
X113129819Y-122075500D01*
X123345500Y-121612436D02*
X122882436Y-122075500D01*
X122561751Y-109682609D02*
X121397222Y-109682609D01*
X118241024Y-106797588D02*
X108067588Y-106797588D01*
X91440000Y-100330000D02*
X91197500Y-100087500D01*
X123840442Y-110961300D02*
X122561751Y-109682609D01*
X91197500Y-100087500D02*
X89600000Y-100087500D01*
X106045000Y-104775000D02*
X95250000Y-104775000D01*
X124912127Y-110961300D02*
X123840442Y-110961300D01*
X94615000Y-102870000D02*
X92075000Y-100330000D01*
X121397222Y-109682609D02*
X119533589Y-107818976D01*
X119533589Y-107818976D02*
X119262412Y-107818976D01*
X94615000Y-104140000D02*
X94615000Y-102870000D01*
X95250000Y-104775000D02*
X94615000Y-104140000D01*
X92075000Y-100330000D02*
X91440000Y-100330000D01*
X126735578Y-109137849D02*
X124912127Y-110961300D01*
X119262412Y-107818976D02*
X118241024Y-106797588D01*
X108067588Y-106797588D02*
X106045000Y-104775000D01*
X137935500Y-73519500D02*
X135255000Y-76200000D01*
X137935500Y-72249500D02*
X137935500Y-73519500D01*
X135255000Y-76200000D02*
X135255000Y-90170000D01*
X139065000Y-71120000D02*
X137935500Y-72249500D01*
X127301264Y-111458736D02*
X127301264Y-109703534D01*
X151765000Y-142240000D02*
X147968216Y-138443216D01*
X147968216Y-138443216D02*
X147663284Y-138443216D01*
X125095000Y-113665000D02*
X127301264Y-111458736D01*
X151765000Y-142875000D02*
X151765000Y-142240000D01*
X135255000Y-126034932D02*
X147663284Y-138443216D01*
X125095000Y-114935000D02*
X125095000Y-113665000D01*
X114921709Y-102019042D02*
X113392770Y-103547981D01*
X114921709Y-101856129D02*
X114921709Y-102019042D01*
X113892770Y-94338451D02*
X115421709Y-95867390D01*
X125480455Y-94561683D02*
X125837177Y-94561683D01*
X124538597Y-100561204D02*
X123983701Y-100006308D01*
X124538597Y-101609282D02*
X124538597Y-100561204D01*
X124240198Y-96322754D02*
X124240198Y-95801940D01*
X124956299Y-97604557D02*
X124956299Y-97038855D01*
X123983701Y-98577155D02*
X124956299Y-97604557D01*
X124956299Y-97038855D02*
X124240198Y-96322754D01*
X125038522Y-102109207D02*
X124538597Y-101609282D01*
X123983701Y-100006308D02*
X123983701Y-98577155D01*
X124240198Y-95801940D02*
X125480455Y-94561683D01*
X123957598Y-102159654D02*
X120701538Y-102159654D01*
X122555000Y-121285000D02*
X122555000Y-120015000D01*
X120701538Y-102159654D02*
X118953675Y-103907517D01*
X116205000Y-113665000D02*
X116205000Y-111125000D01*
X122555000Y-120015000D02*
X116205000Y-113665000D01*
X118953675Y-103907517D02*
X117579827Y-103907517D01*
X124472837Y-102674893D02*
X123957598Y-102159654D01*
X115971563Y-101664303D02*
X115029389Y-100722129D01*
X119950697Y-101664303D02*
X115971563Y-101664303D01*
X111776448Y-100722129D02*
X110543586Y-99489267D01*
X115029389Y-100722129D02*
X111776448Y-100722129D01*
X111125000Y-106045000D02*
X110311925Y-105231925D01*
X123341466Y-103806264D02*
X121737730Y-105410000D01*
X118745000Y-105410000D02*
X118110000Y-106045000D01*
X121737730Y-105410000D02*
X118745000Y-105410000D01*
X108747535Y-101483686D02*
X108747535Y-101285318D01*
X118110000Y-106045000D02*
X111125000Y-106045000D01*
X112102300Y-104838451D02*
X110311925Y-103048075D01*
X110311925Y-103048075D02*
X108747535Y-101483686D01*
X110311925Y-105231925D02*
X110311925Y-103048075D01*
X123407227Y-102740654D02*
X123907151Y-103240578D01*
X112602300Y-95804203D02*
X112602300Y-93047981D01*
X108747535Y-99349535D02*
X108747535Y-97693216D01*
X110490000Y-97916503D02*
X109054900Y-99351603D01*
X113342755Y-104775000D02*
X120650000Y-104775000D01*
X109054900Y-99351603D02*
X109054900Y-99656900D01*
X109054900Y-99656900D02*
X108747535Y-99349535D01*
X120650000Y-104775000D02*
X122684346Y-102740654D01*
X108747535Y-99349535D02*
X108747535Y-99425735D01*
X122684346Y-102740654D02*
X123407227Y-102740654D01*
X110490000Y-97916503D02*
X112602300Y-95804203D01*
X112243559Y-103675804D02*
X113342755Y-104775000D01*
X108747535Y-99425735D02*
X112243559Y-102921759D01*
X112243559Y-102921759D02*
X112243559Y-103675804D01*
X136906000Y-96491392D02*
X136652000Y-96237392D01*
X129742582Y-88442182D02*
X129742582Y-72022823D01*
X133198534Y-103806264D02*
X133737648Y-103267150D01*
X135890000Y-100330000D02*
X135890000Y-99819159D01*
X133737648Y-102482352D02*
X135890000Y-100330000D01*
X136906000Y-98803159D02*
X136906000Y-96491392D01*
X135890000Y-99819159D02*
X136906000Y-98803159D01*
X133737648Y-103267150D02*
X133737648Y-102482352D01*
X136652000Y-95351600D02*
X129742582Y-88442182D01*
X136652000Y-96237392D02*
X136652000Y-95351600D01*
D40*
X141605000Y-78895500D02*
X142058922Y-78441578D01*
X137160000Y-105293857D02*
X136344100Y-104477957D01*
X137160000Y-107315000D02*
X137160000Y-105293857D01*
X133198534Y-105743736D02*
X134769798Y-107315000D01*
X136344100Y-100990400D02*
X137004500Y-100330000D01*
X141605000Y-94615000D02*
X141605000Y-78895500D01*
X136344100Y-104477957D02*
X136344100Y-100990400D01*
X134769798Y-107315000D02*
X137160000Y-107315000D01*
D41*
X136525000Y-112395000D02*
X135890000Y-113030000D01*
X135890000Y-113030000D02*
X135890000Y-113665000D01*
X135890000Y-113665000D02*
X135255000Y-114300000D01*
X136525000Y-110201573D02*
X136525000Y-112395000D01*
X135255000Y-119952500D02*
X138285000Y-122982500D01*
X135255000Y-114300000D02*
X135255000Y-119952500D01*
X132632849Y-106309422D02*
X136525000Y-110201573D01*
X132067163Y-106875107D02*
X133985000Y-108792944D01*
X133985000Y-135890000D02*
X133350000Y-136525000D01*
X133985000Y-108792944D02*
X133985000Y-135890000D01*
X123949037Y-107398907D02*
X124472837Y-106875107D01*
X119390235Y-106669765D02*
X119661412Y-106669765D01*
X121201093Y-107398907D02*
X123949037Y-107398907D01*
X120795824Y-107804176D02*
X121525045Y-108533398D01*
X120795824Y-107804176D02*
X121201093Y-107398907D01*
X119661412Y-106669765D02*
X120795824Y-107804176D01*
G04 #@! TA.AperFunction,Conductor*
G36*
X154079419Y-58016741D02*
G01*
X154236057Y-58032102D01*
X154259801Y-58036804D01*
X154404631Y-58080542D01*
X154427008Y-58089767D01*
X154560585Y-58160814D01*
X154580742Y-58174211D01*
X154697971Y-58269858D01*
X154715144Y-58286919D01*
X154811549Y-58403511D01*
X154825080Y-58423584D01*
X154896995Y-58556684D01*
X154906369Y-58579003D01*
X154951056Y-58723548D01*
X154955914Y-58747263D01*
X154972185Y-58902699D01*
X154972859Y-58915609D01*
X154972859Y-75159815D01*
X154972596Y-75159815D01*
X154973310Y-75169976D01*
X154957983Y-75444154D01*
X154956440Y-75457909D01*
X154904735Y-75763665D01*
X154901669Y-75777162D01*
X154816208Y-76075258D01*
X154811657Y-76088329D01*
X154693510Y-76375037D01*
X154687531Y-76387520D01*
X154538163Y-76659284D01*
X154530829Y-76671023D01*
X154352108Y-76924440D01*
X154343513Y-76935287D01*
X154137654Y-77167219D01*
X154127902Y-77177042D01*
X153897493Y-77384571D01*
X153886709Y-77393246D01*
X153634598Y-77573813D01*
X153622912Y-77581232D01*
X153352245Y-77732577D01*
X153339806Y-77738647D01*
X153053964Y-77858882D01*
X153040927Y-77863528D01*
X152743460Y-77951160D01*
X152729985Y-77954324D01*
X152424614Y-78008257D01*
X152410871Y-78009900D01*
X152098456Y-78029649D01*
X152090577Y-78029896D01*
X146481776Y-78027341D01*
X146130863Y-78027182D01*
X146130835Y-78027182D01*
X146130761Y-78027182D01*
X146130672Y-78027181D01*
X146102276Y-78027169D01*
X146102131Y-78027169D01*
X145999974Y-78027001D01*
X145994606Y-78026993D01*
X145994605Y-78026993D01*
X145994600Y-78026993D01*
X145724502Y-78061537D01*
X145584594Y-78098258D01*
X145461107Y-78130670D01*
X145461104Y-78130671D01*
X145461097Y-78130673D01*
X145461091Y-78130675D01*
X145208849Y-78233226D01*
X145208847Y-78233228D01*
X144971949Y-78367491D01*
X144890513Y-78428771D01*
X144754354Y-78531229D01*
X144754350Y-78531232D01*
X144754347Y-78531235D01*
X144559734Y-78721675D01*
X144559729Y-78721681D01*
X144391317Y-78935672D01*
X144251948Y-79169610D01*
X144251943Y-79169620D01*
X144143953Y-79419572D01*
X144142598Y-79423369D01*
X144141473Y-79422967D01*
X144106872Y-79477667D01*
X144043526Y-79507146D01*
X143974298Y-79497698D01*
X143921167Y-79452323D01*
X143901003Y-79385426D01*
X143901000Y-79384538D01*
X143901000Y-78318320D01*
X143920685Y-78251281D01*
X143937319Y-78230639D01*
X144905639Y-77262319D01*
X144966962Y-77228834D01*
X144993320Y-77226000D01*
X145813974Y-77226000D01*
X145813976Y-77226000D01*
X145913421Y-77199354D01*
X146002580Y-77147878D01*
X146694330Y-76456126D01*
X146755651Y-76422643D01*
X146807787Y-76422519D01*
X146939430Y-76450500D01*
X146939431Y-76450500D01*
X147125569Y-76450500D01*
X147125570Y-76450500D01*
X147307642Y-76411800D01*
X147307644Y-76411798D01*
X147307647Y-76411798D01*
X147398132Y-76371511D01*
X147477689Y-76336090D01*
X147628279Y-76226680D01*
X147752831Y-76088351D01*
X147845901Y-75927149D01*
X147903421Y-75750120D01*
X147922878Y-75565000D01*
X147903421Y-75379880D01*
X147894323Y-75351881D01*
X147892327Y-75282043D01*
X147924571Y-75225885D01*
X148598078Y-74552380D01*
X148649554Y-74463221D01*
X148676200Y-74363776D01*
X148676200Y-74260824D01*
X148676200Y-71875239D01*
X148649724Y-71776432D01*
X148645500Y-71744341D01*
X148645500Y-70482039D01*
X148645500Y-70482037D01*
X148618854Y-70382593D01*
X148618854Y-70382592D01*
X148618854Y-70382591D01*
X148596157Y-70343280D01*
X148567378Y-70293433D01*
X143874067Y-65600122D01*
X143784908Y-65548646D01*
X143685463Y-65522000D01*
X143685462Y-65522000D01*
X138283319Y-65522000D01*
X138216280Y-65502315D01*
X138170525Y-65449511D01*
X138160581Y-65380353D01*
X138189606Y-65316797D01*
X138191169Y-65315028D01*
X138227749Y-65274401D01*
X138297831Y-65196567D01*
X138390901Y-65035365D01*
X138448421Y-64858336D01*
X138457705Y-64770001D01*
X148619318Y-64770001D01*
X148639955Y-64926760D01*
X148639956Y-64926762D01*
X148699830Y-65071312D01*
X148700464Y-65072841D01*
X148796718Y-65198282D01*
X148922159Y-65294536D01*
X148922160Y-65294536D01*
X148928608Y-65299484D01*
X148928398Y-65299757D01*
X148945562Y-65312927D01*
X152413181Y-68780546D01*
X152446666Y-68841869D01*
X152449500Y-68868227D01*
X152449500Y-71814273D01*
X152429815Y-71881312D01*
X152413181Y-71901954D01*
X149671954Y-74643181D01*
X149610631Y-74676666D01*
X149584273Y-74679500D01*
X149479430Y-74679500D01*
X149455568Y-74684572D01*
X149297358Y-74718199D01*
X149297352Y-74718201D01*
X149127311Y-74793909D01*
X148976718Y-74903322D01*
X148976715Y-74903324D01*
X148852168Y-75041650D01*
X148759099Y-75202850D01*
X148759096Y-75202856D01*
X148701580Y-75379875D01*
X148701579Y-75379877D01*
X148682122Y-75565000D01*
X148701579Y-75750122D01*
X148701580Y-75750124D01*
X148759096Y-75927143D01*
X148759099Y-75927149D01*
X148852169Y-76088351D01*
X148862387Y-76099699D01*
X148976715Y-76226675D01*
X148976718Y-76226677D01*
X148976721Y-76226680D01*
X149080876Y-76302353D01*
X149127311Y-76336090D01*
X149297352Y-76411798D01*
X149297358Y-76411800D01*
X149479430Y-76450500D01*
X149479431Y-76450500D01*
X149665569Y-76450500D01*
X149665570Y-76450500D01*
X149847642Y-76411800D01*
X149847644Y-76411798D01*
X149847647Y-76411798D01*
X149938132Y-76371511D01*
X150017689Y-76336090D01*
X150168279Y-76226680D01*
X150292831Y-76088351D01*
X150385901Y-75927149D01*
X150443421Y-75750120D01*
X150462878Y-75565000D01*
X150462592Y-75562279D01*
X150462878Y-75560714D01*
X150462878Y-75558501D01*
X150463283Y-75558501D01*
X150475159Y-75493548D01*
X150498228Y-75461635D01*
X153377840Y-72582024D01*
X153377845Y-72582020D01*
X153388048Y-72571816D01*
X153388050Y-72571816D01*
X153496316Y-72463550D01*
X153572872Y-72330951D01*
X153597351Y-72239593D01*
X153612501Y-72183055D01*
X153612501Y-72029944D01*
X153612501Y-72022349D01*
X153612500Y-72022331D01*
X153612500Y-68662558D01*
X153612501Y-68662545D01*
X153612501Y-68499447D01*
X153612501Y-68499445D01*
X153572872Y-68351550D01*
X153572872Y-68351549D01*
X153496316Y-68218950D01*
X153388050Y-68110684D01*
X153388049Y-68110683D01*
X153383719Y-68106353D01*
X153383708Y-68106343D01*
X149767927Y-64490562D01*
X149754757Y-64473398D01*
X149754484Y-64473608D01*
X149749536Y-64467160D01*
X149749536Y-64467159D01*
X149653282Y-64341718D01*
X149527841Y-64245464D01*
X149437158Y-64207902D01*
X149381762Y-64184956D01*
X149381760Y-64184955D01*
X149225001Y-64164318D01*
X149224999Y-64164318D01*
X149068239Y-64184955D01*
X149068237Y-64184956D01*
X148922160Y-64245463D01*
X148796718Y-64341718D01*
X148700463Y-64467160D01*
X148639956Y-64613237D01*
X148639955Y-64613239D01*
X148619318Y-64769998D01*
X148619318Y-64770001D01*
X138457705Y-64770001D01*
X138467878Y-64673216D01*
X138448421Y-64488096D01*
X138400860Y-64341718D01*
X138390903Y-64311072D01*
X138390900Y-64311066D01*
X138375422Y-64284257D01*
X138297831Y-64149865D01*
X138241530Y-64087336D01*
X138173284Y-64011540D01*
X138173281Y-64011538D01*
X138173280Y-64011537D01*
X138173279Y-64011536D01*
X138022689Y-63902126D01*
X138022688Y-63902125D01*
X137852647Y-63826417D01*
X137852641Y-63826415D01*
X137709269Y-63795941D01*
X137670570Y-63787716D01*
X137484430Y-63787716D01*
X137452514Y-63794499D01*
X137302358Y-63826415D01*
X137302352Y-63826417D01*
X137132311Y-63902125D01*
X136981718Y-64011538D01*
X136981715Y-64011540D01*
X136857168Y-64149866D01*
X136764099Y-64311066D01*
X136764096Y-64311072D01*
X136706580Y-64488091D01*
X136706579Y-64488093D01*
X136687122Y-64673216D01*
X136706579Y-64858338D01*
X136706580Y-64858340D01*
X136764096Y-65035359D01*
X136764099Y-65035365D01*
X136857169Y-65196567D01*
X136909527Y-65254716D01*
X136963831Y-65315028D01*
X136994061Y-65378020D01*
X136985435Y-65447355D01*
X136940694Y-65501020D01*
X136874041Y-65521978D01*
X136871681Y-65522000D01*
X136490604Y-65522000D01*
X136423565Y-65502315D01*
X136402923Y-65485681D01*
X135929574Y-65012332D01*
X135896089Y-64951009D01*
X135899323Y-64886334D01*
X135908421Y-64858336D01*
X135927878Y-64673216D01*
X135908421Y-64488096D01*
X135860860Y-64341718D01*
X135850903Y-64311072D01*
X135850900Y-64311066D01*
X135835422Y-64284257D01*
X135757831Y-64149865D01*
X135701530Y-64087336D01*
X135633284Y-64011540D01*
X135633281Y-64011538D01*
X135633280Y-64011537D01*
X135633279Y-64011536D01*
X135482689Y-63902126D01*
X135482688Y-63902125D01*
X135312647Y-63826417D01*
X135312641Y-63826415D01*
X135169269Y-63795941D01*
X135130570Y-63787716D01*
X134944430Y-63787716D01*
X134912514Y-63794499D01*
X134762358Y-63826415D01*
X134762352Y-63826417D01*
X134592311Y-63902125D01*
X134441718Y-64011538D01*
X134441715Y-64011540D01*
X134317168Y-64149866D01*
X134224099Y-64311066D01*
X134224096Y-64311072D01*
X134166580Y-64488091D01*
X134166579Y-64488093D01*
X134147122Y-64673216D01*
X134166579Y-64858338D01*
X134166580Y-64858340D01*
X134224096Y-65035359D01*
X134224099Y-65035365D01*
X134317169Y-65196567D01*
X134360555Y-65244752D01*
X134441715Y-65334891D01*
X134441718Y-65334893D01*
X134441721Y-65334896D01*
X134570217Y-65428254D01*
X134592311Y-65444306D01*
X134762352Y-65520014D01*
X134762358Y-65520016D01*
X134944430Y-65558716D01*
X134944431Y-65558716D01*
X135130569Y-65558716D01*
X135130570Y-65558716D01*
X135262211Y-65530735D01*
X135331875Y-65536051D01*
X135375670Y-65564344D01*
X135964405Y-66153079D01*
X135964406Y-66153080D01*
X136037204Y-66225878D01*
X136126364Y-66277354D01*
X136225808Y-66304000D01*
X136328760Y-66304000D01*
X136940792Y-66304000D01*
X137007831Y-66323685D01*
X137053586Y-66376489D01*
X137063530Y-66445647D01*
X137034505Y-66509203D01*
X137013678Y-66528318D01*
X136981718Y-66551538D01*
X136981715Y-66551540D01*
X136857168Y-66689866D01*
X136764099Y-66851066D01*
X136764096Y-66851072D01*
X136706580Y-67028091D01*
X136706579Y-67028093D01*
X136687122Y-67213216D01*
X136706579Y-67398338D01*
X136706580Y-67398340D01*
X136764096Y-67575359D01*
X136764099Y-67575365D01*
X136857169Y-67736567D01*
X136900555Y-67784752D01*
X136981715Y-67874891D01*
X136981718Y-67874893D01*
X136981721Y-67874896D01*
X137088969Y-67952816D01*
X137132311Y-67984306D01*
X137302352Y-68060014D01*
X137302358Y-68060016D01*
X137484430Y-68098716D01*
X137484431Y-68098716D01*
X137670569Y-68098716D01*
X137670570Y-68098716D01*
X137852642Y-68060016D01*
X137852644Y-68060014D01*
X137852647Y-68060014D01*
X137909924Y-68034512D01*
X138022689Y-67984306D01*
X138173279Y-67874896D01*
X138297831Y-67736567D01*
X138390901Y-67575365D01*
X138448421Y-67398336D01*
X138467878Y-67213216D01*
X138448421Y-67028096D01*
X138390901Y-66851067D01*
X138297831Y-66689865D01*
X138249047Y-66635685D01*
X138173284Y-66551540D01*
X138173281Y-66551538D01*
X138173280Y-66551537D01*
X138173279Y-66551536D01*
X138141321Y-66528317D01*
X138098657Y-66472987D01*
X138092678Y-66403374D01*
X138125284Y-66341579D01*
X138186123Y-66307222D01*
X138214208Y-66304000D01*
X143420667Y-66304000D01*
X143487706Y-66323685D01*
X143508348Y-66340319D01*
X147827181Y-70659152D01*
X147860666Y-70720475D01*
X147863500Y-70746833D01*
X147863500Y-71947490D01*
X147889975Y-72046297D01*
X147894200Y-72078390D01*
X147894200Y-72335623D01*
X147874515Y-72402662D01*
X147821711Y-72448417D01*
X147752553Y-72458361D01*
X147688997Y-72429336D01*
X147678050Y-72418595D01*
X147628284Y-72363324D01*
X147628281Y-72363322D01*
X147628280Y-72363321D01*
X147628279Y-72363320D01*
X147477689Y-72253910D01*
X147477688Y-72253909D01*
X147474614Y-72251676D01*
X147431949Y-72196346D01*
X147423500Y-72151358D01*
X147423500Y-71528978D01*
X147423501Y-71528965D01*
X147423501Y-71416026D01*
X147423501Y-71416024D01*
X147396854Y-71316580D01*
X147345378Y-71227420D01*
X145970296Y-69852338D01*
X145881137Y-69800862D01*
X145781692Y-69774216D01*
X145781691Y-69774216D01*
X138202819Y-69774216D01*
X138135780Y-69754531D01*
X138115138Y-69737897D01*
X135929573Y-67552332D01*
X135896088Y-67491009D01*
X135899323Y-67426333D01*
X135908421Y-67398336D01*
X135927878Y-67213216D01*
X135908421Y-67028096D01*
X135850901Y-66851067D01*
X135757831Y-66689865D01*
X135709047Y-66635685D01*
X135633284Y-66551540D01*
X135633281Y-66551538D01*
X135633280Y-66551537D01*
X135633279Y-66551536D01*
X135525166Y-66472987D01*
X135482688Y-66442125D01*
X135312647Y-66366417D01*
X135312641Y-66366415D01*
X135169269Y-66335941D01*
X135130570Y-66327716D01*
X134944430Y-66327716D01*
X134912514Y-66334499D01*
X134762358Y-66366415D01*
X134762352Y-66366417D01*
X134592311Y-66442125D01*
X134441718Y-66551538D01*
X134441715Y-66551540D01*
X134317168Y-66689866D01*
X134224099Y-66851066D01*
X134224096Y-66851072D01*
X134166580Y-67028091D01*
X134166579Y-67028093D01*
X134147122Y-67213216D01*
X134166579Y-67398338D01*
X134166580Y-67398340D01*
X134224096Y-67575359D01*
X134224099Y-67575365D01*
X134317169Y-67736567D01*
X134360555Y-67784752D01*
X134441715Y-67874891D01*
X134441718Y-67874893D01*
X134441721Y-67874896D01*
X134548969Y-67952816D01*
X134592311Y-67984306D01*
X134762352Y-68060014D01*
X134762358Y-68060016D01*
X134944430Y-68098716D01*
X134944431Y-68098716D01*
X135130569Y-68098716D01*
X135130570Y-68098716D01*
X135262211Y-68070735D01*
X135331875Y-68076051D01*
X135375670Y-68104344D01*
X137672281Y-70400954D01*
X137672291Y-70400965D01*
X137749421Y-70478095D01*
X137794000Y-70503832D01*
X137838580Y-70529570D01*
X137938024Y-70556216D01*
X138489245Y-70556216D01*
X138556284Y-70575901D01*
X138602039Y-70628705D01*
X138611983Y-70697863D01*
X138587621Y-70755702D01*
X138540464Y-70817157D01*
X138479956Y-70963237D01*
X138479955Y-70963239D01*
X138459318Y-71119998D01*
X138459318Y-71121361D01*
X138458992Y-71122468D01*
X138458257Y-71128057D01*
X138457385Y-71127942D01*
X138439633Y-71188400D01*
X138422999Y-71209042D01*
X137622624Y-72009417D01*
X137622620Y-72009423D01*
X137571145Y-72098578D01*
X137571146Y-72098578D01*
X137571146Y-72098579D01*
X137544500Y-72198024D01*
X137544500Y-73306180D01*
X137524815Y-73373219D01*
X137508181Y-73393861D01*
X134942124Y-75959917D01*
X134942122Y-75959920D01*
X134890647Y-76049076D01*
X134890646Y-76049078D01*
X134890646Y-76049079D01*
X134880123Y-76088351D01*
X134880122Y-76088352D01*
X134864000Y-76148522D01*
X134864000Y-89653073D01*
X134844315Y-89720112D01*
X134827688Y-89740748D01*
X134826721Y-89741714D01*
X134730463Y-89867160D01*
X134669956Y-90013237D01*
X134669955Y-90013239D01*
X134649318Y-90169998D01*
X134649318Y-90170001D01*
X134669955Y-90326760D01*
X134669956Y-90326762D01*
X134730464Y-90472841D01*
X134826718Y-90598282D01*
X134952159Y-90694536D01*
X135098238Y-90755044D01*
X135176619Y-90765363D01*
X135254999Y-90775682D01*
X135255000Y-90775682D01*
X135255001Y-90775682D01*
X135307254Y-90768802D01*
X135411762Y-90755044D01*
X135557841Y-90694536D01*
X135683282Y-90598282D01*
X135779536Y-90472841D01*
X135840044Y-90326762D01*
X135860682Y-90170000D01*
X135840044Y-90013238D01*
X135779536Y-89867159D01*
X135683282Y-89741718D01*
X135683279Y-89741716D01*
X135683278Y-89741714D01*
X135682312Y-89740748D01*
X135681758Y-89739733D01*
X135678334Y-89735271D01*
X135679030Y-89734736D01*
X135648832Y-89679422D01*
X135646000Y-89653073D01*
X135646000Y-76413318D01*
X135665685Y-76346279D01*
X135682314Y-76325642D01*
X138165370Y-73842585D01*
X138165375Y-73842582D01*
X138175578Y-73832378D01*
X138175580Y-73832378D01*
X138248378Y-73759580D01*
X138299854Y-73670420D01*
X138326500Y-73570976D01*
X138326500Y-73529269D01*
X138944498Y-73529269D01*
X138947351Y-73559699D01*
X138947351Y-73559701D01*
X138991783Y-73686677D01*
X138992205Y-73687882D01*
X139072848Y-73797150D01*
X139182116Y-73877793D01*
X139195977Y-73882643D01*
X139310297Y-73922646D01*
X139340728Y-73925500D01*
X139340732Y-73925500D01*
X139974268Y-73925500D01*
X140004697Y-73922646D01*
X140004699Y-73922646D01*
X140068788Y-73900219D01*
X140132880Y-73877793D01*
X140242148Y-73797150D01*
X140322791Y-73687882D01*
X140362338Y-73574863D01*
X140367644Y-73559701D01*
X140367644Y-73559699D01*
X140370498Y-73529269D01*
X140370498Y-72520730D01*
X140367644Y-72490300D01*
X140367644Y-72490298D01*
X140325557Y-72370024D01*
X140322791Y-72362118D01*
X140242148Y-72252850D01*
X140132880Y-72172207D01*
X140132878Y-72172206D01*
X140004698Y-72127353D01*
X139974268Y-72124500D01*
X139974264Y-72124500D01*
X139340732Y-72124500D01*
X139340728Y-72124500D01*
X139310298Y-72127353D01*
X139310296Y-72127353D01*
X139182117Y-72172206D01*
X139182115Y-72172207D01*
X139072848Y-72252850D01*
X138992205Y-72362117D01*
X138992204Y-72362119D01*
X138947351Y-72490298D01*
X138947351Y-72490300D01*
X138944498Y-72520730D01*
X138944498Y-73529269D01*
X138326500Y-73529269D01*
X138326500Y-72462819D01*
X138346185Y-72395780D01*
X138362815Y-72375142D01*
X138975956Y-71762000D01*
X139037279Y-71728516D01*
X139063637Y-71725682D01*
X139065001Y-71725682D01*
X139117254Y-71718802D01*
X139221762Y-71705044D01*
X139367841Y-71644536D01*
X139493282Y-71548282D01*
X139589536Y-71422841D01*
X139650044Y-71276762D01*
X139669621Y-71128057D01*
X139670682Y-71120001D01*
X139670682Y-71119998D01*
X139650044Y-70963239D01*
X139650044Y-70963238D01*
X139589536Y-70817159D01*
X139589535Y-70817158D01*
X139589535Y-70817157D01*
X139542379Y-70755702D01*
X139517185Y-70690533D01*
X139531224Y-70622088D01*
X139580038Y-70572098D01*
X139640755Y-70556216D01*
X145516896Y-70556216D01*
X145583935Y-70575901D01*
X145604577Y-70592535D01*
X146605181Y-71593139D01*
X146638666Y-71654462D01*
X146641500Y-71680820D01*
X146641500Y-72151358D01*
X146621815Y-72218397D01*
X146590386Y-72251676D01*
X146436718Y-72363322D01*
X146436715Y-72363324D01*
X146312168Y-72501650D01*
X146219099Y-72662850D01*
X146219096Y-72662856D01*
X146161580Y-72839875D01*
X146161579Y-72839877D01*
X146142122Y-73024999D01*
X146161579Y-73210121D01*
X146170676Y-73238118D01*
X146172670Y-73307960D01*
X146140425Y-73364115D01*
X145636861Y-73867681D01*
X145575538Y-73901166D01*
X145549180Y-73904000D01*
X145169953Y-73904000D01*
X145102914Y-73884315D01*
X145057159Y-73831511D01*
X145047215Y-73762353D01*
X145076240Y-73698797D01*
X145086986Y-73687846D01*
X145088280Y-73686680D01*
X145088285Y-73686675D01*
X145212832Y-73548351D01*
X145305902Y-73387149D01*
X145363422Y-73210120D01*
X145382879Y-73025000D01*
X145363422Y-72839880D01*
X145321911Y-72712122D01*
X145305904Y-72662856D01*
X145305901Y-72662850D01*
X145212832Y-72501649D01*
X145123704Y-72402662D01*
X145088285Y-72363324D01*
X145088282Y-72363322D01*
X145088281Y-72363321D01*
X145088280Y-72363320D01*
X144937690Y-72253910D01*
X144937689Y-72253909D01*
X144767648Y-72178201D01*
X144767642Y-72178199D01*
X144624270Y-72147725D01*
X144585571Y-72139500D01*
X144399431Y-72139500D01*
X144367515Y-72146283D01*
X144217359Y-72178199D01*
X144217353Y-72178201D01*
X144047312Y-72253909D01*
X143896719Y-72363322D01*
X143896716Y-72363324D01*
X143772168Y-72501650D01*
X143772166Y-72501653D01*
X143731553Y-72571999D01*
X143680987Y-72620215D01*
X143624166Y-72634000D01*
X143458524Y-72634000D01*
X143359079Y-72660646D01*
X143359076Y-72660647D01*
X143269923Y-72712120D01*
X143269917Y-72712124D01*
X142407179Y-73574863D01*
X142345856Y-73608348D01*
X142276164Y-73603364D01*
X142220231Y-73561492D01*
X142195814Y-73496028D01*
X142195498Y-73487182D01*
X142195498Y-72520730D01*
X142192644Y-72490300D01*
X142192644Y-72490298D01*
X142150557Y-72370024D01*
X142147791Y-72362118D01*
X142067148Y-72252850D01*
X141957880Y-72172207D01*
X141957878Y-72172206D01*
X141829698Y-72127353D01*
X141799268Y-72124500D01*
X141799264Y-72124500D01*
X141165732Y-72124500D01*
X141165728Y-72124500D01*
X141135298Y-72127353D01*
X141135296Y-72127353D01*
X141007117Y-72172206D01*
X141007115Y-72172207D01*
X140897848Y-72252850D01*
X140817205Y-72362117D01*
X140817204Y-72362119D01*
X140772351Y-72490298D01*
X140772351Y-72490300D01*
X140769498Y-72520730D01*
X140769498Y-73529269D01*
X140772351Y-73559699D01*
X140772351Y-73559701D01*
X140816783Y-73686677D01*
X140817205Y-73687882D01*
X140897848Y-73797150D01*
X141007116Y-73877793D01*
X141072651Y-73900724D01*
X141129426Y-73941445D01*
X141155173Y-74006398D01*
X141155695Y-74017765D01*
X141155695Y-74571778D01*
X141136010Y-74638817D01*
X141083206Y-74684572D01*
X141072651Y-74688819D01*
X141005812Y-74712207D01*
X140896545Y-74792850D01*
X140815902Y-74902117D01*
X140815901Y-74902119D01*
X140771048Y-75030298D01*
X140771048Y-75030300D01*
X140768195Y-75060730D01*
X140768195Y-76069269D01*
X140771048Y-76099699D01*
X140771048Y-76099701D01*
X140815480Y-76226677D01*
X140815902Y-76227882D01*
X140896545Y-76337150D01*
X141005813Y-76417793D01*
X141019674Y-76422643D01*
X141133994Y-76462646D01*
X141164425Y-76465500D01*
X141757180Y-76465500D01*
X141824219Y-76485185D01*
X141869974Y-76537989D01*
X141879918Y-76607147D01*
X141850893Y-76670703D01*
X141844861Y-76677181D01*
X137482124Y-81039917D01*
X137482120Y-81039923D01*
X137430645Y-81129078D01*
X137430646Y-81129078D01*
X137430646Y-81129079D01*
X137430646Y-81129080D01*
X137404000Y-81228524D01*
X137404000Y-90667408D01*
X137404000Y-90770360D01*
X137430646Y-90869805D01*
X137482122Y-90958964D01*
X137482124Y-90958966D01*
X139713181Y-93190023D01*
X139746666Y-93251346D01*
X139749500Y-93277704D01*
X139749500Y-106978680D01*
X139729815Y-107045719D01*
X139713181Y-107066361D01*
X137958374Y-108821167D01*
X137958370Y-108821173D01*
X137906897Y-108910326D01*
X137906896Y-108910329D01*
X137880250Y-109009774D01*
X137880250Y-109112726D01*
X137906896Y-109212171D01*
X137958372Y-109301330D01*
X137958374Y-109301332D01*
X139983881Y-111326839D01*
X140017366Y-111388162D01*
X140020200Y-111414520D01*
X140020200Y-114297979D01*
X140000515Y-114365018D01*
X139983881Y-114385660D01*
X139420813Y-114948727D01*
X139359490Y-114982212D01*
X139294826Y-114978981D01*
X139289344Y-114977200D01*
X139155385Y-114948727D01*
X139107270Y-114938500D01*
X138921130Y-114938500D01*
X138889214Y-114945283D01*
X138739058Y-114977199D01*
X138739052Y-114977201D01*
X138569011Y-115052909D01*
X138418418Y-115162322D01*
X138418415Y-115162324D01*
X138293867Y-115300650D01*
X138293865Y-115300653D01*
X138233911Y-115404499D01*
X138183345Y-115452715D01*
X138126524Y-115466500D01*
X136868960Y-115466500D01*
X136801921Y-115446815D01*
X136756166Y-115394011D01*
X136754399Y-115389953D01*
X136749259Y-115377543D01*
X136703536Y-115267159D01*
X136607282Y-115141718D01*
X136481841Y-115045464D01*
X136335762Y-114984956D01*
X136335760Y-114984955D01*
X136179001Y-114964318D01*
X136178999Y-114964318D01*
X136022239Y-114984955D01*
X136022237Y-114984956D01*
X135876160Y-115045463D01*
X135876159Y-115045464D01*
X135845485Y-115069000D01*
X135780317Y-115094194D01*
X135711873Y-115080156D01*
X135661883Y-115031342D01*
X135646000Y-114970624D01*
X135646000Y-114513318D01*
X135665685Y-114446279D01*
X135682315Y-114425641D01*
X136119870Y-113988085D01*
X136119875Y-113988082D01*
X136130078Y-113977878D01*
X136130080Y-113977878D01*
X136202878Y-113905080D01*
X136254354Y-113815920D01*
X136265122Y-113775734D01*
X136281001Y-113716476D01*
X136281001Y-113613524D01*
X136281001Y-113605929D01*
X136281000Y-113605911D01*
X136281000Y-113243318D01*
X136300685Y-113176279D01*
X136317315Y-113155641D01*
X136754870Y-112718085D01*
X136754875Y-112718082D01*
X136765078Y-112707878D01*
X136765080Y-112707878D01*
X136837878Y-112635080D01*
X136889354Y-112545920D01*
X136896433Y-112519500D01*
X136916001Y-112446476D01*
X136916001Y-112343524D01*
X136916001Y-112335929D01*
X136916000Y-112335911D01*
X136916000Y-110263051D01*
X136916001Y-110263038D01*
X136916001Y-110150099D01*
X136916001Y-110150097D01*
X136889354Y-110050653D01*
X136837878Y-109961493D01*
X134819466Y-107943081D01*
X134785981Y-107881758D01*
X134790965Y-107812066D01*
X134832837Y-107756133D01*
X134898301Y-107731716D01*
X134907147Y-107731400D01*
X137214817Y-107731400D01*
X137214820Y-107731400D01*
X137320724Y-107703023D01*
X137415676Y-107648203D01*
X137493203Y-107570676D01*
X137548023Y-107475724D01*
X137576400Y-107369820D01*
X137576400Y-105239037D01*
X137569480Y-105213210D01*
X137548023Y-105133132D01*
X137547696Y-105132566D01*
X137493205Y-105038184D01*
X137493200Y-105038178D01*
X136796819Y-104341797D01*
X136763334Y-104280474D01*
X136760500Y-104254116D01*
X136760500Y-103602643D01*
X136780185Y-103535604D01*
X136832989Y-103489849D01*
X136902147Y-103479905D01*
X136959987Y-103504268D01*
X136989657Y-103527035D01*
X136989658Y-103527035D01*
X136989659Y-103527036D01*
X137135738Y-103587544D01*
X137214119Y-103597863D01*
X137292499Y-103608182D01*
X137292500Y-103608182D01*
X137292501Y-103608182D01*
X137344754Y-103601302D01*
X137449262Y-103587544D01*
X137595341Y-103527036D01*
X137720782Y-103430782D01*
X137817036Y-103305341D01*
X137877544Y-103159262D01*
X137898182Y-103002500D01*
X137898182Y-103001137D01*
X137898507Y-103000028D01*
X137899243Y-102994442D01*
X137900114Y-102994556D01*
X137917867Y-102934098D01*
X137934501Y-102913456D01*
X137978330Y-102869627D01*
X138107878Y-102740080D01*
X138159354Y-102650921D01*
X138186000Y-102551476D01*
X138186000Y-102448524D01*
X138186000Y-96419444D01*
X138205685Y-96352405D01*
X138222319Y-96331763D01*
X138223277Y-96330804D01*
X138223277Y-96330803D01*
X138223282Y-96330800D01*
X138319536Y-96205359D01*
X138380044Y-96059280D01*
X138380044Y-96059278D01*
X138383154Y-96051771D01*
X138384954Y-96052516D01*
X138415786Y-96001930D01*
X138478632Y-95971399D01*
X138548008Y-95979691D01*
X138601888Y-96024174D01*
X138623165Y-96090725D01*
X138623200Y-96093681D01*
X138623200Y-104584350D01*
X138603515Y-104651389D01*
X138550711Y-104697144D01*
X138546653Y-104698911D01*
X138416160Y-104752963D01*
X138290718Y-104849218D01*
X138194463Y-104974660D01*
X138133956Y-105120737D01*
X138133955Y-105120739D01*
X138113318Y-105277498D01*
X138113318Y-105277501D01*
X138133955Y-105434260D01*
X138133956Y-105434262D01*
X138191561Y-105573334D01*
X138194464Y-105580341D01*
X138290718Y-105705782D01*
X138416159Y-105802036D01*
X138562238Y-105862544D01*
X138640619Y-105872863D01*
X138718999Y-105883182D01*
X138719000Y-105883182D01*
X138719001Y-105883182D01*
X138771254Y-105876302D01*
X138875762Y-105862544D01*
X139021841Y-105802036D01*
X139147282Y-105705782D01*
X139243536Y-105580341D01*
X139304044Y-105434262D01*
X139324682Y-105277500D01*
X139324682Y-105277498D01*
X139324682Y-105269372D01*
X139326015Y-105269372D01*
X139335477Y-105208691D01*
X139340264Y-105199541D01*
X139340411Y-105199286D01*
X139378554Y-105133221D01*
X139405200Y-105033776D01*
X139405200Y-104930824D01*
X139405200Y-95782724D01*
X139378554Y-95683280D01*
X139327078Y-95594120D01*
X139254280Y-95521322D01*
X137164588Y-93431630D01*
X137131103Y-93370307D01*
X137129330Y-93360134D01*
X137123721Y-93317531D01*
X137110044Y-93213638D01*
X137049536Y-93067559D01*
X136953282Y-92942118D01*
X136827841Y-92845864D01*
X136775783Y-92824301D01*
X136681762Y-92785356D01*
X136681760Y-92785355D01*
X136525001Y-92764718D01*
X136524999Y-92764718D01*
X136368239Y-92785355D01*
X136368237Y-92785356D01*
X136222160Y-92845863D01*
X136096718Y-92942118D01*
X136000463Y-93067560D01*
X135939956Y-93213637D01*
X135939955Y-93213639D01*
X135919318Y-93370398D01*
X135919318Y-93370401D01*
X135939955Y-93527160D01*
X135939956Y-93527162D01*
X136000464Y-93673241D01*
X136096718Y-93798682D01*
X136222159Y-93894936D01*
X136368238Y-93955444D01*
X136446619Y-93965763D01*
X136524999Y-93976082D01*
X136524999Y-93976081D01*
X136525000Y-93976082D01*
X136533407Y-93974975D01*
X136602443Y-93985740D01*
X136637275Y-94010233D01*
X137731085Y-95104043D01*
X137764570Y-95165366D01*
X137759586Y-95235058D01*
X137717714Y-95290991D01*
X137659590Y-95314662D01*
X137638238Y-95317474D01*
X137638237Y-95317474D01*
X137492160Y-95377981D01*
X137459456Y-95403076D01*
X137366718Y-95474236D01*
X137274728Y-95594121D01*
X137265516Y-95606126D01*
X137262747Y-95604001D01*
X137223724Y-95641146D01*
X137155106Y-95654309D01*
X137090263Y-95628285D01*
X137049785Y-95571335D01*
X137043000Y-95530881D01*
X137043000Y-95413078D01*
X137043001Y-95413065D01*
X137043001Y-95300126D01*
X137043001Y-95300124D01*
X137016354Y-95200680D01*
X136997120Y-95167365D01*
X136964878Y-95111520D01*
X136892080Y-95038722D01*
X136892079Y-95038721D01*
X136887749Y-95034391D01*
X136887738Y-95034381D01*
X130169901Y-88316543D01*
X130136416Y-88255220D01*
X130133582Y-88228862D01*
X130133582Y-72859360D01*
X130153267Y-72792321D01*
X130206071Y-72746566D01*
X130246006Y-72735902D01*
X130277281Y-72732969D01*
X130277283Y-72732969D01*
X130350156Y-72707469D01*
X130405464Y-72688116D01*
X130514732Y-72607473D01*
X130595375Y-72498205D01*
X130631215Y-72395780D01*
X130640228Y-72370024D01*
X130640228Y-72370022D01*
X130643082Y-72339592D01*
X130643082Y-71706053D01*
X130640228Y-71675623D01*
X130640228Y-71675621D01*
X130606588Y-71579486D01*
X130595375Y-71547441D01*
X130514732Y-71438173D01*
X130405464Y-71357530D01*
X130405462Y-71357529D01*
X130277282Y-71312676D01*
X130246852Y-71309823D01*
X130246848Y-71309823D01*
X129238316Y-71309823D01*
X129238312Y-71309823D01*
X129207882Y-71312676D01*
X129207880Y-71312676D01*
X129079701Y-71357529D01*
X129079699Y-71357530D01*
X128970432Y-71438173D01*
X128889789Y-71547440D01*
X128889788Y-71547442D01*
X128844935Y-71675621D01*
X128844935Y-71675623D01*
X128842082Y-71706053D01*
X128842082Y-72339592D01*
X128844935Y-72370022D01*
X128844935Y-72370024D01*
X128887022Y-72490298D01*
X128889789Y-72498205D01*
X128970432Y-72607473D01*
X129079700Y-72688116D01*
X129122427Y-72703067D01*
X129207881Y-72732969D01*
X129239158Y-72735902D01*
X129304067Y-72761759D01*
X129344693Y-72818603D01*
X129351582Y-72859360D01*
X129351582Y-88390706D01*
X129351582Y-88493658D01*
X129378228Y-88593103D01*
X129429704Y-88682262D01*
X132631758Y-91884316D01*
X132665243Y-91945638D01*
X132660259Y-92015330D01*
X132618387Y-92071263D01*
X132552923Y-92095680D01*
X132484650Y-92080828D01*
X132478105Y-92076990D01*
X132357067Y-92000937D01*
X132357068Y-92000937D01*
X132204878Y-91947684D01*
X132204875Y-91947683D01*
X132044662Y-91929632D01*
X132044656Y-91929632D01*
X131884442Y-91947683D01*
X131884439Y-91947684D01*
X131732249Y-92000937D01*
X131595729Y-92086719D01*
X131481719Y-92200729D01*
X131395937Y-92337249D01*
X131342684Y-92489439D01*
X131342683Y-92489442D01*
X131324632Y-92649656D01*
X131324632Y-92649661D01*
X131342683Y-92809875D01*
X131342684Y-92809878D01*
X131395937Y-92962068D01*
X131481719Y-93098588D01*
X131595731Y-93212600D01*
X131601180Y-93216946D01*
X131600397Y-93217927D01*
X131641918Y-93264864D01*
X131653658Y-93317530D01*
X131653658Y-94730522D01*
X131633973Y-94797561D01*
X131617339Y-94818203D01*
X130865660Y-95569881D01*
X130804337Y-95603366D01*
X130741436Y-95600693D01*
X130735141Y-95598751D01*
X130600850Y-95578510D01*
X130466563Y-95598751D01*
X130466560Y-95598751D01*
X130344211Y-95657671D01*
X130344206Y-95657674D01*
X130320678Y-95677168D01*
X130320651Y-95677192D01*
X129572192Y-96425651D01*
X129572168Y-96425678D01*
X129552674Y-96449206D01*
X129552671Y-96449211D01*
X129493751Y-96571560D01*
X129493751Y-96571563D01*
X129473510Y-96705850D01*
X129489454Y-96811632D01*
X129493751Y-96840136D01*
X129493751Y-96840139D01*
X129552671Y-96962488D01*
X129552674Y-96962493D01*
X129565243Y-96977663D01*
X129572175Y-96986030D01*
X129572184Y-96986039D01*
X129572192Y-96986048D01*
X129747681Y-97161536D01*
X129781166Y-97222859D01*
X129784000Y-97249217D01*
X129784000Y-98835718D01*
X129764315Y-98902757D01*
X129711511Y-98948512D01*
X129642353Y-98958456D01*
X129635811Y-98957336D01*
X129564005Y-98943054D01*
X129470750Y-98961602D01*
X129411654Y-99001089D01*
X129411646Y-99001095D01*
X128393365Y-100019376D01*
X128364011Y-100063308D01*
X128310398Y-100108112D01*
X128241073Y-100116819D01*
X128178046Y-100086664D01*
X128145283Y-100039211D01*
X128134485Y-100011337D01*
X128118834Y-99991577D01*
X127156153Y-99028896D01*
X127136393Y-99013245D01*
X127031981Y-98972795D01*
X126920008Y-98972795D01*
X126815596Y-99013245D01*
X126795839Y-99028894D01*
X126795831Y-99028901D01*
X126483699Y-99341033D01*
X126483692Y-99341041D01*
X126468043Y-99360798D01*
X126426912Y-99466967D01*
X126384339Y-99522368D01*
X126356081Y-99537798D01*
X126249910Y-99578930D01*
X126230153Y-99594579D01*
X126230145Y-99594586D01*
X125918013Y-99906718D01*
X125918006Y-99906726D01*
X125902357Y-99926483D01*
X125861225Y-100032654D01*
X125818652Y-100088055D01*
X125790394Y-100103485D01*
X125684225Y-100144616D01*
X125664468Y-100160265D01*
X125664460Y-100160272D01*
X125352328Y-100472404D01*
X125352321Y-100472412D01*
X125336672Y-100492169D01*
X125295541Y-100598338D01*
X125252968Y-100653739D01*
X125224710Y-100669169D01*
X125118538Y-100710301D01*
X125115175Y-100712226D01*
X125111004Y-100713220D01*
X125109844Y-100713670D01*
X125109782Y-100713511D01*
X125047211Y-100728431D01*
X124981274Y-100705320D01*
X124938299Y-100650230D01*
X124929597Y-100604596D01*
X124929597Y-100509730D01*
X124929597Y-100509728D01*
X124902951Y-100410284D01*
X124865172Y-100344848D01*
X124851476Y-100321125D01*
X124774346Y-100243995D01*
X124774335Y-100243985D01*
X124411020Y-99880669D01*
X124377535Y-99819346D01*
X124374701Y-99792988D01*
X124374701Y-98790475D01*
X124394386Y-98723436D01*
X124411020Y-98702794D01*
X124834597Y-98279217D01*
X125269177Y-97844637D01*
X125320653Y-97755478D01*
X125347299Y-97656033D01*
X125347299Y-97553081D01*
X125347299Y-97100333D01*
X125347300Y-97100320D01*
X125347300Y-96987381D01*
X125347300Y-96987379D01*
X125320653Y-96887935D01*
X125269177Y-96798775D01*
X124667517Y-96197115D01*
X124634032Y-96135792D01*
X124631198Y-96109434D01*
X124631198Y-96015259D01*
X124650883Y-95948220D01*
X124667513Y-95927582D01*
X125457748Y-95137346D01*
X125519069Y-95103863D01*
X125588760Y-95108847D01*
X125592843Y-95110453D01*
X125680415Y-95146727D01*
X125758796Y-95157046D01*
X125837176Y-95167365D01*
X125837177Y-95167365D01*
X125837178Y-95167365D01*
X125889431Y-95160485D01*
X125993939Y-95146727D01*
X126140018Y-95086219D01*
X126265459Y-94989965D01*
X126361713Y-94864524D01*
X126422221Y-94718445D01*
X126442859Y-94561683D01*
X126422221Y-94404921D01*
X126361713Y-94258842D01*
X126265459Y-94133401D01*
X126140018Y-94037147D01*
X125993939Y-93976639D01*
X125993937Y-93976638D01*
X125837178Y-93956001D01*
X125837176Y-93956001D01*
X125680416Y-93976638D01*
X125680414Y-93976639D01*
X125534337Y-94037146D01*
X125408891Y-94133404D01*
X125393307Y-94153714D01*
X125336878Y-94194915D01*
X125330657Y-94196863D01*
X125329534Y-94197328D01*
X125240375Y-94248805D01*
X125240372Y-94248807D01*
X123927322Y-95561857D01*
X123927318Y-95561863D01*
X123875845Y-95651016D01*
X123875844Y-95651019D01*
X123849198Y-95750464D01*
X123849198Y-96271278D01*
X123849198Y-96374230D01*
X123872228Y-96460177D01*
X123875844Y-96473674D01*
X123875845Y-96473677D01*
X123878036Y-96477472D01*
X123927320Y-96562834D01*
X123927322Y-96562836D01*
X124528980Y-97164494D01*
X124562465Y-97225817D01*
X124565299Y-97252175D01*
X124565299Y-97391237D01*
X124545614Y-97458276D01*
X124528980Y-97478918D01*
X123670825Y-98337072D01*
X123670821Y-98337078D01*
X123619346Y-98426235D01*
X123619345Y-98426236D01*
X123609146Y-98464304D01*
X123609146Y-98464305D01*
X123603744Y-98484465D01*
X123592701Y-98525679D01*
X123592701Y-99954832D01*
X123592701Y-100057784D01*
X123617663Y-100150942D01*
X123619347Y-100157228D01*
X123619348Y-100157231D01*
X123621434Y-100160844D01*
X123670823Y-100246388D01*
X123905767Y-100481332D01*
X124111278Y-100686842D01*
X124144763Y-100748165D01*
X124147597Y-100774523D01*
X124147597Y-101645496D01*
X124127912Y-101712535D01*
X124075108Y-101758290D01*
X124017201Y-101766968D01*
X124017201Y-101768654D01*
X121612565Y-101768654D01*
X121545526Y-101748969D01*
X121499771Y-101696165D01*
X121489827Y-101627007D01*
X121518852Y-101563451D01*
X121537079Y-101546278D01*
X121542055Y-101542460D01*
X121636818Y-101469746D01*
X121733072Y-101344305D01*
X121793580Y-101198226D01*
X121814218Y-101041464D01*
X121814218Y-101040101D01*
X121814543Y-101038992D01*
X121815279Y-101033406D01*
X121816150Y-101033520D01*
X121833903Y-100973062D01*
X121850537Y-100952420D01*
X122160081Y-100642876D01*
X122531627Y-100271331D01*
X122583103Y-100182172D01*
X122609749Y-100082727D01*
X122609749Y-99979775D01*
X122609749Y-98037273D01*
X122598860Y-97996635D01*
X122592894Y-97974366D01*
X122583103Y-97937828D01*
X122570256Y-97915577D01*
X122531627Y-97848669D01*
X116268850Y-91585892D01*
X116179691Y-91534416D01*
X116080246Y-91507770D01*
X116080245Y-91507770D01*
X112533565Y-91507770D01*
X112533549Y-91507769D01*
X112525953Y-91507769D01*
X112423001Y-91507769D01*
X112348418Y-91527754D01*
X112323556Y-91534416D01*
X112234398Y-91585891D01*
X112234395Y-91585893D01*
X104184659Y-99635629D01*
X104184655Y-99635635D01*
X104133180Y-99724792D01*
X104133179Y-99724793D01*
X104127778Y-99744954D01*
X104127778Y-99744955D01*
X104106535Y-99824236D01*
X104106535Y-101039336D01*
X104086850Y-101106375D01*
X104034046Y-101152130D01*
X104027335Y-101154960D01*
X103989328Y-101169685D01*
X103988107Y-101170158D01*
X103808797Y-101281183D01*
X103652941Y-101423263D01*
X103525843Y-101591569D01*
X103431837Y-101780358D01*
X103374119Y-101983217D01*
X103354660Y-102193216D01*
X103374119Y-102403214D01*
X103374119Y-102403216D01*
X103374120Y-102403219D01*
X103428651Y-102594875D01*
X103431837Y-102606073D01*
X103525843Y-102794862D01*
X103652941Y-102963168D01*
X103808798Y-103105249D01*
X103808800Y-103105251D01*
X103988108Y-103216274D01*
X103988109Y-103216274D01*
X103988112Y-103216276D01*
X104184772Y-103292462D01*
X104392084Y-103331216D01*
X104392086Y-103331216D01*
X104602984Y-103331216D01*
X104602986Y-103331216D01*
X104810298Y-103292462D01*
X105006958Y-103216276D01*
X105186271Y-103105250D01*
X105342130Y-102963166D01*
X105469227Y-102794862D01*
X105563234Y-102606070D01*
X105620950Y-102403219D01*
X105640410Y-102193216D01*
X105620950Y-101983213D01*
X105563234Y-101780362D01*
X105469227Y-101591570D01*
X105372028Y-101462857D01*
X105342128Y-101423263D01*
X105186272Y-101281183D01*
X105186271Y-101281182D01*
X105089161Y-101221054D01*
X105006962Y-101170158D01*
X105006959Y-101170157D01*
X105006958Y-101170156D01*
X104967737Y-101154961D01*
X104912338Y-101112387D01*
X104888749Y-101046620D01*
X104888535Y-101039336D01*
X104888535Y-100089030D01*
X104908220Y-100021991D01*
X104924849Y-100001354D01*
X105937059Y-98989143D01*
X105998381Y-98955660D01*
X106068073Y-98960644D01*
X106124006Y-99002516D01*
X106148423Y-99067980D01*
X106139181Y-99120641D01*
X106140091Y-99120937D01*
X106080564Y-99304142D01*
X106080563Y-99304144D01*
X106061106Y-99489267D01*
X106080563Y-99674389D01*
X106080564Y-99674391D01*
X106138080Y-99851410D01*
X106138083Y-99851416D01*
X106231153Y-100012618D01*
X106253709Y-100037669D01*
X106355699Y-100150942D01*
X106355702Y-100150944D01*
X106355705Y-100150947D01*
X106484142Y-100244262D01*
X106506295Y-100260357D01*
X106676336Y-100336065D01*
X106676342Y-100336067D01*
X106858414Y-100374767D01*
X106858415Y-100374767D01*
X107044553Y-100374767D01*
X107044554Y-100374767D01*
X107226626Y-100336067D01*
X107226628Y-100336065D01*
X107226631Y-100336065D01*
X107330489Y-100289824D01*
X107396673Y-100260357D01*
X107547263Y-100150947D01*
X107552964Y-100144616D01*
X107603891Y-100088055D01*
X107671815Y-100012618D01*
X107764885Y-99851416D01*
X107822405Y-99674387D01*
X107841862Y-99489267D01*
X107822405Y-99304147D01*
X107764885Y-99127118D01*
X107671815Y-98965916D01*
X107619032Y-98907295D01*
X107547268Y-98827591D01*
X107547265Y-98827589D01*
X107547264Y-98827588D01*
X107547263Y-98827587D01*
X107407911Y-98726342D01*
X107396672Y-98718176D01*
X107226631Y-98642468D01*
X107226625Y-98642466D01*
X107054810Y-98605947D01*
X107044554Y-98603767D01*
X106858414Y-98603767D01*
X106848158Y-98605947D01*
X106676342Y-98642466D01*
X106676340Y-98642467D01*
X106579854Y-98685426D01*
X106510604Y-98694710D01*
X106447328Y-98665082D01*
X106410115Y-98605947D01*
X106410780Y-98536080D01*
X106441736Y-98484466D01*
X107733112Y-97193091D01*
X107794432Y-97159608D01*
X107864124Y-97164592D01*
X107920057Y-97206464D01*
X107944474Y-97271928D01*
X107935233Y-97324590D01*
X107936142Y-97324886D01*
X107876615Y-97508091D01*
X107876614Y-97508093D01*
X107857157Y-97693216D01*
X107876614Y-97878338D01*
X107876615Y-97878340D01*
X107934131Y-98055359D01*
X107934134Y-98055365D01*
X108027204Y-98216567D01*
X108066578Y-98260296D01*
X108151750Y-98354891D01*
X108151754Y-98354893D01*
X108151756Y-98354896D01*
X108302346Y-98464306D01*
X108302347Y-98464306D01*
X108305420Y-98466539D01*
X108348086Y-98521869D01*
X108356535Y-98566857D01*
X108356535Y-99298059D01*
X108356535Y-99374259D01*
X108356535Y-99477211D01*
X108383181Y-99576656D01*
X108434657Y-99665815D01*
X108434658Y-99665816D01*
X108434659Y-99665817D01*
X108698771Y-99929929D01*
X108732256Y-99991252D01*
X108727272Y-100060944D01*
X108685400Y-100116877D01*
X108679137Y-100120448D01*
X108679459Y-100120929D01*
X108619722Y-100160844D01*
X108619718Y-100160847D01*
X107623064Y-101157501D01*
X107623061Y-101157505D01*
X107589931Y-101207086D01*
X107589931Y-101207087D01*
X107574371Y-101285315D01*
X107574371Y-101285320D01*
X107589931Y-101363548D01*
X107589931Y-101363549D01*
X107623061Y-101413130D01*
X107623064Y-101413134D01*
X108619718Y-102409788D01*
X108619722Y-102409791D01*
X108619724Y-102409793D01*
X108656665Y-102434476D01*
X108669304Y-102442921D01*
X108747533Y-102458482D01*
X108747535Y-102458482D01*
X108747537Y-102458482D01*
X108799689Y-102448108D01*
X108825766Y-102442921D01*
X108875346Y-102409793D01*
X108910333Y-102374805D01*
X108971654Y-102341319D01*
X109041346Y-102346302D01*
X109085696Y-102374804D01*
X109884606Y-103173714D01*
X109918091Y-103235037D01*
X109920925Y-103261395D01*
X109920925Y-105180449D01*
X109920925Y-105283401D01*
X109944452Y-105371203D01*
X109947571Y-105382845D01*
X109947572Y-105382848D01*
X109950968Y-105388730D01*
X109999047Y-105472005D01*
X109999049Y-105472007D01*
X110721949Y-106194907D01*
X110755434Y-106256230D01*
X110750450Y-106325922D01*
X110708578Y-106381855D01*
X110643114Y-106406272D01*
X110634268Y-106406588D01*
X108280908Y-106406588D01*
X108213869Y-106386903D01*
X108193227Y-106370269D01*
X106285082Y-104462124D01*
X106285080Y-104462122D01*
X106195921Y-104410646D01*
X106096476Y-104384000D01*
X106096475Y-104384000D01*
X95463319Y-104384000D01*
X95396280Y-104364315D01*
X95375638Y-104347681D01*
X95042319Y-104014361D01*
X95008834Y-103953038D01*
X95006000Y-103926680D01*
X95006000Y-102818526D01*
X95006000Y-102818524D01*
X94979354Y-102719080D01*
X94949717Y-102667746D01*
X94927879Y-102629921D01*
X94850749Y-102552791D01*
X94850738Y-102552781D01*
X93584458Y-101286501D01*
X92315080Y-100017122D01*
X92250393Y-99979775D01*
X92225923Y-99965647D01*
X92225922Y-99965646D01*
X92225921Y-99965646D01*
X92126476Y-99939000D01*
X92126475Y-99939000D01*
X91653320Y-99939000D01*
X91586281Y-99919315D01*
X91565639Y-99902681D01*
X91437582Y-99774624D01*
X91437580Y-99774622D01*
X91348421Y-99723146D01*
X91248976Y-99696500D01*
X91248975Y-99696500D01*
X90116927Y-99696500D01*
X90049888Y-99676815D01*
X90029252Y-99660188D01*
X90028285Y-99659221D01*
X90028283Y-99659219D01*
X90028282Y-99659218D01*
X89902841Y-99562964D01*
X89843731Y-99538480D01*
X89756762Y-99502456D01*
X89756760Y-99502455D01*
X89600001Y-99481818D01*
X89599999Y-99481818D01*
X89443239Y-99502455D01*
X89443237Y-99502456D01*
X89297160Y-99562963D01*
X89171718Y-99659218D01*
X89075463Y-99784660D01*
X89014956Y-99930737D01*
X89014955Y-99930739D01*
X88994318Y-100087498D01*
X88994318Y-100087501D01*
X89014955Y-100244260D01*
X89014956Y-100244262D01*
X89050937Y-100331129D01*
X89075464Y-100390341D01*
X89171718Y-100515782D01*
X89297159Y-100612036D01*
X89443238Y-100672544D01*
X89521619Y-100682863D01*
X89599999Y-100693182D01*
X89600000Y-100693182D01*
X89600001Y-100693182D01*
X89652254Y-100686302D01*
X89756762Y-100672544D01*
X89902841Y-100612036D01*
X90028282Y-100515782D01*
X90028285Y-100515777D01*
X90029252Y-100514812D01*
X90030266Y-100514258D01*
X90034729Y-100510834D01*
X90035263Y-100511530D01*
X90090578Y-100481332D01*
X90116927Y-100478500D01*
X90984180Y-100478500D01*
X91051219Y-100498185D01*
X91071861Y-100514819D01*
X91199920Y-100642878D01*
X91289080Y-100694354D01*
X91388524Y-100721001D01*
X91388527Y-100721001D01*
X91499072Y-100721001D01*
X91499088Y-100721000D01*
X91861680Y-100721000D01*
X91928719Y-100740685D01*
X91949361Y-100757319D01*
X94187681Y-102995638D01*
X94221166Y-103056961D01*
X94224000Y-103083319D01*
X94224000Y-104088524D01*
X94224000Y-104191476D01*
X94248763Y-104283891D01*
X94250646Y-104290920D01*
X94250647Y-104290923D01*
X94259050Y-104305478D01*
X94302122Y-104380080D01*
X94619186Y-104697144D01*
X94932781Y-105010738D01*
X94932791Y-105010749D01*
X94937121Y-105015079D01*
X94937122Y-105015080D01*
X95009920Y-105087878D01*
X95009922Y-105087879D01*
X95009923Y-105087880D01*
X95088455Y-105133220D01*
X95092341Y-105135463D01*
X95099080Y-105139354D01*
X95198524Y-105166001D01*
X95198525Y-105166001D01*
X95309072Y-105166001D01*
X95309088Y-105166000D01*
X105831680Y-105166000D01*
X105898719Y-105185685D01*
X105919361Y-105202319D01*
X107754709Y-107037667D01*
X107754710Y-107037668D01*
X107827508Y-107110466D01*
X107916668Y-107161942D01*
X108016112Y-107188588D01*
X108119064Y-107188588D01*
X118027704Y-107188588D01*
X118094743Y-107208273D01*
X118115385Y-107224907D01*
X119022332Y-108131854D01*
X119111492Y-108183330D01*
X119210936Y-108209977D01*
X119210939Y-108209977D01*
X119320270Y-108209977D01*
X119387309Y-108229662D01*
X119407951Y-108246296D01*
X119897219Y-108735564D01*
X119930704Y-108796887D01*
X119925720Y-108866579D01*
X119883848Y-108922512D01*
X119863346Y-108934962D01*
X119845347Y-108943630D01*
X119845347Y-108943631D01*
X119821822Y-108963122D01*
X119821809Y-108963134D01*
X119373841Y-109411102D01*
X119373829Y-109411115D01*
X119354340Y-109434637D01*
X119295412Y-109556998D01*
X119275173Y-109691284D01*
X119275173Y-109691285D01*
X119295412Y-109825572D01*
X119322921Y-109882693D01*
X119354337Y-109947928D01*
X119354338Y-109947929D01*
X119354340Y-109947933D01*
X119373829Y-109971455D01*
X119373841Y-109971468D01*
X120086974Y-110684601D01*
X120086987Y-110684613D01*
X120110509Y-110704102D01*
X120110511Y-110704103D01*
X120110515Y-110704106D01*
X120232870Y-110763030D01*
X120367157Y-110783270D01*
X120367157Y-110783269D01*
X120367158Y-110783270D01*
X120501445Y-110763030D01*
X120623800Y-110704106D01*
X120647337Y-110684605D01*
X121095312Y-110236630D01*
X121114813Y-110213093D01*
X121156126Y-110127306D01*
X121202947Y-110075448D01*
X121270374Y-110057135D01*
X121299929Y-110061332D01*
X121345746Y-110073609D01*
X121448698Y-110073609D01*
X122348431Y-110073609D01*
X122415470Y-110093294D01*
X122436112Y-110109928D01*
X123600362Y-111274178D01*
X123689521Y-111325654D01*
X123788966Y-111352300D01*
X123788968Y-111352300D01*
X124963601Y-111352300D01*
X124963603Y-111352300D01*
X125063048Y-111325654D01*
X125152207Y-111274178D01*
X126264672Y-110161711D01*
X126325993Y-110128228D01*
X126395684Y-110133212D01*
X126451618Y-110175083D01*
X126455453Y-110180503D01*
X126455890Y-110181157D01*
X126455893Y-110181161D01*
X126823636Y-110548904D01*
X126823640Y-110548907D01*
X126855155Y-110569965D01*
X126899960Y-110623577D01*
X126910264Y-110673067D01*
X126910264Y-111245416D01*
X126890579Y-111312455D01*
X126873945Y-111333097D01*
X124782124Y-113424917D01*
X124782120Y-113424923D01*
X124730645Y-113514079D01*
X124726421Y-113529846D01*
X124726421Y-113529847D01*
X124704000Y-113613524D01*
X124704000Y-114418073D01*
X124684315Y-114485112D01*
X124667688Y-114505748D01*
X124666721Y-114506714D01*
X124570463Y-114632160D01*
X124509956Y-114778237D01*
X124509955Y-114778239D01*
X124489318Y-114934998D01*
X124489318Y-114935001D01*
X124509955Y-115091760D01*
X124509956Y-115091762D01*
X124544467Y-115175080D01*
X124570464Y-115237841D01*
X124666718Y-115363282D01*
X124792159Y-115459536D01*
X124938238Y-115520044D01*
X125016619Y-115530363D01*
X125094999Y-115540682D01*
X125095000Y-115540682D01*
X125095001Y-115540682D01*
X125147254Y-115533802D01*
X125251762Y-115520044D01*
X125397841Y-115459536D01*
X125523282Y-115363282D01*
X125619536Y-115237841D01*
X125680044Y-115091762D01*
X125700682Y-114935000D01*
X125680044Y-114778238D01*
X125619536Y-114632159D01*
X125523282Y-114506718D01*
X125523279Y-114506716D01*
X125523278Y-114506714D01*
X125522312Y-114505748D01*
X125521758Y-114504733D01*
X125518334Y-114500271D01*
X125519030Y-114499736D01*
X125488832Y-114444422D01*
X125486000Y-114418073D01*
X125486000Y-113878318D01*
X125505685Y-113811279D01*
X125522314Y-113790642D01*
X127531134Y-111781821D01*
X127531139Y-111781818D01*
X127541342Y-111771614D01*
X127541344Y-111771614D01*
X127614142Y-111698816D01*
X127665618Y-111609656D01*
X127692264Y-111510212D01*
X127692264Y-110036355D01*
X127711949Y-109969316D01*
X127728583Y-109948674D01*
X128146634Y-109530623D01*
X128146637Y-109530620D01*
X128175988Y-109486692D01*
X128229598Y-109441888D01*
X128298923Y-109433179D01*
X128361951Y-109463333D01*
X128394716Y-109510788D01*
X128405515Y-109538663D01*
X128421166Y-109558423D01*
X129383847Y-110521104D01*
X129403607Y-110536755D01*
X129508019Y-110577205D01*
X129619992Y-110577205D01*
X129724403Y-110536755D01*
X129724410Y-110536748D01*
X129727761Y-110534833D01*
X129731931Y-110533838D01*
X129733099Y-110533386D01*
X129733160Y-110533545D01*
X129795724Y-110518623D01*
X129861662Y-110541730D01*
X129904641Y-110596818D01*
X129913346Y-110642459D01*
X129913346Y-113322334D01*
X129893661Y-113389373D01*
X129877027Y-113410015D01*
X123157681Y-120129361D01*
X123096358Y-120162846D01*
X123026666Y-120157862D01*
X122970733Y-120115990D01*
X122946316Y-120050526D01*
X122946000Y-120041680D01*
X122946000Y-119963526D01*
X122946000Y-119963524D01*
X122919354Y-119864080D01*
X122919354Y-119864079D01*
X122919354Y-119864078D01*
X122876897Y-119790542D01*
X122867878Y-119774920D01*
X116632319Y-113539361D01*
X116598834Y-113478038D01*
X116596000Y-113451680D01*
X116596000Y-111641926D01*
X116615685Y-111574887D01*
X116632319Y-111554245D01*
X116633277Y-111553286D01*
X116633277Y-111553285D01*
X116633282Y-111553282D01*
X116729536Y-111427841D01*
X116790044Y-111281762D01*
X116810682Y-111125000D01*
X116808999Y-111112220D01*
X116790044Y-110968239D01*
X116790044Y-110968238D01*
X116729536Y-110822159D01*
X116633282Y-110696718D01*
X116507841Y-110600464D01*
X116361762Y-110539956D01*
X116361760Y-110539955D01*
X116205001Y-110519318D01*
X116204999Y-110519318D01*
X116048239Y-110539955D01*
X116048237Y-110539956D01*
X115902160Y-110600463D01*
X115776718Y-110696718D01*
X115680463Y-110822160D01*
X115619956Y-110968237D01*
X115619955Y-110968239D01*
X115599318Y-111124998D01*
X115599318Y-111125001D01*
X115619955Y-111281760D01*
X115619956Y-111281762D01*
X115638627Y-111326839D01*
X115680464Y-111427841D01*
X115776718Y-111553282D01*
X115776720Y-111553283D01*
X115776722Y-111553286D01*
X115777681Y-111554245D01*
X115778231Y-111555252D01*
X115781666Y-111559729D01*
X115780967Y-111560264D01*
X115811166Y-111615568D01*
X115814000Y-111641926D01*
X115814000Y-113613524D01*
X115814000Y-113716476D01*
X115840646Y-113815921D01*
X115892122Y-113905080D01*
X115892123Y-113905081D01*
X115892124Y-113905082D01*
X122127681Y-120140639D01*
X122161166Y-120201962D01*
X122164000Y-120228320D01*
X122164000Y-120768073D01*
X122144315Y-120835112D01*
X122127688Y-120855748D01*
X122126721Y-120856714D01*
X122030463Y-120982160D01*
X121969956Y-121128237D01*
X121969955Y-121128239D01*
X121949318Y-121284998D01*
X121949318Y-121285001D01*
X121969955Y-121441760D01*
X121969957Y-121441765D01*
X121999483Y-121513048D01*
X122006952Y-121582517D01*
X121975676Y-121644996D01*
X121915587Y-121680648D01*
X121884922Y-121684500D01*
X113343138Y-121684500D01*
X113276099Y-121664815D01*
X113255457Y-121648181D01*
X112935659Y-121328383D01*
X112902174Y-121267060D01*
X112905409Y-121202384D01*
X112914507Y-121174387D01*
X112933964Y-120989267D01*
X112914507Y-120804147D01*
X112874857Y-120682117D01*
X112856989Y-120627123D01*
X112856986Y-120627117D01*
X112763917Y-120465916D01*
X112697397Y-120392038D01*
X112639370Y-120327591D01*
X112639367Y-120327589D01*
X112639366Y-120327588D01*
X112639365Y-120327587D01*
X112488775Y-120218177D01*
X112488774Y-120218176D01*
X112318733Y-120142468D01*
X112318727Y-120142466D01*
X112175355Y-120111992D01*
X112136656Y-120103767D01*
X111950516Y-120103767D01*
X111918600Y-120110550D01*
X111768444Y-120142466D01*
X111768438Y-120142468D01*
X111598397Y-120218176D01*
X111447804Y-120327589D01*
X111447801Y-120327591D01*
X111323254Y-120465917D01*
X111230185Y-120627117D01*
X111230182Y-120627123D01*
X111172666Y-120804142D01*
X111172665Y-120804144D01*
X111153208Y-120989267D01*
X111172665Y-121174389D01*
X111172666Y-121174391D01*
X111230182Y-121351410D01*
X111230185Y-121351416D01*
X111323255Y-121512618D01*
X111366641Y-121560803D01*
X111447801Y-121650942D01*
X111447804Y-121650944D01*
X111447807Y-121650947D01*
X111568183Y-121738405D01*
X111598397Y-121760357D01*
X111768438Y-121836065D01*
X111768444Y-121836067D01*
X111950516Y-121874767D01*
X111950517Y-121874767D01*
X112136655Y-121874767D01*
X112136656Y-121874767D01*
X112268297Y-121846786D01*
X112337962Y-121852102D01*
X112381757Y-121880395D01*
X112812600Y-122311238D01*
X112812610Y-122311249D01*
X112889740Y-122388379D01*
X112906145Y-122397850D01*
X112978899Y-122439854D01*
X113078343Y-122466500D01*
X113078345Y-122466500D01*
X122933910Y-122466500D01*
X122933912Y-122466500D01*
X123033357Y-122439854D01*
X123054846Y-122427446D01*
X123122742Y-122410974D01*
X123188770Y-122433825D01*
X123231961Y-122488745D01*
X123238605Y-122558298D01*
X123206590Y-122620402D01*
X123204526Y-122622515D01*
X121607124Y-124219917D01*
X121607120Y-124219923D01*
X121555645Y-124309078D01*
X121555646Y-124309078D01*
X121555646Y-124309079D01*
X121529000Y-124408524D01*
X121529000Y-130293073D01*
X121509315Y-130360112D01*
X121492688Y-130380748D01*
X121491721Y-130381714D01*
X121395463Y-130507160D01*
X121334956Y-130653237D01*
X121334955Y-130653239D01*
X121314318Y-130809998D01*
X121314318Y-130810001D01*
X121334955Y-130966760D01*
X121334956Y-130966762D01*
X121395464Y-131112841D01*
X121491718Y-131238282D01*
X121617159Y-131334536D01*
X121763238Y-131395044D01*
X121841619Y-131405363D01*
X121919999Y-131415682D01*
X121920000Y-131415682D01*
X121920001Y-131415682D01*
X121972254Y-131408802D01*
X122076762Y-131395044D01*
X122222841Y-131334536D01*
X122348282Y-131238282D01*
X122444536Y-131112841D01*
X122505044Y-130966762D01*
X122525682Y-130810000D01*
X122505044Y-130653238D01*
X122444536Y-130507159D01*
X122348282Y-130381718D01*
X122348279Y-130381716D01*
X122348278Y-130381714D01*
X122347312Y-130380748D01*
X122346758Y-130379733D01*
X122343334Y-130375271D01*
X122344030Y-130374736D01*
X122313832Y-130319422D01*
X122311000Y-130293073D01*
X122311000Y-124673320D01*
X122330685Y-124606281D01*
X122347319Y-124585639D01*
X127031934Y-119901024D01*
X131757878Y-115175080D01*
X131809354Y-115085921D01*
X131836000Y-114986476D01*
X131836000Y-114883524D01*
X131836000Y-114816926D01*
X131855685Y-114749887D01*
X131872319Y-114729245D01*
X131873277Y-114728286D01*
X131873277Y-114728285D01*
X131873282Y-114728282D01*
X131969536Y-114602841D01*
X132030044Y-114456762D01*
X132050682Y-114300000D01*
X132030044Y-114143238D01*
X131969536Y-113997159D01*
X131873282Y-113871718D01*
X131873279Y-113871716D01*
X131873278Y-113871714D01*
X131872312Y-113870748D01*
X131871758Y-113869733D01*
X131868334Y-113865271D01*
X131869030Y-113864736D01*
X131838832Y-113809422D01*
X131836000Y-113783073D01*
X131836000Y-109759004D01*
X131855685Y-109691965D01*
X131908489Y-109646210D01*
X131977647Y-109636266D01*
X132041203Y-109665291D01*
X132047681Y-109671323D01*
X132287681Y-109911323D01*
X132321166Y-109972646D01*
X132324000Y-109999004D01*
X132324000Y-115054791D01*
X132304315Y-115121830D01*
X132294201Y-115134380D01*
X132294242Y-115134411D01*
X132193041Y-115266298D01*
X132132533Y-115412378D01*
X132132532Y-115412380D01*
X132111895Y-115569139D01*
X132111895Y-115569142D01*
X132132532Y-115725901D01*
X132132533Y-115725903D01*
X132193041Y-115871982D01*
X132289295Y-115997423D01*
X132289297Y-115997424D01*
X132294243Y-116003870D01*
X132292720Y-116005038D01*
X132321166Y-116057132D01*
X132324000Y-116083490D01*
X132324000Y-116626680D01*
X132304315Y-116693719D01*
X132287681Y-116714361D01*
X124404159Y-124597882D01*
X124404155Y-124597888D01*
X124352680Y-124687043D01*
X124352681Y-124687043D01*
X124352681Y-124687044D01*
X124352681Y-124687045D01*
X124326035Y-124786489D01*
X124326035Y-134977959D01*
X124326035Y-135080911D01*
X124352681Y-135180356D01*
X124404157Y-135269515D01*
X124404158Y-135269516D01*
X124404159Y-135269517D01*
X129011081Y-139876438D01*
X129044566Y-139937761D01*
X129047400Y-139964119D01*
X129047400Y-139984014D01*
X129027715Y-140051053D01*
X128974911Y-140096808D01*
X128905753Y-140106752D01*
X128842197Y-140077727D01*
X128831250Y-140066986D01*
X128763319Y-139991540D01*
X128763316Y-139991538D01*
X128763315Y-139991537D01*
X128763314Y-139991536D01*
X128654884Y-139912757D01*
X128612723Y-139882125D01*
X128442682Y-139806417D01*
X128442676Y-139806415D01*
X128299304Y-139775941D01*
X128260605Y-139767716D01*
X128074465Y-139767716D01*
X128042549Y-139774499D01*
X127892393Y-139806415D01*
X127892387Y-139806417D01*
X127722346Y-139882125D01*
X127571753Y-139991538D01*
X127571750Y-139991540D01*
X127447203Y-140129866D01*
X127354134Y-140291066D01*
X127354131Y-140291072D01*
X127296615Y-140468091D01*
X127296614Y-140468093D01*
X127277157Y-140653216D01*
X127296614Y-140838338D01*
X127305711Y-140866335D01*
X127307705Y-140936177D01*
X127275460Y-140992332D01*
X126455112Y-141812681D01*
X126393789Y-141846166D01*
X126367431Y-141849000D01*
X126135035Y-141849000D01*
X126067996Y-141829315D01*
X126022241Y-141776511D01*
X126011035Y-141725000D01*
X126011035Y-141623518D01*
X126030720Y-141556479D01*
X126083524Y-141510724D01*
X126094079Y-141506476D01*
X126095417Y-141506009D01*
X126204685Y-141425366D01*
X126285328Y-141316098D01*
X126310902Y-141243012D01*
X126330181Y-141187917D01*
X126330181Y-141187915D01*
X126333035Y-141157485D01*
X126333035Y-140148946D01*
X126330181Y-140118516D01*
X126330181Y-140118514D01*
X126285749Y-139991538D01*
X126285328Y-139990334D01*
X126204685Y-139881066D01*
X126095417Y-139800423D01*
X126095415Y-139800422D01*
X125967235Y-139755569D01*
X125936805Y-139752716D01*
X125936801Y-139752716D01*
X125303269Y-139752716D01*
X125303265Y-139752716D01*
X125272835Y-139755569D01*
X125272833Y-139755569D01*
X125144654Y-139800422D01*
X125144652Y-139800423D01*
X125035385Y-139881066D01*
X124954742Y-139990333D01*
X124954741Y-139990335D01*
X124909888Y-140118514D01*
X124909888Y-140118516D01*
X124907035Y-140148946D01*
X124907035Y-141157485D01*
X124909888Y-141187915D01*
X124909888Y-141187917D01*
X124954320Y-141314892D01*
X124954742Y-141316098D01*
X125035385Y-141425366D01*
X125144653Y-141506009D01*
X125145984Y-141506474D01*
X125147244Y-141507378D01*
X125152872Y-141510353D01*
X125152465Y-141511122D01*
X125202762Y-141547193D01*
X125228512Y-141612144D01*
X125229035Y-141623518D01*
X125229035Y-142182914D01*
X125209350Y-142249953D01*
X125156546Y-142295708D01*
X125145990Y-142299955D01*
X125144654Y-142300422D01*
X125035385Y-142381066D01*
X124954742Y-142490333D01*
X124954741Y-142490335D01*
X124909888Y-142618514D01*
X124909888Y-142618516D01*
X124907035Y-142648946D01*
X124907035Y-143657485D01*
X124909888Y-143687915D01*
X124909888Y-143687917D01*
X124954741Y-143816096D01*
X124954742Y-143816098D01*
X125035385Y-143925366D01*
X125144653Y-144006009D01*
X125187380Y-144020960D01*
X125272834Y-144050862D01*
X125303265Y-144053716D01*
X125303269Y-144053716D01*
X125936805Y-144053716D01*
X125967234Y-144050862D01*
X125967236Y-144050862D01*
X126031325Y-144028435D01*
X126095417Y-144006009D01*
X126204685Y-143925366D01*
X126285328Y-143816098D01*
X126307754Y-143752006D01*
X126330181Y-143687917D01*
X126330181Y-143687915D01*
X126333035Y-143657485D01*
X126333035Y-143193216D01*
X127277157Y-143193216D01*
X127296614Y-143378338D01*
X127296615Y-143378340D01*
X127354131Y-143555359D01*
X127354134Y-143555365D01*
X127447204Y-143716567D01*
X127490590Y-143764752D01*
X127571750Y-143854891D01*
X127571753Y-143854893D01*
X127571756Y-143854896D01*
X127668750Y-143925366D01*
X127722346Y-143964306D01*
X127892387Y-144040014D01*
X127892393Y-144040016D01*
X128074465Y-144078716D01*
X128074466Y-144078716D01*
X128260604Y-144078716D01*
X128260605Y-144078716D01*
X128442677Y-144040016D01*
X128442679Y-144040014D01*
X128442682Y-144040014D01*
X128519060Y-144006008D01*
X128612724Y-143964306D01*
X128763314Y-143854896D01*
X128887866Y-143716567D01*
X128980936Y-143555365D01*
X129038456Y-143378336D01*
X129057913Y-143193216D01*
X129038456Y-143008096D01*
X128980936Y-142831067D01*
X128887866Y-142669865D01*
X128828878Y-142604352D01*
X128763319Y-142531540D01*
X128763316Y-142531538D01*
X128763315Y-142531537D01*
X128763314Y-142531536D01*
X128646572Y-142446718D01*
X128612723Y-142422125D01*
X128442682Y-142346417D01*
X128442676Y-142346415D01*
X128299304Y-142315941D01*
X128260605Y-142307716D01*
X128074465Y-142307716D01*
X128042549Y-142314499D01*
X127892393Y-142346415D01*
X127892387Y-142346417D01*
X127722346Y-142422125D01*
X127571753Y-142531538D01*
X127571750Y-142531540D01*
X127447203Y-142669866D01*
X127354134Y-142831066D01*
X127354131Y-142831072D01*
X127296615Y-143008091D01*
X127296614Y-143008093D01*
X127277157Y-143193216D01*
X126333035Y-143193216D01*
X126333035Y-142755000D01*
X126352720Y-142687961D01*
X126405524Y-142642206D01*
X126457035Y-142631000D01*
X126632225Y-142631000D01*
X126632227Y-142631000D01*
X126731672Y-142604354D01*
X126820831Y-142552878D01*
X127829364Y-141544342D01*
X127890685Y-141510859D01*
X127942822Y-141510735D01*
X128074465Y-141538716D01*
X128074466Y-141538716D01*
X128260604Y-141538716D01*
X128260605Y-141538716D01*
X128442677Y-141500016D01*
X128442679Y-141500014D01*
X128442682Y-141500014D01*
X128499959Y-141474512D01*
X128612724Y-141424306D01*
X128763314Y-141314896D01*
X128770326Y-141307109D01*
X128805404Y-141268150D01*
X128831250Y-141239445D01*
X128890736Y-141202797D01*
X128960593Y-141204126D01*
X129018641Y-141243012D01*
X129046451Y-141307109D01*
X129047400Y-141322417D01*
X129047400Y-141872605D01*
X129047400Y-141975557D01*
X129074046Y-142075002D01*
X129125522Y-142164161D01*
X129125524Y-142164163D01*
X129815460Y-142854099D01*
X129848945Y-142915422D01*
X129845712Y-142980093D01*
X129836614Y-143008095D01*
X129817157Y-143193216D01*
X129836614Y-143378338D01*
X129836615Y-143378340D01*
X129894131Y-143555359D01*
X129894134Y-143555365D01*
X129987204Y-143716567D01*
X130030590Y-143764752D01*
X130111750Y-143854891D01*
X130111753Y-143854893D01*
X130111756Y-143854896D01*
X130208750Y-143925366D01*
X130262346Y-143964306D01*
X130432387Y-144040014D01*
X130432393Y-144040016D01*
X130614465Y-144078716D01*
X130614466Y-144078716D01*
X130800604Y-144078716D01*
X130800605Y-144078716D01*
X130982677Y-144040016D01*
X130982679Y-144040014D01*
X130982682Y-144040014D01*
X131059060Y-144006008D01*
X131152724Y-143964306D01*
X131303314Y-143854896D01*
X131427866Y-143716567D01*
X131520936Y-143555365D01*
X131578456Y-143378336D01*
X131597913Y-143193216D01*
X132357157Y-143193216D01*
X132376614Y-143378338D01*
X132376615Y-143378340D01*
X132434131Y-143555359D01*
X132434134Y-143555365D01*
X132527204Y-143716567D01*
X132570590Y-143764752D01*
X132651750Y-143854891D01*
X132651753Y-143854893D01*
X132651756Y-143854896D01*
X132748750Y-143925366D01*
X132802346Y-143964306D01*
X132972387Y-144040014D01*
X132972393Y-144040016D01*
X133154465Y-144078716D01*
X133154466Y-144078716D01*
X133340604Y-144078716D01*
X133340605Y-144078716D01*
X133522677Y-144040016D01*
X133522679Y-144040014D01*
X133522682Y-144040014D01*
X133599060Y-144006008D01*
X133692724Y-143964306D01*
X133843314Y-143854896D01*
X133967866Y-143716567D01*
X134060936Y-143555365D01*
X134118456Y-143378336D01*
X134137913Y-143193216D01*
X134118456Y-143008096D01*
X134060936Y-142831067D01*
X133967866Y-142669865D01*
X133908878Y-142604352D01*
X133843319Y-142531540D01*
X133843316Y-142531538D01*
X133843315Y-142531537D01*
X133843314Y-142531536D01*
X133726572Y-142446718D01*
X133692723Y-142422125D01*
X133522682Y-142346417D01*
X133522676Y-142346415D01*
X133379304Y-142315941D01*
X133340605Y-142307716D01*
X133154465Y-142307716D01*
X133122549Y-142314499D01*
X132972393Y-142346415D01*
X132972387Y-142346417D01*
X132802346Y-142422125D01*
X132651753Y-142531538D01*
X132651750Y-142531540D01*
X132527203Y-142669866D01*
X132434134Y-142831066D01*
X132434131Y-142831072D01*
X132376615Y-143008091D01*
X132376614Y-143008093D01*
X132357157Y-143193216D01*
X131597913Y-143193216D01*
X131578456Y-143008096D01*
X131520936Y-142831067D01*
X131427866Y-142669865D01*
X131368878Y-142604352D01*
X131303319Y-142531540D01*
X131303316Y-142531538D01*
X131303315Y-142531537D01*
X131303314Y-142531536D01*
X131186572Y-142446718D01*
X131152723Y-142422125D01*
X130982682Y-142346417D01*
X130982676Y-142346415D01*
X130839304Y-142315941D01*
X130800605Y-142307716D01*
X130614465Y-142307716D01*
X130561202Y-142319037D01*
X130482823Y-142335696D01*
X130413156Y-142330379D01*
X130369363Y-142302086D01*
X129865719Y-141798442D01*
X129832234Y-141737119D01*
X129829400Y-141710761D01*
X129829400Y-141324339D01*
X129849085Y-141257300D01*
X129901889Y-141211545D01*
X129971047Y-141201601D01*
X130034603Y-141230626D01*
X130045550Y-141241367D01*
X130111750Y-141314891D01*
X130111753Y-141314893D01*
X130111756Y-141314896D01*
X130237139Y-141405992D01*
X130262346Y-141424306D01*
X130432387Y-141500014D01*
X130432393Y-141500016D01*
X130614465Y-141538716D01*
X130614466Y-141538716D01*
X130800604Y-141538716D01*
X130800605Y-141538716D01*
X130982677Y-141500016D01*
X130982679Y-141500014D01*
X130982682Y-141500014D01*
X131039959Y-141474512D01*
X131152724Y-141424306D01*
X131303314Y-141314896D01*
X131310326Y-141307109D01*
X131345404Y-141268150D01*
X131427866Y-141176567D01*
X131520936Y-141015365D01*
X131578456Y-140838336D01*
X131597913Y-140653216D01*
X131578456Y-140468096D01*
X131543581Y-140360761D01*
X131520938Y-140291072D01*
X131520935Y-140291066D01*
X131512107Y-140275775D01*
X131427866Y-140129865D01*
X131379082Y-140075685D01*
X131303319Y-139991540D01*
X131303316Y-139991538D01*
X131303315Y-139991537D01*
X131303314Y-139991536D01*
X131194884Y-139912757D01*
X131152723Y-139882125D01*
X130982682Y-139806417D01*
X130982676Y-139806415D01*
X130839304Y-139775941D01*
X130800605Y-139767716D01*
X130614465Y-139767716D01*
X130464540Y-139799583D01*
X130394873Y-139794266D01*
X130376760Y-139785679D01*
X130325923Y-139756328D01*
X130325922Y-139756327D01*
X130325921Y-139756327D01*
X130226476Y-139729681D01*
X130123524Y-139729681D01*
X130024079Y-139756327D01*
X130024076Y-139756328D01*
X130008656Y-139765231D01*
X129940756Y-139781701D01*
X129874730Y-139758848D01*
X129831540Y-139703925D01*
X129826884Y-139689936D01*
X129802754Y-139599880D01*
X129751278Y-139510720D01*
X129678480Y-139437922D01*
X129674149Y-139433591D01*
X129674138Y-139433581D01*
X125144354Y-134903796D01*
X125110869Y-134842473D01*
X125108035Y-134816115D01*
X125108035Y-125051283D01*
X125127720Y-124984244D01*
X125144349Y-124963607D01*
X132944870Y-117163085D01*
X132944875Y-117163082D01*
X132955078Y-117152878D01*
X132955080Y-117152878D01*
X133027878Y-117080080D01*
X133079354Y-116990920D01*
X133085130Y-116969364D01*
X133106001Y-116891476D01*
X133106001Y-116788524D01*
X133106001Y-116780929D01*
X133106000Y-116780911D01*
X133106000Y-116088644D01*
X133125685Y-116021605D01*
X133142323Y-116000958D01*
X133145854Y-115997426D01*
X133145859Y-115997423D01*
X133242113Y-115871982D01*
X133302621Y-115725903D01*
X133323259Y-115569141D01*
X133319512Y-115540682D01*
X133302621Y-115412380D01*
X133302621Y-115412379D01*
X133242113Y-115266300D01*
X133145859Y-115140859D01*
X133145856Y-115140856D01*
X133145854Y-115140854D01*
X133142319Y-115137319D01*
X133108834Y-115075996D01*
X133106000Y-115049638D01*
X133106000Y-109847163D01*
X133106001Y-109847150D01*
X133106001Y-109734211D01*
X133106001Y-109734209D01*
X133079354Y-109634765D01*
X133035278Y-109558423D01*
X133027878Y-109545605D01*
X133027876Y-109545603D01*
X133027875Y-109545601D01*
X132950761Y-109468487D01*
X132950738Y-109468466D01*
X131955034Y-108472761D01*
X131921549Y-108411438D01*
X131926533Y-108341746D01*
X131968405Y-108285813D01*
X131981141Y-108277448D01*
X131987135Y-108274017D01*
X131987145Y-108274014D01*
X132006905Y-108258363D01*
X132319048Y-107946220D01*
X132334699Y-107926460D01*
X132334701Y-107926453D01*
X132338137Y-107920450D01*
X132388515Y-107872037D01*
X132457070Y-107858546D01*
X132522036Y-107884260D01*
X132533447Y-107894349D01*
X133557681Y-108918583D01*
X133591166Y-108979906D01*
X133594000Y-109006264D01*
X133594000Y-135676679D01*
X133574315Y-135743718D01*
X133557681Y-135764360D01*
X133439042Y-135882999D01*
X133377719Y-135916484D01*
X133351361Y-135919318D01*
X133349998Y-135919318D01*
X133193239Y-135939955D01*
X133193237Y-135939956D01*
X133047160Y-136000463D01*
X132921718Y-136096718D01*
X132825463Y-136222160D01*
X132764956Y-136368237D01*
X132764955Y-136368239D01*
X132744318Y-136524998D01*
X132744318Y-136525001D01*
X132764955Y-136681760D01*
X132764956Y-136681762D01*
X132825464Y-136827841D01*
X132921718Y-136953282D01*
X133047159Y-137049536D01*
X133193238Y-137110044D01*
X133271619Y-137120363D01*
X133349999Y-137130682D01*
X133350000Y-137130682D01*
X133350001Y-137130682D01*
X133402254Y-137123802D01*
X133506762Y-137110044D01*
X133652841Y-137049536D01*
X133778282Y-136953282D01*
X133874536Y-136827841D01*
X133935044Y-136681762D01*
X133955682Y-136525000D01*
X133955682Y-136524998D01*
X133955682Y-136523636D01*
X133956007Y-136522526D01*
X133956743Y-136516942D01*
X133957613Y-136517056D01*
X133975367Y-136456597D01*
X133991997Y-136435959D01*
X134214870Y-136213085D01*
X134214875Y-136213082D01*
X134225078Y-136202878D01*
X134225080Y-136202878D01*
X134297878Y-136130080D01*
X134349354Y-136040920D01*
X134376001Y-135941476D01*
X134376001Y-135838524D01*
X134376001Y-135830929D01*
X134376000Y-135830911D01*
X134376000Y-126034933D01*
X134649318Y-126034933D01*
X134669955Y-126191692D01*
X134669956Y-126191694D01*
X134730464Y-126337773D01*
X134826718Y-126463214D01*
X134952159Y-126559468D01*
X135098238Y-126619976D01*
X135176619Y-126630295D01*
X135254999Y-126640614D01*
X135256362Y-126640614D01*
X135257469Y-126640939D01*
X135263058Y-126641675D01*
X135262943Y-126642546D01*
X135323401Y-126660299D01*
X135344043Y-126676933D01*
X147021283Y-138354172D01*
X147054768Y-138415495D01*
X147057602Y-138441853D01*
X147057602Y-138443217D01*
X147078239Y-138599976D01*
X147078240Y-138599978D01*
X147138748Y-138746057D01*
X147235002Y-138871498D01*
X147360443Y-138967752D01*
X147506522Y-139028260D01*
X147527145Y-139030975D01*
X147663283Y-139048898D01*
X147663284Y-139048898D01*
X147663285Y-139048898D01*
X147715538Y-139042018D01*
X147820046Y-139028260D01*
X147870960Y-139007170D01*
X147940425Y-138999701D01*
X148002905Y-139030975D01*
X148006092Y-139034050D01*
X151295444Y-142323401D01*
X151328929Y-142384724D01*
X151323945Y-142454416D01*
X151306139Y-142486568D01*
X151240464Y-142572157D01*
X151179956Y-142718237D01*
X151179955Y-142718239D01*
X151159318Y-142874998D01*
X151159318Y-142875001D01*
X151179955Y-143031760D01*
X151179956Y-143031762D01*
X151240464Y-143177841D01*
X151336718Y-143303282D01*
X151462159Y-143399536D01*
X151608238Y-143460044D01*
X151686619Y-143470363D01*
X151764999Y-143480682D01*
X151765000Y-143480682D01*
X151765001Y-143480682D01*
X151817254Y-143473802D01*
X151921762Y-143460044D01*
X152067841Y-143399536D01*
X152193282Y-143303282D01*
X152289536Y-143177841D01*
X152350044Y-143031762D01*
X152367894Y-142896179D01*
X152370682Y-142875001D01*
X152370682Y-142874998D01*
X152350044Y-142718239D01*
X152350044Y-142718238D01*
X152289536Y-142572159D01*
X152193282Y-142446718D01*
X152193279Y-142446716D01*
X152193278Y-142446714D01*
X152192312Y-142445748D01*
X152191758Y-142444733D01*
X152188334Y-142440271D01*
X152189030Y-142439736D01*
X152158832Y-142384422D01*
X152156000Y-142358073D01*
X152156000Y-142188526D01*
X152156000Y-142188524D01*
X152129354Y-142089080D01*
X152077878Y-141999920D01*
X152005080Y-141927122D01*
X152000749Y-141922791D01*
X152000738Y-141922781D01*
X150105776Y-140027819D01*
X148208296Y-138130338D01*
X148179066Y-138113462D01*
X148142690Y-138081561D01*
X148091567Y-138014935D01*
X148064838Y-137994425D01*
X147966125Y-137918680D01*
X147820046Y-137858172D01*
X147820044Y-137858171D01*
X147663286Y-137837534D01*
X147661921Y-137837534D01*
X147660811Y-137837208D01*
X147655227Y-137836473D01*
X147655341Y-137835602D01*
X147594882Y-137817849D01*
X147574240Y-137801215D01*
X135897001Y-126123975D01*
X135863516Y-126062652D01*
X135860682Y-126036294D01*
X135860682Y-126034930D01*
X135840044Y-125878171D01*
X135840044Y-125878170D01*
X135779536Y-125732091D01*
X135683282Y-125606650D01*
X135557841Y-125510396D01*
X135411762Y-125449888D01*
X135411760Y-125449887D01*
X135255001Y-125429250D01*
X135254999Y-125429250D01*
X135098239Y-125449887D01*
X135098237Y-125449888D01*
X134952160Y-125510395D01*
X134826718Y-125606650D01*
X134730463Y-125732092D01*
X134669956Y-125878169D01*
X134669955Y-125878171D01*
X134649318Y-126034930D01*
X134649318Y-126034933D01*
X134376000Y-126034933D01*
X134376000Y-124362749D01*
X147558647Y-124362749D01*
X147579029Y-124621739D01*
X147639678Y-124874359D01*
X147739094Y-125114372D01*
X147739096Y-125114376D01*
X147739097Y-125114377D01*
X147874839Y-125335889D01*
X148043562Y-125533438D01*
X148241111Y-125702161D01*
X148462623Y-125837903D01*
X148462625Y-125837903D01*
X148462627Y-125837905D01*
X148523944Y-125863303D01*
X148702641Y-125937322D01*
X148955257Y-125997970D01*
X149214251Y-126018353D01*
X149473245Y-125997970D01*
X149725861Y-125937322D01*
X149965879Y-125837903D01*
X150187391Y-125702161D01*
X150384940Y-125533438D01*
X150553663Y-125335889D01*
X150689405Y-125114377D01*
X150788824Y-124874359D01*
X150849472Y-124621743D01*
X150869855Y-124362749D01*
X150849472Y-124103755D01*
X150788824Y-123851139D01*
X150723174Y-123692646D01*
X150689407Y-123611125D01*
X150662459Y-123567150D01*
X150553663Y-123389609D01*
X150384940Y-123192060D01*
X150187391Y-123023337D01*
X149965879Y-122887595D01*
X149965878Y-122887594D01*
X149965874Y-122887592D01*
X149799878Y-122818835D01*
X149725861Y-122788176D01*
X149725862Y-122788176D01*
X149588172Y-122755119D01*
X149473245Y-122727528D01*
X149473243Y-122727527D01*
X149473242Y-122727527D01*
X149214251Y-122707145D01*
X148955260Y-122727527D01*
X148702640Y-122788176D01*
X148462627Y-122887592D01*
X148241110Y-123023337D01*
X148043562Y-123192060D01*
X147874839Y-123389608D01*
X147739094Y-123611125D01*
X147639678Y-123851138D01*
X147579029Y-124103758D01*
X147558647Y-124362749D01*
X134376000Y-124362749D01*
X134376000Y-108904893D01*
X134395685Y-108837854D01*
X134448489Y-108792099D01*
X134517647Y-108782155D01*
X134581203Y-108811180D01*
X134587681Y-108817212D01*
X136097681Y-110327212D01*
X136131166Y-110388535D01*
X136134000Y-110414893D01*
X136134000Y-112181680D01*
X136114315Y-112248719D01*
X136097681Y-112269361D01*
X135577124Y-112789917D01*
X135577120Y-112789923D01*
X135525647Y-112879076D01*
X135525646Y-112879079D01*
X135500568Y-112972673D01*
X135500567Y-112972677D01*
X135499000Y-112978524D01*
X135499000Y-113451680D01*
X135479315Y-113518719D01*
X135462681Y-113539361D01*
X134942124Y-114059917D01*
X134942122Y-114059920D01*
X134890645Y-114149079D01*
X134890645Y-114149080D01*
X134885173Y-114169502D01*
X134864000Y-114248522D01*
X134864000Y-114248524D01*
X134864000Y-119901024D01*
X134864000Y-120003976D01*
X134890646Y-120103421D01*
X134942122Y-120192580D01*
X134942124Y-120192582D01*
X137348181Y-122598639D01*
X137381666Y-122659962D01*
X137384500Y-122686320D01*
X137384500Y-123299269D01*
X137387353Y-123329699D01*
X137387353Y-123329701D01*
X137432206Y-123457880D01*
X137432207Y-123457882D01*
X137512850Y-123567150D01*
X137622118Y-123647793D01*
X137664845Y-123662744D01*
X137750299Y-123692646D01*
X137780730Y-123695500D01*
X137780734Y-123695500D01*
X138789270Y-123695500D01*
X138819699Y-123692646D01*
X138819701Y-123692646D01*
X138883790Y-123670219D01*
X138947882Y-123647793D01*
X139057150Y-123567150D01*
X139137793Y-123457882D01*
X139161683Y-123389608D01*
X139182646Y-123329701D01*
X139182646Y-123329699D01*
X139185500Y-123299269D01*
X139185500Y-122665730D01*
X139182646Y-122635300D01*
X139182646Y-122635298D01*
X139137793Y-122507119D01*
X139137792Y-122507117D01*
X139124233Y-122488745D01*
X139057150Y-122397850D01*
X138947882Y-122317207D01*
X138947880Y-122317206D01*
X138819700Y-122272353D01*
X138789270Y-122269500D01*
X138789266Y-122269500D01*
X138176320Y-122269500D01*
X138109281Y-122249815D01*
X138088639Y-122233181D01*
X137937639Y-122082181D01*
X137904154Y-122020858D01*
X137909138Y-121951166D01*
X137951010Y-121895233D01*
X138016474Y-121870816D01*
X138025320Y-121870500D01*
X138789270Y-121870500D01*
X138819699Y-121867646D01*
X138819701Y-121867646D01*
X138893640Y-121841773D01*
X138947882Y-121822793D01*
X139057150Y-121742150D01*
X139137793Y-121632882D01*
X139137795Y-121632877D01*
X139138263Y-121631541D01*
X139139170Y-121630276D01*
X139142137Y-121624663D01*
X139142905Y-121625069D01*
X139178987Y-121574767D01*
X139243940Y-121549022D01*
X139255303Y-121548500D01*
X140773524Y-121548500D01*
X140844698Y-121548500D01*
X140911737Y-121568185D01*
X140957492Y-121620989D01*
X140961738Y-121631541D01*
X140962205Y-121632877D01*
X140962207Y-121632881D01*
X140982828Y-121660821D01*
X141042851Y-121742150D01*
X141152119Y-121822793D01*
X141190048Y-121836065D01*
X141280300Y-121867646D01*
X141310731Y-121870500D01*
X141310735Y-121870500D01*
X142319271Y-121870500D01*
X142349700Y-121867646D01*
X142349702Y-121867646D01*
X142423641Y-121841773D01*
X142477883Y-121822793D01*
X142587151Y-121742150D01*
X142667794Y-121632882D01*
X142697138Y-121549022D01*
X142712647Y-121504701D01*
X142712647Y-121504699D01*
X142715501Y-121474269D01*
X142715501Y-120840730D01*
X142712647Y-120810300D01*
X142712647Y-120810298D01*
X142675653Y-120704577D01*
X142667794Y-120682118D01*
X142587151Y-120572850D01*
X142477883Y-120492207D01*
X142477881Y-120492206D01*
X142349701Y-120447353D01*
X142319271Y-120444500D01*
X142319267Y-120444500D01*
X141340000Y-120444500D01*
X141272961Y-120424815D01*
X141227206Y-120372011D01*
X141216000Y-120320500D01*
X141216000Y-120106026D01*
X141216000Y-120106023D01*
X141215303Y-120103420D01*
X141189354Y-120006578D01*
X141137878Y-119917419D01*
X139910516Y-118690057D01*
X139877031Y-118628734D01*
X139880267Y-118564054D01*
X139885121Y-118549119D01*
X139904578Y-118364000D01*
X140663822Y-118364000D01*
X140683279Y-118549122D01*
X140683280Y-118549124D01*
X140740796Y-118726143D01*
X140740799Y-118726148D01*
X140740799Y-118726149D01*
X140833869Y-118887351D01*
X140847142Y-118902092D01*
X140958415Y-119025675D01*
X140958418Y-119025677D01*
X140958421Y-119025680D01*
X141109010Y-119135089D01*
X141109011Y-119135090D01*
X141279052Y-119210798D01*
X141279058Y-119210800D01*
X141461130Y-119249500D01*
X141461131Y-119249500D01*
X141647269Y-119249500D01*
X141647270Y-119249500D01*
X141829342Y-119210800D01*
X141829344Y-119210798D01*
X141829347Y-119210798D01*
X141969321Y-119148477D01*
X141999389Y-119135090D01*
X142149979Y-119025680D01*
X142149985Y-119025674D01*
X142176964Y-118995709D01*
X142274531Y-118887351D01*
X142367601Y-118726149D01*
X142425121Y-118549120D01*
X142444578Y-118364000D01*
X142425121Y-118178880D01*
X142367602Y-118001855D01*
X142367600Y-118001850D01*
X142274531Y-117840649D01*
X142225747Y-117786469D01*
X142149984Y-117702324D01*
X142149981Y-117702322D01*
X142149980Y-117702321D01*
X142149979Y-117702320D01*
X141999389Y-117592910D01*
X141999388Y-117592909D01*
X141829347Y-117517201D01*
X141829341Y-117517199D01*
X141685969Y-117486725D01*
X141647270Y-117478500D01*
X141461130Y-117478500D01*
X141444659Y-117482001D01*
X141279058Y-117517199D01*
X141279052Y-117517201D01*
X141109011Y-117592909D01*
X140958418Y-117702322D01*
X140958415Y-117702324D01*
X140833868Y-117840650D01*
X140740799Y-118001850D01*
X140740796Y-118001856D01*
X140683280Y-118178875D01*
X140683279Y-118178877D01*
X140663822Y-118364000D01*
X139904578Y-118364000D01*
X139904578Y-118363999D01*
X139885121Y-118178879D01*
X139827601Y-118001850D01*
X139734531Y-117840648D01*
X139669274Y-117768172D01*
X139639044Y-117705180D01*
X139647670Y-117635845D01*
X139692411Y-117582179D01*
X139759064Y-117561222D01*
X139761424Y-117561200D01*
X140343774Y-117561200D01*
X140343776Y-117561200D01*
X140443221Y-117534554D01*
X140532380Y-117483078D01*
X141285553Y-116729903D01*
X141346874Y-116696420D01*
X141399009Y-116696296D01*
X141461130Y-116709500D01*
X141461132Y-116709500D01*
X141647269Y-116709500D01*
X141647270Y-116709500D01*
X141829342Y-116670800D01*
X141829344Y-116670798D01*
X141829347Y-116670798D01*
X141928437Y-116626680D01*
X141999389Y-116595090D01*
X142149979Y-116485680D01*
X142274531Y-116347351D01*
X142367601Y-116186149D01*
X142425121Y-116009120D01*
X142444578Y-115824000D01*
X142426685Y-115653769D01*
X142439254Y-115585044D01*
X142462322Y-115553134D01*
X144620225Y-113395233D01*
X144671701Y-113306073D01*
X144698348Y-113206629D01*
X144698348Y-113103677D01*
X144698348Y-113096082D01*
X144698347Y-113096064D01*
X144698347Y-84218373D01*
X144698347Y-84218371D01*
X144671701Y-84118927D01*
X144671701Y-84118926D01*
X144671701Y-84118925D01*
X144649004Y-84079614D01*
X144620225Y-84029767D01*
X143937319Y-83346861D01*
X143903834Y-83285538D01*
X143901000Y-83259180D01*
X143901000Y-80900540D01*
X143920685Y-80833501D01*
X143973489Y-80787746D01*
X144042647Y-80777802D01*
X144106203Y-80806827D01*
X144143977Y-80865605D01*
X144145458Y-80871116D01*
X145090230Y-84739909D01*
X148151965Y-97277554D01*
X148152705Y-97280769D01*
X148262996Y-97790931D01*
X148264218Y-97797416D01*
X148346938Y-98311028D01*
X148347814Y-98317569D01*
X148403096Y-98834883D01*
X148403622Y-98841462D01*
X148425750Y-99256795D01*
X148431300Y-99360954D01*
X148431476Y-99367551D01*
X148431476Y-99887809D01*
X148431300Y-99894406D01*
X148403624Y-100413901D01*
X148403098Y-100420479D01*
X148347819Y-100937791D01*
X148346943Y-100944332D01*
X148264222Y-101457966D01*
X148263004Y-101464428D01*
X148152783Y-101974274D01*
X148152043Y-101977489D01*
X144092103Y-118602731D01*
X144091807Y-118603917D01*
X144056518Y-118742477D01*
X144024073Y-119013992D01*
X144027092Y-119287406D01*
X144027092Y-119287408D01*
X144065526Y-119558130D01*
X144065528Y-119558138D01*
X144138722Y-119821581D01*
X144138729Y-119821602D01*
X144245445Y-120073323D01*
X144245455Y-120073343D01*
X144374809Y-120293631D01*
X144383909Y-120309127D01*
X144551760Y-120524983D01*
X144686216Y-120657964D01*
X144746178Y-120717268D01*
X144963869Y-120882723D01*
X144963871Y-120882724D01*
X145201164Y-121018566D01*
X145201168Y-121018568D01*
X145201172Y-121018570D01*
X145294578Y-121056958D01*
X145454064Y-121122506D01*
X145454069Y-121122507D01*
X145454082Y-121122513D01*
X145718331Y-121192800D01*
X145989461Y-121228244D01*
X145989468Y-121228243D01*
X145989469Y-121228244D01*
X146126180Y-121228182D01*
X146153109Y-121228182D01*
X151046454Y-121228182D01*
X151067292Y-121228182D01*
X151079444Y-121228779D01*
X151088594Y-121229680D01*
X151236712Y-121244266D01*
X151260537Y-121249004D01*
X151405916Y-121293104D01*
X151428372Y-121302407D01*
X151562330Y-121374012D01*
X151582542Y-121387517D01*
X151688245Y-121474269D01*
X151699966Y-121483888D01*
X151717154Y-121501078D01*
X151756497Y-121549022D01*
X151813513Y-121618501D01*
X151827013Y-121638707D01*
X151898617Y-121772685D01*
X151907916Y-121795138D01*
X151950190Y-121934527D01*
X151952003Y-121940503D01*
X151956744Y-121964348D01*
X151972262Y-122122031D01*
X151972858Y-122134181D01*
X151972856Y-122172947D01*
X151972859Y-122172966D01*
X151972859Y-131814137D01*
X151972852Y-131815466D01*
X151971892Y-131904993D01*
X152003644Y-132096341D01*
X152025360Y-132157685D01*
X152068376Y-132279198D01*
X152164087Y-132447913D01*
X152287830Y-132597288D01*
X152389083Y-132683125D01*
X152432746Y-132720142D01*
X152435789Y-132722721D01*
X152603405Y-132820344D01*
X152785510Y-132887149D01*
X152976493Y-132921076D01*
X153040638Y-132921116D01*
X153040845Y-132921139D01*
X153053490Y-132921139D01*
X153073479Y-132921139D01*
X153100408Y-132921139D01*
X154067261Y-132921139D01*
X154079435Y-132921738D01*
X154236683Y-132937251D01*
X154260518Y-132941995D01*
X154405880Y-132986108D01*
X154428333Y-132995411D01*
X154562299Y-133067031D01*
X154582504Y-133080534D01*
X154699922Y-133176902D01*
X154717107Y-133194086D01*
X154813480Y-133311515D01*
X154826980Y-133331719D01*
X154898595Y-133465683D01*
X154907897Y-133488135D01*
X154952008Y-133633497D01*
X154956752Y-133657332D01*
X154971501Y-133806869D01*
X154972260Y-133814559D01*
X154972859Y-133826731D01*
X154972859Y-144910054D01*
X154972261Y-144922214D01*
X154956765Y-145079474D01*
X154952022Y-145103313D01*
X154907921Y-145248678D01*
X154898619Y-145271134D01*
X154827008Y-145405104D01*
X154813504Y-145425314D01*
X154717133Y-145542741D01*
X154699946Y-145559928D01*
X154582523Y-145656297D01*
X154562313Y-145669802D01*
X154428341Y-145741416D01*
X154405885Y-145750718D01*
X154260520Y-145794820D01*
X154236681Y-145799563D01*
X154079522Y-145815051D01*
X154067361Y-145815649D01*
X151079478Y-145815649D01*
X151067322Y-145815052D01*
X151067312Y-145815051D01*
X150910047Y-145799559D01*
X150886209Y-145794817D01*
X150844843Y-145782268D01*
X150740844Y-145750719D01*
X150718388Y-145741417D01*
X150584410Y-145669805D01*
X150564200Y-145656301D01*
X150446772Y-145559933D01*
X150429586Y-145542749D01*
X150333206Y-145425313D01*
X150319707Y-145405111D01*
X150319703Y-145405104D01*
X150248091Y-145271135D01*
X150238789Y-145248678D01*
X150194688Y-145103315D01*
X150189945Y-145079475D01*
X150174457Y-144922292D01*
X150173859Y-144910133D01*
X150173859Y-142941315D01*
X150173860Y-142940748D01*
X150173926Y-142926220D01*
X150173927Y-142926221D01*
X150174558Y-142788126D01*
X150139706Y-142514143D01*
X150139705Y-142514138D01*
X150139705Y-142514137D01*
X150096996Y-142352176D01*
X150069283Y-142247080D01*
X149964502Y-141991536D01*
X149827167Y-141751910D01*
X149827162Y-141751903D01*
X149659647Y-141532332D01*
X149659643Y-141532327D01*
X149638153Y-141510735D01*
X149464810Y-141336565D01*
X149456249Y-141329969D01*
X149246035Y-141168002D01*
X149246032Y-141168000D01*
X149246027Y-141167996D01*
X149007057Y-141029522D01*
X148901060Y-140985469D01*
X148752014Y-140923525D01*
X148530773Y-140864057D01*
X148485290Y-140851832D01*
X148485288Y-140851831D01*
X148485282Y-140851830D01*
X148211476Y-140815675D01*
X148103373Y-140815653D01*
X148103313Y-140815649D01*
X148093372Y-140815649D01*
X137582343Y-140815649D01*
X137581780Y-140815648D01*
X137572076Y-140815603D01*
X137450957Y-140815054D01*
X137450956Y-140815054D01*
X137450954Y-140815054D01*
X137176981Y-140849912D01*
X136909929Y-140920337D01*
X136654392Y-141025116D01*
X136654390Y-141025117D01*
X136414771Y-141162448D01*
X136195188Y-141329969D01*
X135999429Y-141524792D01*
X135999425Y-141524796D01*
X135830859Y-141743563D01*
X135830854Y-141743570D01*
X135692381Y-141982516D01*
X135586372Y-142237557D01*
X135514666Y-142504269D01*
X135478492Y-142778074D01*
X135478464Y-142884755D01*
X135478457Y-142884843D01*
X135478457Y-142916171D01*
X135478454Y-142961436D01*
X135478457Y-142961455D01*
X135478457Y-144910054D01*
X135477859Y-144922214D01*
X135462363Y-145079474D01*
X135457620Y-145103313D01*
X135413519Y-145248677D01*
X135404217Y-145271133D01*
X135332606Y-145405103D01*
X135319102Y-145425313D01*
X135222731Y-145542741D01*
X135205544Y-145559928D01*
X135088122Y-145656296D01*
X135067912Y-145669801D01*
X134933939Y-145741415D01*
X134911483Y-145750717D01*
X134766118Y-145794819D01*
X134742279Y-145799562D01*
X134612368Y-145812364D01*
X134585099Y-145815051D01*
X134572941Y-145815649D01*
X123585063Y-145815649D01*
X123572905Y-145815052D01*
X123415634Y-145799557D01*
X123391794Y-145794814D01*
X123246429Y-145750714D01*
X123223973Y-145741412D01*
X123090002Y-145669801D01*
X123069791Y-145656296D01*
X122952365Y-145559926D01*
X122935179Y-145542741D01*
X122838801Y-145425307D01*
X122825302Y-145405104D01*
X122825301Y-145405103D01*
X122753691Y-145271135D01*
X122753690Y-145271133D01*
X122744388Y-145248677D01*
X122700287Y-145103313D01*
X122695544Y-145079477D01*
X122680055Y-144922273D01*
X122679457Y-144910114D01*
X122679457Y-141157485D01*
X123082035Y-141157485D01*
X123084888Y-141187915D01*
X123084888Y-141187917D01*
X123129320Y-141314892D01*
X123129742Y-141316098D01*
X123210385Y-141425366D01*
X123319653Y-141506009D01*
X123362380Y-141520960D01*
X123447834Y-141550862D01*
X123478265Y-141553716D01*
X123478269Y-141553716D01*
X124111805Y-141553716D01*
X124142234Y-141550862D01*
X124142236Y-141550862D01*
X124206325Y-141528435D01*
X124270417Y-141506009D01*
X124379685Y-141425366D01*
X124460328Y-141316098D01*
X124485902Y-141243012D01*
X124505181Y-141187917D01*
X124505181Y-141187915D01*
X124508035Y-141157485D01*
X124508035Y-140148946D01*
X124505181Y-140118516D01*
X124505181Y-140118514D01*
X124460749Y-139991538D01*
X124460328Y-139990334D01*
X124379685Y-139881066D01*
X124270417Y-139800423D01*
X124270415Y-139800422D01*
X124142235Y-139755569D01*
X124111805Y-139752716D01*
X124111801Y-139752716D01*
X123478269Y-139752716D01*
X123478265Y-139752716D01*
X123447835Y-139755569D01*
X123447833Y-139755569D01*
X123319654Y-139800422D01*
X123319652Y-139800423D01*
X123210385Y-139881066D01*
X123129742Y-139990333D01*
X123129741Y-139990335D01*
X123084888Y-140118514D01*
X123084888Y-140118516D01*
X123082035Y-140148946D01*
X123082035Y-141157485D01*
X122679457Y-141157485D01*
X122679457Y-140340253D01*
X122679451Y-140340201D01*
X122679455Y-140275775D01*
X122646024Y-140086133D01*
X122633257Y-140051053D01*
X122580169Y-139905181D01*
X122580168Y-139905178D01*
X122483890Y-139738411D01*
X122483889Y-139738409D01*
X122422000Y-139664652D01*
X122360111Y-139590894D01*
X122360107Y-139590891D01*
X122360104Y-139590887D01*
X122219072Y-139472549D01*
X122212597Y-139467116D01*
X122045828Y-139370835D01*
X122037725Y-139367886D01*
X121864875Y-139304978D01*
X121675233Y-139271546D01*
X121675232Y-139271546D01*
X121578949Y-139271550D01*
X112460622Y-139271550D01*
X112454894Y-139271418D01*
X112441356Y-139270791D01*
X112103674Y-139255175D01*
X112092270Y-139254118D01*
X111746894Y-139205936D01*
X111735636Y-139203831D01*
X111396189Y-139123991D01*
X111385173Y-139120857D01*
X111054525Y-139010032D01*
X111043845Y-139005894D01*
X110724844Y-138865039D01*
X110714600Y-138859938D01*
X110409942Y-138690243D01*
X110400205Y-138684213D01*
X110112519Y-138487142D01*
X110103379Y-138480241D01*
X110058793Y-138443217D01*
X109835084Y-138257452D01*
X109826633Y-138249746D01*
X109580052Y-138003164D01*
X109572347Y-137994714D01*
X109349553Y-137726413D01*
X109342656Y-137717278D01*
X109145585Y-137429592D01*
X109139555Y-137419855D01*
X109111503Y-137369493D01*
X108969855Y-137115188D01*
X108964763Y-137104961D01*
X108823902Y-136785947D01*
X108819766Y-136775272D01*
X108798378Y-136711461D01*
X108708940Y-136444617D01*
X108705808Y-136433608D01*
X108690433Y-136368239D01*
X108625965Y-136094153D01*
X108623862Y-136082903D01*
X108618005Y-136040920D01*
X108575681Y-135737526D01*
X108574624Y-135726122D01*
X108558378Y-135374832D01*
X108558314Y-135372050D01*
X110802143Y-135372050D01*
X110822525Y-135631040D01*
X110883174Y-135883660D01*
X110982590Y-136123673D01*
X110982592Y-136123677D01*
X110982593Y-136123678D01*
X111118335Y-136345190D01*
X111287058Y-136542739D01*
X111484607Y-136711462D01*
X111706119Y-136847204D01*
X111706121Y-136847204D01*
X111706123Y-136847206D01*
X111767440Y-136872604D01*
X111946137Y-136946623D01*
X112198753Y-137007271D01*
X112457747Y-137027654D01*
X112716741Y-137007271D01*
X112969357Y-136946623D01*
X113209375Y-136847204D01*
X113430887Y-136711462D01*
X113628436Y-136542739D01*
X113797159Y-136345190D01*
X113932901Y-136123678D01*
X114032320Y-135883660D01*
X114092968Y-135631044D01*
X114113351Y-135372050D01*
X114092968Y-135113056D01*
X114032320Y-134860440D01*
X113969626Y-134709085D01*
X113932903Y-134620426D01*
X113847922Y-134481749D01*
X113797159Y-134398910D01*
X113628436Y-134201361D01*
X113430887Y-134032638D01*
X113209375Y-133896896D01*
X113209374Y-133896895D01*
X113209370Y-133896893D01*
X112977012Y-133800648D01*
X112969357Y-133797477D01*
X112969358Y-133797477D01*
X112831668Y-133764420D01*
X112716741Y-133736829D01*
X112716739Y-133736828D01*
X112716738Y-133736828D01*
X112457747Y-133716446D01*
X112198756Y-133736828D01*
X111946136Y-133797477D01*
X111706123Y-133896893D01*
X111484606Y-134032638D01*
X111287058Y-134201361D01*
X111118335Y-134398909D01*
X110982590Y-134620426D01*
X110883174Y-134860439D01*
X110822525Y-135113059D01*
X110802143Y-135372050D01*
X108558314Y-135372050D01*
X108558247Y-135369119D01*
X108558247Y-122423419D01*
X108558249Y-122372058D01*
X108558250Y-122372058D01*
X108558255Y-122275775D01*
X108524824Y-122086132D01*
X108458967Y-121905176D01*
X108362686Y-121738406D01*
X108238907Y-121590890D01*
X108091391Y-121467112D01*
X108091387Y-121467109D01*
X108091385Y-121467108D01*
X107940106Y-121379771D01*
X107924621Y-121370831D01*
X107924619Y-121370830D01*
X107924617Y-121370829D01*
X107924617Y-121370828D01*
X107743670Y-121304976D01*
X107743663Y-121304974D01*
X107554023Y-121271545D01*
X107554022Y-121271545D01*
X107457738Y-121271550D01*
X106463846Y-121271550D01*
X106451688Y-121270952D01*
X106412188Y-121267060D01*
X106294426Y-121255456D01*
X106270587Y-121250713D01*
X106125223Y-121206612D01*
X106102767Y-121197310D01*
X105968797Y-121125699D01*
X105948593Y-121112199D01*
X105831157Y-121015821D01*
X105813973Y-120998636D01*
X105785014Y-120963350D01*
X105717601Y-120881207D01*
X105704101Y-120861003D01*
X105632489Y-120727033D01*
X105623187Y-120704577D01*
X105616373Y-120682118D01*
X105579084Y-120559205D01*
X105574343Y-120535367D01*
X105573319Y-120524979D01*
X105560221Y-120392047D01*
X105558845Y-120378078D01*
X105558247Y-120365919D01*
X105558247Y-117397167D01*
X107278320Y-117397167D01*
X107293880Y-117475395D01*
X107293880Y-117475396D01*
X107327010Y-117524977D01*
X107327013Y-117524981D01*
X108323667Y-118521635D01*
X108323671Y-118521638D01*
X108323673Y-118521640D01*
X108364799Y-118549119D01*
X108373253Y-118554768D01*
X108451482Y-118570329D01*
X108451484Y-118570329D01*
X108451486Y-118570329D01*
X108503638Y-118559955D01*
X108529715Y-118554768D01*
X108579295Y-118521640D01*
X109575959Y-117524976D01*
X109609087Y-117475396D01*
X109624648Y-117397165D01*
X109624648Y-117397162D01*
X109609087Y-117318934D01*
X109609087Y-117318933D01*
X109589999Y-117290367D01*
X109575959Y-117269354D01*
X109575957Y-117269352D01*
X109575954Y-117269348D01*
X108579300Y-116272694D01*
X108579296Y-116272691D01*
X108572552Y-116268185D01*
X108529715Y-116239562D01*
X108529714Y-116239561D01*
X108451486Y-116224001D01*
X108451482Y-116224001D01*
X108373253Y-116239561D01*
X108373252Y-116239561D01*
X108323671Y-116272691D01*
X108323667Y-116272694D01*
X107327013Y-117269348D01*
X107327010Y-117269352D01*
X107293880Y-117318933D01*
X107293880Y-117318934D01*
X107278320Y-117397162D01*
X107278320Y-117397167D01*
X105558247Y-117397167D01*
X105558247Y-114091244D01*
X109359260Y-114091244D01*
X109374820Y-114169472D01*
X109374820Y-114169473D01*
X109407950Y-114219054D01*
X109407953Y-114219058D01*
X110517744Y-115328849D01*
X110517748Y-115328852D01*
X110517750Y-115328854D01*
X110567330Y-115361982D01*
X110645559Y-115377543D01*
X110645561Y-115377543D01*
X110645563Y-115377543D01*
X110717261Y-115363281D01*
X110723792Y-115361982D01*
X110773372Y-115328854D01*
X111883173Y-114219053D01*
X111916301Y-114169473D01*
X111921520Y-114143237D01*
X111931862Y-114091244D01*
X111931862Y-114091239D01*
X111916301Y-114013011D01*
X111916301Y-114013010D01*
X111899644Y-113988082D01*
X111883173Y-113963431D01*
X111883171Y-113963429D01*
X111883168Y-113963425D01*
X110773377Y-112853634D01*
X110773373Y-112853631D01*
X110723791Y-112820501D01*
X110645563Y-112804941D01*
X110645559Y-112804941D01*
X110567330Y-112820501D01*
X110567329Y-112820501D01*
X110517748Y-112853631D01*
X110517744Y-112853634D01*
X109407953Y-113963425D01*
X109407950Y-113963429D01*
X109374820Y-114013010D01*
X109374820Y-114013011D01*
X109359260Y-114091239D01*
X109359260Y-114091244D01*
X105558247Y-114091244D01*
X105558247Y-112295190D01*
X107879337Y-112295190D01*
X107897978Y-112484459D01*
X107906609Y-112512910D01*
X107953187Y-112666459D01*
X108042840Y-112834189D01*
X108042841Y-112834190D01*
X108163493Y-112981205D01*
X108222357Y-113029513D01*
X108310510Y-113101859D01*
X108478240Y-113191512D01*
X108660238Y-113246720D01*
X108660237Y-113246720D01*
X108677207Y-113248391D01*
X108849509Y-113265362D01*
X109038780Y-113246720D01*
X109220778Y-113191512D01*
X109388508Y-113101859D01*
X109535524Y-112981205D01*
X109656178Y-112834189D01*
X109745831Y-112666459D01*
X109801039Y-112484461D01*
X109819681Y-112295190D01*
X109801039Y-112105919D01*
X109745831Y-111923921D01*
X109656178Y-111756191D01*
X109609091Y-111698816D01*
X109535524Y-111609174D01*
X109388509Y-111488522D01*
X109388508Y-111488521D01*
X109220778Y-111398868D01*
X109038780Y-111343660D01*
X109038778Y-111343659D01*
X109038780Y-111343659D01*
X108849509Y-111325018D01*
X108660239Y-111343659D01*
X108478240Y-111398868D01*
X108310508Y-111488522D01*
X108163493Y-111609174D01*
X108042841Y-111756189D01*
X107953187Y-111923921D01*
X107897978Y-112105920D01*
X107879337Y-112295190D01*
X105558247Y-112295190D01*
X105558247Y-107244615D01*
X105558282Y-107244495D01*
X105558282Y-107193217D01*
X105558283Y-107193217D01*
X105558284Y-107096933D01*
X105524847Y-106907290D01*
X105458985Y-106726335D01*
X105458983Y-106726331D01*
X105458981Y-106726327D01*
X105379757Y-106589112D01*
X105362699Y-106559567D01*
X105362698Y-106559565D01*
X105362697Y-106559564D01*
X105362696Y-106559563D01*
X105291662Y-106474911D01*
X105238917Y-106412053D01*
X105238914Y-106412050D01*
X105238911Y-106412047D01*
X105091399Y-106288277D01*
X104924626Y-106191997D01*
X104924623Y-106191996D01*
X104743675Y-106126143D01*
X104743668Y-106126141D01*
X104554027Y-106092712D01*
X104554026Y-106092712D01*
X104457742Y-106092717D01*
X79331880Y-106092717D01*
X79319725Y-106092120D01*
X79294876Y-106089672D01*
X79162451Y-106076627D01*
X79138612Y-106071884D01*
X78993252Y-106027789D01*
X78970793Y-106018486D01*
X78836821Y-105946874D01*
X78816611Y-105933370D01*
X78699186Y-105837002D01*
X78681998Y-105819814D01*
X78585630Y-105702390D01*
X78572126Y-105682180D01*
X78536320Y-105615194D01*
X78500512Y-105548205D01*
X78491213Y-105525755D01*
X78447116Y-105380389D01*
X78442373Y-105356549D01*
X78426881Y-105199286D01*
X78426284Y-105187130D01*
X78426284Y-99199303D01*
X78426881Y-99187151D01*
X78442368Y-99029881D01*
X78447110Y-99006040D01*
X78459245Y-98966035D01*
X78491207Y-98860663D01*
X78500503Y-98838219D01*
X78572116Y-98704233D01*
X78585617Y-98684029D01*
X78681989Y-98566596D01*
X78699166Y-98549416D01*
X78816614Y-98453025D01*
X78836802Y-98439537D01*
X78970791Y-98367915D01*
X78993236Y-98358618D01*
X79138616Y-98314514D01*
X79162443Y-98309774D01*
X79319389Y-98294314D01*
X79331545Y-98293717D01*
X104406363Y-98293717D01*
X104406471Y-98293748D01*
X104457754Y-98293746D01*
X104457754Y-98293747D01*
X104554035Y-98293743D01*
X104743671Y-98260297D01*
X104924619Y-98194430D01*
X105091380Y-98098144D01*
X105238889Y-97974364D01*
X105362665Y-97826851D01*
X105458945Y-97660087D01*
X105524806Y-97479137D01*
X105558246Y-97289500D01*
X105558247Y-97193219D01*
X105558247Y-97166290D01*
X105558247Y-92361242D01*
X107379337Y-92361242D01*
X107397978Y-92550511D01*
X107397979Y-92550513D01*
X107453187Y-92732511D01*
X107542840Y-92900241D01*
X107542841Y-92900242D01*
X107663493Y-93047257D01*
X107726038Y-93098586D01*
X107810510Y-93167911D01*
X107978240Y-93257564D01*
X108160238Y-93312772D01*
X108160237Y-93312772D01*
X108177207Y-93314443D01*
X108349509Y-93331414D01*
X108538780Y-93312772D01*
X108720778Y-93257564D01*
X108888508Y-93167911D01*
X109035524Y-93047257D01*
X109156178Y-92900241D01*
X109245831Y-92732511D01*
X109301039Y-92550513D01*
X109319681Y-92361242D01*
X109301039Y-92171971D01*
X109245831Y-91989973D01*
X109156178Y-91822243D01*
X109119485Y-91777533D01*
X109035524Y-91675226D01*
X108888509Y-91554574D01*
X108888508Y-91554573D01*
X108720778Y-91464920D01*
X108538780Y-91409712D01*
X108538778Y-91409711D01*
X108538780Y-91409711D01*
X108349509Y-91391070D01*
X108160239Y-91409711D01*
X107978240Y-91464920D01*
X107810508Y-91554574D01*
X107663493Y-91675226D01*
X107542841Y-91822241D01*
X107453187Y-91989973D01*
X107397978Y-92171972D01*
X107379337Y-92361242D01*
X105558247Y-92361242D01*
X105558247Y-90565192D01*
X108859260Y-90565192D01*
X108874820Y-90643420D01*
X108874820Y-90643421D01*
X108907950Y-90693002D01*
X108907953Y-90693006D01*
X110017744Y-91802797D01*
X110017748Y-91802800D01*
X110017750Y-91802802D01*
X110046843Y-91822241D01*
X110067330Y-91835930D01*
X110145559Y-91851491D01*
X110145561Y-91851491D01*
X110145563Y-91851491D01*
X110197715Y-91841117D01*
X110223792Y-91835930D01*
X110273372Y-91802802D01*
X111383173Y-90693001D01*
X111416301Y-90643421D01*
X111431862Y-90565190D01*
X111431862Y-90565187D01*
X111416301Y-90486959D01*
X111416301Y-90486958D01*
X111399679Y-90462083D01*
X111383173Y-90437379D01*
X111383171Y-90437377D01*
X111383168Y-90437373D01*
X110273377Y-89327582D01*
X110273373Y-89327579D01*
X110223791Y-89294449D01*
X110145563Y-89278889D01*
X110145559Y-89278889D01*
X110067330Y-89294449D01*
X110067329Y-89294449D01*
X110017748Y-89327579D01*
X110017744Y-89327582D01*
X108907953Y-90437373D01*
X108907950Y-90437377D01*
X108874820Y-90486958D01*
X108874820Y-90486959D01*
X108859260Y-90565187D01*
X108859260Y-90565192D01*
X105558247Y-90565192D01*
X105558247Y-84795190D01*
X109675389Y-84795190D01*
X109694030Y-84984459D01*
X109718049Y-85063639D01*
X109749239Y-85166459D01*
X109838892Y-85334189D01*
X109838893Y-85334190D01*
X109959545Y-85481205D01*
X110057225Y-85561369D01*
X110106562Y-85601859D01*
X110274292Y-85691512D01*
X110456290Y-85746720D01*
X110456289Y-85746720D01*
X110473259Y-85748391D01*
X110645561Y-85765362D01*
X110834832Y-85746720D01*
X111016830Y-85691512D01*
X111184560Y-85601859D01*
X111331576Y-85481205D01*
X111452230Y-85334189D01*
X111541883Y-85166459D01*
X111597091Y-84984461D01*
X111615733Y-84795190D01*
X111597091Y-84605919D01*
X111560965Y-84486827D01*
X119318671Y-84486827D01*
X119338630Y-84619252D01*
X119396734Y-84739909D01*
X119415967Y-84763120D01*
X119415970Y-84763124D01*
X120136875Y-85484029D01*
X120136879Y-85484032D01*
X120160091Y-85503265D01*
X120160090Y-85503265D01*
X120272167Y-85557237D01*
X120280749Y-85561370D01*
X120413173Y-85581329D01*
X120545597Y-85561370D01*
X120666255Y-85503265D01*
X120689465Y-85484034D01*
X121109860Y-85063639D01*
X121129091Y-85040429D01*
X121187196Y-84919771D01*
X121207155Y-84787347D01*
X121187196Y-84654923D01*
X121129091Y-84534265D01*
X121129091Y-84534264D01*
X121109858Y-84511053D01*
X121109855Y-84511049D01*
X120388950Y-83790144D01*
X120388946Y-83790141D01*
X120365734Y-83770908D01*
X120365735Y-83770908D01*
X120245078Y-83712804D01*
X120112653Y-83692845D01*
X119980227Y-83712804D01*
X119859570Y-83770908D01*
X119836359Y-83790141D01*
X119836355Y-83790144D01*
X119415970Y-84210529D01*
X119415967Y-84210533D01*
X119396734Y-84233744D01*
X119338630Y-84354401D01*
X119318671Y-84486826D01*
X119318671Y-84486827D01*
X111560965Y-84486827D01*
X111541883Y-84423921D01*
X111452230Y-84256191D01*
X111414756Y-84210529D01*
X111331576Y-84109174D01*
X111191720Y-83994397D01*
X111184560Y-83988521D01*
X111016830Y-83898868D01*
X110834832Y-83843660D01*
X110834830Y-83843659D01*
X110834832Y-83843659D01*
X110645561Y-83825018D01*
X110456291Y-83843659D01*
X110274292Y-83898868D01*
X110106560Y-83988522D01*
X109959545Y-84109174D01*
X109838893Y-84256189D01*
X109749239Y-84423921D01*
X109694030Y-84605920D01*
X109675389Y-84795190D01*
X105558247Y-84795190D01*
X105558247Y-84020480D01*
X105558844Y-84008326D01*
X105560795Y-83988521D01*
X105574335Y-83851051D01*
X105579074Y-83827224D01*
X105623178Y-83681833D01*
X105632472Y-83659395D01*
X105704092Y-83525403D01*
X105717582Y-83505212D01*
X105813965Y-83387766D01*
X105831140Y-83370590D01*
X105948585Y-83274200D01*
X105968773Y-83260711D01*
X106102766Y-83189085D01*
X106125207Y-83179789D01*
X106270588Y-83135682D01*
X106294419Y-83130941D01*
X106425335Y-83118041D01*
X106451312Y-83115482D01*
X106463471Y-83114884D01*
X107489892Y-83114884D01*
X107490241Y-83114848D01*
X107554020Y-83114852D01*
X107743658Y-83081423D01*
X107924610Y-83015570D01*
X108091378Y-82919294D01*
X108238892Y-82795521D01*
X108362671Y-82648011D01*
X108458953Y-82481248D01*
X108524813Y-82300298D01*
X108544284Y-82189865D01*
X108558248Y-82110669D01*
X108558248Y-82110665D01*
X108558249Y-82110660D01*
X108558247Y-82014379D01*
X108558247Y-78893221D01*
X112317150Y-78893221D01*
X112336658Y-79128646D01*
X112394652Y-79357661D01*
X112489548Y-79574003D01*
X112618760Y-79771778D01*
X112778758Y-79945580D01*
X112778762Y-79945584D01*
X112965189Y-80090686D01*
X113172956Y-80203124D01*
X113396396Y-80279832D01*
X113629415Y-80318716D01*
X113629416Y-80318716D01*
X113865654Y-80318716D01*
X113865655Y-80318716D01*
X114098674Y-80279832D01*
X114322114Y-80203124D01*
X114529881Y-80090686D01*
X114716308Y-79945584D01*
X114876310Y-79771777D01*
X115005521Y-79574004D01*
X115100418Y-79357661D01*
X115158411Y-79128650D01*
X115167081Y-79024012D01*
X115177920Y-78893221D01*
X115177920Y-78893210D01*
X115158411Y-78657785D01*
X115158411Y-78657782D01*
X115100418Y-78428771D01*
X115005521Y-78212428D01*
X114957377Y-78138738D01*
X114876309Y-78014653D01*
X114716311Y-77840851D01*
X114716310Y-77840850D01*
X114716308Y-77840848D01*
X114581547Y-77735959D01*
X114529883Y-77695747D01*
X114322115Y-77583308D01*
X114322106Y-77583305D01*
X114098676Y-77506600D01*
X113943328Y-77480677D01*
X113865655Y-77467716D01*
X113629415Y-77467716D01*
X113571160Y-77477437D01*
X113396393Y-77506600D01*
X113172963Y-77583305D01*
X113172954Y-77583308D01*
X112965186Y-77695747D01*
X112778763Y-77840847D01*
X112778758Y-77840851D01*
X112618760Y-78014653D01*
X112489548Y-78212428D01*
X112394652Y-78428770D01*
X112336658Y-78657785D01*
X112317150Y-78893210D01*
X112317150Y-78893221D01*
X108558247Y-78893221D01*
X108558247Y-74193221D01*
X112317150Y-74193221D01*
X112336658Y-74428646D01*
X112336658Y-74428649D01*
X112336659Y-74428650D01*
X112345414Y-74463223D01*
X112394652Y-74657661D01*
X112489548Y-74874003D01*
X112618760Y-75071778D01*
X112778758Y-75245580D01*
X112778762Y-75245584D01*
X112904196Y-75343213D01*
X112951301Y-75379877D01*
X112965189Y-75390686D01*
X113172956Y-75503124D01*
X113396396Y-75579832D01*
X113629415Y-75618716D01*
X113629416Y-75618716D01*
X113865654Y-75618716D01*
X113865655Y-75618716D01*
X114098674Y-75579832D01*
X114322114Y-75503124D01*
X114529881Y-75390686D01*
X114590870Y-75343216D01*
X126194318Y-75343216D01*
X126214955Y-75499975D01*
X126214956Y-75499977D01*
X126258740Y-75605682D01*
X126275464Y-75646056D01*
X126371718Y-75771497D01*
X126497159Y-75867751D01*
X126643238Y-75928259D01*
X126721619Y-75938578D01*
X126799999Y-75948897D01*
X126800000Y-75948897D01*
X126800001Y-75948897D01*
X126852254Y-75942017D01*
X126956762Y-75928259D01*
X127102841Y-75867751D01*
X127228282Y-75771497D01*
X127324536Y-75646056D01*
X127385044Y-75499977D01*
X127405682Y-75343215D01*
X127385044Y-75186453D01*
X127385043Y-75186452D01*
X127383983Y-75178395D01*
X127384323Y-75178350D01*
X127381500Y-75156902D01*
X127381500Y-70514592D01*
X128842082Y-70514592D01*
X128844935Y-70545022D01*
X128844935Y-70545024D01*
X128889788Y-70673203D01*
X128889789Y-70673205D01*
X128970432Y-70782473D01*
X129079700Y-70863116D01*
X129122427Y-70878067D01*
X129207881Y-70907969D01*
X129238312Y-70910823D01*
X129238316Y-70910823D01*
X130246852Y-70910823D01*
X130277281Y-70907969D01*
X130277283Y-70907969D01*
X130341372Y-70885542D01*
X130405464Y-70863116D01*
X130514732Y-70782473D01*
X130591056Y-70679056D01*
X130646699Y-70636809D01*
X130716355Y-70631350D01*
X130766309Y-70654317D01*
X130854980Y-70722357D01*
X130854981Y-70722357D01*
X130854982Y-70722358D01*
X131001061Y-70782866D01*
X131079442Y-70793185D01*
X131157822Y-70803504D01*
X131159185Y-70803504D01*
X131160292Y-70803829D01*
X131165881Y-70804565D01*
X131165766Y-70805436D01*
X131226224Y-70823189D01*
X131246866Y-70839823D01*
X132065359Y-71658316D01*
X132098844Y-71719639D01*
X132101678Y-71745997D01*
X132101678Y-72358946D01*
X132104531Y-72389376D01*
X132104531Y-72389378D01*
X132143818Y-72501650D01*
X132149385Y-72517559D01*
X132230028Y-72626827D01*
X132339296Y-72707470D01*
X132382023Y-72722421D01*
X132467477Y-72752323D01*
X132497908Y-72755177D01*
X132497912Y-72755177D01*
X133506448Y-72755177D01*
X133536877Y-72752323D01*
X133536879Y-72752323D01*
X133600968Y-72729896D01*
X133665060Y-72707470D01*
X133774328Y-72626827D01*
X133854971Y-72517559D01*
X133879165Y-72448417D01*
X133899824Y-72389378D01*
X133899824Y-72389376D01*
X133902678Y-72358946D01*
X133902678Y-71725407D01*
X133899824Y-71694977D01*
X133899824Y-71694975D01*
X133854971Y-71566796D01*
X133854970Y-71566794D01*
X133774328Y-71457527D01*
X133665060Y-71376884D01*
X133665058Y-71376883D01*
X133536878Y-71332030D01*
X133506448Y-71329177D01*
X133506444Y-71329177D01*
X132893498Y-71329177D01*
X132826459Y-71309492D01*
X132805817Y-71292858D01*
X131799824Y-70286865D01*
X131766339Y-70225542D01*
X131763505Y-70199184D01*
X131763505Y-70197820D01*
X131742867Y-70041061D01*
X131742867Y-70041060D01*
X131682359Y-69894981D01*
X131586105Y-69769540D01*
X131460664Y-69673286D01*
X131314585Y-69612778D01*
X131314583Y-69612777D01*
X131157824Y-69592140D01*
X131157822Y-69592140D01*
X131001062Y-69612777D01*
X131001060Y-69612778D01*
X130854980Y-69673286D01*
X130766308Y-69741327D01*
X130701139Y-69766521D01*
X130632694Y-69752482D01*
X130591054Y-69716587D01*
X130514732Y-69613173D01*
X130514195Y-69612777D01*
X130405464Y-69532530D01*
X130405462Y-69532529D01*
X130277282Y-69487676D01*
X130246852Y-69484823D01*
X130246848Y-69484823D01*
X129238316Y-69484823D01*
X129238312Y-69484823D01*
X129207882Y-69487676D01*
X129207880Y-69487676D01*
X129079701Y-69532529D01*
X129079699Y-69532530D01*
X128970432Y-69613173D01*
X128889789Y-69722440D01*
X128889788Y-69722442D01*
X128844935Y-69850621D01*
X128844935Y-69850623D01*
X128842082Y-69881053D01*
X128842082Y-70514592D01*
X127381500Y-70514592D01*
X127381500Y-69072227D01*
X127401185Y-69005188D01*
X127417819Y-68984546D01*
X131111330Y-65291035D01*
X131172653Y-65257550D01*
X131199011Y-65254716D01*
X131774319Y-65254716D01*
X131841358Y-65274401D01*
X131866467Y-65295743D01*
X131901721Y-65334896D01*
X132030217Y-65428254D01*
X132052311Y-65444306D01*
X132222352Y-65520014D01*
X132222358Y-65520016D01*
X132404430Y-65558716D01*
X132404431Y-65558716D01*
X132590569Y-65558716D01*
X132590570Y-65558716D01*
X132772642Y-65520016D01*
X132772644Y-65520014D01*
X132772647Y-65520014D01*
X132930998Y-65449511D01*
X132942689Y-65444306D01*
X133093279Y-65334896D01*
X133109576Y-65316797D01*
X133129619Y-65294536D01*
X133217831Y-65196567D01*
X133310901Y-65035365D01*
X133368421Y-64858336D01*
X133387878Y-64673216D01*
X133368421Y-64488096D01*
X133320860Y-64341718D01*
X133310903Y-64311072D01*
X133310900Y-64311066D01*
X133295422Y-64284257D01*
X133217831Y-64149865D01*
X133161530Y-64087336D01*
X133093284Y-64011540D01*
X133093281Y-64011538D01*
X133093280Y-64011537D01*
X133093279Y-64011536D01*
X132942689Y-63902126D01*
X132942688Y-63902125D01*
X132772647Y-63826417D01*
X132772641Y-63826415D01*
X132629269Y-63795941D01*
X132590570Y-63787716D01*
X132404430Y-63787716D01*
X132372514Y-63794499D01*
X132222358Y-63826415D01*
X132222352Y-63826417D01*
X132052311Y-63902125D01*
X131901719Y-64011537D01*
X131881675Y-64033799D01*
X131866468Y-64050687D01*
X131806983Y-64087336D01*
X131774319Y-64091716D01*
X130990952Y-64091716D01*
X130990936Y-64091715D01*
X130983340Y-64091715D01*
X130830229Y-64091715D01*
X130721961Y-64120725D01*
X130721960Y-64120724D01*
X130682336Y-64131342D01*
X130682333Y-64131343D01*
X130625220Y-64164318D01*
X130557832Y-64203225D01*
X130549731Y-64207902D01*
X126334685Y-68422948D01*
X126334681Y-68422953D01*
X126320646Y-68447265D01*
X126320645Y-68447267D01*
X126258128Y-68555549D01*
X126218499Y-68703444D01*
X126218499Y-68703446D01*
X126218499Y-68866545D01*
X126218500Y-68866558D01*
X126218500Y-75156902D01*
X126215676Y-75178350D01*
X126216017Y-75178395D01*
X126194318Y-75343213D01*
X126194318Y-75343216D01*
X114590870Y-75343216D01*
X114716308Y-75245584D01*
X114876310Y-75071777D01*
X115005521Y-74874004D01*
X115100418Y-74657661D01*
X115158411Y-74428650D01*
X115177920Y-74193216D01*
X115175666Y-74166018D01*
X115163381Y-74017765D01*
X115158411Y-73957782D01*
X115100418Y-73728771D01*
X115005521Y-73512428D01*
X114928058Y-73393861D01*
X114876309Y-73314653D01*
X114716311Y-73140851D01*
X114716310Y-73140850D01*
X114716308Y-73140848D01*
X114567467Y-73025000D01*
X114529883Y-72995747D01*
X114322115Y-72883308D01*
X114322106Y-72883305D01*
X114098676Y-72806600D01*
X113943328Y-72780677D01*
X113865655Y-72767716D01*
X113629415Y-72767716D01*
X113571160Y-72777437D01*
X113396393Y-72806600D01*
X113172963Y-72883305D01*
X113172954Y-72883308D01*
X112965186Y-72995747D01*
X112778763Y-73140847D01*
X112778758Y-73140851D01*
X112618760Y-73314653D01*
X112489548Y-73512428D01*
X112394652Y-73728770D01*
X112336658Y-73957785D01*
X112317150Y-74193210D01*
X112317150Y-74193221D01*
X108558247Y-74193221D01*
X108558247Y-70737968D01*
X112322035Y-70737968D01*
X112333666Y-70796445D01*
X112333667Y-70796446D01*
X112377982Y-70862768D01*
X112444304Y-70907083D01*
X112444305Y-70907084D01*
X112502782Y-70918715D01*
X112502785Y-70918716D01*
X112502787Y-70918716D01*
X114992285Y-70918716D01*
X114992286Y-70918715D01*
X115007103Y-70915768D01*
X115050764Y-70907084D01*
X115050764Y-70907083D01*
X115050766Y-70907083D01*
X115117087Y-70862768D01*
X115161402Y-70796447D01*
X115161402Y-70796445D01*
X115161403Y-70796445D01*
X115173034Y-70737968D01*
X115173035Y-70737966D01*
X115173035Y-68248465D01*
X115173034Y-68248463D01*
X115161403Y-68189986D01*
X115161402Y-68189985D01*
X115117087Y-68123663D01*
X115050765Y-68079348D01*
X115050764Y-68079347D01*
X114992287Y-68067716D01*
X114992283Y-68067716D01*
X112502787Y-68067716D01*
X112502782Y-68067716D01*
X112444305Y-68079347D01*
X112444304Y-68079348D01*
X112377982Y-68123663D01*
X112333667Y-68189985D01*
X112333666Y-68189986D01*
X112322035Y-68248463D01*
X112322035Y-70737968D01*
X108558247Y-70737968D01*
X108558247Y-69017256D01*
X108558379Y-69011529D01*
X108565082Y-68866558D01*
X108574618Y-68660301D01*
X108575675Y-68648903D01*
X108596524Y-68499445D01*
X108623857Y-68303507D01*
X108625955Y-68292282D01*
X108705802Y-67952797D01*
X108708925Y-67941818D01*
X108819761Y-67611128D01*
X108823884Y-67600489D01*
X108964753Y-67281449D01*
X108969836Y-67271240D01*
X109139540Y-66966563D01*
X109145566Y-66956832D01*
X109342641Y-66669135D01*
X109349533Y-66660007D01*
X109572331Y-66391698D01*
X109580028Y-66383255D01*
X109826635Y-66136646D01*
X109835065Y-66128961D01*
X110103389Y-65906145D01*
X110112482Y-65899279D01*
X110400211Y-65702177D01*
X110409912Y-65696170D01*
X110714598Y-65526458D01*
X110724825Y-65521366D01*
X111043849Y-65380499D01*
X111054503Y-65376371D01*
X111385179Y-65265537D01*
X111396170Y-65262410D01*
X111735643Y-65182562D01*
X111746875Y-65180462D01*
X112092272Y-65132277D01*
X112103667Y-65131221D01*
X112454093Y-65115016D01*
X112459821Y-65114884D01*
X120770860Y-65114884D01*
X120770862Y-65114884D01*
X120807800Y-65099584D01*
X120836071Y-65071313D01*
X120851371Y-65034375D01*
X120851371Y-62722139D01*
X120851869Y-62718158D01*
X120851705Y-62705287D01*
X120851706Y-62705286D01*
X120851401Y-62681360D01*
X120851470Y-62675376D01*
X120853138Y-62628653D01*
X123094942Y-62628653D01*
X123115324Y-62887643D01*
X123175973Y-63140263D01*
X123275389Y-63380276D01*
X123275391Y-63380280D01*
X123275392Y-63380281D01*
X123411134Y-63601793D01*
X123579857Y-63799342D01*
X123777406Y-63968065D01*
X123998918Y-64103807D01*
X123998920Y-64103807D01*
X123998922Y-64103809D01*
X124060239Y-64129207D01*
X124238936Y-64203226D01*
X124491552Y-64263874D01*
X124750546Y-64284257D01*
X125009540Y-64263874D01*
X125262156Y-64203226D01*
X125502174Y-64103807D01*
X125723686Y-63968065D01*
X125921235Y-63799342D01*
X126089958Y-63601793D01*
X126225700Y-63380281D01*
X126325119Y-63140263D01*
X126385767Y-62887647D01*
X126406150Y-62628653D01*
X126385767Y-62369659D01*
X126325119Y-62117043D01*
X126262425Y-61965688D01*
X126225702Y-61877029D01*
X126221833Y-61870716D01*
X126089958Y-61655513D01*
X125921235Y-61457964D01*
X125723686Y-61289241D01*
X125502174Y-61153499D01*
X125502173Y-61153498D01*
X125502169Y-61153496D01*
X125336173Y-61084739D01*
X125262156Y-61054080D01*
X125262157Y-61054080D01*
X125124467Y-61021023D01*
X125009540Y-60993432D01*
X125009538Y-60993431D01*
X125009537Y-60993431D01*
X124750546Y-60973049D01*
X124491555Y-60993431D01*
X124238935Y-61054080D01*
X123998922Y-61153496D01*
X123777405Y-61289241D01*
X123579857Y-61457964D01*
X123411134Y-61655512D01*
X123275389Y-61877029D01*
X123175973Y-62117042D01*
X123115324Y-62369662D01*
X123094942Y-62628653D01*
X120853138Y-62628653D01*
X120864628Y-62306842D01*
X120865635Y-62294897D01*
X120913990Y-61932371D01*
X120916147Y-61920584D01*
X120999357Y-61564412D01*
X121002645Y-61552890D01*
X121119931Y-61206428D01*
X121124308Y-61195307D01*
X121274563Y-60861828D01*
X121280003Y-60851164D01*
X121461821Y-60533787D01*
X121468271Y-60523696D01*
X121679933Y-60225416D01*
X121687340Y-60215982D01*
X121926860Y-59939592D01*
X121935154Y-59930910D01*
X121966276Y-59901340D01*
X122200303Y-59678984D01*
X122209377Y-59671163D01*
X122497649Y-59446080D01*
X122507443Y-59439168D01*
X122816164Y-59243019D01*
X122826578Y-59237091D01*
X123152818Y-59071739D01*
X123163760Y-59066845D01*
X123504458Y-58933840D01*
X123515843Y-58930021D01*
X123867808Y-58830605D01*
X123879475Y-58827912D01*
X124239435Y-58763014D01*
X124251315Y-58761462D01*
X124615865Y-58731698D01*
X124627831Y-58731303D01*
X124993530Y-58736951D01*
X125005510Y-58737717D01*
X125368929Y-58778721D01*
X125380784Y-58780644D01*
X125738539Y-58856621D01*
X125750153Y-58859683D01*
X125906603Y-58909138D01*
X126098869Y-58969915D01*
X126110114Y-58974078D01*
X126446540Y-59117540D01*
X126457345Y-59122779D01*
X126778316Y-59298122D01*
X126788555Y-59304379D01*
X127091041Y-59509946D01*
X127100636Y-59517170D01*
X127369964Y-59741187D01*
X127381807Y-59751037D01*
X127390660Y-59759157D01*
X127647888Y-60019137D01*
X127655913Y-60028075D01*
X127886777Y-60311723D01*
X127893899Y-60321395D01*
X128096238Y-60626052D01*
X128102391Y-60636368D01*
X128273819Y-60958267D01*
X128274298Y-60959165D01*
X128279424Y-60970029D01*
X128419293Y-61307948D01*
X128423344Y-61319256D01*
X128529861Y-61669126D01*
X128532799Y-61680774D01*
X128604962Y-62039307D01*
X128606759Y-62051183D01*
X128617662Y-62158001D01*
X128641348Y-62390073D01*
X128643728Y-62413386D01*
X128644369Y-62425977D01*
X128644369Y-62437030D01*
X128645597Y-62446822D01*
X128645946Y-62447892D01*
X128649324Y-62453083D01*
X128659312Y-62472046D01*
X128661870Y-62475874D01*
X128673447Y-62490156D01*
X128675319Y-62493033D01*
X128675986Y-62493632D01*
X128685299Y-62499085D01*
X128687939Y-62500849D01*
X128687940Y-62500850D01*
X128698371Y-62505171D01*
X128707088Y-62509185D01*
X128723328Y-62517441D01*
X128744244Y-62516326D01*
X128750845Y-62516150D01*
X142021990Y-62516150D01*
X142022024Y-62516159D01*
X142073361Y-62516158D01*
X142073361Y-62516159D01*
X142235851Y-62516156D01*
X142455816Y-62493033D01*
X142559040Y-62482182D01*
X142559040Y-62482181D01*
X142559049Y-62482181D01*
X142876926Y-62414609D01*
X142876927Y-62414608D01*
X142876930Y-62414608D01*
X143185989Y-62314184D01*
X143185990Y-62314183D01*
X143185998Y-62314181D01*
X143482880Y-62181997D01*
X143764319Y-62019505D01*
X144027232Y-61828486D01*
X144268738Y-61611032D01*
X144486192Y-61369525D01*
X144677210Y-61106612D01*
X144839701Y-60825172D01*
X144971884Y-60528290D01*
X145072312Y-60219217D01*
X145139882Y-59901340D01*
X145173856Y-59578141D01*
X145173859Y-59415652D01*
X145173859Y-59388723D01*
X145173859Y-58967240D01*
X145173860Y-58967231D01*
X145173859Y-58942574D01*
X145173860Y-58942574D01*
X145173859Y-58921700D01*
X145174451Y-58909602D01*
X145174497Y-58909138D01*
X145189803Y-58752990D01*
X145194505Y-58729247D01*
X145210021Y-58677866D01*
X145238233Y-58584432D01*
X145247459Y-58562055D01*
X145318491Y-58428494D01*
X145331884Y-58408341D01*
X145427521Y-58291117D01*
X145444573Y-58273953D01*
X145561153Y-58177554D01*
X145581221Y-58164024D01*
X145714317Y-58092108D01*
X145736618Y-58082741D01*
X145881154Y-58038053D01*
X145904858Y-58033197D01*
X146061238Y-58016823D01*
X146074148Y-58016150D01*
X154046454Y-58016150D01*
X154067318Y-58016150D01*
X154079419Y-58016741D01*
G37*
G04 #@! TD.AperFunction*
G04 #@! TA.AperFunction,Conductor*
G36*
X130900549Y-109656009D02*
G01*
X130907027Y-109662041D01*
X131017681Y-109772695D01*
X131051166Y-109834018D01*
X131054000Y-109860376D01*
X131054000Y-113783073D01*
X131034315Y-113850112D01*
X131017688Y-113870748D01*
X131016721Y-113871714D01*
X130920463Y-113997160D01*
X130859956Y-114143237D01*
X130859955Y-114143239D01*
X130839318Y-114299998D01*
X130839318Y-114300001D01*
X130859955Y-114456760D01*
X130859956Y-114456762D01*
X130903868Y-114562776D01*
X130920464Y-114602841D01*
X130986140Y-114688432D01*
X131011333Y-114753598D01*
X130997295Y-114822043D01*
X130975444Y-114851597D01*
X123892514Y-121934527D01*
X123831191Y-121968012D01*
X123761499Y-121963028D01*
X123705566Y-121921156D01*
X123681149Y-121855692D01*
X123696001Y-121787419D01*
X123697401Y-121784923D01*
X123709853Y-121763357D01*
X123709854Y-121763356D01*
X123736500Y-121663912D01*
X123736500Y-120707820D01*
X123756185Y-120640781D01*
X123772819Y-120620139D01*
X127123610Y-117269348D01*
X130617224Y-113775734D01*
X130668699Y-113686575D01*
X130668700Y-113686574D01*
X130695346Y-113587130D01*
X130695346Y-109749722D01*
X130715031Y-109682683D01*
X130767835Y-109636928D01*
X130836993Y-109626984D01*
X130900549Y-109656009D01*
G37*
G04 #@! TD.AperFunction*
G04 #@! TA.AperFunction,Conductor*
G36*
X143617016Y-75021254D02*
G01*
X143672950Y-75063125D01*
X143697367Y-75128590D01*
X143682515Y-75196863D01*
X143681075Y-75199427D01*
X143679102Y-75202844D01*
X143679096Y-75202856D01*
X143621580Y-75379875D01*
X143621579Y-75379877D01*
X143602122Y-75565000D01*
X143621579Y-75750122D01*
X143621580Y-75750124D01*
X143679096Y-75927143D01*
X143679099Y-75927149D01*
X143772169Y-76088351D01*
X143782387Y-76099699D01*
X143896715Y-76226675D01*
X143896718Y-76226677D01*
X143896721Y-76226680D01*
X144000876Y-76302353D01*
X144047311Y-76336090D01*
X144208106Y-76407681D01*
X144217358Y-76411800D01*
X144350975Y-76440200D01*
X144412452Y-76473391D01*
X144446229Y-76534553D01*
X144441577Y-76604268D01*
X144412871Y-76649170D01*
X143197124Y-77864917D01*
X143197120Y-77864923D01*
X143145647Y-77954076D01*
X143145646Y-77954077D01*
X143129415Y-78014655D01*
X143125328Y-78029908D01*
X143119000Y-78053524D01*
X143119000Y-83421024D01*
X143119000Y-83523976D01*
X143145646Y-83623421D01*
X143197122Y-83712580D01*
X143197124Y-83712582D01*
X143880028Y-84395486D01*
X143913513Y-84456809D01*
X143916347Y-84483167D01*
X143916347Y-112941832D01*
X143896662Y-113008871D01*
X143880028Y-113029513D01*
X141960813Y-114948727D01*
X141899490Y-114982212D01*
X141834826Y-114978981D01*
X141829344Y-114977200D01*
X141695385Y-114948727D01*
X141647270Y-114938500D01*
X141461130Y-114938500D01*
X141429214Y-114945283D01*
X141279058Y-114977199D01*
X141279052Y-114977201D01*
X141109011Y-115052909D01*
X140958418Y-115162322D01*
X140958415Y-115162324D01*
X140833868Y-115300650D01*
X140740799Y-115461850D01*
X140740796Y-115461856D01*
X140683280Y-115638875D01*
X140683279Y-115638877D01*
X140663822Y-115823999D01*
X140683279Y-116009121D01*
X140683280Y-116009123D01*
X140713049Y-116100743D01*
X140715044Y-116170585D01*
X140682799Y-116226742D01*
X140166661Y-116742881D01*
X140105338Y-116776366D01*
X140078980Y-116779200D01*
X139587616Y-116779200D01*
X139520577Y-116759515D01*
X139474822Y-116706711D01*
X139464878Y-116637553D01*
X139493903Y-116573997D01*
X139514731Y-116554882D01*
X139552836Y-116527196D01*
X139609979Y-116485680D01*
X139734531Y-116347351D01*
X139827601Y-116186149D01*
X139885121Y-116009120D01*
X139904578Y-115824000D01*
X139886685Y-115653769D01*
X139899254Y-115585044D01*
X139922322Y-115553134D01*
X140724078Y-114751380D01*
X140775554Y-114662221D01*
X140802200Y-114562776D01*
X140802200Y-114459824D01*
X140802200Y-114075542D01*
X140821885Y-114008503D01*
X140874689Y-113962748D01*
X140943847Y-113952804D01*
X140999083Y-113975222D01*
X141109011Y-114055090D01*
X141279052Y-114130798D01*
X141279058Y-114130800D01*
X141461130Y-114169500D01*
X141461131Y-114169500D01*
X141647269Y-114169500D01*
X141647270Y-114169500D01*
X141829342Y-114130800D01*
X141829344Y-114130798D01*
X141829347Y-114130798D01*
X141953453Y-114075542D01*
X141999389Y-114055090D01*
X142149979Y-113945680D01*
X142274531Y-113807351D01*
X142367601Y-113646149D01*
X142425121Y-113469120D01*
X142444578Y-113284000D01*
X142425121Y-113098880D01*
X142367601Y-112921851D01*
X142274531Y-112760649D01*
X142225747Y-112706469D01*
X142149984Y-112622324D01*
X142149981Y-112622322D01*
X142149980Y-112622321D01*
X142149979Y-112622320D01*
X142008461Y-112519501D01*
X141999388Y-112512909D01*
X141829347Y-112437201D01*
X141829341Y-112437199D01*
X141685969Y-112406725D01*
X141647270Y-112398500D01*
X141461130Y-112398500D01*
X141429214Y-112405283D01*
X141279058Y-112437199D01*
X141279052Y-112437201D01*
X141109011Y-112512910D01*
X141109006Y-112512912D01*
X140999085Y-112592775D01*
X140933279Y-112616255D01*
X140865225Y-112600429D01*
X140816530Y-112550324D01*
X140802200Y-112492457D01*
X140802200Y-111149726D01*
X140802199Y-111149722D01*
X140795575Y-111125001D01*
X140792151Y-111112220D01*
X140775554Y-111050279D01*
X140724078Y-110961120D01*
X138911888Y-109148930D01*
X138878403Y-109087607D01*
X138883387Y-109017915D01*
X138911884Y-108973573D01*
X139661414Y-108224042D01*
X139722735Y-108190559D01*
X139792427Y-108195543D01*
X139848360Y-108237415D01*
X139863653Y-108264271D01*
X139893182Y-108335559D01*
X139989436Y-108461000D01*
X140114877Y-108557254D01*
X140260956Y-108617762D01*
X140339337Y-108628081D01*
X140417717Y-108638400D01*
X140417718Y-108638400D01*
X140417719Y-108638400D01*
X140469972Y-108631520D01*
X140574480Y-108617762D01*
X140720559Y-108557254D01*
X140846000Y-108461000D01*
X140942254Y-108335559D01*
X141002762Y-108189480D01*
X141018921Y-108066738D01*
X141023400Y-108032719D01*
X141023400Y-108031355D01*
X141023725Y-108030246D01*
X141024461Y-108024660D01*
X141025332Y-108024774D01*
X141043085Y-107964316D01*
X141059714Y-107943679D01*
X141243878Y-107759516D01*
X141247813Y-107752700D01*
X141295354Y-107670356D01*
X141322000Y-107570912D01*
X141322000Y-105794426D01*
X141341685Y-105727387D01*
X141358319Y-105706745D01*
X141359277Y-105705786D01*
X141359277Y-105705785D01*
X141359282Y-105705782D01*
X141455536Y-105580341D01*
X141516044Y-105434262D01*
X141536682Y-105277500D01*
X141531522Y-105238309D01*
X141518495Y-105139353D01*
X141516044Y-105120738D01*
X141455536Y-104974659D01*
X141359282Y-104849218D01*
X141233841Y-104752964D01*
X141187162Y-104733629D01*
X141087762Y-104692456D01*
X141087760Y-104692455D01*
X140931001Y-104671818D01*
X140930999Y-104671818D01*
X140774239Y-104692455D01*
X140774234Y-104692457D01*
X140702952Y-104721983D01*
X140633483Y-104729452D01*
X140571004Y-104698176D01*
X140535352Y-104638087D01*
X140531500Y-104607422D01*
X140531500Y-93012910D01*
X140531500Y-93012908D01*
X140504854Y-92913464D01*
X140504854Y-92913463D01*
X140504854Y-92913462D01*
X140482157Y-92874151D01*
X140453378Y-92824304D01*
X138222319Y-90593245D01*
X138188834Y-90531922D01*
X138186000Y-90505564D01*
X138186000Y-81493318D01*
X138205685Y-81426279D01*
X138222314Y-81405642D01*
X141008267Y-78619689D01*
X141069587Y-78586206D01*
X141139279Y-78591190D01*
X141195212Y-78633062D01*
X141219629Y-78698526D01*
X141215720Y-78739465D01*
X141188600Y-78840680D01*
X141188600Y-94129140D01*
X141168915Y-94196179D01*
X141162976Y-94204626D01*
X141080464Y-94312157D01*
X141019956Y-94458237D01*
X141019955Y-94458239D01*
X140999318Y-94614998D01*
X140999318Y-94615001D01*
X141019955Y-94771760D01*
X141019956Y-94771762D01*
X141058378Y-94864522D01*
X141080464Y-94917841D01*
X141176718Y-95043282D01*
X141302159Y-95139536D01*
X141448238Y-95200044D01*
X141526619Y-95210363D01*
X141604999Y-95220682D01*
X141605000Y-95220682D01*
X141605001Y-95220682D01*
X141657254Y-95213802D01*
X141761762Y-95200044D01*
X141907841Y-95139536D01*
X142033282Y-95043282D01*
X142129536Y-94917841D01*
X142190044Y-94771762D01*
X142210682Y-94615000D01*
X142207676Y-94592170D01*
X142190607Y-94462514D01*
X142190044Y-94458238D01*
X142129536Y-94312159D01*
X142129535Y-94312158D01*
X142129535Y-94312157D01*
X142047024Y-94204626D01*
X142021830Y-94139457D01*
X142021400Y-94129140D01*
X142021400Y-79160944D01*
X142041085Y-79093905D01*
X142093889Y-79048150D01*
X142129211Y-79038006D01*
X142215684Y-79026622D01*
X142361763Y-78966114D01*
X142487204Y-78869860D01*
X142583458Y-78744419D01*
X142643966Y-78598340D01*
X142664604Y-78441578D01*
X142657843Y-78390226D01*
X142643966Y-78284817D01*
X142643966Y-78284816D01*
X142583458Y-78138737D01*
X142487204Y-78013296D01*
X142361763Y-77917042D01*
X142215684Y-77856534D01*
X142180401Y-77851889D01*
X142072400Y-77837670D01*
X142008504Y-77809403D01*
X141970033Y-77751079D01*
X141969202Y-77681214D01*
X142000903Y-77627052D01*
X142768946Y-76859009D01*
X142768951Y-76859006D01*
X142779154Y-76848802D01*
X142779156Y-76848802D01*
X142851954Y-76776004D01*
X142903430Y-76686844D01*
X142907755Y-76670703D01*
X142909187Y-76665360D01*
X142909187Y-76665358D01*
X142930077Y-76587400D01*
X142930077Y-76484448D01*
X142930077Y-76476853D01*
X142930076Y-76476835D01*
X142930076Y-75657044D01*
X142949761Y-75590005D01*
X142966395Y-75569363D01*
X143192545Y-75343213D01*
X143486004Y-75049753D01*
X143547325Y-75016270D01*
X143617016Y-75021254D01*
G37*
G04 #@! TD.AperFunction*
G04 #@! TA.AperFunction,Conductor*
G36*
X127797279Y-104906285D02*
G01*
X127805726Y-104912224D01*
X127913257Y-104994735D01*
X127913258Y-104994735D01*
X127913259Y-104994736D01*
X128059338Y-105055244D01*
X128137719Y-105065563D01*
X128216099Y-105075882D01*
X128216100Y-105075882D01*
X128216101Y-105075882D01*
X128268354Y-105069002D01*
X128372862Y-105055244D01*
X128444149Y-105025715D01*
X128513616Y-105018247D01*
X128576095Y-105049522D01*
X128611748Y-105109610D01*
X128615600Y-105140277D01*
X128615600Y-105907544D01*
X128595915Y-105974583D01*
X128579281Y-105995225D01*
X128030224Y-106544281D01*
X128030220Y-106544287D01*
X127978745Y-106633444D01*
X127978744Y-106633445D01*
X127968557Y-106671468D01*
X127968557Y-106671469D01*
X127952100Y-106732888D01*
X127952100Y-108741909D01*
X127932415Y-108808948D01*
X127879611Y-108854703D01*
X127810453Y-108864647D01*
X127759211Y-108845012D01*
X127719786Y-108818670D01*
X127719784Y-108818669D01*
X127718184Y-108818351D01*
X127715019Y-108816695D01*
X127708500Y-108813995D01*
X127708741Y-108813411D01*
X127656274Y-108785965D01*
X127621700Y-108725249D01*
X127620759Y-108720923D01*
X127620442Y-108719327D01*
X127620440Y-108719325D01*
X127620440Y-108719323D01*
X127580954Y-108660229D01*
X127580948Y-108660221D01*
X127213205Y-108292478D01*
X127213197Y-108292472D01*
X127154101Y-108252985D01*
X127154098Y-108252984D01*
X127152498Y-108252666D01*
X127149333Y-108251010D01*
X127142814Y-108248310D01*
X127143055Y-108247726D01*
X127090587Y-108220279D01*
X127056015Y-108159562D01*
X127055074Y-108155236D01*
X127054757Y-108153641D01*
X127054755Y-108153638D01*
X127054755Y-108153637D01*
X127015269Y-108094543D01*
X127015263Y-108094535D01*
X126647520Y-107726792D01*
X126647512Y-107726786D01*
X126588416Y-107687299D01*
X126495162Y-107668751D01*
X126401907Y-107687299D01*
X126342811Y-107726786D01*
X126342803Y-107726792D01*
X125324522Y-108745073D01*
X125324516Y-108745081D01*
X125285029Y-108804177D01*
X125266481Y-108897432D01*
X125285029Y-108990686D01*
X125324516Y-109049782D01*
X125324522Y-109049790D01*
X125692263Y-109417531D01*
X125692266Y-109417533D01*
X125692269Y-109417536D01*
X125692915Y-109417968D01*
X125693179Y-109418283D01*
X125696977Y-109421400D01*
X125696386Y-109422120D01*
X125737723Y-109471575D01*
X125746436Y-109540899D01*
X125716286Y-109603929D01*
X125711712Y-109608755D01*
X125094280Y-110226188D01*
X125032957Y-110259673D01*
X124963266Y-110254689D01*
X124907332Y-110212818D01*
X124882915Y-110147353D01*
X124888109Y-110101953D01*
X124889746Y-110096643D01*
X124889750Y-110096636D01*
X124909991Y-109962349D01*
X124889750Y-109828062D01*
X124889749Y-109828059D01*
X124830829Y-109705710D01*
X124830826Y-109705705D01*
X124819442Y-109691965D01*
X124811326Y-109682169D01*
X124811316Y-109682159D01*
X124811308Y-109682150D01*
X124369069Y-109239911D01*
X124335584Y-109178588D01*
X124332750Y-109152230D01*
X124332750Y-108750884D01*
X124352435Y-108683845D01*
X124369065Y-108663207D01*
X124655217Y-108377054D01*
X124716538Y-108343571D01*
X124718580Y-108343145D01*
X124806506Y-108325657D01*
X124865608Y-108286166D01*
X125883895Y-107267879D01*
X125923386Y-107208777D01*
X125941934Y-107115524D01*
X125923386Y-107022271D01*
X125920348Y-107017725D01*
X125883898Y-106963173D01*
X125883892Y-106963165D01*
X125516149Y-106595422D01*
X125516141Y-106595416D01*
X125457045Y-106555929D01*
X125457042Y-106555928D01*
X125455442Y-106555610D01*
X125452277Y-106553954D01*
X125445758Y-106551254D01*
X125445999Y-106550670D01*
X125393531Y-106523223D01*
X125358959Y-106462506D01*
X125358018Y-106458180D01*
X125357701Y-106456585D01*
X125357699Y-106456582D01*
X125357699Y-106456581D01*
X125318213Y-106397487D01*
X125318207Y-106397479D01*
X124950770Y-106030042D01*
X124917285Y-105968719D01*
X124922269Y-105899027D01*
X124950768Y-105854682D01*
X125882532Y-104922919D01*
X125943855Y-104889434D01*
X125970213Y-104886600D01*
X127730240Y-104886600D01*
X127797279Y-104906285D01*
G37*
G04 #@! TD.AperFunction*
G04 #@! TA.AperFunction,Conductor*
G36*
X123904126Y-107809592D02*
G01*
X123949881Y-107862396D01*
X123959825Y-107931554D01*
X123930800Y-107995110D01*
X123924768Y-108001588D01*
X123628874Y-108297482D01*
X123628872Y-108297485D01*
X123577395Y-108386644D01*
X123577394Y-108386647D01*
X123571314Y-108409335D01*
X123571315Y-108409336D01*
X123550750Y-108486087D01*
X123550750Y-108835380D01*
X123531065Y-108902419D01*
X123505862Y-108930865D01*
X123502471Y-108933673D01*
X123502452Y-108933691D01*
X123072191Y-109363952D01*
X123072167Y-109363979D01*
X123052673Y-109387507D01*
X123048599Y-109393860D01*
X123047508Y-109393160D01*
X123005920Y-109439223D01*
X122938493Y-109457535D01*
X122871869Y-109436487D01*
X122853342Y-109421242D01*
X122801833Y-109369733D01*
X122801831Y-109369731D01*
X122712672Y-109318255D01*
X122613227Y-109291609D01*
X122613226Y-109291609D01*
X122339695Y-109291609D01*
X122272656Y-109271924D01*
X122226901Y-109219120D01*
X122216957Y-109149962D01*
X122245982Y-109086406D01*
X122252014Y-109079928D01*
X122314027Y-109017915D01*
X122385782Y-108946160D01*
X122405283Y-108922623D01*
X122464207Y-108800268D01*
X122484447Y-108665981D01*
X122483579Y-108660225D01*
X122464207Y-108531693D01*
X122435826Y-108472761D01*
X122405283Y-108409338D01*
X122405280Y-108409334D01*
X122405279Y-108409332D01*
X122385790Y-108385810D01*
X122385778Y-108385797D01*
X122001569Y-108001588D01*
X121968084Y-107940265D01*
X121973068Y-107870573D01*
X122014940Y-107814640D01*
X122080404Y-107790223D01*
X122089250Y-107789907D01*
X123837087Y-107789907D01*
X123904126Y-107809592D01*
G37*
G04 #@! TD.AperFunction*
G04 #@! TA.AperFunction,Conductor*
G36*
X136301992Y-96427641D02*
G01*
X136329136Y-96460175D01*
X136339122Y-96477472D01*
X136339124Y-96477474D01*
X136478681Y-96617031D01*
X136512166Y-96678354D01*
X136515000Y-96704712D01*
X136515000Y-98589839D01*
X136495315Y-98656878D01*
X136478681Y-98677520D01*
X135698066Y-99458134D01*
X135636743Y-99491619D01*
X135567051Y-99486635D01*
X135511118Y-99444763D01*
X135495824Y-99417905D01*
X135450856Y-99309342D01*
X135450855Y-99309341D01*
X135450855Y-99309340D01*
X135354601Y-99183899D01*
X135229160Y-99087645D01*
X135083081Y-99027137D01*
X135083079Y-99027136D01*
X134926320Y-99006499D01*
X134926318Y-99006499D01*
X134769558Y-99027136D01*
X134769556Y-99027137D01*
X134623479Y-99087644D01*
X134498035Y-99183900D01*
X134401784Y-99309337D01*
X134375214Y-99373480D01*
X134348335Y-99413705D01*
X132843772Y-100918269D01*
X132843768Y-100918275D01*
X132792295Y-101007428D01*
X132792294Y-101007429D01*
X132791021Y-101012182D01*
X132777586Y-101062322D01*
X132777586Y-101062323D01*
X132777585Y-101062322D01*
X132765648Y-101106874D01*
X132765648Y-102383957D01*
X132745963Y-102450996D01*
X132729329Y-102471638D01*
X131787478Y-103413488D01*
X131787472Y-103413496D01*
X131747985Y-103472592D01*
X131729437Y-103565847D01*
X131747985Y-103659101D01*
X131787472Y-103718197D01*
X131787478Y-103718205D01*
X132155221Y-104085948D01*
X132155229Y-104085954D01*
X132214323Y-104125440D01*
X132214325Y-104125440D01*
X132214327Y-104125442D01*
X132215924Y-104125759D01*
X132219080Y-104127410D01*
X132225612Y-104130116D01*
X132225369Y-104130700D01*
X132277835Y-104158143D01*
X132312410Y-104218858D01*
X132313351Y-104223184D01*
X132313669Y-104224784D01*
X132313670Y-104224787D01*
X132353156Y-104283882D01*
X132353163Y-104283891D01*
X132720907Y-104651635D01*
X132720910Y-104651637D01*
X132764837Y-104680988D01*
X132809642Y-104734599D01*
X132818349Y-104803924D01*
X132788195Y-104866952D01*
X132740742Y-104899716D01*
X132712865Y-104910515D01*
X132693109Y-104926164D01*
X132693101Y-104926171D01*
X132380969Y-105238303D01*
X132380962Y-105238311D01*
X132365313Y-105258068D01*
X132324181Y-105364239D01*
X132281608Y-105419640D01*
X132253350Y-105435070D01*
X132147181Y-105476201D01*
X132127424Y-105491850D01*
X132127416Y-105491857D01*
X131815284Y-105803989D01*
X131815277Y-105803997D01*
X131799628Y-105823754D01*
X131758497Y-105929923D01*
X131715924Y-105985324D01*
X131687666Y-106000754D01*
X131581495Y-106041886D01*
X131561738Y-106057535D01*
X131561730Y-106057542D01*
X131249598Y-106369674D01*
X131249591Y-106369682D01*
X131233942Y-106389438D01*
X131200829Y-106474911D01*
X131158255Y-106530312D01*
X131092488Y-106553901D01*
X131061112Y-106550705D01*
X131061083Y-106550929D01*
X131053490Y-106549929D01*
X131053115Y-106549891D01*
X131053032Y-106549868D01*
X131053029Y-106549868D01*
X129425177Y-106549868D01*
X129358138Y-106530183D01*
X129312383Y-106477379D01*
X129302439Y-106408221D01*
X129317790Y-106363869D01*
X129348471Y-106310725D01*
X129370954Y-106271784D01*
X129397601Y-106172340D01*
X129397601Y-106069388D01*
X129397601Y-106061793D01*
X129397600Y-106061775D01*
X129397600Y-104239926D01*
X129417285Y-104172887D01*
X129470089Y-104127132D01*
X129539247Y-104117188D01*
X129569047Y-104125363D01*
X129640338Y-104154893D01*
X129718719Y-104165212D01*
X129797099Y-104175531D01*
X129797100Y-104175531D01*
X129797101Y-104175531D01*
X129849354Y-104168651D01*
X129953862Y-104154893D01*
X130099941Y-104094385D01*
X130225382Y-103998131D01*
X130321636Y-103872690D01*
X130333893Y-103843096D01*
X130360770Y-103802871D01*
X131118173Y-103045468D01*
X131179494Y-103011985D01*
X131181536Y-103011559D01*
X131269462Y-102994071D01*
X131328564Y-102954580D01*
X132346851Y-101936293D01*
X132386342Y-101877191D01*
X132404890Y-101783938D01*
X132398594Y-101752284D01*
X132400437Y-101696002D01*
X132416278Y-101636883D01*
X132416278Y-101533931D01*
X132389632Y-101434486D01*
X132338156Y-101345327D01*
X132265358Y-101272529D01*
X132191214Y-101229722D01*
X132176201Y-101221054D01*
X132176200Y-101221053D01*
X132176199Y-101221053D01*
X132076754Y-101194407D01*
X131973802Y-101194407D01*
X131973796Y-101194407D01*
X131914680Y-101210247D01*
X131858401Y-101212090D01*
X131826748Y-101205795D01*
X131826747Y-101205795D01*
X131804364Y-101210247D01*
X131733492Y-101224343D01*
X131674396Y-101263830D01*
X131674388Y-101263836D01*
X130656107Y-102282117D01*
X130656101Y-102282125D01*
X130616614Y-102341221D01*
X130599151Y-102429020D01*
X130566766Y-102490932D01*
X130565215Y-102492511D01*
X130399780Y-102657945D01*
X130338458Y-102691430D01*
X130268767Y-102686446D01*
X130212833Y-102644575D01*
X130188416Y-102579110D01*
X130188100Y-102570264D01*
X130188100Y-101883665D01*
X130207785Y-101816626D01*
X130224419Y-101795984D01*
X131215477Y-100804926D01*
X131215480Y-100804923D01*
X131254971Y-100745821D01*
X131273519Y-100652568D01*
X131267223Y-100620914D01*
X131269066Y-100564632D01*
X131284907Y-100505513D01*
X131284907Y-100402561D01*
X131258261Y-100303116D01*
X131206785Y-100213957D01*
X131133987Y-100141159D01*
X131044830Y-100089684D01*
X131044829Y-100089683D01*
X130995594Y-100076491D01*
X130964428Y-100068140D01*
X130904770Y-100031776D01*
X130874241Y-99968929D01*
X130882536Y-99899553D01*
X130908841Y-99860687D01*
X131828118Y-98941409D01*
X131828123Y-98941406D01*
X131838326Y-98931202D01*
X131838328Y-98931202D01*
X131911126Y-98858404D01*
X131962602Y-98769244D01*
X131966648Y-98754146D01*
X131989249Y-98669800D01*
X131989249Y-98566848D01*
X131989249Y-98559253D01*
X131989248Y-98559235D01*
X131989248Y-98354269D01*
X132008933Y-98287230D01*
X132025567Y-98266588D01*
X132467807Y-97824348D01*
X132467825Y-97824330D01*
X132487326Y-97800792D01*
X132496632Y-97781469D01*
X132546248Y-97678439D01*
X132546249Y-97678437D01*
X132566490Y-97544150D01*
X132546249Y-97409863D01*
X132546247Y-97409859D01*
X132544307Y-97403569D01*
X132543357Y-97333705D01*
X132575117Y-97279337D01*
X133326795Y-96527660D01*
X133388118Y-96494175D01*
X133414476Y-96491341D01*
X134827469Y-96491341D01*
X134894508Y-96511026D01*
X134927453Y-96544305D01*
X134928058Y-96543824D01*
X134932399Y-96549267D01*
X134932401Y-96549270D01*
X135046412Y-96663281D01*
X135099469Y-96696619D01*
X135160564Y-96735008D01*
X135182933Y-96749063D01*
X135335120Y-96802315D01*
X135335121Y-96802315D01*
X135335124Y-96802316D01*
X135495338Y-96820368D01*
X135495341Y-96820368D01*
X135495344Y-96820368D01*
X135655557Y-96802316D01*
X135655558Y-96802315D01*
X135655562Y-96802315D01*
X135807749Y-96749063D01*
X135944270Y-96663281D01*
X136058281Y-96549270D01*
X136116757Y-96456206D01*
X136169090Y-96409915D01*
X136238144Y-96399266D01*
X136301992Y-96427641D01*
G37*
G04 #@! TD.AperFunction*
G04 #@! TA.AperFunction,Conductor*
G36*
X110837961Y-100352102D02*
G01*
X110881756Y-100380395D01*
X111536368Y-101035007D01*
X111625527Y-101086483D01*
X111724972Y-101113129D01*
X114091847Y-101113129D01*
X114158886Y-101132814D01*
X114204641Y-101185618D01*
X114214585Y-101254776D01*
X114185560Y-101318332D01*
X114179528Y-101324810D01*
X114074766Y-101429571D01*
X114074763Y-101429575D01*
X114055530Y-101452786D01*
X113997426Y-101573443D01*
X113977467Y-101705868D01*
X113977467Y-101705869D01*
X113997426Y-101838294D01*
X114055530Y-101958951D01*
X114074763Y-101982162D01*
X114074766Y-101982166D01*
X114152515Y-102059915D01*
X114186000Y-102121238D01*
X114181016Y-102190930D01*
X114152515Y-102235277D01*
X113707812Y-102679980D01*
X113646489Y-102713465D01*
X113576797Y-102708481D01*
X113541019Y-102687784D01*
X113516832Y-102667744D01*
X113394474Y-102608818D01*
X113260187Y-102588579D01*
X113125900Y-102608818D01*
X113003539Y-102667746D01*
X112980017Y-102687235D01*
X112820748Y-102846504D01*
X112759425Y-102879988D01*
X112689733Y-102875004D01*
X112633800Y-102833132D01*
X112613292Y-102790914D01*
X112607913Y-102770839D01*
X112607912Y-102770837D01*
X112598718Y-102754913D01*
X112598718Y-102754912D01*
X112598717Y-102754911D01*
X112556437Y-102681679D01*
X112483639Y-102608881D01*
X112483638Y-102608880D01*
X112479308Y-102604550D01*
X112479297Y-102604540D01*
X110461206Y-100586448D01*
X110427721Y-100525125D01*
X110432705Y-100455433D01*
X110474577Y-100399500D01*
X110540041Y-100375083D01*
X110548887Y-100374767D01*
X110636655Y-100374767D01*
X110636656Y-100374767D01*
X110768297Y-100346786D01*
X110837961Y-100352102D01*
G37*
G04 #@! TD.AperFunction*
G04 #@! TA.AperFunction,Conductor*
G36*
X111379039Y-97682933D02*
G01*
X111434973Y-97724804D01*
X111459027Y-97786152D01*
X111468716Y-97878336D01*
X111468717Y-97878338D01*
X111468717Y-97878340D01*
X111526233Y-98055359D01*
X111526236Y-98055365D01*
X111619306Y-98216567D01*
X111658680Y-98260296D01*
X111743852Y-98354891D01*
X111743855Y-98354893D01*
X111743858Y-98354896D01*
X111868272Y-98445288D01*
X111894448Y-98464306D01*
X112064489Y-98540014D01*
X112064495Y-98540016D01*
X112246567Y-98578716D01*
X112246568Y-98578716D01*
X112432706Y-98578716D01*
X112432707Y-98578716D01*
X112564348Y-98550735D01*
X112634012Y-98556051D01*
X112677807Y-98584344D01*
X113559391Y-99465928D01*
X113559392Y-99465929D01*
X113632190Y-99538727D01*
X113721350Y-99590203D01*
X113820794Y-99616849D01*
X113923746Y-99616849D01*
X117339195Y-99616849D01*
X117406234Y-99636534D01*
X117426876Y-99653168D01*
X117828424Y-100054716D01*
X117851961Y-100074217D01*
X117974316Y-100133140D01*
X118108604Y-100153381D01*
X118242891Y-100133140D01*
X118365246Y-100074217D01*
X118388783Y-100054716D01*
X118790331Y-99653168D01*
X118851654Y-99619683D01*
X118878012Y-99616849D01*
X119179601Y-99616849D01*
X119246640Y-99636534D01*
X119267282Y-99653168D01*
X120566535Y-100952421D01*
X120600020Y-101013744D01*
X120602854Y-101040102D01*
X120602854Y-101041466D01*
X120619734Y-101169685D01*
X120608968Y-101238720D01*
X120562588Y-101290976D01*
X120495319Y-101309861D01*
X120428519Y-101289380D01*
X120398422Y-101261360D01*
X120378979Y-101236021D01*
X120253538Y-101139767D01*
X120216144Y-101124278D01*
X120107459Y-101079259D01*
X120107457Y-101079258D01*
X119950698Y-101058621D01*
X119950696Y-101058621D01*
X119793936Y-101079258D01*
X119793934Y-101079259D01*
X119647857Y-101139766D01*
X119522411Y-101236024D01*
X119521445Y-101236991D01*
X119520430Y-101237544D01*
X119515968Y-101240969D01*
X119515433Y-101240272D01*
X119460119Y-101270471D01*
X119433770Y-101273303D01*
X116184883Y-101273303D01*
X116117844Y-101253618D01*
X116097202Y-101236984D01*
X115269471Y-100409253D01*
X115269469Y-100409251D01*
X115180310Y-100357775D01*
X115080865Y-100331129D01*
X115080864Y-100331129D01*
X111989768Y-100331129D01*
X111922729Y-100311444D01*
X111902087Y-100294810D01*
X111435660Y-99828383D01*
X111402175Y-99767060D01*
X111405409Y-99702385D01*
X111414507Y-99674387D01*
X111433964Y-99489267D01*
X111414507Y-99304147D01*
X111356987Y-99127118D01*
X111263917Y-98965916D01*
X111211134Y-98907295D01*
X111139370Y-98827591D01*
X111139367Y-98827589D01*
X111139366Y-98827588D01*
X111139365Y-98827587D01*
X111000013Y-98726342D01*
X110988774Y-98718176D01*
X110818733Y-98642468D01*
X110818727Y-98642466D01*
X110646912Y-98605947D01*
X110636656Y-98603767D01*
X110636655Y-98603767D01*
X110630299Y-98602416D01*
X110630803Y-98600043D01*
X110576334Y-98577625D01*
X110536357Y-98520322D01*
X110533706Y-98450503D01*
X110566242Y-98393218D01*
X110591542Y-98367919D01*
X110802878Y-98156583D01*
X111248027Y-97711432D01*
X111309348Y-97677949D01*
X111379039Y-97682933D01*
G37*
G04 #@! TD.AperFunction*
G04 #@! TA.AperFunction,Conductor*
G36*
X115882489Y-92309455D02*
G01*
X115903131Y-92326089D01*
X120501753Y-96924711D01*
X120535238Y-96986034D01*
X120530254Y-97055726D01*
X120488382Y-97111659D01*
X120422918Y-97136076D01*
X120414072Y-97136392D01*
X120390239Y-97136392D01*
X120390223Y-97136393D01*
X120054047Y-97136393D01*
X119987008Y-97116708D01*
X119966366Y-97100074D01*
X119661580Y-96795288D01*
X119661576Y-96795284D01*
X119638039Y-96775783D01*
X119638038Y-96775782D01*
X119563795Y-96740029D01*
X119515684Y-96716860D01*
X119381396Y-96696619D01*
X119247109Y-96716860D01*
X119124754Y-96775782D01*
X119101212Y-96795288D01*
X118529502Y-97366998D01*
X118509996Y-97390540D01*
X118453385Y-97508096D01*
X118451074Y-97512895D01*
X118430833Y-97647182D01*
X118451074Y-97781470D01*
X118471710Y-97824321D01*
X118509996Y-97903824D01*
X118509997Y-97903825D01*
X118529498Y-97927362D01*
X118529502Y-97927366D01*
X119225304Y-98623168D01*
X119258789Y-98684491D01*
X119253805Y-98754183D01*
X119211933Y-98810116D01*
X119146469Y-98834533D01*
X119137623Y-98834849D01*
X118924075Y-98834849D01*
X118857036Y-98815164D01*
X118836394Y-98798530D01*
X118247366Y-98209502D01*
X118247362Y-98209498D01*
X118223825Y-98189997D01*
X118223824Y-98189996D01*
X118154224Y-98156479D01*
X118101470Y-98131074D01*
X117967182Y-98110833D01*
X117832895Y-98131074D01*
X117710540Y-98189996D01*
X117686998Y-98209502D01*
X117115277Y-98781223D01*
X117108039Y-98789961D01*
X117050110Y-98829025D01*
X117012555Y-98834849D01*
X114085590Y-98834849D01*
X114018551Y-98815164D01*
X113997909Y-98798530D01*
X113231711Y-98032332D01*
X113198226Y-97971009D01*
X113201460Y-97906334D01*
X113210558Y-97878336D01*
X113230015Y-97693216D01*
X113210558Y-97508096D01*
X113153038Y-97331067D01*
X113059968Y-97169865D01*
X112997361Y-97100333D01*
X112935421Y-97031540D01*
X112935418Y-97031538D01*
X112935417Y-97031537D01*
X112935416Y-97031536D01*
X112784826Y-96922126D01*
X112784825Y-96922125D01*
X112614784Y-96846417D01*
X112614778Y-96846415D01*
X112463081Y-96814172D01*
X112432707Y-96807716D01*
X112432706Y-96807716D01*
X112426350Y-96806365D01*
X112426854Y-96803992D01*
X112372385Y-96781574D01*
X112332408Y-96724271D01*
X112329757Y-96654452D01*
X112362293Y-96597167D01*
X112519544Y-96439916D01*
X112915178Y-96044283D01*
X112966654Y-95955124D01*
X112993300Y-95855679D01*
X112993300Y-95752727D01*
X112993300Y-95011842D01*
X113012985Y-94944803D01*
X113065789Y-94899048D01*
X113134947Y-94889104D01*
X113198503Y-94918129D01*
X113204981Y-94924161D01*
X113480004Y-95199184D01*
X113480017Y-95199196D01*
X113503539Y-95218685D01*
X113503541Y-95218686D01*
X113503545Y-95218689D01*
X113625900Y-95277613D01*
X113760187Y-95297853D01*
X113894475Y-95277613D01*
X114016830Y-95218689D01*
X114040367Y-95199188D01*
X114040371Y-95199184D01*
X114041017Y-95198649D01*
X114105198Y-95171034D01*
X114174121Y-95182503D01*
X114207812Y-95206451D01*
X114571136Y-95569775D01*
X114604621Y-95631098D01*
X114599637Y-95700790D01*
X114576370Y-95738926D01*
X114576611Y-95739126D01*
X114575239Y-95740781D01*
X114575147Y-95740933D01*
X114574777Y-95741338D01*
X114555530Y-95764567D01*
X114497426Y-95885224D01*
X114477467Y-96017649D01*
X114477467Y-96017650D01*
X114497426Y-96150075D01*
X114555530Y-96270732D01*
X114574763Y-96293943D01*
X114574766Y-96293947D01*
X114995151Y-96714332D01*
X114995155Y-96714335D01*
X114995157Y-96714337D01*
X115009691Y-96726379D01*
X115018367Y-96733568D01*
X115018366Y-96733568D01*
X115118054Y-96781574D01*
X115139025Y-96791673D01*
X115271449Y-96811632D01*
X115403873Y-96791673D01*
X115524531Y-96733568D01*
X115547741Y-96714337D01*
X116268656Y-95993422D01*
X116287887Y-95970212D01*
X116345992Y-95849554D01*
X116365951Y-95717130D01*
X116363008Y-95697607D01*
X116360138Y-95678564D01*
X116345992Y-95584706D01*
X116327527Y-95546363D01*
X116287887Y-95464047D01*
X116268654Y-95440836D01*
X116268651Y-95440832D01*
X115848266Y-95020447D01*
X115848262Y-95020444D01*
X115825050Y-95001211D01*
X115825051Y-95001211D01*
X115704394Y-94943107D01*
X115571969Y-94923148D01*
X115439543Y-94943107D01*
X115318886Y-95001211D01*
X115295657Y-95020458D01*
X115295252Y-95020828D01*
X115295154Y-95020875D01*
X115293445Y-95022292D01*
X115293099Y-95021875D01*
X115232428Y-95051404D01*
X115163046Y-95043160D01*
X115124094Y-95016817D01*
X114760770Y-94653493D01*
X114727285Y-94592170D01*
X114732269Y-94522478D01*
X114752968Y-94486698D01*
X114753507Y-94486048D01*
X114773008Y-94462511D01*
X114831932Y-94340156D01*
X114852172Y-94205868D01*
X114847911Y-94177600D01*
X114831932Y-94071581D01*
X114822209Y-94051391D01*
X114773008Y-93949226D01*
X114773005Y-93949222D01*
X114773004Y-93949220D01*
X114753513Y-93925696D01*
X114753503Y-93925685D01*
X114305535Y-93477717D01*
X114305522Y-93477705D01*
X114282000Y-93458216D01*
X114281996Y-93458214D01*
X114281995Y-93458213D01*
X114196091Y-93416843D01*
X114159639Y-93399288D01*
X114025353Y-93379049D01*
X113891065Y-93399288D01*
X113768704Y-93458216D01*
X113745182Y-93477705D01*
X113745169Y-93477717D01*
X113204981Y-94017906D01*
X113143658Y-94051391D01*
X113073966Y-94046407D01*
X113018033Y-94004535D01*
X112993616Y-93939071D01*
X112993300Y-93930225D01*
X112993300Y-93716677D01*
X113012985Y-93649638D01*
X113029619Y-93628996D01*
X113241772Y-93416843D01*
X113463037Y-93195578D01*
X113482538Y-93172041D01*
X113541462Y-93049686D01*
X113561702Y-92915398D01*
X113561410Y-92913463D01*
X113541462Y-92781111D01*
X113518057Y-92732511D01*
X113482538Y-92658756D01*
X113482535Y-92658752D01*
X113482534Y-92658750D01*
X113463045Y-92635228D01*
X113463033Y-92635215D01*
X113329269Y-92501451D01*
X113295784Y-92440128D01*
X113300768Y-92370436D01*
X113342640Y-92314503D01*
X113408104Y-92290086D01*
X113416950Y-92289770D01*
X115815450Y-92289770D01*
X115882489Y-92309455D01*
G37*
G04 #@! TD.AperFunction*
G04 #@! TA.AperFunction,Conductor*
G36*
X111653746Y-93374971D02*
G01*
X111709679Y-93416843D01*
X111721746Y-93436715D01*
X111722063Y-93437208D01*
X111741554Y-93460733D01*
X111741566Y-93460746D01*
X112174981Y-93894161D01*
X112208466Y-93955484D01*
X112211300Y-93981842D01*
X112211300Y-95590883D01*
X112191615Y-95657922D01*
X112174981Y-95678564D01*
X110249920Y-97603625D01*
X109811967Y-98041577D01*
X109750644Y-98075062D01*
X109680952Y-98070078D01*
X109625019Y-98028206D01*
X109600602Y-97962742D01*
X109606354Y-97915580D01*
X109618456Y-97878336D01*
X109637913Y-97693216D01*
X109618456Y-97508096D01*
X109560936Y-97331067D01*
X109467866Y-97169865D01*
X109405259Y-97100333D01*
X109343319Y-97031540D01*
X109343316Y-97031538D01*
X109343315Y-97031537D01*
X109343314Y-97031536D01*
X109192724Y-96922126D01*
X109192723Y-96922125D01*
X109022682Y-96846417D01*
X109022676Y-96846415D01*
X108875307Y-96815092D01*
X108840605Y-96807716D01*
X108654465Y-96807716D01*
X108624091Y-96814172D01*
X108472393Y-96846415D01*
X108472391Y-96846416D01*
X108375904Y-96889375D01*
X108306654Y-96898659D01*
X108243377Y-96869030D01*
X108206165Y-96809895D01*
X108206830Y-96740029D01*
X108237785Y-96688417D01*
X111522731Y-93403471D01*
X111584054Y-93369987D01*
X111653746Y-93374971D01*
G37*
G04 #@! TD.AperFunction*
G04 #@! TA.AperFunction,Conductor*
G36*
X132804475Y-92057360D02*
G01*
X132809993Y-92062550D01*
X132896419Y-92148976D01*
X136082441Y-95334998D01*
X136115926Y-95396321D01*
X136110942Y-95466013D01*
X136069070Y-95521946D01*
X136003606Y-95546363D01*
X135935333Y-95531511D01*
X135928788Y-95527673D01*
X135807750Y-95451619D01*
X135655560Y-95398366D01*
X135655557Y-95398365D01*
X135495344Y-95380314D01*
X135495338Y-95380314D01*
X135335124Y-95398365D01*
X135335121Y-95398366D01*
X135182931Y-95451619D01*
X135046411Y-95537401D01*
X134932401Y-95651411D01*
X134928058Y-95656858D01*
X134927079Y-95656077D01*
X134880121Y-95697607D01*
X134827469Y-95709341D01*
X133149680Y-95709341D01*
X133050235Y-95735987D01*
X133050232Y-95735988D01*
X132961079Y-95787461D01*
X132961073Y-95787465D01*
X132022158Y-96726379D01*
X131960835Y-96759864D01*
X131897934Y-96757191D01*
X131891639Y-96755249D01*
X131757348Y-96735008D01*
X131623061Y-96755249D01*
X131623058Y-96755249D01*
X131493908Y-96817445D01*
X131492774Y-96815092D01*
X131437649Y-96831213D01*
X131370631Y-96811454D01*
X131324935Y-96758600D01*
X131315068Y-96689431D01*
X131329100Y-96651836D01*
X131327555Y-96651092D01*
X131389750Y-96521941D01*
X131389751Y-96521939D01*
X131409992Y-96387652D01*
X131389751Y-96253365D01*
X131389750Y-96253364D01*
X131389750Y-96253360D01*
X131387809Y-96247067D01*
X131386859Y-96177204D01*
X131418617Y-96122840D01*
X132357536Y-95183923D01*
X132409012Y-95094763D01*
X132435659Y-94995319D01*
X132435659Y-94892367D01*
X132435659Y-94884772D01*
X132435658Y-94884754D01*
X132435658Y-93317531D01*
X132455343Y-93250492D01*
X132488629Y-93217543D01*
X132488147Y-93216938D01*
X132493586Y-93212600D01*
X132493585Y-93212600D01*
X132493588Y-93212599D01*
X132607599Y-93098588D01*
X132693381Y-92962067D01*
X132746633Y-92809880D01*
X132749397Y-92785356D01*
X132764686Y-92649661D01*
X132764686Y-92649656D01*
X132746634Y-92489442D01*
X132746633Y-92489439D01*
X132701775Y-92361242D01*
X132693381Y-92337251D01*
X132686367Y-92326089D01*
X132617327Y-92216212D01*
X132598327Y-92148976D01*
X132618695Y-92082140D01*
X132671962Y-92036926D01*
X132741219Y-92027688D01*
X132804475Y-92057360D01*
G37*
G04 #@! TD.AperFunction*
M02*
