%TF.GenerationSoftware,KiCad,Pcbnew,8.0.1*%
%TF.CreationDate,2024-05-30T23:21:13+02:00*%
%TF.ProjectId,minisumo_pcb,6d696e69-7375-46d6-9f5f-7063622e6b69,rev?*%
%TF.SameCoordinates,Original*%
%TF.FileFunction,Soldermask,Bot*%
%TF.FilePolarity,Negative*%
%FSLAX46Y46*%
G04 Gerber Fmt 4.6, Leading zero omitted, Abs format (unit mm)*
G04 Created by KiCad (PCBNEW 8.0.1) date 2024-05-30 23:21:13*
%MOMM*%
%LPD*%
G01*
G04 APERTURE LIST*
G04 Aperture macros list*
%AMRoundRect*
0 Rectangle with rounded corners*
0 $1 Rounding radius*
0 $2 $3 $4 $5 $6 $7 $8 $9 X,Y pos of 4 corners*
0 Add a 4 corners polygon primitive as box body*
4,1,4,$2,$3,$4,$5,$6,$7,$8,$9,$2,$3,0*
0 Add four circle primitives for the rounded corners*
1,1,$1+$1,$2,$3*
1,1,$1+$1,$4,$5*
1,1,$1+$1,$6,$7*
1,1,$1+$1,$8,$9*
0 Add four rect primitives between the rounded corners*
20,1,$1+$1,$2,$3,$4,$5,0*
20,1,$1+$1,$4,$5,$6,$7,0*
20,1,$1+$1,$6,$7,$8,$9,0*
20,1,$1+$1,$8,$9,$2,$3,0*%
G04 Aperture macros list end*
%ADD10C,1.734000*%
%ADD11RoundRect,0.102000X-1.081873X0.000000X0.000000X-1.081873X1.081873X0.000000X0.000000X1.081873X0*%
%ADD12C,2.654000*%
%ADD13RoundRect,0.102000X-1.225000X-1.225000X1.225000X-1.225000X1.225000X1.225000X-1.225000X1.225000X0*%
%ADD14C,1.574000*%
%ADD15RoundRect,0.102000X0.968736X0.000000X0.000000X0.968736X-0.968736X0.000000X0.000000X-0.968736X0*%
%ADD16C,1.234000*%
%ADD17RoundRect,0.102000X-0.685000X-0.685000X0.685000X-0.685000X0.685000X0.685000X-0.685000X0.685000X0*%
%ADD18RoundRect,0.102000X-0.685000X0.685000X-0.685000X-0.685000X0.685000X-0.685000X0.685000X0.685000X0*%
%ADD19RoundRect,0.102000X0.000000X-0.968736X0.968736X0.000000X0.000000X0.968736X-0.968736X0.000000X0*%
%ADD20RoundRect,0.102000X0.000000X1.081873X-1.081873X0.000000X0.000000X-1.081873X1.081873X0.000000X0*%
%ADD21RoundRect,0.102000X0.685000X0.685000X-0.685000X0.685000X-0.685000X-0.685000X0.685000X-0.685000X0*%
%ADD22C,2.079000*%
%ADD23RoundRect,0.102000X0.000000X-1.081873X1.081873X0.000000X0.000000X1.081873X-1.081873X0.000000X0*%
%ADD24R,0.450000X1.750000*%
%ADD25RoundRect,0.250000X0.262500X0.450000X-0.262500X0.450000X-0.262500X-0.450000X0.262500X-0.450000X0*%
%ADD26RoundRect,0.250000X-0.159099X0.512652X-0.512652X0.159099X0.159099X-0.512652X0.512652X-0.159099X0*%
%ADD27RoundRect,0.197500X0.632500X-0.197500X0.632500X0.197500X-0.632500X0.197500X-0.632500X-0.197500X0*%
%ADD28RoundRect,0.250000X-0.262500X-0.450000X0.262500X-0.450000X0.262500X0.450000X-0.262500X0.450000X0*%
%ADD29RoundRect,0.250000X0.512652X0.159099X0.159099X0.512652X-0.512652X-0.159099X-0.159099X-0.512652X0*%
%ADD30RoundRect,0.250000X0.945755X0.362392X0.362392X0.945755X-0.945755X-0.362392X-0.362392X-0.945755X0*%
%ADD31RoundRect,0.250000X0.475000X-0.250000X0.475000X0.250000X-0.475000X0.250000X-0.475000X-0.250000X0*%
%ADD32RoundRect,0.250000X-0.362392X0.945755X-0.945755X0.362392X0.362392X-0.945755X0.945755X-0.362392X0*%
%ADD33RoundRect,0.250000X0.362392X-0.945755X0.945755X-0.362392X-0.362392X0.945755X-0.945755X0.362392X0*%
%ADD34RoundRect,0.250000X-0.412500X-0.925000X0.412500X-0.925000X0.412500X0.925000X-0.412500X0.925000X0*%
%ADD35RoundRect,0.150000X-0.150000X0.512500X-0.150000X-0.512500X0.150000X-0.512500X0.150000X0.512500X0*%
%ADD36RoundRect,0.250000X0.159099X-0.512652X0.512652X-0.159099X-0.159099X0.512652X-0.512652X0.159099X0*%
%ADD37RoundRect,0.197500X0.197500X0.632500X-0.197500X0.632500X-0.197500X-0.632500X0.197500X-0.632500X0*%
%ADD38RoundRect,0.250000X0.450000X-0.262500X0.450000X0.262500X-0.450000X0.262500X-0.450000X-0.262500X0*%
%ADD39RoundRect,0.500000X1.400000X-0.500000X1.400000X0.500000X-1.400000X0.500000X-1.400000X-0.500000X0*%
%ADD40RoundRect,0.375000X0.375000X-0.625000X0.375000X0.625000X-0.375000X0.625000X-0.375000X-0.625000X0*%
%ADD41RoundRect,0.250000X0.412500X0.925000X-0.412500X0.925000X-0.412500X-0.925000X0.412500X-0.925000X0*%
%ADD42RoundRect,0.250000X-0.132583X0.503814X-0.503814X0.132583X0.132583X-0.503814X0.503814X-0.132583X0*%
%ADD43RoundRect,0.250000X-0.450000X0.262500X-0.450000X-0.262500X0.450000X-0.262500X0.450000X0.262500X0*%
G04 APERTURE END LIST*
D10*
%TO.C,M2*%
X108849509Y-112295190D03*
D11*
X110645561Y-114091242D03*
%TD*%
D12*
%TO.C,S1*%
X113747535Y-78893216D03*
X113747535Y-74193216D03*
D13*
X113747535Y-69493216D03*
%TD*%
D14*
%TO.C,J2*%
X112043586Y-120989267D03*
X110247535Y-119193216D03*
D15*
X108451484Y-117397165D03*
%TD*%
D16*
%TO.C,Y1*%
X132044659Y-92649659D03*
X135495341Y-96100341D03*
%TD*%
D14*
%TO.C,ES1*%
X137577500Y-64673216D03*
X137577500Y-67213216D03*
X135037500Y-64673216D03*
X135037500Y-67213216D03*
X132497500Y-64673216D03*
D17*
X132497500Y-67213216D03*
%TD*%
D14*
%TO.C,ES3*%
X141605000Y-118397500D03*
X139065000Y-118397499D03*
X141605000Y-115857500D03*
X139065000Y-115857500D03*
X141605000Y-113317500D03*
D18*
X139065000Y-113317500D03*
%TD*%
D14*
%TO.C,Prog_Con1*%
X110543586Y-95897164D03*
X112339637Y-97693216D03*
X108747535Y-97693216D03*
X110543586Y-99489267D03*
X106951484Y-99489267D03*
D19*
X108747535Y-101285318D03*
%TD*%
D10*
%TO.C,BATT1*%
X110645561Y-84795190D03*
D20*
X108849509Y-86591242D03*
%TD*%
D14*
%TO.C,ES4*%
X128167535Y-143193216D03*
X128167535Y-140653216D03*
X130707535Y-143193216D03*
X130707535Y-140653216D03*
X133247535Y-143193216D03*
D21*
X133247535Y-140653216D03*
%TD*%
D14*
%TO.C,ES2*%
X144492500Y-75565000D03*
X144492501Y-73025000D03*
X147032500Y-75565000D03*
X147032500Y-73025000D03*
X149572500Y-75565000D03*
D21*
X149572500Y-73025000D03*
%TD*%
D22*
%TO.C,B1*%
X104497535Y-102193216D03*
X97997535Y-102193216D03*
%TD*%
D10*
%TO.C,M1*%
X108349509Y-92361242D03*
D23*
X110145561Y-90565190D03*
%TD*%
D24*
%TO.C,M_DRIVER2*%
X125225000Y-127200000D03*
X125875000Y-127200000D03*
X126525000Y-127199999D03*
X127175000Y-127200000D03*
X127824999Y-127200000D03*
X128475000Y-127200000D03*
X129125000Y-127200000D03*
X129775001Y-127200000D03*
X130425000Y-127200000D03*
X131075000Y-127199999D03*
X131725000Y-127200000D03*
X132375000Y-127200000D03*
X132375000Y-120000000D03*
X131725000Y-120000000D03*
X131075000Y-120000001D03*
X130425000Y-120000000D03*
X129775001Y-120000000D03*
X129125000Y-120000000D03*
X128475000Y-120000000D03*
X127824999Y-120000000D03*
X127175000Y-120000000D03*
X126525000Y-120000001D03*
X125875000Y-120000000D03*
X125225000Y-120000000D03*
%TD*%
D25*
%TO.C,R17*%
X87835035Y-104193216D03*
X89660035Y-104193216D03*
%TD*%
D26*
%TO.C,C29*%
X133577482Y-129565677D03*
X134920984Y-128222175D03*
%TD*%
D27*
%TO.C,LS1*%
X85247535Y-101293216D03*
X81247535Y-101293216D03*
X85247535Y-103093216D03*
X81247535Y-103093216D03*
%TD*%
D28*
%TO.C,R14*%
X149488284Y-138443216D03*
X147663284Y-138443216D03*
%TD*%
D26*
%TO.C,C28*%
X126977639Y-131479720D03*
X128321141Y-130136218D03*
%TD*%
D29*
%TO.C,C6*%
X130138249Y-88863249D03*
X131481751Y-90206751D03*
%TD*%
D30*
%TO.C,C5*%
X127635000Y-90170000D03*
X129809354Y-92344354D03*
%TD*%
D31*
%TO.C,C7*%
X142700000Y-103327501D03*
X142700000Y-105227499D03*
%TD*%
D32*
%TO.C,C27*%
X128612823Y-134087177D03*
X130787177Y-131912823D03*
%TD*%
D33*
%TO.C,C4*%
X144472177Y-89597823D03*
X142297823Y-91772177D03*
%TD*%
D34*
%TO.C,C10*%
X127837500Y-78693216D03*
X124762500Y-78693216D03*
%TD*%
D35*
%TO.C,Q1*%
X119200000Y-70400000D03*
X120149999Y-68125000D03*
X118250001Y-68125000D03*
%TD*%
D28*
%TO.C,R13*%
X153488284Y-136193216D03*
X151663284Y-136193216D03*
%TD*%
D32*
%TO.C,C30*%
X134929823Y-132455977D03*
X137104177Y-130281623D03*
%TD*%
D35*
%TO.C,INVERTER1*%
X138750001Y-105277500D03*
X139700000Y-105277500D03*
X140649999Y-105277500D03*
X140649999Y-103002500D03*
X139700000Y-103002500D03*
X138750001Y-103002500D03*
%TD*%
D36*
%TO.C,C3*%
X141006751Y-88863249D03*
X139663249Y-90206751D03*
%TD*%
D37*
%TO.C,LS3*%
X151642699Y-139116216D03*
X151642699Y-143116216D03*
X153442699Y-139116216D03*
X153442699Y-143116216D03*
%TD*%
D38*
%TO.C,R8*%
X148075784Y-60030716D03*
X148075784Y-61855716D03*
%TD*%
%TO.C,R19*%
X148075784Y-64780716D03*
X148075784Y-66605716D03*
%TD*%
D39*
%TO.C,U7*%
X126800000Y-69043217D03*
D40*
X124500000Y-75343216D03*
X126800000Y-75343215D03*
X129100000Y-75343216D03*
%TD*%
D41*
%TO.C,C9*%
X117962500Y-75200000D03*
X121037500Y-75200000D03*
%TD*%
D42*
%TO.C,R7*%
X121454765Y-83445235D03*
X122745235Y-82154765D03*
%TD*%
D43*
%TO.C,R20*%
X89600000Y-101912500D03*
X89600000Y-100087500D03*
%TD*%
D37*
%TO.C,LS2*%
X151447535Y-60693216D03*
X151447535Y-64693216D03*
X153247535Y-60693216D03*
X153247535Y-64693216D03*
%TD*%
D36*
%TO.C,C18*%
X122771751Y-97328249D03*
X121428249Y-98671751D03*
%TD*%
D24*
%TO.C,M_DRIVER1*%
X131997177Y-87247823D03*
X132647177Y-87247823D03*
X133297177Y-87247822D03*
X133947177Y-87247823D03*
X134597176Y-87247823D03*
X135247177Y-87247823D03*
X135897177Y-87247823D03*
X136547178Y-87247823D03*
X137197177Y-87247823D03*
X137847177Y-87247822D03*
X138497177Y-87247823D03*
X139147177Y-87247823D03*
X139147177Y-80047823D03*
X138497177Y-80047823D03*
X137847177Y-80047824D03*
X137197177Y-80047823D03*
X136547178Y-80047823D03*
X135897177Y-80047823D03*
X135247177Y-80047823D03*
X134597176Y-80047823D03*
X133947177Y-80047823D03*
X133297177Y-80047824D03*
X132647177Y-80047823D03*
X131997177Y-80047823D03*
%TD*%
M02*
